<svg id="Capa_1" enable-background="new 0 0 512 512" height="512" viewBox="0 0 512 512" width="512" xmlns="http://www.w3.org/2000/svg"><path d="m480.072 285.503-224.072-24.428-224.072 24.428s-1.118 30.325 8.38 66.05c9.46 35.581 41.951 60.16 78.768 60.16h273.847c36.817 0 69.308-24.58 78.768-60.16 9.499-35.724 8.381-66.05 8.381-66.05z" fill="#78cbec"/><path d="m70.308 351.553c-9.498-35.724-8.38-66.05-8.38-66.05l209.072-22.792-15-1.636-224.072 24.428s-1.118 30.326 8.38 66.05c9.46 35.581 41.951 60.161 78.768 60.161h30c-36.817-.001-69.308-24.58-78.768-60.161z" fill="#00acdc"/><path d="m487.576 243.471c-3.441-24.684-22.844-44.087-47.527-47.528l-.085-.012c-16.898-2.356-31.787-12.318-40.412-27.038-12.62-21.54-38.019-32.067-62.176-25.769l-.021.005c-16.495 4.3-34.051.818-47.657-9.451l-.106-.08c-19.881-15.005-47.302-15.005-67.183 0l-.105.079c-13.606 10.269-31.162 13.751-47.658 9.451l-.019-.005c-24.157-6.298-49.557 4.229-62.177 25.769-8.625 14.721-23.514 24.683-40.412 27.038l-.085.012c-24.684 3.441-44.087 22.844-47.528 47.527l-3.742 26.841 470.635.001z" fill="#f4e64c"/><path d="m50.683 270.31 3.742-26.84c3.441-24.684 22.844-44.086 47.528-47.528l.085-.012c16.898-2.355 31.787-12.317 40.412-27.038 7.516-12.829 19.565-21.748 33.185-25.536-.329-.08-.66-.143-.989-.228l-.019-.005c-24.157-6.298-49.557 4.229-62.177 25.769-8.625 14.721-23.514 24.683-40.412 27.038l-.085.012c-24.684 3.441-44.087 22.844-47.528 47.528l-3.742 26.84z" fill="#fab659"/><path d="m480.072 236.648h-448.144c-13.491 0-24.428 10.937-24.428 24.428 0 13.491 10.937 24.428 24.428 24.428h448.145c13.491 0 24.428-10.937 24.428-24.428-.001-13.492-10.938-24.428-24.429-24.428z" fill="#e2e2e2"/><path d="m37.5 261.076c0-13.491 10.937-24.428 24.428-24.428h-30c-13.491 0-24.428 10.937-24.428 24.428 0 13.491 10.937 24.427 24.428 24.427h30c-13.491 0-24.428-10.937-24.428-24.427z" fill="#c1bfc5"/><circle cx="256" cy="137.876" fill="#5c586f" r="37.589"/><path d="m276 155.464c-20.76 0-37.589-16.829-37.589-37.589 0-5.191 1.052-10.136 2.955-14.634-13.49 5.707-22.955 19.065-22.955 34.634 0 20.76 16.829 37.589 37.589 37.589 15.569 0 28.927-9.465 34.634-22.955-4.498 1.903-9.443 2.955-14.634 2.955z" fill="#423e4f"/><circle cx="105.551" cy="165.825" fill="#4f4c5f" r="37.589"/><path d="m125.551 183.413c-20.76 0-37.589-16.829-37.589-37.589 0-5.191 1.052-10.136 2.955-14.634-13.49 5.707-22.955 19.065-22.955 34.634 0 20.76 16.829 37.589 37.589 37.589 15.569 0 28.927-9.465 34.634-22.955-4.498 1.903-9.443 2.955-14.634 2.955z" fill="#423e4f"/><circle cx="406.449" cy="165.825" fill="#5c586f" r="37.589"/><path d="m426.449 183.413c-20.76 0-37.589-16.829-37.589-37.589 0-5.191 1.052-10.136 2.955-14.634-13.49 5.707-22.955 19.065-22.955 34.634 0 20.76 16.829 37.589 37.589 37.589 15.569 0 28.927-9.465 34.634-22.955-4.498 1.903-9.443 2.955-14.634 2.955z" fill="#423e4f"/><path d="m192.629 213.324c-3.726 0-7.453-1.421-10.296-4.265l-12.637-12.637c-5.686-5.686-5.686-14.905 0-20.591 5.686-5.687 14.906-5.687 20.591 0l12.637 12.637c5.686 5.686 5.686 14.905 0 20.591-2.842 2.844-6.569 4.265-10.295 4.265z" fill="#00cd8c"/><path d="m319.371 213.324c3.726 0 7.453-1.421 10.296-4.265l12.637-12.637c5.686-5.686 5.686-14.905 0-20.591-5.686-5.687-14.906-5.687-20.591 0l-12.637 12.637c-5.686 5.686-5.686 14.905 0 20.591 2.842 2.844 6.569 4.265 10.295 4.265z" fill="#00cd8c"/><path d="m161.816 330.2v15.688c0 4.142 3.358 7.5 7.5 7.5s7.5-3.358 7.5-7.5v-15.688c0-4.142-3.358-7.5-7.5-7.5s-7.5 3.358-7.5 7.5z"/><path d="m335.184 330.2v15.688c0 4.142 3.357 7.5 7.5 7.5 4.142 0 7.5-3.358 7.5-7.5v-15.688c0-4.142-3.358-7.5-7.5-7.5s-7.5 3.358-7.5 7.5z"/><path d="m271.748 339.861c-3.834 4.386-9.574 6.902-15.748 6.902-6.175 0-11.915-2.516-15.749-6.902-2.726-3.119-7.464-3.437-10.583-.711s-3.437 7.464-.711 10.583c6.683 7.645 16.539 12.03 27.042 12.03 10.502 0 20.358-4.385 27.041-12.03 2.726-3.119 2.408-7.856-.711-10.583-3.118-2.726-7.855-2.407-10.581.711z"/><path d="m177.03 214.362c8.434 8.434 22.663 8.537 31.198 0 8.602-8.601 8.602-22.597 0-31.198 0 0-12.63-12.63-12.637-12.637-8.503-8.503-22.706-8.495-31.198 0-8.602 8.601-8.602 22.597 0 31.198 0 0 12.634 12.634 12.637 12.637zm-2.03-33.228c2.725-2.725 7.265-2.72 9.984 0l12.637 12.637c2.753 2.753 2.753 7.231 0 9.985-2.727 2.728-7.262 2.722-9.985 0l-12.636-12.637c-2.753-2.753-2.753-7.232 0-9.985z"/><path d="m319.373 220.591c5.71.003 11.43-2.06 15.598-6.229l12.637-12.637c8.601-8.601 8.601-22.597.001-31.197-8.5-8.5-22.711-8.49-31.198-.001l-12.638 12.637c-8.601 8.601-8.601 22.596 0 31.197 4.135 4.137 9.863 6.227 15.6 6.23zm-4.995-26.82s12.617-12.617 12.638-12.638c2.724-2.724 7.263-2.722 9.985 0 2.752 2.753 2.752 7.232 0 9.985 0 0-12.624 12.624-12.638 12.638-2.727 2.727-7.26 2.724-9.985 0-2.752-2.753-2.752-7.232 0-9.985z"/><path d="m24.414 292.102c.201 11.186 1.557 34.714 8.646 61.378 10.29 38.703 45.661 65.733 86.016 65.733h217.098c4.142 0 7.5-3.358 7.5-7.5s-3.358-7.5-7.5-7.5h-217.098c-33.565 0-62.975-22.447-71.52-54.587-6.397-24.064-7.822-45.8-8.102-56.623h433.092c-.28 10.825-1.705 32.561-8.102 56.623-8.545 32.14-37.956 54.587-71.52 54.587h-26.819c-4.142 0-7.5 3.358-7.5 7.5s3.358 7.5 7.5 7.5h26.819c40.355 0 75.726-27.03 86.016-65.733 7.09-26.664 8.445-50.193 8.646-61.378 13.99-3.389 24.414-16.009 24.414-31.026 0-13.193-8.043-24.542-19.483-29.402-7.021-21.782-25.098-37.941-47.52-42.48 4.149-6.819 6.541-14.82 6.541-23.368 0-24.862-20.227-45.089-45.089-45.089-13.986 0-26.506 6.401-34.783 16.428-11.63-3.917-24.266-4.405-36.204-1.293-11.684 3.046-24.168 1.526-34.799-4.116-2.998-21.976-21.877-38.969-44.663-38.969s-41.665 16.992-44.663 38.968c-10.631 5.643-23.11 7.164-34.723 4.137-.032-.009-.064-.018-.097-.026-11.92-3.107-24.553-2.618-36.184 1.299-8.276-10.027-20.796-16.429-34.783-16.429-24.862 0-45.089 20.227-45.089 45.089 0 8.549 2.392 16.55 6.541 23.369-22.435 4.551-40.502 20.707-47.52 42.48-11.439 4.859-19.482 16.209-19.482 29.401 0 15.018 10.424 27.638 24.414 31.027zm382.035-156.366c16.591 0 30.089 13.498 30.089 30.089 0 16.143-13.838 30.053-30.021 30.087-.022 0-.045.001-.068.001-16.168.001-30.089-13.818-30.089-30.088 0-16.388 13.721-30.089 30.089-30.089zm-150.449-27.949c16.162 0 29.383 12.81 30.055 28.837.707 16.848-13.206 31.341-30.055 31.341-16.724 0-30.732-14.658-30.057-31.372.676-15.998 13.896-28.806 30.057-28.806zm-150.449 27.949c16.245 0 30.052 13.86 30.089 30.089.037 16.3-13.821 30.088-30.089 30.088-.023 0-.047-.001-.07-.001-16.348-.003-30.019-13.794-30.019-30.087 0-16.591 13.498-30.089 30.089-30.089zm-77.194 108.84c1.16-.278 2.356-.427 3.571-.428h98.861c4.047 0 7.5-3.458 7.5-7.5 0-4.026-3.468-7.5-7.5-7.5h-94.095c7.048-13.83 20.434-23.566 36.379-25.789 1.958-.273 3.931-.648 5.9-1.12 7.649 5.59 17.071 8.667 26.545 8.674h.033c12.07 0 23.039-4.776 31.14-12.527 8.585-8.214 13.949-19.77 13.949-32.561 0-5.214-.908-10.414-2.676-15.32 8.064-2.176 16.622-2.248 24.693-.145.032.009.064.018.097.026 13.052 3.403 26.868 2.476 39.29-2.445 3.416 14.964 14.859 27.602 29.354 32.596 4.679 1.612 9.653 2.428 14.602 2.428 20.653 0 39.311-14.892 43.956-35.023 12.423 4.92 26.243 5.846 39.31 2.439 8.132-2.12 16.702-2.052 24.771.125-2.927 8.104-3.451 17.009-1.525 25.404 4.619 20.139 23.163 35.004 43.938 35.004h.033c9.361 0 18.903-3.091 26.545-8.673 1.967.472 3.933.846 5.87 1.116.01.001.105.015.116.017 15.875 2.213 29.247 11.947 36.293 25.776h-314.95c-4.059 0-7.5 3.436-7.5 7.5 0 4.021 3.453 7.5 7.5 7.5h319.719c9.21 0 16.924 7.726 16.924 16.928 0 9.334-7.593 16.927-16.928 16.928h-448.145c-9.334 0-16.927-7.594-16.927-16.927 0-7.651 5.942-14.724 13.357-16.503z"/></svg>