<svg id="Capa_1" enable-background="new 0 0 512 512" height="512" viewBox="0 0 512 512" width="512" xmlns="http://www.w3.org/2000/svg"><circle cx="256" cy="256" fill="#fab659" r="248.5"/><path d="m37.5 256c0-132.205 103.244-240.278 233.5-248.036-4.964-.296-9.962-.464-15-.464-137.243 0-248.5 111.257-248.5 248.5s111.257 248.5 248.5 248.5c5.038 0 10.036-.167 15-.463-130.256-7.758-233.5-115.832-233.5-248.037z" fill="#ec8d00"/><circle cx="256" cy="256" fill="#e2e2e2" r="175.716"/><path d="m110.284 256c0-91.991 70.694-167.46 160.716-175.072-4.946-.418-9.946-.644-15-.644-97.045 0-175.716 78.671-175.716 175.716s78.671 175.716 175.716 175.716c5.054 0 10.054-.226 15-.644-90.022-7.612-160.716-83.08-160.716-175.072z" fill="#c1bfc5"/><path d="m199.433 199.434 56.567 56.566h-240z" fill="#78cbec"/><path d="m256 16v240l-56.567-56.566z" fill="#00acdc"/><path d="m256 256v240l-56.567-183.433z" fill="#78cbec"/><path d="m256 256-56.567 56.567-183.433-56.567z" fill="#00acdc"/><path d="m496 256-183.433 56.567-56.567-56.567z" fill="#78cbec"/><path d="m256 256 56.567 56.567-56.567 183.433z" fill="#00acdc"/><path d="m256 16 56.567 183.434-56.567 56.566z" fill="#78cbec"/><path d="m496 256h-240l56.567-56.566z" fill="#00acdc"/><path d="m256 182.85v73.15l-155.18-155.18z" fill="#f9496e"/><path d="m411.18 100.82-155.18 155.18v-73.15z" fill="#ff748f"/><path d="m256 256-155.18 155.18 82.03-155.18z" fill="#f9496e"/><path d="m256 256h-73.15l-82.03-155.18z" fill="#ff748f"/><path d="m411.18 411.18-155.18-82.03v-73.15z" fill="#f9496e"/><path d="m256 256v73.15l-155.18 82.03z" fill="#ff748f"/><path d="m411.18 100.82-82.03 155.18h-73.15z" fill="#f9496e"/><path d="m411.18 411.18-155.18-155.18h73.15z" fill="#ff748f"/><path d="m256 512c31.749 0 62.759-5.758 92.169-17.113 3.864-1.492 5.788-5.834 4.295-9.698-1.492-3.865-5.836-5.787-9.698-4.295-25.335 9.782-51.939 15.135-79.186 15.975l18.347-59.496c32.771-4.64 63.424-17.996 89.216-38.873 0 0 36.514 19.301 36.52 19.305 3.146 1.663 7.378.779 9.509-2.122 1.679-2.285 1.967-5.49.637-8.008l-19.309-36.531c20.877-25.792 34.233-56.444 38.874-89.216l59.503-18.349c-2.688 86.403-51.212 164.606-128.006 205.393-3.658 1.943-5.049 6.483-3.106 10.141 1.919 3.612 6.539 5.021 10.142 3.106 83.945-44.586 136.093-131.268 136.093-226.219 0-68.38-26.628-132.667-74.981-181.02-48.352-48.352-112.639-74.98-181.019-74.98-33.307 0-65.734 6.32-96.383 18.786-3.837 1.561-5.682 5.936-4.122 9.773s5.937 5.682 9.773 4.122c26.515-10.784 54.454-16.667 83.151-17.55l-18.347 59.496c-32.771 4.64-63.423 17.996-89.216 38.873 0 0-36.531-19.311-36.531-19.311-2.931-1.558-6.817-.864-9.047 1.582-2.092 2.294-2.545 5.811-1.089 8.554l19.311 36.531c-20.877 25.792-34.234 56.444-38.873 89.216l-59.504 18.35c2.674-85.494 50.437-163.29 126.013-204.342 3.64-1.977 4.988-6.53 3.011-10.17s-6.531-4.987-10.17-3.01c-82.64 44.888-133.977 131.142-133.977 225.1 0 68.38 26.629 132.667 74.981 181.02s112.639 74.98 181.019 74.98zm-240.87-248.42 59.497 18.348c4.64 32.772 17.996 63.424 38.873 89.216 0 0-19.31 36.53-19.311 36.531-1.621 3.063-.858 7.096 1.883 9.303 2.327 1.873 5.615 2.232 8.261.828l36.523-19.306c25.792 20.876 56.444 34.233 89.216 38.873l18.347 59.497c-61.532-1.889-119.105-26.729-162.833-70.457-43.726-43.727-68.567-101.301-70.456-162.833zm271.729-172.961c25.314 4.685 49.083 15.099 69.75 30.563l-51.87 27.419zm-38.359 355.61-27.743-89.965 27.743-14.665zm-99.898-141.489-27.419 51.871c-15.465-20.668-25.879-44.438-30.563-69.751zm222.081-174.029-107.183 107.183v-50.525zm-46.052 117.789h-50.524l107.181-107.181zm-76.131 25.606v50.525l-107.183 56.658zm-10.606-25.606h-50.524l-56.658-107.183zm-50.525 15h50.525l-107.183 107.183zm19.891 99.898 17.881 57.982c-25.314-4.685-49.082-15.099-69.751-30.563zm56.24-21.8 27.743 14.665-27.743 89.965zm0-16.967v-50.525l107.183 107.183zm117.788 46.05-107.182-107.181h50.524zm-25.025-149.924 89.965 27.743h-104.63zm7.135-13.497 27.419-51.871c15.465 20.668 25.879 44.437 30.564 69.751zm-72.155-51.523-27.743 14.665v-104.63zm-42.743 14.665-27.743-14.665 27.743-89.965zm0 16.967v50.525l-107.182-107.183zm-92.763 103.874-89.965-27.743h104.63zm131.122 130.138 17.88-57.983 51.871 27.419c-20.669 15.465-44.437 25.88-69.751 30.564zm103.958-64.771-27.419-51.871 57.983-17.88c-4.685 25.314-15.099 49.083-30.564 69.751zm-34.554-65.367-14.665-27.743h104.63zm140.607-42.823-59.496-18.347c-4.64-32.772-17.997-63.425-38.874-89.216 0 0 19.309-36.527 19.311-36.531 1.407-2.661 1.032-6.046-.907-8.342-2.231-2.641-6.172-3.411-9.228-1.793l-36.532 19.309c-25.792-20.877-56.444-34.233-89.216-38.874l-18.348-59.496c61.532 1.889 119.105 26.729 162.832 70.457 43.728 43.727 68.569 101.301 70.458 162.833zm-271.729-157.801-17.88 57.983-51.871-27.419c20.669-15.465 44.437-25.88 69.751-30.564zm-103.958 64.771 27.419 51.871-57.983 17.88c4.684-25.314 15.099-49.083 30.564-69.751zm34.554 65.367 14.666 27.743h-104.631z"/></svg>