<svg id="Capa_1" enable-background="new 0 0 512 512" height="512" viewBox="0 0 512 512" width="512" xmlns="http://www.w3.org/2000/svg"><path d="m429.129 170.915c-9.436-7.961-15.821-18.946-18.069-31.085l-3.989-21.542c-1.967-10.62-7.108-20.395-14.746-28.032l-11.484-11.484c-11.205-11.205-26.807-16.854-42.588-15.419l-27.326 2.484c-11.041 1.004-22.12-1.454-31.701-7.033l-58.477-34.05c-6.352-3.698-13.399-6.046-20.7-6.895l-68.2-7.93c-7.195-.837-14.485-.201-21.427 1.87l-37.672 11.237c-7.619 2.272-15.649 2.814-23.503 1.587l-41.747-6.524v261.851l36.901 24.401h142.602v-54.025c0-38.106 30.891-68.997 68.997-68.997 38.106 0 68.997 30.891 68.997 68.997v54.025h123.093v-92.628c0-15.732-6.938-30.663-18.961-40.808z" fill="#fab659"/><path d="m187.003 304.35v-54.024c0-2.458.134-4.885.385-7.277-.795-.015-1.591-.028-2.388-.028-16.112 0-31.852 3.072-46.782 9.131-7.729 3.137-15.877 4.727-24.218 4.727s-16.489-1.59-24.218-4.727c-14.93-6.059-30.669-9.131-46.782-9.131-12.106 0-24.001 1.735-35.5 5.167v31.762l36.901 24.401h142.602z" fill="#ec8d00"/><path d="m448.09 304.35v-59.57c-8.828 1.503-17.478 3.965-25.872 7.372-7.729 3.137-15.877 4.727-24.218 4.727s-16.489-1.59-24.218-4.727c-14.93-6.059-30.669-9.131-46.782-9.131-.797 0-1.592.013-2.388.028.251 2.392.385 4.819.385 7.277v54.024z" fill="#ec8d00"/><path d="m7.5 279.949c22.765-9.239 48.235-9.239 71 0 22.765 9.239 48.235 9.239 71 0 22.765-9.239 48.235-9.239 71 0 22.765 9.239 48.235 9.239 71 0 22.765-9.239 48.235-9.239 71 0 22.765 9.239 48.235 9.239 71 0 22.765-9.239 48.235-9.239 71 0v74.159l-248.5 42.514-248.5-42.513z" fill="#a7e0f5"/><path d="m7.5 354.109c22.765-9.239 48.235-9.239 71 0 22.765 9.239 48.235 9.239 71 0 22.765-9.239 48.235-9.239 71 0 22.765 9.239 48.235 9.239 71 0 22.765-9.239 48.235-9.239 71 0 22.765 9.239 48.235 9.239 71 0 22.765-9.239 48.235-9.239 71 0v74.159l-248.5 33.615-248.5-33.615z" fill="#78cbec"/><path d="m7.5 502.427h497v-74.159c-22.765-9.239-48.235-9.239-71 0-22.765 9.239-48.235 9.239-71 0-22.765-9.239-48.235-9.239-71 0-22.765 9.239-48.235 9.239-71 0-22.765-9.239-48.235-9.239-71 0-22.765 9.239-48.235 9.239-71 0-22.765-9.239-48.235-9.239-71 0z" fill="#00acdc"/><path d="m78 131.328c4.142 0 7.5-3.358 7.5-7.5v-16.108c0-4.142-3.358-7.5-7.5-7.5s-7.5 3.358-7.5 7.5v16.107c0 4.143 3.358 7.501 7.5 7.501z"/><path d="m256 131.328c4.142 0 7.5-3.358 7.5-7.5v-16.108c0-4.142-3.358-7.5-7.5-7.5s-7.5 3.358-7.5 7.5v16.107c0 4.143 3.358 7.501 7.5 7.501z"/><path d="m167 139.926c10.725 0 20.79-4.477 27.613-12.282 2.726-3.119 2.408-7.857-.71-10.583s-7.857-2.408-10.583.71c-3.975 4.547-9.923 7.155-16.32 7.155s-12.346-2.608-16.32-7.155c-2.726-3.119-7.464-3.437-10.583-.711s-3.437 7.464-.711 10.583c6.824 7.806 16.889 12.283 27.614 12.283z"/><path d="m7.5 509.93h497c4.142 0 7.5-3.358 7.5-7.5v-222.478c0-3.053-1.851-5.801-4.68-6.95-16.618-6.744-34.369-8.945-51.73-6.619v-54.658c0-17.981-7.882-34.944-21.625-46.54-8.088-6.824-13.604-16.313-15.53-26.719l-3.989-21.542c-2.253-12.166-8.068-23.221-16.817-31.969l-11.484-11.484c-12.816-12.816-30.515-19.226-48.57-17.585l-27.326 2.484c-9.544.867-18.967-1.223-27.248-6.045l-58.476-34.049c-7.288-4.244-15.231-6.89-23.608-7.863l-68.199-7.93c-8.252-.96-16.474-.243-24.437 2.132l-37.674 11.236c-6.507 1.941-13.494 2.412-20.202 1.364 0 0-41.694-6.516-41.747-6.524-4.47-.699-8.658 2.894-8.658 7.41v261.851 222.478c0 4.142 3.358 7.5 7.5 7.5zm7.5-15v-61.441c15.586-5.319 32.637-5.989 48.639-2.163 6.175 1.476 11.909 4.041 17.9 6.062 21.152 7.134 43.806 7.13 64.956-.011 24.148-8.153 46.76-12.069 71.186-2.156 24.424 9.912 52.224 9.909 76.641 0 16.656-6.759 34.738-8.183 52.292-4.115 3.783.877 7.808-1.494 8.895-5.215 1.165-3.986-1.427-8.45-5.509-9.398-22.803-5.298-43.675-1.255-65.295 6.333-19.815 6.955-41.931 6.386-61.384-1.503-27.097-11-53.771-7.919-80.616 1.503-18.659 6.548-38.75 6.548-57.409 0-8.395-2.946-16.463-6.031-25.289-7.546-14.835-2.545-30.156-1.723-44.638 2.377-.122.035-.246.063-.368.098v-58.424c21.11-7.215 43.239-4.637 63.856 2.953 23.854 8.783 49.808 8.379 73.465-1.221 21.074-8.553 44.285-8.553 65.36 0 24.35 9.869 52.289 9.885 76.641-.001 20.692-8.398 44.476-8.476 65.359 0 24.326 9.86 52.311 9.867 76.641-.001 19.171-7.777 41.104-8.416 60.679-1.731v58.424c-.126-.036-.253-.065-.378-.1-21.636-6.05-45.12-4.788-65.942 3.668-16.574 6.727-34.576 8.167-52.061 4.166-3.944-.902-8.07 1.646-8.984 5.638-.908 3.971 1.68 8.078 5.638 8.984 20.266 4.638 41.785 2.929 61.048-4.89.01-.004.02-.007.03-.011 19.486-7.423 40.824-8.491 60.649-1.72v61.441zm482-209.776v58.44c-.128-.037-.257-.066-.384-.102-21.675-6.141-45.077-4.796-65.936 3.669-20.748 8.42-44.479 8.473-65.359 0-24.348-9.88-52.16-9.934-76.641 0-20.773 8.431-44.585 8.431-65.359 0-24.436-9.918-52.2-9.917-76.641 0-20.741 8.415-44.49 8.469-65.359 0-20.906-8.483-44.622-9.731-66.32-3.568v-58.425c14.498-4.954 30.324-6.016 45.334-2.907 5.213 1.08 10.381 2.627 15.315 4.628.01.004.02.007.03.012 24.711 10.029 51.93 10.029 76.641 0 20.811-8.446 44.554-8.447 65.36 0 24.711 10.029 51.93 10.03 76.641 0 20.592-8.358 44.676-8.413 65.359 0 24.347 9.904 52.185 9.925 76.641 0 19.249-7.816 41.015-8.461 60.678-1.747zm-482-258.29 33.089 5.171c8.903 1.391 18.172.765 26.805-1.81l37.673-11.236c6.001-1.79 12.197-2.33 18.417-1.607l68.2 7.93c6.313.734 12.299 2.728 17.792 5.926l58.477 34.05c10.988 6.398 23.489 9.172 36.154 8.021l27.326-2.484c13.602-1.237 26.946 3.594 36.605 13.253l11.484 11.484c6.594 6.594 10.977 14.925 12.675 24.094l3.989 21.542c2.556 13.807 9.874 26.397 20.606 35.453 10.357 8.739 16.298 21.523 16.298 35.075v57.833c-3.326.971-6.621 2.11-9.872 3.428-.013.005-.026.01-.039.016-20.876 8.468-44.485 8.459-65.359 0-10.436-4.236-21.576-6.752-32.823-7.366v-15.308c0-42.181-34.316-76.497-76.497-76.497-12.316 0-24.101 2.858-35.026 8.496-3.681 1.9-5.125 6.423-3.226 10.104s6.424 5.125 10.104 3.226c8.777-4.53 18.248-6.826 28.147-6.826 33.909 0 61.497 27.587 61.497 61.497v15.603c-9.783.926-19.479 3.281-28.817 7.071-21.074 8.552-44.285 8.553-65.359 0-9.338-3.79-19.034-6.145-28.817-7.07v-15.603c0-13.671 4.403-26.622 12.734-37.45 2.526-3.283 1.912-7.992-1.371-10.518s-7.992-1.912-10.518 1.371c-10.366 13.475-15.845 29.587-15.845 46.597v15.308c-8.321.454-16.604 1.942-24.687 4.46-2.751.857-5.467 1.822-8.137 2.906-20.795 8.441-44.567 8.44-65.359 0-20.834-8.457-44.305-9.793-65.941-3.667-.126.036-.253.064-.379.1v-242.573z"/></svg>