<svg id="Capa_1" enable-background="new 0 0 512 512" height="512" viewBox="0 0 512 512" width="512" xmlns="http://www.w3.org/2000/svg"><path d="m311.18 29.314c-1.171-12.367-11.555-21.814-23.977-21.814h-62.406c-12.422 0-22.806 9.447-23.978 21.814l-6.562 69.284h123.484z" fill="#e2e2e2"/><path d="m254.797 7.5h-30c-12.422 0-22.806 9.447-23.978 21.814l-6.562 69.283h30l6.562-69.283c1.172-12.367 11.556-21.814 23.978-21.814z" fill="#c1bfc5"/><path d="m276.248 62.163c-.903-10.51-9.698-18.582-20.248-18.582-10.549 0-19.344 8.072-20.248 18.582l-4.429 51.539h49.354z" fill="#5c586f"/><path d="m366.583 413.412-110.583 45.544-110.583-45.544 8.628-91.097 101.955-45.549 101.955 45.549z" fill="#e2e2e2"/><path d="m175.417 413.412 8.628-91.097 86.955-38.848-15-6.701-101.955 45.549-8.628 91.097 110.583 45.544 15-6.178z" fill="#c1bfc5"/><path d="m349.317 231.217-93.317 45.549-93.317-45.549 8.627-91.097 84.69-26.325 84.69 26.325z" fill="#e2e2e2"/><path d="m192.683 231.217 8.627-91.097 69.69-21.662-15-4.663-84.69 26.325-8.627 91.097 93.317 45.549 15-7.322z" fill="#c1bfc5"/><path d="m340.689 87.461h-169.378c-10.342 0-18.726 8.384-18.726 18.726v15.205c0 10.342 8.384 18.726 18.726 18.726h169.378c10.342 0 18.726-8.384 18.726-18.726v-15.205c0-10.342-8.384-18.726-18.726-18.726z" fill="#ff748f"/><path d="m182.585 121.392v-15.205c0-10.342 8.384-18.726 18.726-18.726h-30c-10.342 0-18.726 8.384-18.726 18.726v15.205c0 10.342 8.384 18.726 18.726 18.726h30c-10.342 0-18.726-8.384-18.726-18.726z" fill="#f9496e"/><path d="m357.955 322.315h-203.91l8.638-91.098h186.634z" fill="#ff748f"/><path d="m162.683 231.217-8.638 91.098h30l8.638-91.098z" fill="#f9496e"/><path d="m366.583 413.412h-221.166l-8.627 91.088h71.046l48.164-13.221 48.164 13.221h71.046z" fill="#ff748f"/><path d="m145.417 413.412-8.627 91.088h30l8.627-91.088z" fill="#f9496e"/><path d="m297.189 418.099c-1.733-21.462-19.656-37.997-41.188-37.997-21.532 0-39.456 16.535-41.188 37.997l-6.976 86.401h96.329z" fill="#5c586f"/><path d="m271 382.919c-4.66-1.817-9.72-2.816-15-2.816-21.532 0-39.456 16.535-41.188 37.997l-6.976 86.401h30l6.976-86.401c1.307-16.201 11.842-29.588 26.188-35.181z" fill="#423e4f"/><path d="m198.572 263.304c-4.142 0-7.5 3.358-7.5 7.5v10.394c0 4.142 3.358 7.5 7.5 7.5s7.5-3.358 7.5-7.5v-10.394c0-4.142-3.358-7.5-7.5-7.5z"/><path d="m313.428 288.698c4.142 0 7.5-3.358 7.5-7.5v-10.394c0-4.142-3.358-7.5-7.5-7.5s-7.5 3.358-7.5 7.5v10.394c0 4.142 3.358 7.5 7.5 7.5z"/><path d="m275.11 274.828c-3.119-2.726-7.856-2.408-10.583.71-2.059 2.356-5.167 3.707-8.527 3.707s-6.468-1.351-8.527-3.707c-2.726-3.119-7.464-3.437-10.583-.711s-3.437 7.464-.711 10.583c4.908 5.615 12.132 8.835 19.821 8.835s14.913-3.22 19.821-8.835c2.726-3.118 2.408-7.856-.711-10.582z"/><path d="m136.79 512h238.42c4.332 0 7.875-3.899 7.467-8.207l-33.866-357.468c10.497-3.428 18.104-13.306 18.104-24.933v-15.205c0-14.461-11.765-26.227-26.226-26.227h-17.178l-4.864-51.354c-1.544-16.308-15.062-28.606-31.444-28.606h-62.406c-16.381 0-29.899 12.298-31.444 28.607l-4.864 51.354h-17.178c-14.461 0-26.226 11.765-26.226 26.227v15.205c0 11.626 7.608 21.504 18.104 24.933 0 0-33.819 356.971-33.866 357.467-.411 4.338 3.12 8.207 7.467 8.207zm15.451-91.087h54.819l-6.143 76.087h-55.882zm8.628-91.098h119.502c4.142 0 7.5-3.358 7.5-7.5s-3.358-7.5-7.5-7.5h-118.081l7.216-76.098h172.989l7.216 76.098h-40.651c-4.142 0-7.5 3.358-7.5 7.5s3.358 7.5 7.5 7.5h42.073l7.207 76.098h-56.05c-5.82-17.386-21.058-30.101-39.163-32.778-4.721-.709-9.531-.699-14.252 0-18.104 2.678-33.341 15.392-39.162 32.778h-56.051zm55.097 167.185s6.321-78.292 6.323-78.313c1.75-17.11 16.238-31.085 33.712-31.085 17.137 0 32.328 14.034 33.713 31.101l6.321 78.297zm95.118 0-6.143-76.087h54.819l7.206 76.087zm-102.797-466.979c.811-8.563 7.909-15.021 16.51-15.021h62.406c8.602 0 15.7 6.458 16.511 15.021l4.73 49.94h-23.138l-1.585-18.44c-1.247-14.503-13.164-25.44-27.721-25.44s-26.474 10.937-27.72 25.44l-1.585 18.44h-23.138zm61.963 49.94h-28.5l1.475-17.156c.574-6.684 6.066-11.724 12.775-11.724s12.201 5.041 12.775 11.724zm70.44 15c6.19 0 11.226 5.036 11.226 11.227v15.205c0 6.19-5.036 11.226-11.23 11.226h-107.407c-4.142 0-7.5 3.358-7.5 7.5 0 4.036 3.423 7.5 7.5 7.5h100.587l7.207 76.099h-170.146l7.207-76.099h25.146c4.032 0 7.5-3.428 7.5-7.5 0-4.142-3.358-7.5-7.5-7.5 0 0-31.964 0-31.968 0-6.19 0-11.226-5.036-11.226-11.226v-15.205c0-6.19 5.036-11.227 11.226-11.227z"/></svg>