<svg id="Capa_1" enable-background="new 0 0 512 512" height="512" viewBox="0 0 512 512" width="512" xmlns="http://www.w3.org/2000/svg"><path d="m317.567 504.5h-123.134l-42.603-56.467c18.687-34.561 49.485-49.881 49.485-49.881h109.369s30.798 15.32 49.485 49.881z" fill="#f9496e"/><path d="m171.83 448.033c18.687-34.562 49.485-49.881 49.485-49.881h-20s-30.798 15.32-49.485 49.881z" fill="#e3254c"/><circle cx="256.434" cy="406.656" fill="#fed2a4" r="38.196"/><path d="m194.433 474.662v29.838h-56.606c0-10.844 1.337-20.776 3.625-29.838l26.491-13.315z" fill="#fed2a4"/><path d="m177.943 466.374-10-5.026-26.49 13.314c-2.288 9.061-3.625 18.994-3.625 29.837h20c0-10.844 1.337-20.776 3.625-29.837z" fill="#ffbd86"/><path d="m194.433 448.033v26.629h-52.981c2.486-9.903 6.12-18.766 10.378-26.629z" fill="#00cd8c"/><path d="m151.83 448.033c-4.258 7.863-7.893 16.727-10.378 26.629h20c2.486-9.903 6.12-18.766 10.378-26.629z" fill="#00a45b"/><path d="m374.172 504.5h-56.606v-29.838l26.24-13.315 26.741 13.315c2.289 9.062 3.625 18.994 3.625 29.838z" fill="#fed2a4"/><path d="m370.548 474.662h-52.981v-26.629h42.603c4.258 7.863 7.892 16.726 10.378 26.629z" fill="#00cd8c"/><path d="m334.998 37.29c-13.067-4.541-27.866-6.893-41.223-11.826-10.63-3.926-20.42-9.593-29.939-15.674-4.781-3.054-10.892-3.054-15.673 0-9.519 6.081-19.308 11.748-29.939 15.674-13.357 4.933-28.156 7.285-41.223 11.826-78.196 27.175-128.476 110.655-128.476 191.601h414.95c0-80.946-50.28-164.426-128.477-191.601z" fill="#e27858"/><path d="m207.002 47.29c13.067-4.541 27.866-6.893 41.223-11.826 10.63-3.926 20.42-9.593 29.939-15.673.444-.284.902-.532 1.367-.763-5.367-2.826-10.572-5.966-15.694-9.237-4.781-3.054-10.892-3.054-15.673 0-9.519 6.081-19.308 11.748-29.939 15.673-13.357 4.933-28.156 7.285-41.223 11.826-78.197 27.175-128.477 110.655-128.477 191.6h30.262c3.931-77.719 53.235-155.544 128.215-181.6z" fill="#ca5935"/><circle cx="435.747" cy="228.891" fill="#ffbd86" r="35.714"/><path d="m433.761 227.503c-.168-21.814-7.905-42.893-21.73-59.767-62.275-76.008-126.376-35.349-148.21-17.444-4.553 3.734-11.09 3.734-15.643 0-21.947-17.997-86.596-58.984-149.173 18.629-13.09 16.235-20.444 36.444-20.752 57.296-.017 1.129-.023 2.26-.018 3.394.393 98.43 79.769 177.279 178.199 177.044 97.978-.234 177.332-79.733 177.332-177.766 0-.461-.002-.924-.005-1.386z" fill="#fed2a4"/><path d="m108.235 229.613c-.005-1.134.002-2.266.018-3.395.309-20.853 7.663-41.061 20.752-57.296 22.453-27.849 45.173-40.426 66.091-44.277-27.942-4.946-62.317 2.386-96.091 44.277-6.172 7.654-11.049 16.199-14.534 25.271-2.563-.659-5.304-1.016-8.219-1.016-19.724 0-35.714 15.99-35.714 35.714s15.99 35.714 35.714 35.714c1.892 0 3.712-.15 5.458-.434 16.297 81.69 88.131 142.692 174.722 142.485 4.9-.012 9.75-.23 14.549-.631-91.151-7.545-162.374-83.191-162.746-176.412z" fill="#ffbd86"/><path d="m355.435 268.656h-23.254c-4.143 0-7.5-3.358-7.5-7.5s3.357-7.5 7.5-7.5h23.254c4.143 0 7.5 3.358 7.5 7.5s-3.358 7.5-7.5 7.5z" fill="#ff748f"/><path d="m179.819 268.656h-23.254c-4.143 0-7.5-3.358-7.5-7.5s3.357-7.5 7.5-7.5h23.254c4.143 0 7.5 3.358 7.5 7.5s-3.357 7.5-7.5 7.5z" fill="#ff748f"/><circle cx="81.709" cy="265.181" fill="#b2b0bc" r="15.279"/><circle cx="430.291" cy="265.181" fill="#b2b0bc" r="15.279"/><path d="m351.31 236.054v-17.074c0-4.142-3.358-7.5-7.5-7.5s-7.5 3.358-7.5 7.5v17.074c0 4.142 3.358 7.5 7.5 7.5s7.5-3.358 7.5-7.5z"/><path d="m175.69 236.054v-17.074c0-4.142-3.358-7.5-7.5-7.5s-7.5 3.358-7.5 7.5v17.074c0 4.142 3.358 7.5 7.5 7.5s7.5-3.358 7.5-7.5z"/><path d="m276.642 247.589c-3.118-2.726-7.857-2.408-10.583.711-2.436 2.787-6.102 4.384-10.058 4.384-3.957 0-7.623-1.598-10.058-4.384-2.726-3.119-7.465-3.437-10.583-.711-3.119 2.726-3.438 7.464-.711 10.583 5.284 6.046 13.067 9.513 21.353 9.513 8.285 0 16.068-3.467 21.353-9.512 2.724-3.12 2.405-7.858-.713-10.584z"/><path d="m478.967 228.883c0-10.39-3.687-19.934-9.82-27.396-4.858-36.714-19.548-73.238-41.514-103.089-23.847-32.408-55.028-55.993-90.171-68.206-13.474-4.683-27.699-6.831-41.088-11.777-10.617-3.921-20.365-9.762-28.5-14.959-7.214-4.609-16.536-4.609-23.749 0-8.134 5.196-17.881 11.037-28.5 14.959-13.391 4.945-27.612 7.095-41.088 11.777-18.686 6.493-36.33 16.238-52.44 28.963-3.251 2.567-3.805 7.284-1.237 10.534 2.568 3.251 7.284 3.804 10.534 1.237 14.794-11.685 30.966-20.622 48.067-26.565 13.566-4.714 27.871-6.893 41.361-11.875 11.955-4.415 22.571-10.762 31.379-16.39 2.308-1.474 5.291-1.475 7.598 0 8.809 5.627 19.425 11.975 31.379 16.39 13.49 4.981 27.794 7.159 41.36 11.875 59.111 20.542 105.458 77.384 119.268 144.411-3.803-1.528-7.87-2.532-12.114-2.918-1.077-.103-7.46-.043-7.653-.026-.048-.106-.101-.21-.15-.316-3.575-7.805-8.135-15.164-13.504-21.861-2.058-2.567-4.218-5.058-6.419-7.504-25.358-28.137-53.541-41.662-83.946-40.282-25.436 1.154-49.486 12.651-68.955 28.616-1.75 1.435-4.383 1.435-6.131.001-23.526-19.305-53.977-32.013-84.813-27.923-15.412 2.044-30.061 8.278-42.816 17.068-18.644 12.849-35.556 30.834-45.139 51.507-.106.228-.22.453-.323.683-.178-.015-5.254-.172-7.599.041-4.221.39-8.265 1.392-12.05 2.912 7.558-36.673 24.998-71.057 50.057-98.221 2.809-3.045 2.617-7.79-.427-10.598s-7.79-2.617-10.598.427c-30.457 33.016-50.415 75.944-56.369 121.102-6.135 7.463-9.824 17.008-9.824 27.401 0 17.359 10.51 32.955 26.147 39.694 1.578 10.49 10.335 18.656 21.092 19.327 11.771 35.208 34.353 66.661 64.089 89.069 12.496 9.417 25.939 17.105 40.083 23.004-11.33 8.27-27.465 22.76-39.215 44.49-9.888 18.286-14.905 39.141-14.905 60.034 0 4.142 3.358 7.5 7.5 7.5h56.607 123.137 56.607c4.142 0 7.5-3.358 7.5-7.5 0-20.894-4.949-41.65-14.913-60.048-11.816-21.85-28.066-36.376-39.404-44.619 16.908-7.054 32.793-16.608 47.03-28.452 3.185-2.649 3.619-7.378.969-10.562-2.649-3.185-7.378-3.618-10.562-.969-30.232 25.147-69.09 39.117-108.38 39.303-36.961.103-73.495-11.906-103.027-34.16-27.13-20.443-47.785-49.076-58.663-81.143.021-.015.042-.032.063-.047 5.968-4.205 9.694-11.321 9.694-18.629 0-10.505-7.887-20.183-18.168-22.31-.873-10.719-1.084-21.683 1.154-32.258 8.088-38.209 45.215-75.352 84.824-79.434 23.577-2.435 46.87 6.873 65.619 20.636 2.037 1.495 3.879 2.938 5.509 4.275 7.288 5.976 17.867 5.976 25.155 0 1.237-1.014 2.636-2.12 4.186-3.285 14.793-11.117 32.262-19.526 50.814-21.555 29.761-3.254 57.569 10.62 82.656 41.238 6.115 7.462 10.962 15.903 14.367 24.928 5.005 13.264 6.187 27.12 5.385 41.174-.082 1.43-.188 2.858-.314 4.285-7.086 1.466-13.285 6.498-16.218 13.108-1.277 2.878-1.938 6.052-1.938 9.199 0 7.3 3.728 14.432 9.694 18.629-6.968 20.505-17.692 39.277-31.933 55.879-2.697 3.144-2.334 7.879.81 10.576s7.879 2.334 10.576-.81c15.66-18.257 27.402-38.938 34.979-61.538 10.796-.633 19.596-8.816 21.178-19.334 15.64-6.739 26.15-22.334 26.15-39.693zm-292.036 238.278h-35.405c1.391-3.96 3.018-7.844 4.871-11.629h30.534zm-39.478 15h39.479v14.839h-41.375c.315-5.044.948-10.003 1.896-14.839zm213.02-15h-35.404v-11.629h30.533c1.853 3.785 3.48 7.669 4.871 11.629zm-35.404 29.839v-14.838h39.478c.948 4.836 1.581 9.795 1.896 14.838zm21.654-56.469h-29.155c-4.142 0-7.5 3.358-7.5 7.5v48.969h-108.136v-48.968c0-4.142-3.358-7.5-7.5-7.5h-29.146c13.651-19.403 30.498-30.508 36.815-34.237 2.874.864 5.769 1.664 8.687 2.387 1.065 24.26 21.128 43.67 45.646 43.67 24.624 0 44.75-19.58 45.654-43.986 2.581-.661 5.151-1.371 7.703-2.145 6.229 3.639 23.162 14.694 36.932 34.31zm-86.624-26.445c8.923-.204 17.827-1.001 26.631-2.472-2.378 14.576-15.058 25.737-30.296 25.737-15.17 0-27.804-11.062-30.264-25.542 4.276.681 8.591 1.209 12.936 1.593.05.004.099.009.149.014 6.857.604 13.899.828 20.844.67zm-212.066-185.203c0-14.427 10.885-26.357 24.874-28.015.358-.042 1.361-.126 1.504-.135-1.595 5.732-2.642 11.588-3.223 17.507-.73 7.429-.554 14.934-.084 22.375.089 1.415.191 2.831.312 4.246-3.793 1.929-6.98 4.883-9.184 8.503-8.604-4.945-14.199-14.244-14.199-24.481zm25.892 36.291c0-4.046 3.248-7.482 7.257-7.753 4.425-.299 8.301 3.309 8.301 7.753 0 4.217-3.561 7.779-7.779 7.779-4.289 0-7.779-3.489-7.779-7.779zm356.37 7.779c-4.174 0-7.779-3.6-7.779-7.779 0-4.289 3.49-7.779 7.779-7.779 4.167 0 7.78 3.615 7.78 7.779 0 4.29-3.49 7.779-7.78 7.779zm19.473-19.589c-2.205-3.621-5.393-6.576-9.188-8.505.868-10.087 1.141-20.364-.256-30.415-.004-.026-.006-.053-.01-.079-.629-4.53-1.588-9.183-2.836-13.637.362.022 1.171.092 1.215.097 14.167 1.583 25.275 13.762 25.275 28.059-.001 10.235-5.597 19.534-14.2 24.48z"/></svg>