<svg id="Capa_1" enable-background="new 0 0 512 512" height="512" viewBox="0 0 512 512" width="512" xmlns="http://www.w3.org/2000/svg"><path d="m194.01 504.5h-58.643c0-10.293 1.263-19.731 3.437-28.334 2.364-9.4 5.811-17.813 9.856-25.286 2.174-4.026 4.529-7.777 6.97-11.262h.01z" fill="#e2e2e2"/><path d="m340.105 440.473c2.231 3.238 4.377 6.704 6.381 10.407 4.045 7.473 7.492 15.886 9.856 25.286 2.174 8.603 3.437 18.041 3.437 28.334h-57.817z" fill="#e2e2e2"/><path d="m155.366 504.5c0-10.293 1.263-19.731 3.437-28.334 1.771-7.04 4.149-13.526 6.93-19.478 0 0-10.095-17.07-10.104-17.07-2.44 3.485-4.795 7.235-6.97 11.262-8.872 16.429-13.294 34.98-13.294 53.62z" fill="#c1bfc5"/><path d="m272.107 454.008-24.126 50.492h-53.971c-26.559-16-38.371-64.882-38.371-64.882 17.5-24.906 40.013-36.101 40.013-36.101h52.282z" fill="#5c586f"/><path d="m168.66 450.88c2.174-4.026 4.529-7.777 6.97-11.262h.009c17.497-24.902 40.005-36.098 40.013-36.102h-20s-9.696 4.821-21.308 15.175c-6.082 5.423-12.69 12.365-18.706 20.926 0 0 2.457 10.163 7.646 22.737 1.619-4.044 3.426-7.871 5.376-11.474z" fill="#4f4c5f"/><path d="m340.105 440.473c-1.719 6.58-13.664 49.281-38.143 64.027h-53.981v-83.407l-.047-17.576h51.56s23.026 11.451 40.611 36.956z" fill="#4f4c5f"/><ellipse cx="288.249" cy="458.756" fill="#f9496e" rx="15.488" ry="18.478"/><path d="m386.968 113.376c37.119 37.064 57.677 86.359 57.886 138.805v.226h-394.56v-.227c.21-52.719 20.788-102.128 57.943-139.124z" fill="#ca5935"/><circle cx="76.897" cy="252.294" fill="#ffbd86" r="33.912"/><circle cx="418.249" cy="252.294" fill="#ffbd86" r="33.912"/><path d="m386.968 113.376-278.732-.32c-27.589 27.472-46.028 61.79-53.785 99.223 21.983-11.889 45.683-20.308 70.278-24.78 27.587-5.016 67.65-9.522 122.554-9.522 54.879 0 94.931 4.502 122.517 9.515 24.84 4.514 48.769 13.055 70.936 25.132-7.729-37.356-26.165-71.685-53.768-99.248z" fill="#a24425"/><path d="m416.367 252.294c-.369-92.771-75.577-167.888-168.382-168.11-93.463-.223-168.833 74.647-169.206 168.11.373 93.463 75.743 168.333 169.206 168.11 92.806-.222 168.013-75.339 168.382-168.11z" fill="#e27858"/><path d="m124.729 187.499c27.587-5.016 67.65-9.522 122.554-9.522 54.879 0 94.931 4.502 122.517 9.515 12.684 2.305 25.13 5.662 37.227 10-22.91-65.841-85.437-113.131-159.042-113.307-74.166-.177-136.932 46.936-159.877 113.098 11.906-4.234 24.149-7.516 36.621-9.784z" fill="#ca5935"/><path d="m373.316 158.194s41.009 111.976-42.367 111.976c-25.162 0-36.053-35.825-83.376-35.825s-58.214 35.825-83.376 35.825c-83.376 0-42.367-111.976-42.367-111.976l126.218-44.453z" fill="#fed2a4"/><path d="m412.945 104.471c-38.629-90.554-121.68-97.66-153.042-96.925-8.219.193-16.441.193-24.66 0-31.361-.735-114.413 6.371-153.042 96.925z" fill="#4f4c5f"/><path d="m265.243 7.546c1.903.044 3.805.076 5.708.1-3.037-.122-5.844-.159-8.378-.14.925.007 1.82.02 2.67.04z" fill="#423e4f"/><path d="m254.195 7.646c-6.317.08-12.635.048-18.952-.1-31.362-.735-114.413 6.371-153.042 96.925h30c34.71-81.368 105.279-95.356 141.994-96.825z" fill="#423e4f"/><path d="m124.729 187.499c27.587-5.016 67.65-9.522 122.554-9.522 54.879 0 94.931 4.502 122.517 9.515 3.863.702 7.702 1.513 11.518 2.408-2.953-17.906-8.001-31.706-8.001-31.706l-125.269-44.453-126.218 44.453s-5.022 13.727-7.978 31.563c3.605-.835 7.23-1.595 10.877-2.258z" fill="#ffbd86"/><path d="m456.985 56.384c-36.708-27.111-298.255-11.629-398.572 51.342-10.925 6.858-15.743 20.392-11.508 32.576 3.257 9.37 9.172 21.137 19.882 33.9 0 0 49.434-26.225 180.786-26.225s180.786 26.225 180.786 26.225 67.413-89.172 28.626-117.818z" fill="#5c586f"/><path d="m76.905 133.423c-4.235-14.657.583-30.937 11.508-39.186 2.222-1.678 4.527-3.326 6.903-4.948-13.806 5.616-26.264 11.758-36.903 18.437-10.925 6.858-15.743 20.392-11.508 32.576 3.257 9.37 9.172 21.137 19.882 33.9 0 0 7.465-3.958 24.29-8.798-7.194-11.944-11.548-22.899-14.172-31.981z" fill="#4f4c5f"/><path d="m330.956 213.956c-4.142 0-7.5 3.358-7.5 7.5v16.211c0 4.142 3.358 7.5 7.5 7.5s7.5-3.358 7.5-7.5v-16.211c0-4.142-3.358-7.5-7.5-7.5z"/><path d="m164.204 213.956c-4.142 0-7.5 3.358-7.5 7.5v16.211c0 4.142 3.358 7.5 7.5 7.5s7.5-3.358 7.5-7.5v-16.211c0-4.142-3.358-7.5-7.5-7.5z"/><path d="m256.846 269.936c-2.241 2.563-5.618 4.034-9.266 4.034s-7.025-1.47-9.266-4.033c-2.726-3.119-7.464-3.437-10.582-.711-3.119 2.726-3.437 7.464-.71 10.583 5.089 5.822 12.583 9.161 20.559 9.161s15.47-3.339 20.559-9.162c2.726-3.119 2.408-7.857-.711-10.582-3.119-2.727-7.856-2.409-10.583.71z"/><path d="m288.256 484.734c12.675 0 22.988-11.654 22.988-25.978s-10.312-25.978-22.988-25.978-22.987 11.654-22.987 25.978 10.312 25.978 22.987 25.978zm0-36.956c4.33 0 7.988 5.027 7.988 10.978s-3.658 10.978-7.988 10.978-7.987-5.027-7.987-10.978 3.658-10.978 7.987-10.978z"/><path d="m436.863 175.289c9.834-13.743 44.211-64.771 39.136-99.851-1.541-10.651-6.437-19.091-14.553-25.085-15.5-11.448-56.942-14.096-89.842-14.247-40.427-32.632-87.287-36.633-111.87-36.056-8.065.189-16.244.189-24.308 0-31.969-.748-110.39 6.273-153.002 86.592-10.453 4.681-19.807 9.596-27.992 14.734-14.012 8.796-20.017 25.817-14.604 41.391 3.878 11.154 10.034 22.123 18.312 32.665-6.68 16.263-11.226 33.386-13.54 50.997-5.691 7.093-9.107 16.086-9.107 25.867 0 22.571 18.153 40.97 40.625 41.392 7.504 31.572 23.586 60.463 47.077 83.801 14.222 14.128 30.463 25.524 48.079 33.944-6.939 5.956-14.678 13.819-21.68 23.758-.032.043-.069.082-.1.126-14.258 20.208-21.62 44.502-21.62 69.184 0 4.142 3.358 7.5 7.5 7.5h224.413c4.142 0 7.5-3.358 7.5-7.5 0-24.319-7.183-48.24-21-68.284-7.227-10.482-15.308-18.715-22.536-24.902 15.792-7.574 30.503-17.534 43.618-29.687 3.038-2.815 3.219-7.561.404-10.599s-7.56-3.219-10.599-.404c-29.795 27.61-68.576 42.868-109.199 42.965-42.545.102-84.02-16.752-114.208-46.743-36.874-36.633-54.064-90.652-44.96-141.838 2.93-16.474 8.384-32.354 16.206-47.117.924-1.743 5.552-9.639 5.6-9.716.103-.023.211-.046.314-.069-5.618 20.646-13.47 62.011 4.513 87.727 10.133 14.49 26.54 21.837 48.766 21.837 13.214 0 22.663-7.457 32.667-15.352 12.161-9.597 25.944-20.474 50.709-20.474 24.764 0 38.548 10.877 50.709 20.474 10.004 7.895 19.454 15.352 32.667 15.352 22.226 0 38.633-7.347 48.765-21.837 17.982-25.716 10.131-67.082 4.513-87.728.032.007.066.015.099.021 4.832 7.74 9.034 15.86 12.5 24.301 21.288 51.845 13.205 112.481-20.554 157.095-2.5 3.303-1.848 8.007 1.455 10.506 3.303 2.5 8.007 1.848 10.506-1.455 14.799-19.557 25.165-41.526 30.766-64.887 22.488-.403 40.662-18.81 40.662-41.393 0-9.79-3.422-18.79-9.123-25.887-2.339-17.644-6.933-34.809-13.684-51.118zm-249.87 242.732c10.387 3.768 21.156 6.554 32.192 8.316 7.107.888 14.134 1.827 21.303 2.116v68.547h-44.266c-.033-.023-.067-.042-.1-.065-.022-.015-.042-.031-.064-.046-14.158-9.865-22.075-27.035-27.927-42.728-2.038-5.467-3.471-10.12-4.308-13.039 7.791-10.372 16.377-17.994 23.17-23.101zm-43.875 78.979c.429-6.528 1.421-12.893 2.966-19.005 1.742-6.928 4.229-13.68 7.41-20.125.019.052.04.107.059.159 5.115 13.854 11.594 27.46 21.005 38.947.007.008.013.016.019.024zm208.924 0h-30.637c.622-.758 1.23-1.53 1.828-2.312 6.013-7.874 10.747-16.65 14.763-25.684 1.489-3.349 2.857-6.752 4.131-10.189 2.96 6.157 5.291 12.59 6.951 19.188 1.543 6.106 2.535 12.469 2.964 18.997zm-43.986-79.064c7.019 5.263 15.9 13.164 23.87 23.974-1.291 4.406-3.787 12.197-7.516 20.745-5.029 11.529-11.608 23.827-21.504 31.946-.029.023-2.091 1.679-3.155 2.399h-44.263s0-68.57 0-68.584c0-.015 5.059-.303 5.256-.317 16.215-1.194 32.068-4.592 47.312-10.163zm123.442-204.894c-3.07-1.067-6.291-1.695-9.524-1.984-1.105-.099-2.221-.164-3.331-.173-.081-.326-.174-.648-.257-.974-3.221-12.637-7.873-24.936-13.82-36.542 9.061 2.717 14.915 5.053 17.901 6.356 4.622 10.931 8.193 22.287 10.678 33.936-.016-.006-.031-.011-.047-.017-.529-.214-1.062-.415-1.6-.602zm-344.173-33.185c-4.347 9.484-7.862 19.37-10.449 29.477-.133.518-.278 1.032-.407 1.552-.368.004-.735.023-1.103.037-4.547.169-9.08 1.09-13.326 2.731-.02.007-.039.014-.059.021 2.464-11.639 6.004-22.98 10.586-33.892.303-.134.609-.263.914-.394 5.237-2.252 16.659-5.881 16.94-5.965-1.08 2.12-2.105 4.269-3.096 6.433zm-24.917-65.778c19.718-12.38 41.794-20.882 63.879-27.98 3.269-1.051 19.768-5.912 24.758-7.249 3.913-1.049 6.354-5.271 5.306-9.186-1.071-4.002-5.185-6.377-9.184-5.307-11.399 3.126-22.69 6.517-33.905 10.26-2.559.854-5.103 1.76-7.638 2.681 40.012-57.56 102.631-62.882 129.451-62.253 8.298.194 16.714.194 25.011 0 19.245-.451 53.386 2.118 85.831 21.399-19.106.576-38.199 1.814-57.228 3.601-18.743 1.761-37.451 3.982-56.06 6.836-18.448 2.783-56.25 10.372-56.719 10.476-4.044.894-6.597 4.899-5.703 8.943.958 4.328 5.336 6.495 9.448 5.595 22.342-4.892 44.864-8.729 67.501-11.963 5.422-.815 75.595-7.908 103.458-8.606 3.26-.081 6.519-.138 9.779-.177 46.341-.521 81.992 3.771 92.143 11.269 4.838 3.573 7.657 8.532 8.617 15.159 1.975 13.626-3.956 33.693-17.15 58.033-6.828 12.595-14.02 23.352-18.148 29.247-13.912-5.689-52.639-18.558-126.277-22.909-.053-.003-.106-.006-.16-.01-31.798-2.033-63.933-1.979-95.754-.425-79.457 3.878-120.52 17.642-134.655 23.466-6.783-8.859-11.823-17.967-15.011-27.139-3.057-8.79.481-18.783 8.41-23.761zm-11.915 138.216c0-12.916 10.039-24.434 22.915-26.161-2.7 17.341-2.762 34.95-.216 52.312-12.813-1.809-22.699-12.847-22.699-26.151zm323.92-58.053c2.366 16.241 3.073 38.619-6.988 53.002-7.262 10.381-19.192 15.428-36.47 15.428-8.008 0-14.789-5.352-23.375-12.126-13.379-10.559-30.031-23.699-60.001-23.699s-46.621 13.14-60.001 23.699c-8.585 6.775-15.367 12.126-23.375 12.126-17.278 0-29.207-5.046-36.469-15.428-16.717-23.897-4.476-68.847-.184-82.466.986-.176 15.775-2.515 16.558-2.658 21.656-3.101 49.42-5.695 83.764-6.429 14.597-.321 29.198-.258 43.794.101 28.531.753 52.377 2.792 71.833 5.301 6.967.697 23.026 3.491 24.114 3.686 1.787 5.657 4.945 16.727 6.8 29.463zm47.542 84.206c.619-4.186 1.084-8.409 1.404-12.663.002-.03.004-.06.007-.09.957-13.192.406-26.497-1.635-39.565 2.882.384 5.667 1.229 8.246 2.505 8.832 4.371 14.69 13.703 14.69 23.66.001 13.309-9.893 24.349-22.712 26.153z"/></svg>