<svg id="Capa_1" enable-background="new 0 0 512 512" height="512" viewBox="0 0 512 512" width="512" xmlns="http://www.w3.org/2000/svg"><path d="m319.19 48.94h-38.847v-16.549c0-13.648-11.169-25.146-24.814-24.887-13.227.251-23.872 11.052-23.872 24.339v17.097h-38.847c-5.768 0-10.443 4.676-10.443 10.443v17.211c0 6.987 5.664 12.651 12.651 12.651h31.214v91.197h59.54v-91.197h31.214c6.987 0 12.651-5.664 12.651-12.651v-17.211c-.003-5.768-4.679-10.443-10.447-10.443z" fill="#c1bfc5"/><path d="m303.746 423.958 18.947 40.271-18.947 40.271h-95.492l-21.308-40.271 21.308-40.271z" fill="#fab659"/><path d="m303.746 504.5h108.848l-51.363-319.005c-2.309-14.327-14.674-24.869-29.189-24.869h-152.085c-14.515 0-26.88 10.542-29.189 24.869l-51.363 319.005h108.848v-80.541-139.316c0-26.375 21.371-47.746 47.746-47.746s47.746 21.371 47.746 47.746v139.315 80.542z" fill="#e2e2e2"/><path d="m209.957 160.625h-30c-14.515 0-26.88 10.542-29.189 24.869l-51.363 319.006h30l51.363-319.005c2.308-14.328 14.673-24.87 29.189-24.87z" fill="#c1bfc5"/><path d="m208.254 423.958h29.756v80.542h-29.756z" fill="#ec8d00"/><path d="m189.425 194.315v10.691c0 4.142 3.358 7.5 7.5 7.5s7.5-3.358 7.5-7.5v-10.691c0-4.143-3.358-7.5-7.5-7.5s-7.5 3.357-7.5 7.5z"/><path d="m307.575 194.315v10.691c0 4.142 3.358 7.5 7.5 7.5s7.5-3.358 7.5-7.5v-10.691c0-4.143-3.358-7.5-7.5-7.5s-7.5 3.357-7.5 7.5z"/><path d="m264.934 199.326c-2.16 2.47-5.416 3.887-8.934 3.887-3.519 0-6.774-1.417-8.934-3.887-2.726-3.119-7.464-3.437-10.583-.711s-3.437 7.464-.711 10.583c5.008 5.729 12.38 9.015 20.228 9.015 7.847 0 15.219-3.286 20.227-9.015 2.726-3.119 2.408-7.856-.71-10.583-3.119-2.725-7.858-2.407-10.583.711z"/><path d="m179.956 153.126c-18.293 0-33.683 13.111-36.593 31.176l-35.415 219.954c-.658 4.089 2.123 7.938 6.213 8.597 3.555.572 8.597-2.111 8.597-6.212 0 0 35.415-219.954 35.415-219.954 1.732-10.755 10.894-18.562 21.784-18.562h152.086c10.89 0 20.051 7.807 21.784 18.561l11.276 70.034c.659 4.089 4.505 6.871 8.597 6.212 4.089-.659 6.871-4.507 6.212-8.597l-11.276-70.035c-2.911-18.064-18.3-31.175-36.593-31.175h-38.773v-56.38h23.713c11.111 0 20.151-9.04 20.151-20.151v-17.211c0-9.894-8.049-17.943-17.943-17.943h-31.347s0-9.045 0-9.049c0-17.57-14.749-32.721-32.456-32.385-17.221.326-31.23 14.608-31.23 31.837v9.597h-31.348c-9.894 0-17.943 8.049-17.943 17.943v17.211c0 11.111 9.04 20.151 20.151 20.151h23.713v56.381zm46.274-71.381h-31.213c-2.84 0-5.151-2.311-5.151-5.151v-17.211c0-1.623 1.32-2.943 2.943-2.943h38.848c4.142 0 7.5-3.358 7.5-7.5v-17.098c0-9.113 7.408-16.667 16.514-16.84 9.438-.179 17.173 8.119 17.173 17.388v16.55c0 4.142 3.358 7.5 7.5 7.5h38.847c1.623 0 2.943 1.32 2.943 2.943v17.211c0 2.84-2.311 5.151-5.151 5.151h-31.213c-4.142 0-7.5 3.358-7.5 7.5v63.881h-44.54v-63.881c0-4.142-3.358-7.5-7.5-7.5z"/><path d="m103.215 433.658s-11.193 69.519-11.214 69.649c-.723 4.491 2.867 8.693 7.405 8.693h313.189c4.555 0 8.129-4.194 7.405-8.692l-35.348-219.539c-.659-4.089-4.503-6.87-8.597-6.212-4.089.659-6.871 4.508-6.212 8.597l33.947 210.846h-92.544v-212.357c0-30.463-24.783-55.247-55.246-55.247s-55.247 24.784-55.247 55.247v212.357h-92.544l9.815-60.958c.658-4.089-2.123-7.938-6.212-8.597-4.089-.658-7.939 2.123-8.597 6.213zm112.538-2.2h80.493v65.542h-80.493zm40.247-187.061c22.192 0 40.246 18.055 40.246 40.247v131.815h-80.493v-131.816c0-22.192 18.055-40.246 40.247-40.246z"/></svg>