<svg id="Capa_1" enable-background="new 0 0 512 512" height="512" viewBox="0 0 512 512" width="512" xmlns="http://www.w3.org/2000/svg"><path d="m24.189 143.166-13.427 17.985c-5.034 6.743-4.153 16.2 2.04 21.897l57.749 53.128c5.452 5.015 13.587 5.757 19.856 1.81l21.88-13.775-22.032-59.172z" fill="#00cd8c"/><path d="m501.239 161.152-13.428-17.985-64.636 23.869-23.462 57.177 21.88 13.775c6.269 3.947 14.404 3.205 19.856-1.81l57.75-53.128c6.193-5.698 7.074-15.156 2.04-21.898z" fill="#00cd8c"/><path d="m32.88 201.521c-2.286-5.254-1.744-11.513 1.881-16.369l13.427-17.985 9.612-12.872s-33.612-11.128-33.612-11.128l-13.427 17.985c-2.202 2.95-3.273 6.419-3.261 9.866.015 4.544 1.947 8.947 5.301 12.031 0 0 20.079 18.472 20.079 18.472z" fill="#00a45b"/><path d="m487.811 143.166-33.023-44.225c-12.229-16.379-28.731-29.064-47.698-36.678l-25.886-10.383c-3.083-1.237-6.214-2.37-9.365-3.398l-39.293 29.408-25.79 21.953-50.756 14.637-49.697-13.97-31.348-30.602-34.793-21.425c-3.15 1.028-6.281 2.16-9.365 3.398l-25.886 10.383c-18.967 7.613-35.469 20.299-47.698 36.678l-33.023 44.225 88.097 81.046 16.845-10.611s-7.829 64.096-.694 235.59c.477 11.474 9.914 20.537 21.398 20.537h212.33c11.484 0 20.921-9.063 21.398-20.537 7.135-171.494-.694-235.59-.694-235.59l16.845 10.611z" fill="#f9496e"/><path d="m140.161 48.483c-1.575.514-7.823 2.779-9.365 3.397l-25.886 10.383c-13.039 5.235-24.914 12.867-35.036 22.447-4.601 4.355-8.84 9.113-12.662 14.231l-33.023 44.225 24.85 22.861 32.173-43.086c12.229-16.379 28.731-29.065 47.698-36.678l25.886-10.383z" fill="#e3254c"/><path d="m345.311 42.42c-6.457-.868-12.876 2.148-16.215 7.742-14.857 24.885-42.06 41.585-73.096 41.585s-58.239-16.7-73.096-41.585c-3.34-5.594-9.758-8.61-16.215-7.742-8.999 1.21-17.878 3.238-26.528 6.063 17.159 47.385 62.602 81.331 115.839 81.331s98.68-33.947 115.839-81.331c-8.65-2.825-17.528-4.853-26.528-6.063z" fill="#00cd8c"/><path d="m154.339 76.064.457-.184c3.083-1.237 6.214-2.37 9.365-3.397 8.65-2.826 17.528-4.853 26.528-6.063 1.65-.222 3.298-.187 4.882.066-1.209-1.221-2.382-2.478-3.523-3.779-3.394-3.869-6.417-8.036-9.078-12.44-.021-.035-.044-.07-.065-.105-2.631-4.415-7.435-7.386-12.607-7.829-2.894-.247-5.815.382-8.655.863-7.272 1.232-14.453 2.991-21.481 5.287 3.562 9.838 8.359 19.085 14.177 27.581z" fill="#00a45b"/><path d="m313.027 258.923c-22.3 0-40.443-18.142-40.443-40.443v-30.674c0-13.333 10.848-24.181 24.181-24.181h32.525c13.333 0 24.181 10.848 24.181 24.181v30.674c-.001 22.301-18.144 40.443-40.444 40.443z" fill="#fab659"/><path d="m298.942 188.656v31.153c0 7.766 6.318 14.085 14.085 14.085s14.085-6.319 14.085-14.085v-31.153z" fill="#e2e2e2"/><path d="m360.961 218.485v-30.671c0-17.468-14.21-31.679-31.678-31.679h-32.522c-17.467 0-31.678 14.211-31.678 31.679v30.671c0 26.433 21.506 47.938 47.939 47.938s47.939-21.505 47.939-47.938zm-80.879 0v-30.671c0-9.197 7.482-16.68 16.679-16.68h32.522c9.197 0 16.679 7.482 16.679 16.68v30.671c0 18.163-14.777 32.94-32.94 32.94s-32.94-14.777-32.94-32.94z"/><path d="m334.605 219.813v-31.151c0-4.141-3.358-7.499-7.499-7.499h-28.167c-4.142 0-7.499 3.358-7.499 7.499v31.151c0 11.901 9.682 21.583 21.583 21.583s21.582-9.682 21.582-21.583zm-28.167 0v-23.651h13.168v23.651c0 3.631-2.953 6.584-6.584 6.584s-6.584-2.954-6.584-6.584z"/><path d="m51.22 94.468-46.448 62.206c-7.359 9.858-6.082 23.572 2.972 31.901 0 0 57.735 53.115 57.744 53.124 7.739 7.119 19.874 8.337 28.927 2.637l25.966-16.349c-1.419 20.771-3.303 63.893-1.997 136.972.073 4.096 3.416 7.366 7.495 7.366.045 0 .091 0 .137-.001 4.141-.074 7.438-3.491 7.364-7.632-1.905-106.593 3.155-149.757 3.205-150.177.351-2.874-.984-5.692-3.428-7.243-2.445-1.55-5.563-1.555-8.013-.012l-11.99 7.553-78.888-72.573 28.971-38.798c11.403-15.272 26.783-27.099 44.477-34.201 0 0 27.38-10.975 28.138-11.263.193.451.405.89.603 1.338 11.793 26.703 32.603 48.941 58.343 62.669 18.739 9.976 39.964 15.34 61.202 15.34 23.271 0 46.151-6.241 66.169-18.048 3.51-2.066 4.713-6.77 2.65-10.27-2.074-3.516-6.755-4.723-10.269-2.649-17.711 10.446-37.957 15.968-58.549 15.968-18.19 0-36.46-4.392-52.616-12.759-21.086-10.921-38.733-28.192-49.798-49.227-.299-.575-3.402-6.98-3.373-6.989 5.75-1.523 11.603-2.689 17.482-3.48 3.538-.477 6.985 1.154 8.776 4.153 16.657 27.903 47.131 45.236 79.528 45.236s62.87-17.334 79.529-45.237c1.79-2.999 5.236-4.63 8.776-4.153 5.878.79 11.731 1.956 17.48 3.479-6.102 13.749-14.915 26.241-25.725 36.689-2.914 2.797-3.047 7.652-.211 10.604 2.869 2.986 7.616 3.081 10.604.211 12.612-12.121 22.789-26.804 29.691-42.879.759.29 1.513.584 2.258.883l25.882 10.381c17.695 7.103 33.076 18.93 44.479 34.202l28.971 38.798-78.887 72.573s-11.967-7.539-11.99-7.553c-5.244-3.303-12.185 1.119-11.442 7.251 2.677 22.081 6.257 99.477.645 234.352-.311 7.485-6.418 13.349-13.903 13.349h-212.314c-7.485 0-13.592-5.863-13.903-13.349-.772-18.562-1.405-36.812-1.881-54.245-.113-4.14-3.537-7.409-7.701-7.292-4.14.113-7.405 3.561-7.292 7.701.477 17.503 1.112 35.826 1.888 54.46.647 15.546 13.337 27.723 28.889 27.723h212.313c15.552 0 28.242-12.178 28.889-27.723 5.238-125.899 2.494-193.685.582-221.495 0 0 25.955 16.342 25.957 16.343 8.929 5.622 21.054 4.605 28.927-2.637l57.745-53.123c9.052-8.329 10.33-22.043 2.971-31.901l-46.447-62.206c-13.052-17.48-30.657-31.018-50.912-39.148-20.886-8.296-41.084-17.291-63.565-20.314-9.494-1.277-18.781 3.17-23.652 11.329-13.967 23.396-39.506 37.929-66.651 37.929s-52.685-14.533-66.651-37.927c-4.872-8.159-14.157-12.606-23.652-11.329-22.459 3.02-42.724 11.955-63.568 20.315-20.253 8.129-37.858 21.667-50.909 39.147zm35.205 137.175c-3.396 2.138-7.829 1.733-10.782-.983l-57.744-53.123c-3.374-3.104-3.85-8.216-1.108-11.89l8.455-11.326 74.757 68.773zm407.677-54.106-57.745 53.123c-2.953 2.717-7.387 3.121-10.782.983l-13.578-8.548 74.757-68.773 8.455 11.326c2.743 3.673 2.267 8.785-1.107 11.889z"/></svg>