<svg id="Capa_1" enable-background="new 0 0 512 512" height="512" viewBox="0 0 512 512" width="512" xmlns="http://www.w3.org/2000/svg"><circle cx="122.494" cy="253.282" fill="#b2b0bc" r="46.205"/><path d="m122.494 279.487c-22.083 0-40.537-15.497-45.108-36.205-.711 3.221-1.097 6.564-1.097 10 0 25.519 20.687 46.205 46.206 46.205s46.205-20.687 46.205-46.205c0-3.436-.386-6.779-1.097-10-4.573 20.708-23.026 36.205-45.109 36.205z" fill="#827f98"/><circle cx="389.506" cy="253.282" fill="#b2b0bc" r="46.205"/><path d="m389.506 279.487c-22.083 0-40.537-15.497-45.108-36.205-.711 3.221-1.097 6.564-1.097 10 0 25.519 20.687 46.205 46.206 46.205s46.205-20.687 46.205-46.205c0-3.436-.386-6.779-1.097-10-4.572 20.708-23.025 36.205-45.109 36.205z" fill="#827f98"/><path d="m417.378 366.674c0 36.605-30.06 66.321-66.791 65.761-36.087-.551-64.747-30.668-64.747-66.76v-213.592h-59.682v213.592c0 36.091-28.659 66.209-64.747 66.76-36.731.561-66.791-29.156-66.791-65.761h-59.68c0 69.173 56.277 125.45 125.451 125.45 13.613 0 26.723-2.185 39.003-6.217 9.978-3.276 20.859-2.271 29.978 2.939 8.049 4.598 14.512 9.317 19.055 12.978 4.427 3.568 10.719 3.568 15.147 0 4.542-3.661 11.006-8.38 19.055-12.978 9.119-5.209 20-6.215 29.978-2.939 12.281 4.032 25.39 6.217 39.003 6.217 69.174 0 125.451-56.277 125.451-125.45z" fill="#b2b0bc"/><path d="m226.159 271.989h59.682v52.585h-59.682z" fill="#827f98"/><path d="m143.243 211.989h225.515v82.586h-225.515z" fill="#e27858"/><path d="m143.242 274.574h225.515v20h-225.515z" fill="#ca5935"/><path d="m94.622 366.674h-59.682c0 23.351 6.42 45.227 17.577 63.969l11.995-8.373c8.43-5.885 18.342-9.286 28.609-9.818l15.609-.808c1.155-.06 2.298-.163 3.429-.308-10.877-11.738-17.537-27.436-17.537-44.662z" fill="#827f98"/><path d="m115.335 356.51-61.83-49.837c-8.119-6.544-20.287-2.368-22.676 7.782l-18.199 77.301c-2.979 12.654 11.236 22.302 21.895 14.861l29.432-20.546c2.173-1.517 4.729-2.394 7.375-2.531l35.846-1.856c12.983-.673 18.278-17.016 8.157-25.174z" fill="#b2b0bc"/><path d="m477.06 366.674h-59.682c0 17.227-6.66 32.924-17.537 44.662 1.131.145 2.275.248 3.43.308l15.607.808c10.267.532 20.179 3.933 28.609 9.818l11.996 8.374c11.157-18.743 17.577-40.62 17.577-63.97z" fill="#827f98"/><path d="m396.665 356.51 61.83-49.837c8.119-6.544 20.287-2.368 22.677 7.782l18.199 77.301c2.979 12.654-11.236 22.302-21.895 14.861l-29.432-20.546c-2.173-1.517-4.729-2.394-7.375-2.531l-35.846-1.856c-12.984-.673-18.279-17.016-8.158-25.174z" fill="#b2b0bc"/><path d="m256 197.511c10.339 0 20.347-1.436 29.841-4.115v-41.313h-59.682v41.313c9.493 2.679 19.503 4.115 29.841 4.115z" fill="#827f98"/><path d="m256 167.511c-44.115 0-80.005-35.89-80.005-80.005s35.89-80.006 80.005-80.006 80.005 35.89 80.005 80.006-35.89 80.005-80.005 80.005zm0-114.878c-19.229 0-34.873 15.644-34.873 34.873s15.644 34.873 34.873 34.873 34.873-15.644 34.873-34.873c0-19.23-15.644-34.873-34.873-34.873z" fill="#b2b0bc"/><path d="m185.908 237.019c-4.143 0-7.501 3.358-7.501 7.501v12.685c0 4.143 3.358 7.501 7.501 7.501s7.501-3.358 7.501-7.501v-12.685c-.001-4.144-3.359-7.501-7.501-7.501z"/><path d="m326.093 264.706c4.142 0 7.501-3.358 7.501-7.501v-12.685c0-4.143-3.358-7.501-7.501-7.501s-7.501 3.358-7.501 7.501v12.685c0 4.142 3.358 7.501 7.501 7.501z"/><path d="m256 271.477c8.907 0 17.271-3.725 22.947-10.218 2.726-3.119 2.408-7.857-.711-10.584s-7.857-2.408-10.584.711c-2.827 3.234-7.074 5.089-11.652 5.089s-8.825-1.855-11.653-5.09c-2.726-3.119-7.465-3.437-10.584-.711s-3.437 7.465-.711 10.584c5.677 6.494 14.042 10.219 22.948 10.219z"/><path d="m298.377 87.515c0-23.367-19.01-42.378-42.377-42.378s-42.377 19.011-42.377 42.378 19.01 42.377 42.377 42.377 42.377-19.011 42.377-42.377zm-69.753 0c0-15.095 12.281-27.376 27.376-27.376s27.375 12.281 27.375 27.376-12.281 27.375-27.375 27.375c-15.095 0-27.376-12.28-27.376-27.375z"/><path d="m80.316 472.801c23.237 17.581 50.923 26.873 80.065 26.873 14.113 0 28.024-2.218 41.346-6.592 8.011-2.63 16.73-1.782 23.921 2.325 6.381 3.645 12.461 7.786 18.07 12.306 7.009 5.648 17.392 5.779 24.562 0 5.608-4.52 11.688-8.661 18.07-12.306 7.191-4.108 15.91-4.956 23.92-2.325 13.323 4.374 27.234 6.592 41.347 6.592 25.455 0 50.214-7.252 71.599-20.971 3.487-2.237 4.5-6.877 2.263-10.363s-6.877-4.5-10.363-2.263c-18.963 12.166-40.92 18.596-63.498 18.596-12.521 0-24.858-1.966-36.668-5.844-12.035-3.951-25.172-2.656-36.041 3.553-7.072 4.039-13.815 8.633-20.043 13.652-1.688 1.36-4.046 1.36-5.734 0-6.228-5.02-12.972-9.613-20.044-13.652-10.87-6.21-24.006-7.504-36.042-3.553-11.809 3.878-24.146 5.844-36.667 5.844-25.848 0-50.404-8.242-71.014-23.835-18.505-14-32.68-33.445-40.33-55.179l19.194-13.399c1.024-.714 2.223-1.126 3.47-1.191l19.244-.997c4.545 13.439 13.009 25.451 24.265 34.293 13.142 10.323 29.575 15.868 46.306 15.612 39.778-.607 72.14-33.922 72.14-74.266v-63.607h44.686v63.607c0 40.343 32.362 73.659 72.14 74.266 16.74.254 33.165-5.29 46.306-15.612 11.256-8.842 19.72-20.854 24.266-34.293 0 0 19.244.997 19.244.997 1.242.064 2.452.479 3.471 1.191l19.194 13.399c-5.558 15.806-14.563 30.459-26.246 42.641-2.867 2.99-2.768 7.738.222 10.606 2.99 2.867 7.738 2.768 10.605-.222 12.244-12.768 21.866-27.955 28.195-44.359 3.108 1.604 6.484 2.418 9.865 2.418 4.229 0 8.462-1.256 12.169-3.772 7.496-5.088 10.999-14.074 8.922-22.893 0 0-18.191-77.268-18.201-77.309-3.591-15.253-22.475-21.746-34.687-11.904l-61.837 49.842c-7.054 5.686-9.808 14.928-7.015 23.547s10.443 14.491 19.492 14.96l.865.045c-9.112 21.491-30.8 36.09-54.603 35.721-31.632-.483-57.367-27.07-57.367-59.266v-63.607h73.786c7.05 3.247 14.569 4.913 22.389 4.913 29.616 0 53.711-24.095 53.711-53.711s-24.094-53.711-53.711-53.711c-7.821 0-15.339 1.666-22.39 4.913h-73.786v-37.86c29.627-14.038 50.17-44.231 50.17-79.134.005-48.258-39.253-87.517-87.509-87.517-19.577 0-38.113 6.364-53.605 18.406-3.271 2.542-3.861 7.255-1.319 10.525 2.541 3.271 7.254 3.862 10.525 1.319 12.834-9.976 28.187-15.249 44.399-15.249 39.983 0 72.513 32.529 72.513 72.513 0 39.353-33.149 72.513-72.513 72.513-39.265 0-72.513-32.945-72.513-72.513 0-13.118 3.564-25.986 10.308-37.212 2.133-3.551.983-8.159-2.568-10.292-3.552-2.134-8.159-.983-10.292 2.568-8.144 13.559-12.449 29.097-12.449 44.936 0 34.904 20.542 65.096 50.17 79.134v37.86h-73.786c-7.05-3.247-14.569-4.913-22.39-4.913-29.616 0-53.711 24.095-53.711 53.711s24.095 53.711 53.711 53.711c7.821 0 15.339-1.666 22.389-4.913h73.786v63.607c0 32.197-25.735 58.783-57.367 59.266-23.845.368-45.501-14.229-54.604-35.721l.867-.045c9.048-.468 16.699-6.34 19.492-14.96 2.793-8.619.039-17.862-7.015-23.547 0 0-61.788-49.803-61.837-49.842-12.228-9.856-31.103-3.322-34.687 11.904l-18.201 77.311c-2.076 8.819 1.426 17.806 8.923 22.893 6.429 4.363 14.998 4.982 22.031 1.356 8.887 23 24.272 43.505 44.059 58.475zm318.913-103.171c-.332-1.024-1.156-4.573 2.158-7.244 0 0 61.76-49.78 61.837-49.842 3.785-3.051 9.568-1.018 10.67 3.663 0 0 18.201 77.309 18.201 77.31 1.383 5.877-5.389 10.422-10.303 6.991 0 0-29.431-20.545-29.436-20.548-3.297-2.302-7.266-3.663-11.282-3.872l-35.85-1.856c-4.251-.22-5.663-3.579-5.995-4.602zm-157.418-195.756c4.689.768 9.442 1.155 14.19 1.155 7.525 0 15.067-.972 22.343-2.895v32.375h-44.686v-32.375c2.686.71 5.408 1.29 8.153 1.74zm186.418 79.433c0 21.344-17.365 38.709-38.709 38.709-4.582 0-9.022-.783-13.25-2.332v-72.754c4.228-1.549 8.668-2.332 13.25-2.332 21.345 0 38.709 17.365 38.709 38.709zm-344.458 0c0-21.344 17.365-38.709 38.709-38.709 4.582 0 9.022.783 13.25 2.332v72.754c-4.228 1.549-8.668 2.332-13.25 2.332-21.344.001-38.709-17.364-38.709-38.709zm66.961-33.796h210.536v67.593h-210.536zm-128.045 180.993c-2.131-1.454-3.468-4.075-2.782-6.989 0 0 18.201-77.309 18.201-77.31 1.097-4.658 6.933-6.747 10.671-3.662 0 0 61.316 49.422 61.834 49.839 4.709 3.796 2.134 11.539-3.835 11.849l-35.85 1.856c-4.054.21-7.955 1.549-11.281 3.872 0 0-29.436 20.548-29.437 20.549-2.485 1.735-5.397 1.445-7.521-.004z"/></svg>