<svg id="Capa_1" enable-background="new 0 0 512 512" height="512" viewBox="0 0 512 512" width="512" xmlns="http://www.w3.org/2000/svg"><path d="m256 7.5c-103.434 0-187.283 83.85-187.283 187.283 0 165.065 117.462 280.352 187.283 309.717 69.822-29.365 187.283-144.652 187.283-309.717 0-103.433-83.849-187.283-187.283-187.283z" fill="#ff748f"/><path d="m98.717 194.783c0-98.384 75.864-179.043 172.283-186.684-4.949-.392-9.95-.599-15-.599-103.434 0-187.283 83.85-187.283 187.283 0 165.065 117.462 280.352 187.283 309.717 4.791-2.015 9.813-4.449 15-7.262-70.396-38.175-172.283-148.717-172.283-302.455z" fill="#f9496e"/><path d="m241.924 54.875 23.716 139.911-23.716 139.911c-70.948-7.085-126.535-67.131-126.535-139.916 0-72.775 55.587-132.822 126.535-139.906z" fill="#00cd8c"/><path d="m396.611 194.78c0 77.535-63.076 140.611-140.611 140.611-4.751 0-9.449-.239-14.076-.695v-279.821c4.626-.456 9.325-.695 14.076-.695 77.535 0 140.611 63.076 140.611 140.6z" fill="#f9496e"/><circle cx="241.925" cy="192.709" fill="#fab659" r="79.355"/><circle cx="241.925" cy="192.709" fill="#e2e2e2" r="44.742"/><path d="m177.008 380.741v12.939c0 4.142 3.358 7.5 7.5 7.5s7.5-3.358 7.5-7.5v-12.939c0-4.142-3.358-7.5-7.5-7.5s-7.5 3.358-7.5 7.5z"/><path d="m319.992 380.741v12.939c0 4.142 3.358 7.5 7.5 7.5s7.5-3.358 7.5-7.5v-12.939c0-4.142-3.358-7.5-7.5-7.5s-7.5 3.358-7.5 7.5z"/><path d="m267.999 387.844c-2.913 3.332-7.286 5.243-11.999 5.243-4.712 0-9.086-1.911-11.999-5.243-2.726-3.118-7.463-3.437-10.583-.71-3.118 2.726-3.437 7.464-.71 10.583 5.761 6.591 14.251 10.371 23.292 10.371 9.042 0 17.531-3.78 23.292-10.371 2.727-3.119 2.408-7.857-.711-10.583-3.119-2.727-7.857-2.408-10.582.71z"/><path d="m450.785 194.785c0-107.405-87.38-194.785-194.785-194.785-48.075 0-94.248 17.67-130.015 49.755-3.084 2.766-3.341 7.508-.575 10.591 2.766 3.084 7.508 3.341 10.591.575 33.01-29.613 75.627-45.921 119.999-45.921 99.134 0 179.785 80.651 179.785 179.785 0 90.302-35.921 159.352-66.054 201.377-38.4 53.553-83.328 86.532-113.731 100.165-30.403-13.633-75.33-46.612-113.731-100.165-30.133-42.025-66.054-111.076-66.054-201.377 0-41.136 14.258-81.35 40.149-113.237 2.611-3.216 2.121-7.939-1.095-10.55s-7.94-2.121-10.55 1.095c-28.054 34.551-43.505 78.124-43.505 122.692 0 94.287 37.449 166.305 68.864 210.118 41.465 57.827 90.732 92.938 123.013 106.515 1.845.776 3.971.775 5.815 0 32.281-13.577 81.549-48.688 123.013-106.515 31.417-43.813 68.866-115.831 68.866-210.118z"/><path d="m241.925 140.468c-28.807 0-52.243 23.436-52.243 52.243s23.436 52.243 52.243 52.243 52.243-23.436 52.243-52.243-23.436-52.243-52.243-52.243zm0 89.485c-20.536 0-37.243-16.707-37.243-37.243s16.707-37.243 37.243-37.243c20.535 0 37.243 16.707 37.243 37.243s-16.707 37.243-37.243 37.243z"/><path d="m361.898 287.494c3.255 2.563 7.97 2 10.532-1.254 20.727-26.332 31.682-57.957 31.682-91.458 0-81.664-66.443-148.102-148.112-148.102-4.908 0-9.891.246-14.821.732-36.319 3.627-69.941 20.578-94.674 47.732-24.903 27.341-38.618 62.727-38.618 99.638 0 36.916 13.714 72.304 38.618 99.646 24.732 27.155 58.355 44.107 94.683 47.734 4.919.485 9.902.731 14.812.731 34.579 0 68.257-12.225 94.828-34.424 3.179-2.656 3.603-7.385.947-10.565-2.655-3.179-7.385-3.603-10.564-.947-23.879 19.949-54.141 30.935-85.211 30.935-2.18 0-4.377-.054-6.576-.161v-48.488c.104-.009.205-.025.309-.034 43.896-3.934 79.047-42.209 79.047-86.5 0-44.112-35.161-82.576-79.05-86.501-.103-.009-.204-.025-.307-.034v-44.333c2.199-.107 4.396-.161 6.576-.161 73.398 0 133.112 59.709 133.112 133.102 0 30.102-9.844 58.519-28.469 82.18-2.56 3.255-1.999 7.971 1.256 10.532zm-49.023-105.699c7.067 42.473-28.214 82.77-70.951 82.77-38.773 0-71.855-33.016-71.855-71.855 0-38.563 33.259-71.855 71.854-71.855 34.688 0 65.366 27.369 70.952 60.94zm-155.28 102.533c-22.382-24.573-34.707-56.375-34.707-89.546 0-33.166 12.326-64.965 34.707-89.537 20.349-22.342 47.379-36.999 76.829-41.821v42.752c-.105.009-.208.025-.312.035-43.894 4.104-79.042 42.39-79.042 86.5 0 44.187 35.206 82.396 79.042 86.5.104.01.208.025.313.035v46.905c-29.451-4.823-56.481-19.481-76.83-41.823z"/></svg>