<svg id="Capa_1" enable-background="new 0 0 512 512" height="512" viewBox="0 0 512 512" width="512" xmlns="http://www.w3.org/2000/svg"><path d="m245.024 453.309c-10.702-27.786-37.312-50.683-71.878-58.069-38.864-8.304-76.562 5.399-96.61 31.949 7.447 32.424 36.253 60.337 75.117 68.641 34.566 7.385 68.209-2.637 89.333-23.624 4.98-4.946 6.561-12.346 4.038-18.897z" fill="#918bd7"/><path d="m243.343 449.304c-.673 1.034-1.458 2.01-2.357 2.903-21.123 20.986-54.767 31.009-89.333 23.623-33.012-7.053-58.759-28.258-70.331-54.355-1.685 1.834-3.291 3.734-4.787 5.715 7.447 32.424 36.253 60.337 75.117 68.641 34.566 7.386 68.209-2.637 89.333-23.623 4.98-4.948 6.561-12.348 4.038-18.898-.519-1.349-1.087-2.682-1.68-4.006z" fill="#736acb"/><path d="m116.759 338.854c-7.386-34.566-30.282-61.175-58.069-71.878-6.55-2.523-13.95-.942-18.898 4.038-20.986 21.123-31.009 54.767-23.623 89.333 8.304 38.864 36.217 67.67 68.641 75.117 26.55-20.048 40.253-57.746 31.949-96.61z" fill="#918bd7"/><path d="m36.169 360.347c-7.385-34.566 2.637-68.209 23.623-89.333.893-.899 1.869-1.684 2.903-2.357-1.324-.593-2.657-1.161-4.005-1.681-6.55-2.523-13.95-.942-18.898 4.038-20.986 21.124-31.009 54.767-23.623 89.333 8.304 38.864 36.217 67.67 68.641 75.117 1.981-1.496 3.881-3.102 5.715-4.787-26.097-11.571-47.302-37.318-54.356-70.33z" fill="#736acb"/><path d="m400.93 259.841c-9.043-20.49-29.243-37.145-55.146-42.679-30.445-6.505-59.976 4.229-75.68 25.027 5.833 25.4 28.399 47.266 58.844 53.77 25.903 5.535 51.145-1.411 67.772-16.416 5.483-4.947 7.192-12.946 4.21-19.702z" fill="#918bd7"/><path d="m399.351 256.534c-.747 1.088-1.623 2.101-2.63 3.009-16.627 15.005-41.869 21.951-67.772 16.416-24.631-5.263-44.101-20.582-53.729-39.691-1.832 1.87-3.545 3.842-5.115 5.92 5.833 25.4 28.399 47.266 58.844 53.771 25.903 5.535 51.145-1.411 67.772-16.416 5.482-4.948 7.192-12.946 4.21-19.703-.492-1.114-1.023-2.215-1.58-3.306z" fill="#736acb"/><path d="m294.838 166.215c-5.535-25.903-22.189-46.103-42.679-55.146-6.756-2.982-14.755-1.273-19.703 4.21-15.005 16.627-21.951 41.869-16.416 67.772 6.505 30.444 28.371 53.01 53.77 58.844 20.799-15.704 31.533-45.235 25.028-75.68z" fill="#918bd7"/><path d="m236.041 183.052c-5.535-25.903 1.411-51.145 16.416-67.772.908-1.007 1.921-1.884 3.009-2.63-1.091-.557-2.191-1.088-3.306-1.58-6.756-2.982-14.755-1.273-19.703 4.21-15.005 16.627-21.951 41.869-16.416 67.772 6.505 30.444 28.371 53.01 53.77 58.844 2.078-1.569 4.051-3.282 5.921-5.115-19.109-9.628-34.428-29.098-39.691-53.729z" fill="#736acb"/><path d="m325.827 354.142c-9.82-24.269-33.294-44.169-63.648-50.655-34.654-7.404-68.269 4.814-86.145 28.488 6.64 28.912 32.326 53.801 66.98 61.206 30.354 6.486 59.911-2.084 78.792-20.22 5.039-4.84 6.642-12.343 4.021-18.819z" fill="#918bd7"/><path d="m324.099 350.228c-.661.976-1.422 1.896-2.292 2.732-18.881 18.136-48.438 26.706-78.792 20.221-28.823-6.159-51.429-24.417-62.046-47.02-1.751 1.853-3.404 3.788-4.934 5.814 6.64 28.912 32.326 53.801 66.98 61.206 30.354 6.485 59.911-2.084 78.792-20.221 5.038-4.839 6.641-12.342 4.021-18.818-.534-1.319-1.116-2.622-1.729-3.914z" fill="#736acb"/><path d="m208.513 249.821c-6.486-30.354-26.386-53.828-50.655-63.648-6.476-2.621-13.979-1.018-18.818 4.021-18.136 18.881-26.706 48.438-20.22 78.792 7.404 34.654 32.294 60.34 61.206 66.98 23.672-17.876 35.891-51.491 28.487-86.145z" fill="#918bd7"/><path d="m138.819 268.986c-6.486-30.354 2.084-59.911 20.22-78.792.836-.871 1.756-1.631 2.732-2.292-1.292-.613-2.595-1.195-3.914-1.729-6.476-2.621-13.979-1.018-18.818 4.021-18.136 18.881-26.706 48.438-20.22 78.792 7.404 34.654 32.294 60.34 61.206 66.98 2.026-1.53 3.961-3.183 5.814-4.934-22.604-10.617-40.862-33.224-47.02-62.046z" fill="#736acb"/><path d="m468.303 172.642c-8.272-16.533-25.088-29.796-46.375-34.344-26.235-5.605-51.682 3.645-65.215 21.567 5.027 21.888 24.472 40.73 50.707 46.335 21.286 4.548 42.055-.684 56.361-12.393 6.245-5.112 8.133-13.946 4.522-21.165z" fill="#918bd7"/><path d="m467.026 170.274c-.899 1.3-1.977 2.496-3.245 3.534-14.306 11.709-35.074 16.941-56.361 12.393-20.44-4.368-36.756-16.771-45.346-32.388-1.944 1.887-3.74 3.906-5.361 6.053 5.027 21.888 24.472 40.73 50.707 46.335 21.286 4.548 42.055-.684 56.361-12.393 6.246-5.112 8.134-13.947 4.522-21.165-.4-.8-.838-1.586-1.277-2.369z" fill="#736acb"/><path d="m373.702 90.072c-4.548-21.286-17.811-38.103-34.344-46.375-7.218-3.611-16.053-1.724-21.165 4.522-11.709 14.306-16.941 35.075-12.393 56.361 5.605 26.235 24.448 45.68 46.335 50.707 17.922-13.532 27.172-38.98 21.567-65.215z" fill="#918bd7"/><path d="m325.8 104.58c-4.548-21.286.684-42.055 12.393-56.361 1.038-1.268 2.234-2.346 3.534-3.245-.784-.44-1.569-.877-2.369-1.277-7.218-3.611-16.053-1.724-21.165 4.522-11.709 14.306-16.941 35.075-12.393 56.361 5.605 26.235 24.448 45.68 46.335 50.707 2.147-1.621 4.166-3.417 6.053-5.361-15.618-8.589-28.021-24.906-32.388-45.346z" fill="#736acb"/><path d="m11.715 500.285c-5.62-5.62-5.62-14.733 0-20.353l431.642-431.643c5.62-5.62 14.733-5.62 20.353 0s5.62 14.733 0 20.353l-431.642 431.643c-5.62 5.62-14.733 5.62-20.353 0z" fill="#00cd8c"/><path d="m503.303 22.726c-1.357-7.116-6.913-12.672-14.029-14.029-21.149-4.033-43.856 2.125-60.228 18.497-13.143 13.143-19.704 30.368-19.694 47.592.009 15.396 12.466 27.853 27.862 27.862 17.224.01 34.449-6.551 47.592-19.694 16.372-16.373 22.53-39.079 18.497-60.228z" fill="#918bd7"/><path d="m6.402 505.636c8.439 8.439 22.531 8.429 30.96 0l45.738-45.738c15.055 21.753 38.959 37.329 66.978 43.316 2.784.595 5.608 1.085 8.636 1.501 4.044.555 7.893-2.362 8.448-6.412.563-4.104-2.309-7.887-6.413-8.449-26.661-3.653-52.111-17.876-66.842-40.761l8.628-8.628s76.427 16.33 76.427 16.33c3.996.853 8.046-1.763 8.901-5.768.866-4.051-1.717-8.036-5.768-8.902l-66.922-14.299 27.096-27.096c9.714-.825 19.558-.189 29.302 1.893 30.83 6.587 56.291 27.061 66.447 53.431 1.451 3.766.538 8.037-2.325 10.881-12.162 12.083-29.069 20.207-47.608 22.876-4.1.59-6.945 4.392-6.355 8.492.59 4.099 4.389 6.945 8.492 6.355 21.707-3.125 41.61-12.742 56.043-27.081 7.081-7.035 9.338-17.599 5.751-26.914-11.958-31.045-41.581-55.074-77.311-62.709-5.748-1.228-11.53-2.001-17.31-2.35l23.908-23.908c13.519 19.324 35.345 33.57 60.138 38.867 7.157 1.529 14.375 2.274 21.511 2.274 24.308 0 47.628-8.651 64.045-24.42 7.202-6.917 9.524-17.784 5.778-27.041-11.045-27.296-37.498-48.439-69.035-55.177-4.946-1.057-9.912-1.73-14.874-2.065l25.204-25.204c12.008 17.119 31.287 29.706 53.306 34.411 6.492 1.387 13.001 2.066 19.412 2.066 20.699 0 40.359-7.078 54.953-20.249 7.929-7.156 10.359-18.528 6.046-28.299-10.396-23.556-32.991-41.121-60.441-46.986-4.135-.883-8.284-1.476-12.43-1.79l24.441-24.44c10.493 14.908 27.239 25.825 46.49 29.938 5.582 1.192 11.209 1.776 16.769 1.776 17.027 0 33.418-5.475 45.911-15.7 8.901-7.285 11.626-20.039 6.48-30.326-9.583-19.151-28.841-33.478-51.516-38.323-3.336-.713-6.679-1.193-10.017-1.482l19.588-19.588c1.361.161 2.742.253 4.145.254h.042c19.969 0 38.74-7.774 52.857-21.891 17.526-17.526 25.212-42.549 20.561-66.938-1.945-10.199-9.792-18.046-19.991-19.992-24.388-4.65-49.411 3.036-66.937 20.562-14.128 14.127-21.902 32.914-21.891 52.9.001 1.403.093 2.784.253 4.144l-19.588 19.588c-.289-3.338-.769-6.681-1.481-10.017-4.845-22.676-19.172-41.934-38.323-51.516-10.287-5.146-23.04-2.421-30.325 6.48-13.564 16.572-18.769 40.003-13.924 62.68 4.114 19.252 15.03 35.997 29.938 46.49l-24.441 24.441c-.314-4.146-.906-8.295-1.79-12.43-5.865-27.45-23.43-50.045-46.986-60.44-9.77-4.312-21.144-1.883-28.299 6.046-17.251 19.115-24.048 46.915-18.183 74.365 4.705 22.019 17.291 41.298 34.41 53.307l-25.204 25.204c-.335-4.961-1.009-9.927-2.066-14.874-2.376-11.121-6.466-21.608-12.156-31.17-2.118-3.559-6.721-4.729-10.281-2.609-3.56 2.118-4.728 6.721-2.61 10.28 4.853 8.154 8.344 17.115 10.378 26.633 1.917 8.97 2.451 18 1.592 26.882l-22.58 22.58-12.646-59.186c-.866-4.05-4.85-6.632-8.902-5.767-4.051.866-6.633 4.851-5.767 8.902l14.677 68.69-6.397 6.397c-17.375-11.181-30.288-30.403-35.002-52.467-5.712-26.735 1.298-54.336 18.295-72.03 2.711-2.822 6.969-3.732 10.597-2.264 6.435 2.604 12.559 6.296 18.202 10.974 3.189 2.644 7.918 2.202 10.561-.987 2.644-3.189 2.202-7.917-.987-10.561-6.832-5.664-14.284-10.149-22.149-13.332-9.257-3.745-20.124-1.424-27.041 5.777-20.399 21.237-28.884 54.019-22.146 85.556 5.297 24.793 19.544 46.619 38.867 60.138l-23.908 23.908c-.349-5.78-1.122-11.562-2.35-17.31-7.634-35.729-31.662-65.353-62.708-77.31-9.315-3.588-19.879-1.331-26.915 5.75-23.448 23.599-33.272 60.457-25.638 96.185 5.987 28.02 21.563 51.923 43.315 66.978l-45.738 45.739c-8.536 8.535-8.536 22.423 0 30.959zm312.468-148.634c1.468 3.627.558 7.885-2.265 10.596-17.695 16.997-45.296 24.007-72.03 18.295-22.064-4.714-41.286-17.628-52.467-35.002l6.397-6.397 68.691 14.677c.528.113 1.055.167 1.574.167 3.462 0 6.575-2.412 7.327-5.935.865-4.051-1.717-8.036-5.768-8.902l-59.186-12.646 22.58-22.58c8.882-.858 17.912-.324 26.881 1.592 26.737 5.712 49.062 23.39 58.266 46.135zm25.343-132.462c22.757 4.862 41.393 19.208 49.852 38.374 1.666 3.775.69 8.342-2.373 11.107-15.552 14.035-38.426 19.513-61.181 14.65-19.284-4.121-35.966-15.372-45.638-30.543l4.175-4.175s60.955 13.024 60.956 13.024c3.993.852 8.047-1.769 8.901-5.767.866-4.051-1.717-8.036-5.768-8.902l-51.451-10.993 18.027-18.027c8.092-.916 16.321-.496 24.5 1.252zm117.379-48.499c2.038 4.073.958 9.122-2.565 12.007-13.077 10.703-31.785 14.763-50.044 10.862-16.509-3.527-30.656-13.117-38.815-26.079l1.958-1.958s53.22 11.371 53.22 11.371c3.993.856 8.048-1.772 8.901-5.767.865-4.051-1.717-8.036-5.768-8.902l-43.715-9.34 13.454-13.454c7.287-.988 14.723-.688 22.138.896 18.26 3.9 33.675 15.252 41.236 30.364zm-27.246-143.503c13.829-13.829 34.32-20.094 53.521-16.434 4.115.785 7.281 3.951 8.066 8.067 3.719 19.504-2.424 39.511-16.433 53.52-11.284 11.285-26.287 17.498-42.251 17.498-.011 0-.023 0-.034 0-2.766-.002-5.54-.584-8.076-1.684l45.899-45.899c2.929-2.929 2.929-7.678 0-10.607s-7.678-2.929-10.607 0c0 0-45.899 45.899-45.899 45.899-1.105-2.541-1.682-5.305-1.684-8.076-.008-15.975 6.206-30.991 17.498-42.284zm-121.217 70.518c-3.901-18.259.16-36.968 10.863-50.045 2.848-3.48 7.989-4.575 12.005-2.565 15.113 7.561 26.465 22.976 30.366 41.235 1.585 7.416 1.884 14.852.896 22.138l-13.454 13.454-9.34-43.716c-.866-4.051-4.854-6.633-8.902-5.767-4.051.865-6.633 4.851-5.768 8.902l11.371 53.22-1.958 1.958c-12.962-8.159-22.552-22.306-26.079-38.814zm-89.761 78.472c-4.862-22.757.614-45.629 14.649-61.181 2.756-3.054 7.348-4.032 11.107-2.374 19.166 8.458 33.511 27.095 38.374 49.852 1.748 8.179 2.168 16.409 1.254 24.5l-18.027 18.027-10.993-51.451c-.866-4.051-4.851-6.634-8.902-5.768-4.05.865-6.633 4.851-5.767 8.902l13.024 60.955-4.175 4.175c-15.171-9.672-26.423-26.353-30.544-45.637zm-199.874 177.298c-6.587-30.829 1.693-62.433 21.609-82.48 2.816-2.835 7.163-3.758 10.882-2.326 26.37 10.157 46.844 35.618 53.431 66.447 2.082 9.743 2.717 19.588 1.893 29.302l-27.095 27.095-14.299-66.922c-.865-4.051-4.852-6.632-8.902-5.767-4.051.865-6.633 4.851-5.767 8.901l16.33 76.426-8.628 8.629c-19.811-12.752-34.06-34.063-39.454-59.305zm-6.486 126.457 390.791-390.791c2.575 3.86 5.887 7.172 9.747 9.747 0 0-390.377 390.377-390.792 390.791-2.649 2.649-7.104 2.642-9.747 0-2.686-2.688-2.686-7.06.001-9.747z"/></svg>