<svg id="Capa_1" enable-background="new 0 0 512 512" height="512" viewBox="0 0 512 512" width="512" xmlns="http://www.w3.org/2000/svg"><path d="m157.638 27.046-21.386-16.798c-4.664-3.664-11.229-3.664-15.893 0l-21.387 16.798c-6.065 4.764-9.607 12.049-9.607 19.762v66.54h77.879v-66.54c.001-7.713-3.541-14.998-9.606-19.762z" fill="#b2b0bc"/><path d="m128.305 49.965c-8.075 0-14.621 6.546-14.621 14.621v48.762h29.243v-48.762c-.001-8.075-6.547-14.621-14.622-14.621z" fill="#5c586f"/><path d="m354.362 27.046 21.386-16.798c4.664-3.664 11.229-3.664 15.893 0l21.386 16.798c6.065 4.764 9.607 12.049 9.607 19.762v66.54h-77.879v-66.54c0-7.713 3.542-14.998 9.607-19.762z" fill="#b2b0bc"/><path d="m383.695 49.965c8.075 0 14.621 6.546 14.621 14.621v48.762h-29.243v-48.762c.001-8.075 6.547-14.621 14.622-14.621z" fill="#5c586f"/><path d="m280.283 504.5h-48.566l-73.378-36.25-73.378 36.25h-50.391v-358.313l221.43-26.397 221.43 26.397v358.313h-50.391l-73.378-34.856z" fill="#b2b0bc"/><path d="m34.57 146.187v29.997l.004.001h442.853l.003-.001v-29.997l-221.43-26.397z" fill="#938ea3"/><path d="m477.426 93.403h-442.852c-14.575 0-26.391 11.815-26.391 26.391 0 14.575 11.815 26.391 26.391 26.391h442.853c14.575 0 26.391-11.815 26.391-26.391-.001-14.576-11.816-26.391-26.392-26.391z" fill="#c7c5cb"/><path d="m427.039 313.097v191.403h-146.756v-191.403c0-50.68 73.378-82.453 73.378-82.453s73.378 31.773 73.378 82.453z" fill="#5c586f"/><path d="m231.717 313.097v191.403h-146.756v-191.403c0-50.68 73.378-82.453 73.378-82.453s73.378 31.773 73.378 82.453z" fill="#5c586f"/><path d="m173.339 238.387c-8.795-5.053-15-7.742-15-7.742s-73.378 31.772-73.378 82.453v191.402h30v-191.402c0-35.95 36.915-62.38 58.378-74.711z" fill="#423e4f"/><path d="m368.661 238.387c-8.795-5.053-15-7.742-15-7.742s-73.378 31.772-73.378 82.453v191.402h30v-191.402c0-35.95 36.915-62.38 58.378-74.711z" fill="#423e4f"/><path d="m159.747 180.725v16.063c0 4.142 3.358 7.5 7.5 7.5s7.5-3.358 7.5-7.5v-16.063c0-4.142-3.358-7.5-7.5-7.5s-7.5 3.358-7.5 7.5z"/><path d="m337.253 180.725v16.063c0 4.142 3.358 7.5 7.5 7.5s7.5-3.358 7.5-7.5v-16.063c0-4.142-3.358-7.5-7.5-7.5s-7.5 3.358-7.5 7.5z"/><path d="m272.259 190.735c-3.959 4.529-9.885 7.127-16.258 7.127s-12.299-2.598-16.259-7.128c-2.726-3.119-7.464-3.436-10.583-.711-3.119 2.726-3.437 7.464-.711 10.582 6.808 7.789 16.851 12.256 27.552 12.256s20.744-4.467 27.552-12.256c2.726-3.119 2.408-7.857-.711-10.582-3.118-2.725-7.856-2.407-10.582.712z"/><path d="m27.076 152.846v351.654c0 4.142 3.358 7.5 7.5 7.5h442.848c4.142 0 7.5-3.358 7.5-7.5v-265.431c0-4.142-3.358-7.5-7.5-7.5s-7.5 3.358-7.5 7.5v257.931h-35.39v-183.897c0-54.972-74.715-87.956-77.896-89.333-1.901-.823-4.058-.823-5.96 0-3.181 1.377-77.896 34.361-77.896 89.333v183.897h-33.565v-183.897c0-54.972-74.715-87.956-77.896-89.333-1.901-.823-4.058-.823-5.96 0-3.181 1.377-77.896 34.36-77.896 89.333v103.573c0 4.142 3.358 7.5 7.5 7.5s7.5-3.358 7.5-7.5v-103.573c0-39.663 52.675-67.757 65.884-74.176 5.748 2.781 18.941 9.643 32.073 19.864 27.931 21.74 33.794 41.535 33.794 54.312v183.897h-131.75v-50.326c0-4.142-3.358-7.5-7.5-7.5s-7.5 3.358-7.5 7.5v50.326h-35.39v-343.306h427.848v55.376c0 4.142 3.358 7.5 7.5 7.5s7.5-3.358 7.5-7.5v-56.224c15.087-3.425 26.387-16.934 26.387-33.042 0-18.687-15.203-33.89-33.89-33.89h-47.291v-39.094c0-10.08-4.546-19.433-12.473-25.659l-21.387-16.798c-7.406-5.818-17.751-5.818-25.158 0l-21.386 16.798c-7.927 6.226-12.473 15.579-12.473 25.659v39.094h-162.506v-39.094c0-10.08-4.547-19.433-12.474-25.659l-21.386-16.798c-7.406-5.817-17.751-5.817-25.158 0l-21.385 16.798c-7.927 6.226-12.474 15.578-12.474 25.659v39.094h-47.291c-18.687 0-33.89 15.203-33.89 33.89.001 16.108 11.3 29.617 26.387 33.042zm260.706 160.257c0-39.655 52.653-67.745 65.876-74.172 13.231 6.43 65.876 34.52 65.876 74.172v183.897h-131.752zm64.471-266.283c0-5.447 2.456-10.499 6.739-13.863l21.386-16.798c1.951-1.532 4.676-1.532 6.627 0l21.386 16.798c4.283 3.364 6.739 8.417 6.739 13.863v39.094h-16.817v-21.316c0-8.075-6.546-14.621-14.621-14.621s-14.621 6.546-14.621 14.621v21.316h-16.817v-39.094zm-255.383 0c0-5.447 2.456-10.499 6.74-13.863l21.386-16.798c1.952-1.533 4.677-1.532 6.627 0l21.386 16.798c4.283 3.364 6.74 8.417 6.74 13.863v39.094h-16.819v-21.316c0-8.075-6.546-14.621-14.621-14.621s-14.621 6.546-14.621 14.621v21.316h-16.818zm380.551 54.094c10.416 0 18.89 8.474 18.89 18.89s-8.474 18.89-18.89 18.89h-.023-442.796-.023c-10.416 0-18.89-8.474-18.89-18.89s8.474-18.89 18.89-18.89z"/></svg>