<svg id="Capa_1" enable-background="new 0 0 512 512" height="512" viewBox="0 0 512 512" width="512" xmlns="http://www.w3.org/2000/svg"><path d="m367.16 18.644h-111.16v64.874h111.16l-18.987-32.437z" fill="#e2e2e2"/><path d="m169.572 172.491s29.848.886 29.848-18.316-29.848-18.316-29.848-18.316z" fill="#423e4f"/><path d="m342.428 172.491s-29.848.886-29.848-18.316 29.848-18.316 29.848-18.316z" fill="#423e4f"/><path d="m455.44 273.328s-1.03 18.24-7.18 40.55l-192.26 23.872-192.26-23.872c-6.15-22.31-7.18-40.55-7.18-40.55l199.44-23.27z" fill="#ca5935"/><path d="m127.548 108.149c-25.244 0-45.708 20.464-45.708 45.708v17.998c0 5.996-4.861 10.857-10.857 10.857h-13.713c-6.157 0-10.859 5.527-9.852 11.601 5.556 33.5 34.422 51.471 34.422 51.471h39.284c28.792 0 52.132-23.34 52.132-52.132v-39.795c-.001-25.244-20.465-45.708-45.708-45.708z" fill="#5c586f"/><path d="m454.73 182.712h-13.713c-5.996 0-10.857-4.861-10.857-10.857v-17.998c0-25.244-20.464-45.708-45.708-45.708-25.244 0-45.708 20.464-45.708 45.708v39.795c0 28.792 23.34 52.132 52.132 52.132h39.284s28.866-17.97 34.422-51.471c1.008-6.074-3.695-11.601-9.852-11.601z" fill="#5c586f"/><path d="m264.253 9.058h-16.507c-5.294 0-9.586 4.292-9.586 9.586v231.414h35.678v-231.414c.001-5.294-4.291-9.586-9.585-9.586z" fill="#e27858"/><path d="m448.26 313.878c-6.26 22.69-17.82 49.6-38.97 65.81h-306.58c-21.15-16.21-32.71-43.12-38.97-65.81z" fill="#e27858"/><path d="m7.5 354.623c22.765-9.239 48.235-9.239 71 0 22.765 9.239 48.235 9.239 71 0 22.765-9.239 48.235-9.239 71 0 22.765 9.239 48.235 9.239 71 0 22.765-9.239 48.235-9.239 71 0 22.765 9.239 48.235 9.239 71 0 22.765-9.239 48.235-9.239 71 0v74.159l-248.5 33.616-248.5-33.615z" fill="#e2e2e2"/><path d="m7.5 502.942h497v-74.159c-22.765-9.239-48.235-9.239-71 0-22.765 9.239-48.235 9.239-71 0-22.765-9.239-48.235-9.239-71 0-22.765 9.239-48.235 9.239-71 0-22.765-9.239-48.235-9.239-71 0-22.765 9.239-48.235 9.239-71 0-22.765-9.239-48.235-9.239-71 0z" fill="#00cd8c"/><path d="m238.161 196.783h35.678v53.275h-35.678z" fill="#ca5935"/><path d="m455.437 226.783h-398.874c-12.854 0-23.275 10.42-23.275 23.275 0 12.854 10.42 23.275 23.275 23.275h398.873c12.854 0 23.275-10.42 23.275-23.275 0-12.854-10.42-23.275-23.274-23.275z" fill="#e27858"/><path d="m144.84 161.116c4.142 0 7.5-3.358 7.5-7.5v-9.107c0-4.143-3.358-7.5-7.5-7.5s-7.5 3.357-7.5 7.5v9.107c0 4.141 3.358 7.5 7.5 7.5z"/><path d="m367.161 137.008c-4.142 0-7.5 3.357-7.5 7.5v9.107c0 4.142 3.358 7.5 7.5 7.5s7.5-3.358 7.5-7.5v-9.107c0-4.142-3.358-7.5-7.5-7.5z"/><path d="m507.32 347.674c-19.733-8.009-41.065-9.615-61.443-4.833 3.715-8.24 6.932-17.252 9.613-26.97 4.161-15.097 6.056-28.393 6.872-35.834 13.644-3.151 23.849-15.392 23.849-29.979 0-14.247-9.733-26.26-22.898-29.749 4.333-7.875 7.241-16.165 8.668-24.769 1.741-10.495-6.632-20.328-17.251-20.328h-13.713c-1.851 0-3.356-1.506-3.356-3.357v-17.998c0-29.339-23.869-53.208-53.208-53.208-20.159 0-37.735 11.27-46.761 27.839-6.704.456-18.443 2.321-25.896 9.555-4.394 4.266-6.717 9.844-6.717 16.132 0 13.073 9.645 22.085 26.165 24.907v14.569c0 8.911 2.023 17.674 5.807 25.632h-55.713v-128.265h85.821c2.688 0 5.169-1.438 6.506-3.77s1.324-5.2-.034-7.519l-16.77-28.648 16.77-28.648c1.357-2.319 1.371-5.188.034-7.519s-3.819-3.77-6.506-3.77h-87.579c-2.784-5.667-8.6-9.585-15.328-9.585h-16.507c-9.421 0-17.085 7.665-17.085 17.085v200.64h-55.713c3.785-7.958 5.807-16.721 5.807-25.632v-14.569c16.521-2.822 26.165-11.834 26.165-24.907 0-6.288-2.323-11.867-6.717-16.132-7.452-7.234-19.191-9.099-25.895-9.554-9.025-16.57-26.602-27.84-46.761-27.84-29.339 0-53.208 23.869-53.208 53.208v17.998c0 1.851-1.506 3.357-3.357 3.357 0 0-13.71 0-13.713 0-10.621 0-18.989 9.845-17.251 20.328 1.427 8.604 4.336 16.894 8.669 24.77-13.165 3.489-22.898 15.502-22.898 29.749 0 14.587 10.205 26.828 23.849 29.979.817 7.448 2.714 20.749 6.873 35.835 2.681 9.716 5.898 18.729 9.613 26.969-20.378-4.783-41.71-3.177-61.443 4.833-2.829 1.146-4.68 3.895-4.68 6.948v148.318c0 4.142 3.358 7.5 7.5 7.5h497c4.142 0 7.5-3.358 7.5-7.5v-148.318c0-3.053-1.851-5.802-4.68-6.95zm-187.24-193.499c0-6.307 6.873-8.676 12.002-9.777-.559 3.115-.837 6.295-.837 9.459v9.935c-5.527-1.302-11.165-4.006-11.165-9.617zm26.165 39.476v-39.794c0-21.068 17.14-38.208 38.208-38.208s38.208 17.14 38.208 38.208v17.998c0 10.122 8.235 18.357 18.356 18.357h13.714c1.492 0 2.696 1.402 2.452 2.874-1.522 9.178-5.168 17.976-10.853 26.198h-91.994c-5.238-7.471-8.091-16.45-8.091-25.633zm-4.545-138.781 12.379 21.148h-72.74v-49.874h72.74l-12.379 21.148c-1.369 2.34-1.369 5.237 0 7.578zm-96.039-36.226c0-1.15.936-2.085 2.085-2.085h16.507c1.15 0 2.086.936 2.086 2.085v200.64h-20.678zm-65.742 125.757c5.17 1.128 12.002 3.421 12.002 9.773 0 5.611-5.638 8.315-11.165 9.617v-9.935c-.001-3.153-.279-6.35-.837-9.455zm-124.539 46.7c.457-.539 1.137-.889 1.889-.889h13.713c10.122 0 18.357-8.235 18.357-18.357v-17.998c0-21.068 17.14-38.208 38.208-38.208s38.208 17.14 38.208 38.208v39.794c0 9.184-2.854 18.162-8.092 25.632h-91.994c-5.684-8.223-9.33-17.021-10.853-26.198-.122-.739.113-1.453.564-1.984zm-14.591 58.957c0-8.698 7.076-15.774 15.774-15.774h398.873c8.698 0 15.775 7.077 15.775 15.775s-7.077 15.774-15.775 15.774h-292.673c-4.142 0-7.5 3.358-7.5 7.5s3.358 7.5 7.5 7.5h284.401c-.752 6.101-2.159 15.215-4.699 25.545h-58.066c-4.142 0-7.5 3.358-7.5 7.5s3.358 7.5 7.5 7.5h53.751c-3.507 10.545-7.733 19.984-12.615 28.173-13.481 4.509-27.713 5.623-41.531 3.368-8.061-1.344-15.668-4.318-23.344-7.008-22.66-7.953-47.123-7.669-69.655.852-22.246 8.413-45.269 10.016-67.683.911-23.803-9.663-50.276-9.788-74.317-.911-20.388 7.71-41.546 9.809-62.537 2.788-4.883-8.189-9.108-17.627-12.615-28.173h281.66c4.142 0 7.5-3.358 7.5-7.5s-3.358-7.5-7.5-7.5h-285.978c-2.544-10.345-3.951-19.456-4.701-25.545h67.959c4.142 0 7.5-3.358 7.5-7.5s-3.358-7.5-7.5-7.5h-76.23c-8.698 0-15.774-7.077-15.774-15.775zm-25.789 109.768c19.794-6.76 41.153-6.177 60.68 1.747 24.382 9.895 52.263 9.899 76.641 0 21.074-8.553 44.286-8.553 65.359 0 26.447 10.735 54.229 7.753 80.616-1.503 19.698-6.914 41.848-6.425 61.384 1.503 24.461 9.932 52.179 9.928 76.641 0 19.526-7.924 40.885-8.507 60.68-1.747v58.44c-.126-.037-.254-.065-.381-.101-21.579-6.165-45.163-4.764-65.94 3.668-20.839 8.458-44.514 8.461-65.359 0-24.352-9.883-52.283-9.886-76.641 0-20.835 8.456-44.521 8.458-65.359 0-24.462-9.927-52.182-9.926-76.641 0-20.796 8.441-44.562 8.443-65.359 0-20.7-8.402-44.438-9.764-65.945-3.667-.125.035-.25.063-.375.099v-58.439zm0 135.616v-61.441c19.588-6.686 41.503-6.052 60.68 1.731 24.375 9.893 52.272 9.89 76.641 0 20.777-8.432 44.587-8.43 65.359 0 24.364 9.888 52.28 9.887 76.641 0 20.802-8.443 44.564-8.44 65.359 0 24.837 10.083 51.773 9.487 76.641 0 .01-.004.021-.007.031-.012 14.346-5.81 30.136-7.732 45.451-5.439 5.156.772 10.265 2.033 15.198 3.72v61.441z"/></svg>