<svg id="Capa_1" enable-background="new 0 0 512 512" height="512" viewBox="0 0 512 512" width="512" xmlns="http://www.w3.org/2000/svg"><path d="m413.332 419.229h-314.664c-4.105 0-8.031-1.682-10.862-4.655l-32.861-34.504c-.71-.745-1.341-1.562-1.883-2.436l-17.352-27.959c-1.681-2.709-2.455-5.883-2.211-9.061l14.353-186.417c.166-2.156.796-4.251 1.848-6.141l15.998-28.756c1.3-2.336 3.2-4.283 5.505-5.638l160.74-94.516c2.305-1.355 4.929-2.07 7.603-2.07h32.907c2.674 0 5.298.714 7.603 2.07l160.74 94.516c2.305 1.355 4.205 3.301 5.505 5.638l15.998 28.756c1.051 1.89 1.682 3.985 1.848 6.141l14.353 186.417c.245 3.178-.53 6.352-2.211 9.061l-17.351 27.959c-.542.874-1.174 1.69-1.883 2.436l-32.862 34.503c-2.831 2.973-6.756 4.656-10.861 4.656zm-308.235-30h301.806l27.362-28.728 13.948-22.476-13.725-178.251-12.417-22.32-153.701-90.377h-24.74l-153.701 90.377-12.417 22.32-13.724 178.251 13.947 22.475z" fill="#e2e2e2"/><path d="m263.055 7.5h-14.11c-5.871 0-10.631 4.76-10.631 10.631v127.097c0 5.871 4.76 10.631 10.631 10.631h14.11c5.871 0 10.631-4.76 10.631-10.631v-127.097c0-5.871-4.759-10.631-10.631-10.631z" fill="#ca5935"/><path d="m467.792 136.184-6.86-12.331c-2.854-5.131-9.328-6.976-14.459-4.122l-111.066 61.789c-5.131 2.854-6.976 9.328-4.122 14.459l6.86 12.331c2.854 5.131 9.328 6.976 14.459 4.122l111.067-61.789c5.13-2.855 6.976-9.328 4.121-14.459z" fill="#ca5935"/><path d="m479.099 351.03-107.992-67.018c-4.989-3.096-11.543-1.561-14.639 3.427l-7.44 11.989c-3.096 4.989-1.562 11.543 3.427 14.639l107.992 67.018c4.989 3.096 11.543 1.562 14.639-3.427l7.44-11.989c3.097-4.989 1.562-11.543-3.427-14.639z" fill="#e27858"/><path d="m176.593 181.52-111.066-61.789c-5.131-2.854-11.604-1.009-14.459 4.122l-6.86 12.331c-2.854 5.131-1.009 11.604 4.122 14.459l111.066 61.788c5.131 2.854 11.604 1.009 14.459-4.122l6.86-12.331c2.854-5.13 1.008-11.604-4.122-14.458z" fill="#e27858"/><path d="m162.971 299.428-7.44-11.989c-3.096-4.989-9.65-6.523-14.639-3.427l-107.991 67.018c-4.989 3.096-6.523 9.65-3.427 14.639l7.44 11.989c3.096 4.989 9.65 6.523 14.639 3.427l107.992-67.018c4.988-3.096 6.522-9.65 3.426-14.639z" fill="#ca5935"/><path d="m429.983 445.155-173.983 29.672-173.983-29.672 30.542-169.547 143.441-29.672 143.441 29.672z" fill="#e2e2e2"/><path d="m112.017 445.155 30.542-169.547 128.441-26.569-15-3.103-143.441 29.672-30.542 169.547 173.983 29.673 15-2.559z" fill="#c1bfc5"/><path d="m388.749 216.263-132.749 29.673-132.749-29.673 65.52-94.546c5.427-7.822 14.331-12.481 23.851-12.481h86.754c9.52 0 18.424 4.659 23.851 12.481z" fill="#e27858"/><path d="m153.251 216.263 65.52-94.546c5.427-7.822 14.331-12.481 23.851-12.481h-30c-9.52 0-18.424 4.659-23.851 12.481l-65.52 94.546 132.749 29.673 15-3.353z" fill="#ca5935"/><path d="m399.441 275.608h-286.882l10.692-59.345h265.498z" fill="#78cbec"/><path d="m123.251 216.263-10.692 59.345h30l10.692-59.345z" fill="#00acdc"/><path d="m429.983 445.155h-347.966l-10.693 59.345h121.621l63.055-29.673 63.055 29.673h121.621z" fill="#78cbec"/><path d="m82.017 445.155-10.693 59.345h30l10.693-59.345z" fill="#00acdc"/><path d="m291.975 349.628h-71.951c-14.955 0-27.079 12.124-27.079 27.079v127.793h126.109v-127.793c.001-14.955-12.123-27.079-27.079-27.079z" fill="#4f4c5f"/><path d="m250.025 349.628h-30c-14.955 0-27.079 12.124-27.079 27.079v127.793h30v-127.793c-.001-14.955 12.123-27.079 27.079-27.079z" fill="#423e4f"/><path d="m174.578 294.136c-4.142 0-7.5 3.358-7.5 7.5v14.742c0 4.142 3.358 7.5 7.5 7.5s7.5-3.358 7.5-7.5v-14.742c0-4.142-3.358-7.5-7.5-7.5z"/><path d="m337.484 323.878c4.142 0 7.5-3.358 7.5-7.5v-14.742c0-4.142-3.358-7.5-7.5-7.5s-7.5 3.358-7.5 7.5v14.742c0 4.142 3.358 7.5 7.5 7.5z"/><path d="m281.071 309.705c-3.119-2.726-7.856-2.408-10.583.711-3.517 4.023-8.786 6.331-14.457 6.331s-10.94-2.307-14.458-6.331c-2.727-3.119-7.465-3.437-10.583-.71-3.119 2.726-3.437 7.464-.71 10.583 6.366 7.282 15.751 11.458 25.75 11.458 10 0 19.385-4.176 25.75-11.458 2.728-3.12 2.409-7.858-.709-10.584z"/><path d="m41.844 389.705c3.69.864 7.582.549 11.081-.912l26.619 27.948s-15.555 86.337-15.571 86.429c-.816 4.529 2.787 8.83 7.381 8.83h369.351c4.603 0 8.196-4.304 7.382-8.83l-15.571-86.429 26.62-27.948c2.201.919 4.541 1.396 6.913 1.396 6.24 0 12.15-3.275 15.44-8.578 0 0 7.437-11.984 7.44-11.988 4.587-7.391 3.138-17.347-3.371-23.105.458-2.112.62-4.288.451-6.48l-14.336-186.193c5.313-5.596 6.649-14.218 2.704-21.309 0 0-6.858-12.325-6.86-12.33-3.545-6.372-10.819-10.077-18.059-9.185-1.423-1.483-3.044-2.775-4.828-3.825l-160.74-94.514c-1.341-.789-2.773-1.429-4.256-1.925-2.832-6.329-9.177-10.757-16.548-10.757h-14.11c-7.371 0-13.716 4.428-16.548 10.757-1.482.495-2.914 1.136-4.255 1.925l-84.752 49.834c-3.57 2.1-4.763 6.696-2.664 10.267 2.101 3.571 6.698 4.763 10.267 2.664l79.82-46.935v17.401l-137.363 80.77-15.207-8.459 47.197-27.751c3.57-2.1 4.763-6.696 2.664-10.267-2.101-3.571-6.698-4.763-10.267-2.664l-50.435 29.656c-1.785 1.05-3.406 2.342-4.829 3.825-2.378-.293-4.812-.114-7.185.563-4.658 1.328-8.52 4.39-10.874 8.622l-6.86 12.331c-2.354 4.232-2.92 9.128-1.592 13.786.817 2.866 2.296 5.427 4.295 7.525l-14.336 186.19c-.168 2.191-.007 4.367.451 6.479-2.787 2.466-4.754 5.714-5.619 9.412-1.104 4.715-.306 9.579 2.248 13.693l7.44 11.989c2.554 4.114 6.557 6.988 11.272 8.092zm12.901-226.928 14.427 8.026-12.041 156.382-15.8 9.805zm69.633 38.738s-7.209 10.402-7.213 10.408c-.624.904-1.069 1.926-1.264 3.01 0 0-15.372 85.32-15.372 85.32l-27.598 17.127 10.668-138.552zm70.587-75.523c4.021-5.796 10.634-9.257 17.689-9.257h86.754c7.055 0 13.668 3.46 17.687 9.253l57.362 82.774h-49.963c-4.142 0-7.5 3.358-7.5 7.5s3.358 7.5 7.5 7.5h58.016l7.99 44.346h-268.938l7.99-44.346h165.097c4.142 0 7.5-3.358 7.5-7.5s-3.358-7.5-7.5-7.5h-157.044zm86.252-62.679 122.157 71.829-44.522 24.769-29.431-42.47c-6.824-9.834-18.043-15.706-30.014-15.706h-18.19zm189.514 273.677-15.8-9.805-12.041-156.382 14.427-8.025zm-42.268-158.161 10.668 138.551-27.599-17.127s-15.367-85.295-15.372-85.32c-.202-1.122-.702-2.046-1.268-3.016 0 0-7.209-10.402-7.209-10.402zm-136.456 163.299h-71.951c-19.067 0-34.579 15.512-34.579 34.579v60.948h-94.458l27.84-154.546h274.344l27.84 154.546h-94.457v-60.948c0-19.067-15.513-34.579-34.579-34.579zm-248.69 31.575s-7.44-11.989-7.44-11.99c-.898-1.447-.43-3.417 1.01-4.31l60.062-37.274-4.863 26.994-44.458 27.59c-1.465.909-3.4.457-4.311-1.01zm22.798 7.19 13.02-8.08 6.999 7.349-3.295 18.29zm22.202 71.762h97.159v44.345h-105.149zm112.159-75.948c0-10.796 8.783-19.579 19.579-19.579h71.951c10.796 0 19.579 8.783 19.579 19.579v120.293h-111.109zm126.11 120.293v-44.345h97.159l7.99 44.345zm99.341-116.838 6.999-7.349 13.019 8.08-16.724 17.559zm50.258-18.448s-7.44 11.989-7.44 11.989c-.902 1.452-2.861 1.908-4.311 1.009l-44.458-27.59-4.863-26.994s60.063 37.274 60.063 37.275c1.451.901 1.909 2.861 1.009 4.311zm-14.916-221.884c.839 1.509.295 3.419-1.214 4.258l-80.957 45.038-11.66-16.826s82.524-45.91 82.59-45.947c1.466-.816 3.492-.452 4.38 1.146zm-27.482-21.607-15.207 8.459-137.363-80.77v-17.401zm-184.811-103.223h14.11c1.727 0 3.131 1.404 3.131 3.131v83.604h-20.373v-83.604c0-1.727 1.405-3.131 3.132-3.131zm-18.132 48.313v38.422h-18.19c-11.97 0-23.19 5.872-30.016 15.709l-29.429 42.466-44.521-24.769zm-180.051 76.517s6.86-12.332 6.86-12.332c.823-1.479 2.767-2.033 4.246-1.219.013.007.025.016.038.023.034.019 82.686 45.998 82.686 45.998l-11.66 16.826s-80.745-44.92-80.749-44.922c-1.551-.86-2.33-2.74-1.421-4.374z"/></svg>