<svg id="Capa_1" enable-background="new 0 0 512 512" height="512" viewBox="0 0 512 512" width="512" xmlns="http://www.w3.org/2000/svg"><path d="m256 7.5c-9.683 0-17.533 7.85-17.533 17.533v53.277h35.067v-53.277c0-9.683-7.851-17.533-17.534-17.533z" fill="#e27858"/><path d="m273.534 38.135c-5.817-.422-11.664-.645-17.534-.645s-11.717.223-17.534.646v40.174h35.067v-40.175z" fill="#ca5935"/><path d="m214.597 504.5c-33.553 0-60.85-27.297-60.85-60.85v-27.379c0-10.74 8.707-19.447 19.447-19.447s19.447 8.707 19.447 19.447v27.379c0 12.106 9.849 21.956 21.956 21.956s21.956-9.85 21.956-21.956v-217.562c0-10.74 8.707-19.447 19.447-19.447s19.447 8.707 19.447 19.447v217.562c0 33.553-27.297 60.85-60.85 60.85z" fill="#e27858"/><path d="m173.798 273.002c-6.398-3.957-13.273-7.098-20.079-9.578-29.239-10.676-61.462-10.676-90.701 0-1.497.545-2.995 1.118-4.492 1.731-11.425 4.667-23.531-4.939-21.82-17.162 15.052-107.659 107.493-190.503 219.294-190.503z" fill="#ff748f"/><path d="m66.706 247.993c13.644-97.59 90.88-174.79 188.483-188.376l.811-2.127c-111.801 0-204.242 82.844-219.294 190.503-1.711 12.223 10.394 21.83 21.82 17.162 1.497-.612 2.995-1.186 4.492-1.73 2.504-.915 5.03-1.744 7.574-2.502-2.957-3.331-4.589-7.908-3.886-12.93z" fill="#f9496e"/><path d="m256 57.49c111.801 0 204.242 82.844 219.294 190.503 1.711 12.222-10.394 21.829-21.82 17.162-1.497-.613-2.995-1.186-4.492-1.731-29.239-10.676-61.462-10.676-90.701 0-6.806 2.479-13.681 5.62-20.079 9.578z" fill="#ff748f"/><path d="m275.447 226.088c0-10.741-8.707-19.447-19.447-19.447s-19.447 8.707-19.447 19.447v61.207c6.381-1.233 12.878-1.878 19.447-1.878 6.567 0 13.064.644 19.447 1.879z" fill="#ca5935"/><path d="m338.202 273.002c-5.144 3.18-11.639 3.18-16.783 0-6.398-3.967-13.263-7.098-20.069-9.578-29.239-10.676-61.462-10.676-90.701 0-6.806 2.479-13.671 5.61-20.069 9.578-5.144 3.18-11.639 3.18-16.783 0 0 0-.924-125.142 82.202-215.512 83.127 90.37 82.203 215.512 82.203 215.512z" fill="#00cd8c"/><path d="m164.063 182.302v-17.997c0-4.142-3.358-7.5-7.5-7.5-4.143 0-7.5 3.358-7.5 7.5v17.997c0 4.142 3.357 7.5 7.5 7.5 4.142 0 7.5-3.358 7.5-7.5z"/><path d="m347.937 164.305v17.997c0 4.142 3.358 7.5 7.5 7.5 4.143 0 7.5-3.358 7.5-7.5v-17.997c0-4.142-3.357-7.5-7.5-7.5-4.142 0-7.5 3.359-7.5 7.5z"/><path d="m285.479 175.403c-3.12-2.727-7.857-2.407-10.583.711-4.608 5.271-11.495 8.294-18.896 8.294s-14.288-3.023-18.896-8.294c-2.726-3.118-7.463-3.437-10.583-.71-3.118 2.726-3.437 7.464-.71 10.583 7.457 8.53 18.46 13.422 30.189 13.422s22.733-4.892 30.189-13.422c2.727-3.12 2.408-7.859-.71-10.584z"/><path d="m38.175 268.898c6.688 5.202 15.357 6.399 23.191 3.198 28.306-11.564 60.6-12.16 89.347-1.785 6.648 2.41 13.122 5.346 19.143 9.07 7.608 4.703 17.061 4.703 24.678-.006 5.443-3.375 11.729-6.372 18.689-8.907 5.19-1.895 10.479-3.433 15.831-4.615v177.797c0 7.971-6.485 14.456-14.456 14.456s-14.456-6.485-14.456-14.456v-27.378c0-14.858-12.088-26.947-26.947-26.947-14.858 0-26.947 12.089-26.947 26.947v27.378c0 37.688 30.662 68.35 68.35 68.35s68.35-30.662 68.35-68.35v-177.796c5.353 1.182 10.644 2.721 15.836 4.617 6.955 2.533 13.241 5.529 18.693 8.91 7.379 4.576 17.111 4.672 24.672-.001 30.585-18.903 70.881-21.04 104.273-8.907 9.579 3.48 18.644 5.239 27.405-1.575 6.758-5.257 10.084-13.46 8.897-21.944-9.275-66.338-47.145-125.115-103.898-161.262-3.495-2.225-8.13-1.196-10.355 2.297-2.225 3.494-1.196 8.13 2.297 10.355 53.043 33.783 88.435 88.706 97.101 150.688.434 3.103-.779 6.102-3.248 8.023-4.236 3.296-8.732.899-13.064-.676-30.904-11.284-64.942-11.284-95.841-.002-3.636 1.324-7.128 2.77-10.457 4.327-.06-.906-.184-1.825-.184-2.732-3.843-53.091-18.804-105.829-45.019-152.251-7.888-13.969-16.87-27.336-26.936-39.831-.061-.075-.118-.15-.17-.225.142.011.284.014.425.017 25.701 2.046 50.496 8.65 73.916 19.718 3.745 1.77 8.216.168 9.985-3.577 1.77-3.745.169-8.215-3.576-9.985-23.107-10.919-47.459-17.78-72.665-20.503v-26.301c-.002-13.804-11.232-25.034-25.035-25.034-13.804 0-25.034 11.23-25.034 25.034v26.334c-73.615 8.09-139.448 51.506-175.677 117.359-1.997 3.629-.673 8.19 2.956 10.187s8.19.673 10.187-2.956c34.903-63.442 99.203-104.61 170.562-110.292.02-.001.039 0 .067-.002-.064.079-.125.158-.188.237-32.015 39.712-52.857 87.948-63.831 137.551-4.142 18.718-7.053 37.743-8.274 56.883-.007.119-.017.251-.025.37-3.328-1.557-6.818-3.002-10.452-4.325-32.264-11.749-68.797-11.179-100.603 1.833-6.021 2.459-12.439-2.862-11.555-9.181 2.24-16.022 6.315-31.79 12.111-46.863 1.486-3.866-.442-8.206-4.309-9.692-3.867-1.487-8.206.442-9.692 4.309-6.206 16.139-10.568 33.018-12.966 50.169-1.187 8.483 2.14 16.687 8.898 21.943zm229.772 174.752c0 29.417-23.933 53.35-53.35 53.35s-53.35-23.933-53.35-53.35v-27.378c0-6.588 5.359-11.947 11.947-11.947s11.947 5.359 11.947 11.947v27.378c0 16.242 13.213 29.456 29.456 29.456s29.456-13.214 29.456-29.456v-180.156c.004 0 .008 0 .012-.001 7.937-.761 15.922-.762 23.859-.001.007.001.015.001.022.002v180.156zm57.425-177.022c-20.505-12.674-45.393-18.712-69.374-18.712-24.078 0-48.789 5.988-69.362 18.707-1.6.989-3.428 1.402-5.214 1.236.67-16.783 4.905-72.583 31.471-130.95 10.861-23.861 24.711-46.441 41.68-66.456.47-.556.95-1.107 1.427-1.66.363.421.727.841 1.086 1.264 41.989 49.413 65.057 113.514 71.955 177.45.718 6.702 1.261 13.423 1.534 20.159.002.066.005.128.007.192-1.789.167-3.614-.244-5.21-1.23zm-79.406-216.413v-25.181c0-5.533 4.501-10.034 10.034-10.034 5.532 0 10.033 4.501 10.033 10.034v25.182c-.429-.019-6.933-.218-9.762-.222-.09 0-.18-.003-.271-.003-3.344-.001-6.693.065-10.034.224z"/></svg>