<svg id="Capa_1" enable-background="new 0 0 512 512" height="512" viewBox="0 0 512 512" width="512" xmlns="http://www.w3.org/2000/svg"><circle cx="84.364" cy="42.674" fill="#f4e64c" r="26.21"/><path d="m88.154 42.674c0-8.895 4.435-16.75 11.21-21.488-4.25-2.973-9.42-4.722-15-4.722-14.475 0-26.21 11.735-26.21 26.21s11.735 26.21 26.21 26.21c5.58 0 10.75-1.75 15-4.722-6.775-4.738-11.21-12.593-11.21-21.488z" fill="#fab659"/><circle cx="427.636" cy="42.674" fill="#f4e64c" r="26.21"/><path d="m431.426 42.674c0-8.895 4.435-16.75 11.21-21.488-4.25-2.973-9.42-4.722-15-4.722-14.475 0-26.21 11.735-26.21 26.21s11.735 26.21 26.21 26.21c5.58 0 10.75-1.75 15-4.722-6.775-4.738-11.21-12.593-11.21-21.488z" fill="#fab659"/><path d="m148.316 176.145-41.998-119.159h-43.907l-41.999 119.159 63.952 21.186z" fill="#00cd8c"/><path d="m50.412 176.145 41.999-119.159h-30l-41.999 119.159 63.952 21.186 15-4.969z" fill="#00a45b"/><path d="m363.684 176.145 41.998-119.159h43.907l41.999 119.159-63.952 21.186z" fill="#00cd8c"/><path d="m393.684 176.145 41.998-119.159h-30l-41.998 119.159 63.952 21.186 15-4.969z" fill="#00a45b"/><path d="m148.316 176.145h-127.904c-10.092 0-16.27 11.071-10.972 19.66l11.025 17.874c3.647 5.912 5.578 12.722 5.578 19.668v262.19h75.612l41.032-105.188v-167.628l16.602-26.917c5.297-8.588-.881-19.659-10.973-19.659z" fill="#938ea3"/><path d="m50.465 213.678-11.025-17.873c-5.298-8.589.881-19.66 10.972-19.66h-30c-10.091 0-16.27 11.07-10.972 19.66l11.025 17.874c3.647 5.912 5.578 12.722 5.578 19.668v262.19h30v-262.19c-.001-6.947-1.932-13.756-5.578-19.669z" fill="#827f98"/><path d="m363.684 176.145h127.904c10.091 0 16.27 11.071 10.972 19.66l-11.025 17.874c-3.647 5.912-5.578 12.722-5.578 19.668v262.19h-75.612l-41.032-105.188v-167.628l-16.602-26.917c-5.297-8.588.881-19.659 10.973-19.659z" fill="#938ea3"/><path d="m399.314 390.349v-167.628l-16.602-26.917c-5.298-8.589.881-19.66 10.972-19.66h-30c-10.091 0-16.27 11.07-10.972 19.66l16.602 26.917v167.627h30z" fill="#827f98"/><path d="m394.331 222.721h-41.915c-8.845 0-16.014 7.17-16.014 16.015v17.517c0 4.738-3.841 8.579-8.579 8.579h-26.272c-4.738 0-8.579-3.841-8.579-8.579v-17.517c0-8.845-7.17-16.015-16.014-16.015h-41.915c-8.845 0-16.014 7.17-16.014 16.015v17.517c0 4.738-3.841 8.579-8.579 8.579h-26.272c-4.738 0-8.579-3.841-8.579-8.579v-17.517c0-8.845-7.17-16.015-16.014-16.015h-41.915c-8.845 0-16.014 7.17-16.014 16.015v256.8h104.613l49.731-15.828 49.733 15.828h104.613v-256.8c0-8.845-7.17-16.015-16.015-16.015z" fill="#b2b0bc"/><g fill="#5c586f"><path d="m256 392.972c-27.467 0-49.733 22.266-49.733 49.733v52.832h99.465v-52.832c.001-27.467-22.265-49.733-49.732-49.733z"/><path d="m203.544 308.148c-4.988-2.403-10.012-5.3-13.794-8.562-3.628-3.129-9.056-3.129-12.684 0-3.782 3.262-8.807 6.159-13.794 8.562-11.733 5.653-19.272 17.432-19.272 30.455v21.55c0 6.019 4.88 10.899 10.899 10.899h57.017c6.019 0 10.899-4.88 10.899-10.899v-21.55c0-13.023-7.539-24.802-19.271-30.455z"/><path d="m308.456 308.148c4.988-2.403 10.012-5.3 13.794-8.562 3.628-3.129 9.056-3.129 12.684 0 3.782 3.262 8.807 6.159 13.794 8.562 11.733 5.653 19.272 17.432 19.272 30.455v21.55c0 6.019-4.88 10.899-10.899 10.899h-57.017c-6.019 0-10.899-4.88-10.899-10.899v-21.55c0-13.023 7.539-24.802 19.271-30.455z"/></g><path d="m154.945 378.574h57.027c10.147 0 18.402-8.255 18.402-18.403v-21.554c0-15.725-9.232-30.334-23.519-37.219-5.223-2.517-9.312-5.035-12.154-7.486-6.409-5.527-16.075-5.527-22.484 0-2.842 2.451-6.931 4.969-12.154 7.486-14.288 6.885-23.519 21.494-23.519 37.219v21.554c-.001 10.148 8.254 18.403 18.401 18.403zm-3.399-39.957c0-10.154 5.759-19.236 15.029-23.703 6.408-3.088 11.602-6.331 15.44-9.641.806-.695 2.082-.695 2.888 0 3.837 3.309 9.032 6.552 15.44 9.64 9.27 4.467 15.029 13.549 15.029 23.703v21.554c0 1.874-1.525 3.4-3.4 3.4h-57.027c-1.875 0-3.4-1.526-3.4-3.4v-21.553z"/><path d="m300.155 378.574h57.026c10.147 0 18.403-8.255 18.403-18.403v-21.554c0-15.725-9.232-30.334-23.52-37.219-5.223-2.517-9.312-5.035-12.154-7.486-6.409-5.527-16.075-5.528-22.484 0-2.841 2.451-6.93 4.969-12.153 7.486-14.287 6.885-23.519 21.494-23.519 37.219v21.554c-.001 10.148 8.254 18.403 18.401 18.403zm-3.399-39.957c0-10.154 5.759-19.236 15.029-23.703 6.408-3.088 11.603-6.331 15.44-9.641.81-.697 2.078-.698 2.888 0 3.838 3.31 9.032 6.553 15.44 9.64 9.271 4.467 15.029 13.55 15.029 23.703v21.554c0 1.874-1.525 3.4-3.4 3.4h-57.026c-1.874 0-3.4-1.526-3.4-3.4z"/><path d="m486.061 503.079c4.143 0 7.501-3.358 7.501-7.501v-262.236c0-5.56 1.543-11 4.462-15.733 0 0 11.009-17.847 11.027-17.877 6.961-11.286 1.027-26.783-11.782-30.345l-12.716-36.077c-1.377-3.907-5.66-5.958-9.569-4.581-3.907 1.377-5.958 5.661-4.581 9.568l10.691 30.332h-106.731l36.718-104.177h33.296l16.363 46.428c1.377 3.907 5.661 5.958 9.569 4.581 3.907-1.377 5.958-5.661 4.581-9.568l-17-48.234c2.322-4.651 3.555-9.77 3.555-15.023 0-18.591-15.125-33.716-33.716-33.716s-33.716 15.125-33.716 33.716c0 5.252 1.233 10.371 3.555 15.022l-39.379 111.728c-5.143 1.43-9.518 4.834-12.233 9.698-3.654 6.547-3.485 14.265.451 20.646l9.549 15.483h-3.461c-12.968 0-23.518 10.55-23.518 23.518v17.52c0 .595-.484 1.079-1.079 1.079h-26.277c-.595 0-1.079-.484-1.079-1.079v-17.52c0-12.968-10.55-23.518-23.518-23.518h-41.922c-12.968 0-23.519 10.55-23.519 23.518v17.52c0 .595-.484 1.079-1.079 1.079h-26.276c-.595 0-1.079-.484-1.079-1.079v-17.52c0-12.968-10.55-23.518-23.519-23.518h-3.46l9.55-15.483c3.936-6.381 4.104-14.1.45-20.647-2.715-4.864-7.089-8.268-12.232-9.698l-39.38-111.725c2.322-4.651 3.556-9.771 3.556-15.023 0-18.591-15.125-33.716-33.716-33.716s-33.716 15.125-33.716 33.716c0 5.252 1.233 10.372 3.556 15.023l-39.38 111.727c-5.143 1.43-9.518 4.834-12.232 9.698-3.654 6.547-3.486 14.266.45 20.647l11.027 17.877c2.919 4.733 4.462 10.173 4.462 15.733v262.236c0 4.143 3.358 7.501 7.501 7.501zm-58.332-479.155c10.319 0 18.713 8.395 18.713 18.713 0 2.351-.438 4.657-1.282 6.813h-34.861c-.845-2.157-1.283-4.462-1.283-6.813 0-10.319 8.394-18.713 18.713-18.713zm-213.905 464.152v-45.34c0-23.291 18.949-42.24 42.24-42.24s42.24 18.949 42.24 42.24v45.34zm145.352-296.22c-2.188-3.547.467-8.223 4.59-8.223h127.926c4.09 0 6.784 4.668 4.59 8.224l-11.027 17.877c-4.38 7.101-6.695 15.265-6.695 23.609v254.734h-60.622v-249.344c0-12.968-10.551-23.518-23.519-23.518h-20.835c0-.001-14.408-23.359-14.408-23.359zm-257.485 231.212c4.143 0 7.501-3.358 7.501-7.501v-176.834c0-4.696 3.82-8.516 8.516-8.516h41.922c4.696 0 8.516 3.82 8.516 8.516v17.52c0 8.867 7.214 16.082 16.082 16.082h26.276c8.868 0 16.082-7.215 16.082-16.082v-17.52c0-4.696 3.82-8.516 8.516-8.516h41.922c4.696 0 8.516 3.82 8.516 8.516v17.52c0 8.867 7.214 16.082 16.082 16.082h26.277c8.868 0 16.082-7.215 16.082-16.082v-17.52c0-4.696 3.82-8.516 8.516-8.516h41.922c4.696 0 8.516 3.82 8.516 8.516v249.344h-89.628v-45.34c0-31.564-25.679-57.242-57.243-57.242s-57.243 25.679-57.243 57.242v45.34h-89.628v-42.504c0-4.143-3.358-7.501-7.501-7.501s-7.501 3.358-7.501 7.501v42.504h-60.624v-254.735c0-8.343-2.315-16.507-6.695-23.609 0 0-11.027-17.877-11.028-17.879-2.188-3.551.46-8.222 4.591-8.222h127.927c4.168.001 6.769 4.689 4.589 8.224l-14.408 23.358h-20.835c-12.968 0-23.519 10.55-23.519 23.518v176.834c.001 4.144 3.359 7.502 7.502 7.502zm-70.658-254.438 36.718-104.177h33.295l36.718 104.177zm53.365-144.706c10.318 0 18.713 8.395 18.713 18.713 0 2.351-.438 4.656-1.283 6.813h-34.861c-.845-2.157-1.283-4.462-1.283-6.813 0-10.319 8.395-18.713 18.714-18.713z"/></svg>