<svg id="Capa_1" enable-background="new 0 0 512 512" height="512" viewBox="0 0 512 512" width="512" xmlns="http://www.w3.org/2000/svg"><path d="m490.478 155.383-71.62 47.165c-1.477.973-3.207 1.491-4.975 1.491h-96.875c-4.996 0-9.046-4.05-9.046-9.046v-99.586l48.656-73.885c3.961-6.015-.353-14.022-7.555-14.022h-186.124c-7.202 0-11.516 8.007-7.555 14.022l48.656 73.885v99.586c0 4.996-4.05 9.046-9.046 9.046h-96.876c-1.769 0-3.498-.518-4.975-1.491l-71.62-47.165c-6.015-3.961-14.022.353-14.022 7.555v186.123c0 7.202 8.007 11.516 14.022 7.555l71.62-47.165c1.477-.973 3.207-1.491 4.975-1.491h105.921v105.921c0 1.769-.518 3.498-1.491 4.975l-47.165 71.62c-3.961 6.015.353 14.022 7.555 14.022h186.123c7.202 0 11.516-8.007 7.555-14.022l-47.165-71.62c-.973-1.477-1.491-3.207-1.491-4.975v-105.92h105.921c1.769 0 3.498.518 4.975 1.491l71.62 47.165c6.015 3.961 14.022-.353 14.022-7.555v-186.123c.002-7.203-8.005-11.517-14.02-7.556z" fill="#f7496e"/><g fill="#e0254c"><path d="m204.039 95.407v99.586c0 4.996-4.05 9.046-9.046 9.046h30.5c4.996 0 9.046-4.05 9.046-9.046v-99.586l-48.656-73.885c-3.961-6.015.353-14.022 7.555-14.022h-30.5c-7.202 0-11.516 8.007-7.555 14.022z"/><path d="m185.883 490.478 47.165-71.621c.973-1.477 1.491-3.207 1.491-4.975v-105.921h-30.5v105.921c0 1.769-.518 3.498-1.491 4.975l-47.165 71.621c-3.961 6.015.353 14.022 7.555 14.022h30.5c-7.201 0-11.516-8.007-7.555-14.022z"/><path d="m38 166.235-16.478-10.851c-6.015-3.961-14.022.353-14.022 7.555v186.123c0 7.202 8.007 11.516 14.022 7.555l16.478-10.852z"/></g><path d="m413.882 238.108h-139.99v-139.99h-35.784v139.99h-139.99v35.784h139.99v139.99h35.784v-139.99h139.99z" fill="#e0e0e0"/><path d="m8.698 363.628c5.366 2.891 11.86 2.604 16.949-.748l71.621-47.164c.253-.167.547-.255.851-.255h98.421v98.421c0 .303-.088.598-.255.851 0 0-47.087 71.503-47.164 71.62-7.007 10.64 1.107 25.647 13.819 25.647h186.122c12.662 0 20.775-15.086 13.819-25.647l-47.165-71.621c-.167-.253-.255-.547-.255-.851v-98.421h98.421c.303 0 .597.088.851.255 0 0 71.519 47.098 71.62 47.164 10.58 6.967 25.647-1.182 25.647-13.819v-37.084c0-4.142-3.358-7.5-7.5-7.5s-7.5 3.358-7.5 7.5v37.083c0 1.224-1.374 1.965-2.396 1.293l-71.621-47.165c-2.709-1.784-5.856-2.727-9.101-2.727h-105.921c-4.142 0-7.5 3.358-7.5 7.5v105.921c0 3.244.943 6.391 2.728 9.101 0 0 46.988 71.353 47.164 71.62.676 1.026-.079 2.398-1.291 2.398 0 0-185.701 0-186.122 0-1.222 0-1.965-1.375-1.292-2.397l47.165-71.621c1.784-2.71 2.728-5.856 2.728-9.101v-105.921c0-4.142-3.358-7.5-7.5-7.5h-105.923c-3.244 0-6.391.943-9.101 2.727 0 0-71.396 47.017-71.62 47.165-1.028.678-2.397-.073-2.397-1.291v-115.375c0-4.142-3.358-7.5-7.5-7.5s-7.5 3.358-7.5 7.5v115.375c0 6.094 3.333 11.676 8.698 14.567z"/><path d="m7.5 211.186c4.142 0 7.5-3.358 7.5-7.5 0 0 0-40.418 0-40.745 0-1.237 1.364-1.974 2.397-1.293l71.621 47.164c2.709 1.784 5.856 2.728 9.101 2.728h96.875c9.124 0 16.546-7.423 16.546-16.546v-99.588c0-1.466-.43-2.9-1.236-4.125 0 0-48.572-73.758-48.656-73.885-.637-.966.004-2.396 1.291-2.396h186.12c1.239 0 1.972 1.367 1.294 2.396l-48.656 73.885c-.807 1.225-1.236 2.659-1.236 4.125v99.586c0 9.124 7.423 16.546 16.546 16.546h96.875c3.244 0 6.391-.943 9.101-2.728 0 0 71.327-46.971 71.62-47.164 1.031-.679 2.397.075 2.397 1.291v119.038c0 4.142 3.358 7.5 7.5 7.5s7.5-3.358 7.5-7.5c0 0 0-118.979 0-119.038 0-12.908-14.847-20.933-25.646-13.819l-71.621 47.165c-.253.167-.547.255-.851.255h-96.875c-.853 0-1.546-.693-1.546-1.546v-97.338s47.388-71.96 47.419-72.008c7.117-10.807-.924-25.646-13.818-25.646 0 0-185.998 0-186.122 0-12.915 0-20.932 14.846-13.819 25.646l47.419 72.008v97.338c0 .853-.694 1.546-1.546 1.546h-96.876c-.303 0-.597-.088-.851-.255 0 0-71.574-47.134-71.621-47.165-10.808-7.116-25.646.936-25.646 13.82v40.747c0 4.143 3.358 7.501 7.5 7.501z"/><path d="m238.108 421.382h35.784c4.142 0 7.5-3.357 7.5-7.5v-132.49h132.491c4.142 0 7.5-3.357 7.5-7.5v-35.784c0-4.142-3.358-7.5-7.5-7.5h-132.491v-132.491c0-4.142-3.358-7.5-7.5-7.5h-35.784c-4.142 0-7.5 3.358-7.5 7.5v132.49h-132.49c-4.142 0-7.5 3.358-7.5 7.5v35.784c0 4.143 3.358 7.5 7.5 7.5h132.491v132.49c-.001 4.143 3.357 7.501 7.499 7.501zm-132.49-154.99v-20.784h132.491c4.142 0 7.5-3.357 7.5-7.5v-132.49h20.784v132.49c0 4.143 3.358 7.5 7.5 7.5h132.491v20.784h-132.492c-4.142 0-7.5 3.358-7.5 7.5v132.49h-20.784v-132.49c0-4.142-3.358-7.5-7.5-7.5z"/></svg>