<svg id="Capa_1" enable-background="new 0 0 512 512" height="512" viewBox="0 0 512 512" width="512" xmlns="http://www.w3.org/2000/svg"><path d="m52.168 412.988-36.849 36.849c-10.362 10.362-10.362 27.162 0 37.524l9.368 9.368c10.362 10.362 27.162 10.362 37.524 0l36.849-36.849z" fill="#008b48"/><path d="m408.928 297.649.829-5.348c1.052-6.793 5.806-12.431 12.323-14.616l4.792-1.607c18.578-6.231 30.906-23.866 30.376-43.454l-.143-5.281c-.182-6.726 3.325-13.014 9.142-16.394l3.463-2.012c17.487-10.16 25.939-30.823 20.585-50.325l-1.254-4.569c-1.654-6.027-.134-12.481 4.037-17.136l.001-.001c14.963-16.699 15.188-41.914.525-58.877l-6.121-7.081c1.217-25.562-18.725-46.476-44.316-46.476h-2.159l-7.079-6.119c-16.963-14.664-42.179-14.44-58.878.523-4.655 4.171-11.109 5.691-17.136 4.037l-4.574-1.255c-19.502-5.353-40.163 3.098-50.324 20.583l-2.016 3.47c-3.38 5.817-9.668 9.323-16.393 9.141l-5.286-.143c-19.587-.529-37.222 11.799-43.452 30.377l-1.607 4.792c-2.186 6.517-7.824 11.271-14.617 12.323l-5.344.828c-19.187 2.972-34.242 18.026-37.214 37.213l-2.542 16.407 26.075 155.432 154.689 25.327 16.404-2.541c19.187-2.977 34.241-18.03 37.214-37.218z" fill="#f4e64c"/><path d="m355.31 337.403 16.403-2.541c19.188-2.972 34.242-18.026 37.215-37.213l.829-5.348c1.053-6.793 5.806-12.431 12.323-14.616l4.792-1.607c18.578-6.231 30.906-23.866 30.376-43.454l-.143-5.281c-.182-6.726 3.325-13.014 9.142-16.394l3.463-2.012c17.487-10.16 25.939-30.823 20.585-50.325l-1.254-4.569c-1.654-6.027-.134-12.482 4.037-17.136l.001-.001c14.962-16.698 15.188-41.914.525-58.877l-6.121-7.081c1.144-24.015-16.39-43.925-39.736-46.247 7.626 8.361 12.044 19.679 11.452 32.105l6.121 7.081c14.662 16.963 14.437 42.179-.525 58.877l-.001.001c-4.171 4.655-5.691 11.109-4.037 17.136l1.254 4.569c5.354 19.503-3.098 40.165-20.585 50.325l-3.463 2.012c-5.818 3.38-9.324 9.668-9.142 16.394l.143 5.281c.53 19.588-11.798 37.223-30.376 43.454l-4.792 1.607c-6.517 2.185-11.27 7.824-12.323 14.616l-.829 5.348c-2.973 19.187-18.027 34.241-37.215 37.213l-16.403 2.541z" fill="#fab659"/><path d="m170.253 110.244c-4.038-6.529-14.052-4.651-15.392 2.908-10.568 59.609-60.331 113.519-107.101 160.288-35.562 35.562-47.109 86.041-34.652 131.296l.006-.006 213.912-119.804c-1.983-75.768-36.988-142.697-56.773-174.682z" fill="#00a45b"/><path d="m401.711 341.699c-61.816-38.241-254.17-133.351-388.597 63.031l-.008.008c6.002 21.798 17.564 42.379 34.702 59.501 52.833 52.782 138.856 51.733 191.697-1.041 46.504-46.444 100.028-95.541 159.163-106.085 7.621-1.358 9.625-11.342 3.043-15.414z" fill="#00cd8c"/><path d="m401.711 341.699c-5.147-3.184-11.203-6.763-18.05-10.534-1.077 2.324-3.203 4.2-6.205 4.736-59.135 10.543-112.658 59.64-159.163 106.084-49.273 49.209-127.39 53.436-180.553 10.991 3.114 3.891 6.46 7.658 10.069 11.263 52.834 52.782 138.856 51.733 191.698-1.041 46.505-46.444 100.028-95.541 159.163-106.084 7.619-1.359 9.623-11.342 3.041-15.415z" fill="#00a45b"/><path d="m291.723 105.07-9.458 9.458c-2.93 2.93-2.93 7.679 0 10.608 2.823 2.823 7.673 2.934 10.608 0l9.458-9.458c2.93-2.93 2.93-7.679 0-10.608-2.929-2.929-7.679-2.929-10.608 0z"/><path d="m396.245 209.592-9.458 9.458c-2.93 2.929-2.93 7.679 0 10.608 2.894 2.894 7.715 2.891 10.608 0l9.458-9.458c2.93-2.929 2.93-7.679 0-10.608s-7.679-2.929-10.608 0z"/><path d="m352.883 176.85c-4.644.313-9.303-1.516-12.799-5.012-3.496-3.497-5.323-8.161-5.012-12.799.278-4.133-2.847-7.709-6.981-7.987-4.143-.275-7.709 2.848-7.987 6.981-.602 8.956 2.814 17.854 9.372 24.413 6.373 6.373 15.384 9.979 24.412 9.372 4.133-.278 7.259-3.853 6.981-7.987-.277-4.133-3.859-7.261-7.986-6.981z"/><path d="m438.865 12.641c-19.762-17.085-49.337-16.822-68.794.61-4.401 3.943-9.636 2.532-14.722 1.136-22.759-6.247-46.935 3.639-58.796 24.043-4.355 7.491-9.021 8.963-17.014 8.747-23.039-.628-43.441 13.639-50.77 35.491-2.849 8.493-6.919 11.573-15.608 12.919-12.707 1.968-24.018 8.501-32.032 18.135-1.555-2.635-3.061-5.131-4.494-7.447-7.495-12.117-26.664-8.521-29.158 5.543-10.198 57.515-59.561 110.842-105.03 156.311-36.135 36.133-50.155 89.215-36.6 138.544.005.02.008.041.013.061 2.866 10.408 6.924 20.439 12.053 29.896l-7.912 7.913c-13.271 13.271-13.271 34.864 0 48.135l9.369 9.369c6.635 6.635 15.351 9.953 24.067 9.953s17.432-3.318 24.067-9.953l7.946-7.946c15.645 8.402 32.853 13.768 51.058 15.817 4.06.459 7.836-2.554 8.293-6.614.463-4.116-2.498-7.829-6.615-8.292-49.473-5.564-92.368-41.36-106.892-88.917.804-1.153 1.614-2.303 2.432-3.447 31.548-44.126 73.777-81.763 125.893-99.13 4.377-1.459 7.978-4.911 6.342-9.952-1.263-3.889-5.562-6.085-9.453-4.821-39.904 12.963-75.136 37.196-103.951 67.434-8.872 9.311-17.176 19.179-24.931 29.437-.218.288-.438.568-.655.857-5.444-39.246 7.688-79.341 36.083-107.736 47.084-47.084 98.235-102.493 109.194-164.298.143-.804 1.228-.922 1.629-.273 14.612 23.655 26.935 48.82 36.424 74.96.018.05.036.1.054.15 10.258 28.278 17.144 57.978 18.844 88.059-.044 0-.088.002-.132.002-14.349.073-28.7 1.34-42.819 3.913-4.58.835-7.344 5.879-5.611 10.186 1.301 3.238 4.74 5.224 8.305 4.574 33.336-6.079 66.77-3.708 99.809 2.838.025.005.049.011.074.016 42.092 9.169 82.378 26.602 118.962 49.209.776.48.402 1.514-.408 1.657-61.61 10.985-116.526 61.596-163.163 108.173-21.07 21.043-48.975 34.275-78.577 37.26-4.121.415-7.126 4.094-6.71 8.215.406 4.025 4.184 7.127 8.215 6.71 33.029-3.33 64.165-18.094 87.673-41.571 45.025-44.966 97.863-93.796 155.195-104.018 14.06-2.507 17.854-21.645 5.673-29.18-2.324-1.438-4.814-2.944-7.449-4.498 9.633-8.014 16.164-19.324 18.133-32.029 1.394-8.999 4.019-12.627 12.918-15.611 24.68-8.275 36.015-31.394 35.349-56.055-.163-6.025 4.242-9.026 8.877-11.719 20.41-11.859 30.301-36.039 24.052-58.802-1.417-5.163-2.907-10.255 1.136-14.716.014-.016.028-.032.042-.048 17.392-19.456 17.642-49 .573-68.748l-4.244-4.909c-.118-13.28-5.109-25.706-14.229-35.271-9.681-10.152-22.8-15.81-37.005-15.974zm-381.968 478.798c-7.422 7.422-19.498 7.422-26.92 0l-9.369-9.369c-7.422-7.422-7.422-19.499 0-26.92l5.376-5.376c.489.706.988 1.404 1.49 2.102 9.535 13.272 21.36 24.892 34.811 34.174zm423.128-420.879c-.229 4.838 5.036 8.984 7.939 12.343 12.161 14.069 11.973 35.123-.437 48.973-.014.015-.028.031-.042.047-7.451 8.472-7.195 18.43-4.39 28.653 4.448 16.204-2.592 33.416-17.121 41.859-12.109 7.036-16.56 16.825-16.194 30.38.444 16.401-9.709 30.926-25.265 36.143-13.808 4.631-20.787 13.42-22.974 27.538-1.708 11.024-8.231 20.584-17.712 26.201-6.663-3.592-13.959-7.299-21.812-10.977-22.892-10.72-46.721-19.46-71.282-25.492-.083-.021-.167-.041-.251-.062-4.272-1.049-56.291-9.66-56.23-8.477-.002-.033-.004-.066-.006-.099-.148-2.829-.355-5.656-.589-8.48-2.969-35.678-12.626-70.699-26.505-103.627-5.365-12.726-11.346-25.204-17.901-37.359 5.617-9.48 15.177-16.003 26.202-17.712 14.473-2.242 22.987-9.409 27.535-22.972 5.217-15.555 19.738-25.712 36.141-25.267 13.625.37 23.541-4.414 30.388-16.199 8.441-14.528 25.656-21.568 41.858-17.12 10.031 2.753 20.182 3.206 28.703-4.429 13.851-12.41 34.905-12.596 48.974-.434 4.712 4.073 7.662 7.637 14.143 7.946 10.307 0 19.819 4.023 26.785 11.329 6.967 7.304 10.533 16.997 10.043 27.294z"/></svg>