<svg id="Capa_1" enable-background="new 0 0 512 512" height="512" viewBox="0 0 512 512" width="512" xmlns="http://www.w3.org/2000/svg"><path d="m374.292 71.166v40.672l-21.619 24.233 21.619 18.783h19.175c13.167 0 23.841-10.674 23.841-23.841v-59.847z" fill="#e2e2e2"/><path d="m394.292 111.838v-40.672h-20v40.672 43.016h19.175c.269 0 .535-.012.802-.021z" fill="#c1bfc5"/><path d="m235.015 71.166v40.672l21.619 24.233-21.619 18.783h-19.175c-13.167 0-23.841-10.674-23.841-23.841v-59.847z" fill="#e2e2e2"/><path d="m212 131.013v-59.847h-20v59.847c0 13.167 10.674 23.841 23.841 23.841h19.175l.023-.021c-12.795-.423-23.039-10.922-23.039-23.82z" fill="#c1bfc5"/><path d="m284.977 45.83h43.016v83.687h-43.016z" fill="#e2e2e2"/><path d="m284.977 45.83h20v83.688h-20z" fill="#c1bfc5"/><path d="m272.998 42.773 17.598-22.264c3.841-4.86 9.695-7.694 15.889-7.694 6.194 0 12.048 2.835 15.889 7.694l17.598 22.264c4.177 5.285.413 13.058-6.323 13.058h-54.327c-6.737-.001-10.501-7.774-6.324-13.058z" fill="#ff748f"/><path d="m292.998 42.772 17.597-22.264c1.639-2.074 3.647-3.775 5.889-5.048-3.012-1.711-6.449-2.646-10-2.646-6.194 0-12.048 2.835-15.889 7.694l-17.597 22.264c-4.177 5.285-.413 13.058 6.323 13.058h20c-6.736 0-10.5-7.773-6.323-13.058z" fill="#f9496e"/><path d="m235.015 111.838h139.276v139.276h-139.276z" fill="#f9496e"/><path d="m429.286 68.108-17.598-22.264c-3.841-4.86-9.695-7.694-15.889-7.694-6.194 0-12.048 2.835-15.889 7.694l-17.598 22.264c-4.177 5.285-.413 13.058 6.323 13.058h54.327c6.737 0 10.501-7.773 6.324-13.058z" fill="#ff748f"/><path d="m382.313 68.108 17.598-22.264c1.639-2.074 3.647-3.775 5.889-5.048-3.012-1.71-6.449-2.646-10-2.646-6.194 0-12.048 2.834-15.889 7.694l-17.598 22.264c-4.177 5.285-.413 13.058 6.323 13.058h20c-6.737 0-10.5-7.773-6.323-13.058z" fill="#f9496e"/><path d="m180.021 68.108 17.598-22.264c3.841-4.86 9.695-7.694 15.889-7.694 6.194 0 12.048 2.835 15.889 7.694l17.598 22.264c4.177 5.285.413 13.058-6.323 13.058h-54.327c-6.737 0-10.501-7.773-6.324-13.058z" fill="#ff748f"/><path d="m200.021 68.108 17.598-22.264c1.639-2.074 3.647-3.775 5.889-5.048-3.012-1.71-6.449-2.646-10-2.646-6.194 0-12.048 2.834-15.889 7.694l-17.598 22.264c-4.177 5.285-.413 13.058 6.323 13.058h20c-6.736 0-10.5-7.773-6.323-13.058z" fill="#f9496e"/><path d="m310.429 415.915h182.305v-141.903l-88.022-25.864-94.283 25.864z" fill="#f4e64c"/><g fill="#5c586f"><path d="m502.704 259.468-5.805-15.015c-5.166-13.361-18.016-22.169-32.34-22.169h-154.13v51.728h182.305c7.509 0 12.678-7.54 9.97-14.544z"/><path d="m375.99 299.94h-17.624c-4.43 0-8.02 3.591-8.02 8.02v17.511c0 4.43 3.591 8.02 8.02 8.02h17.624c4.43 0 8.02-3.591 8.02-8.02v-17.511c0-4.429-3.591-8.02-8.02-8.02z"/><path d="m444.797 299.94h-17.624c-4.43 0-8.02 3.591-8.02 8.02v17.511c0 4.43 3.591 8.02 8.02 8.02h17.624c4.43 0 8.02-3.591 8.02-8.02v-17.511c.001-4.429-3.59-8.02-8.02-8.02z"/></g><path d="m147.561 415.915h162.868v-193.631l-68.584-25.864-94.284 25.864z" fill="#938ea3"/><path d="m230.817 217.921c0-6.152-.465-12.196-1.358-18.103l-81.898 22.466v193.631h83.255v-197.994z" fill="#827f98"/><path d="m320.399 207.74-5.805-15.015c-5.166-13.361-18.016-22.169-32.34-22.169h-134.693v51.728h162.867c7.51 0 12.679-7.54 9.971-14.544z" fill="#ff748f"/><path d="m116.949 32.275h-13.673c-4.509 0-8.164 3.655-8.164 8.164v106.778h30v-106.779c0-4.509-3.655-8.163-8.163-8.163z" fill="#f4e64c"/><path d="m125.112 98.147c-4.916-.612-9.921-.931-15-.931s-10.084.319-15 .931v49.069h30z" fill="#fab659"/><path d="m230.817 217.921c0-16.804-3.456-32.814-9.687-47.365h-73.568v51.728h83.255z" fill="#f9496e"/><path d="m110.112 127.216c-50.095 0-90.705 40.61-90.705 90.705v4.363l90.705 22.369 90.705-22.369v-4.363c0-50.095-40.61-90.705-90.705-90.705z" fill="#5c586f"/><path d="m49.408 222.284v-4.363c0-44.984 32.749-82.313 75.705-89.463-4.88-.812-9.889-1.242-15-1.242-50.095 0-90.705 40.61-90.705 90.705v4.363l90.705 22.369 15-3.699z" fill="#423e4f"/><path d="m19.408 222.284h181.409v193.631h-181.409z" fill="#f4e64c"/><path d="m19.408 222.284h30v193.631h-30z" fill="#fab659"/><path d="m72.664 254.944c-10.424 0-18.874 8.45-18.874 18.874v23.946c0 3.762 3.05 6.811 6.811 6.811h24.125c3.762 0 6.811-3.05 6.811-6.811v-23.946c0-10.424-8.45-18.874-18.873-18.874z" fill="#5c586f"/><path d="m147.561 254.944c10.424 0 18.874 8.45 18.874 18.874v23.946c0 3.762-3.05 6.811-6.811 6.811h-24.125c-3.762 0-6.811-3.05-6.811-6.811v-23.946c0-10.424 8.45-18.874 18.873-18.874z" fill="#5c586f"/><path d="m492.592 359.42h-31.407c-6.576 0-11.908 5.331-11.908 11.908v6.675c0 6.576-5.331 11.908-11.908 11.908h-31.407c-6.576 0-11.908-5.331-11.908-11.908v-6.675c0-6.576-5.331-11.908-11.908-11.908h-31.407c-6.576 0-11.908 5.331-11.908 11.908v6.675c0 6.576-5.331 11.908-11.908 11.908h-31.407c-6.576 0-11.908-5.331-11.908-11.908v-6.675c0-6.576-5.331-11.908-11.908-11.908h-31.407c-6.576 0-11.908 5.331-11.908 11.908v6.675c0 6.576-5.331 11.908-11.908 11.908h-31.407c-6.576 0-11.908-5.331-11.908-11.908v-6.675c0-6.576-5.331-11.908-11.908-11.908h-31.407c-6.576 0-11.908 5.331-11.908 11.908v6.675c0 6.576-5.331 11.908-11.908 11.908h-31.401c-6.576 0-11.908-5.331-11.908-11.908v-6.675c0-6.576-5.331-11.908-11.908-11.908h-31.406c-6.576 0-11.908 5.331-11.908 11.908v127.858h497v-127.858c0-6.576-5.331-11.908-11.908-11.908z" fill="#fab659"/><path d="m49.408 359.42h-30c-6.576 0-11.908 5.332-11.908 11.908v127.857h30v-127.857c0-6.576 5.331-11.908 11.908-11.908z" fill="#ec8d00"/><path d="m310.429 222.284h30.283v51.728h-30.283z" fill="#423e4f"/><path d="m163.478 431.714v15.387c0 4.142 3.358 7.5 7.5 7.5s7.5-3.358 7.5-7.5v-15.387c0-4.143-3.358-7.5-7.5-7.5s-7.5 3.357-7.5 7.5z"/><path d="m341.022 424.214c-4.142 0-7.5 3.357-7.5 7.5v15.387c0 4.142 3.358 7.5 7.5 7.5s7.5-3.358 7.5-7.5v-15.387c0-4.143-3.357-7.5-7.5-7.5z"/><path d="m271.338 441.095c-3.733 4.271-9.324 6.72-15.338 6.72-6.015 0-11.605-2.449-15.338-6.72-2.725-3.119-7.463-3.438-10.583-.711-3.119 2.726-3.437 7.464-.711 10.582 6.582 7.53 16.289 11.849 26.632 11.849 10.342 0 20.049-4.318 26.631-11.848 2.727-3.119 2.408-7.857-.71-10.583s-7.857-2.408-10.583.711z"/><path d="m72.664 247.363c-14.542 0-26.374 11.832-26.374 26.374v23.946c0 7.891 6.42 14.312 14.311 14.312h24.125c7.892 0 14.312-6.42 14.312-14.312v-23.946c0-14.542-11.831-26.374-26.374-26.374zm11.374 49.632h-22.748v-23.257c0-6.271 5.102-11.374 11.374-11.374s11.374 5.103 11.374 11.374z"/><path d="m147.562 247.363c-14.543 0-26.374 11.832-26.374 26.374v23.946c0 7.891 6.42 14.312 14.312 14.312h24.125c7.891 0 14.312-6.42 14.312-14.312v-23.946c-.001-14.542-11.833-26.374-26.375-26.374zm11.374 49.632h-22.748v-23.257c0-6.271 5.103-11.374 11.374-11.374s11.374 5.103 11.374 11.374z"/><path d="m375.99 292.359h-17.624c-8.559 0-15.521 6.963-15.521 15.521v17.511c0 8.558 6.962 15.521 15.521 15.521h17.624c8.559 0 15.521-6.962 15.521-15.521v-17.511c-.001-8.558-6.963-15.521-15.521-15.521zm.52 33.032c0 .287-.233.521-.521.521h-17.624c-.287 0-.521-.233-.521-.521v-17.511c0-.287.233-.521.521-.521h17.624c.287 0 .521.233.521.521z"/><path d="m444.797 292.359h-17.624c-8.559 0-15.521 6.963-15.521 15.521v17.511c0 8.558 6.962 15.521 15.521 15.521h17.624c8.559 0 15.521-6.962 15.521-15.521v-17.511c0-8.558-6.962-15.521-15.521-15.521zm.521 33.032c0 .287-.233.521-.521.521h-17.624c-.287 0-.521-.233-.521-.521v-17.511c0-.287.233-.521.521-.521h17.624c.287 0 .521.233.521.521z"/><path d="m500.234 353.413-.001-73.599c2.986-1.351 5.595-3.504 7.504-6.288 3.393-4.95 4.126-11.247 1.962-16.844l-5.805-15.015c-6.236-16.128-22.044-26.965-39.335-26.965h-82.767v-52.431h11.675c17.281 0 31.34-14.06 31.34-31.34v-42.461c5.252-.612 9.81-3.809 12.16-8.663 2.622-5.415 1.934-11.71-1.797-16.43 0 0-17.587-22.251-17.598-22.264-10.95-13.853-32.612-13.834-43.546 0l-17.597 22.264c-3.73 4.72-4.419 11.016-1.798 16.43 2.351 4.854 6.908 8.051 12.16 8.664v15.787h-31.299v-41.124c5.252-.612 9.81-3.809 12.16-8.663 2.622-5.415 1.934-11.71-1.797-16.43 0 0-17.587-22.25-17.598-22.264-10.949-13.852-32.612-13.833-43.547 0l-17.597 22.264c-3.73 4.72-4.419 11.016-1.797 16.43 2.351 4.854 6.908 8.051 12.16 8.663v41.123h-34.961v-15.787c5.252-.612 9.81-3.809 12.16-8.663 2.622-5.415 1.934-11.71-1.797-16.43 0 0-17.589-22.253-17.598-22.264-10.947-13.85-32.613-13.833-43.546 0l-17.597 22.264c-3.73 4.72-4.419 11.016-1.797 16.43 2.351 4.854 6.908 8.051 12.16 8.663v42.462c0 17.281 14.06 31.34 31.341 31.34h11.675v.703h-35.99c-13.626-20.154-34.533-34.999-58.913-40.735v-81.883c0-8.637-7.027-15.664-15.664-15.664h-13.673c-8.637 0-15.664 7.027-15.664 15.664v81.891c-9.922 2.329-19.456 6.188-28.234 11.494-3.545 2.143-4.682 6.754-2.539 10.299s6.753 4.681 10.298 2.539c9.207-5.565 19.396-9.25 29.982-10.917 8.617-1.356 17.398-1.335 26.018.004 30.612 4.834 55.73 26.41 65.633 55.035 2.666 7.706 4.2 15.85 4.483 24.001h-166.286c.695-18.332 7.461-36.026 19.229-50.13 2.653-3.181 2.227-7.91-.954-10.563-3.18-2.654-7.91-2.228-10.563.953-14.685 17.599-22.771 39.93-22.771 62.877v135.51c-6.988 2.939-11.908 9.853-11.908 17.897v127.857c0 4.142 3.358 7.5 7.5 7.5h497c4.142 0 7.5-3.358 7.5-7.5v-33.994c0-4.142-3.358-7.5-7.5-7.5s-7.5 3.358-7.5 7.5v26.495h-482v-120.358c0-2.43 1.977-4.408 4.408-4.408h31.407c2.43 0 4.408 1.978 4.408 4.408v6.675c0 10.702 8.707 19.408 19.408 19.408h31.406c10.702 0 19.408-8.706 19.408-19.408v-6.675c0-2.43 1.978-4.408 4.408-4.408h31.407c2.431 0 4.408 1.978 4.408 4.408v6.675c0 10.702 8.707 19.408 19.408 19.408h31.407c10.702 0 19.408-8.706 19.408-19.408v-6.675c0-2.43 1.978-4.408 4.408-4.408h31.407c2.431 0 4.408 1.978 4.408 4.408v6.675c0 10.702 8.707 19.408 19.408 19.408h31.407c10.702 0 19.408-8.706 19.408-19.408v-6.675c0-2.43 1.978-4.408 4.408-4.408h31.407c2.431 0 4.408 1.978 4.408 4.408v6.675c0 10.702 8.707 19.408 19.408 19.408h31.407c10.702 0 19.408-8.706 19.408-19.408v-6.675c0-2.43 1.978-4.408 4.408-4.408h31.236c.083.003.165.006.233.006 2.401.034 4.346 1.992 4.346 4.401v63.863c0 4.142 3.358 7.5 7.5 7.5s7.5-3.358 7.5-7.5v-63.863c-.006-7.987-4.86-14.86-11.772-17.833zm-397.622-233.49v-79.566c0-.366.297-.664.664-.664h13.673c.366 0 .664.297.664.664v79.562c-.019-.264-7.207-.284-7.5-.284-2.502.001-5.007.094-7.501.288zm387.291 127.154s5.805 15.015 5.805 15.015c.8 2.069-.774 4.339-2.975 4.339h-174.804v-36.729h146.629c11.142.001 21.327 6.983 25.345 17.375zm-80.096-116.145c0 9.01-7.33 16.34-16.34 16.34h-11.675v-58.687h28.016v42.347zm-41.61-58.253s17.586-22.249 17.598-22.264c5.035-6.371 14.981-6.364 20.01 0 0 0 17.519 22.165 17.597 22.264.295.373.024.907-.439.907 0 0-54.27 0-54.327 0-.471-.001-.726-.544-.439-.907zm-71.717-47.6c5.034-6.369 14.983-6.36 20.01 0 0 0 17.501 22.143 17.597 22.264.294.372.023.907-.438.907 0 0-54.255 0-54.327 0-.473 0-.727-.543-.44-.907 0 0 17.582-22.245 17.598-22.264zm-4.003 38.17h28.016v41.007h-28.016zm-88.975-12.835c5.031-6.365 14.985-6.359 20.011 0 0 0 17.526 22.174 17.597 22.264.294.372.022.907-.439.907 0 0-54.262 0-54.327 0-.472 0-.726-.544-.44-.907.001.001 17.589-22.251 17.598-22.264zm12.338 96.858c-9.01 0-16.341-7.33-16.341-16.34v-42.347h28.016v58.687zm26.676-28.015h124.276v95.446s-38.454 0-38.454-.002c.681-3.176.218-6.743-.944-9.747 0 0-5.805-15.015-5.805-15.015-6.236-16.128-22.043-26.964-39.335-26.964h-39.738zm-42.637 58.718h82.375c11.142 0 21.327 6.982 25.344 17.374 0 0 5.805 15.012 5.806 15.015.789 2.041-.762 4.339-2.975 4.339h-102.162c-.405-12.63-3.257-25.178-8.388-36.728zm-19.212 199.947v-6.675c0-10.702-8.707-19.408-19.408-19.408h-31.407c-10.702 0-19.408 8.706-19.408 19.408v6.675c0 2.43-1.978 4.408-4.408 4.408h-31.406c-2.431 0-4.408-1.978-4.408-4.408v-6.675c0-10.702-8.706-19.408-19.408-19.408h-23.906v-122.136h166.41v152.627h-8.243c-2.431 0-4.408-1.978-4.408-4.408zm110.444 0v-6.675c0-10.702-8.707-19.408-19.408-19.408h-31.407c-10.702 0-19.408 8.706-19.408 19.408v6.675c0 2.43-1.978 4.408-4.408 4.408h-8.164v-152.627h94.612v152.627h-7.41c-2.43 0-4.407-1.978-4.407-4.408zm170.075-26.082c-10.702 0-19.408 8.706-19.408 19.408v6.675c0 2.43-1.978 4.408-4.408 4.408h-31.407c-2.431 0-4.408-1.978-4.408-4.408v-6.675c0-10.702-8.707-19.408-19.408-19.408h-31.407c-10.702 0-19.408 8.706-19.408 19.408v6.675c0 2.43-1.978 4.408-4.408 4.408h-8.997l.001-100.898h167.304v70.408h-24.046z"/></svg>