<svg id="Capa_1" enable-background="new 0 0 512 512" height="512" viewBox="0 0 512 512" width="512" xmlns="http://www.w3.org/2000/svg"><path d="m42.023 175.58c-7.694 1.054-13.383 7.681-13.254 15.446.438 26.318 9.435 82.773 79.622 74.18l7.264-73.248c.001 0-28.958-22.499-73.632-16.378z" fill="#4f4c5f"/><path d="m469.977 175.58c7.694 1.054 13.383 7.681 13.254 15.446-.438 26.318-9.435 82.773-79.622 74.18l-7.264-73.248c-.001 0 28.958-22.499 73.632-16.378z" fill="#4f4c5f"/><path d="m180.298 96.486c-17.421-.956-31.871-5.924-42.088-20.646-22.588-32.6-45.746-66.31-89.471-68.317-.053-.002-.106-.005-.158-.007-8.497-.379-15.717 6.174-16.339 14.657l-.017.239c-.774 10.569 5.12 20.495 14.765 24.887 9.405 4.282 17.576 10.649 22.024 20.665 8.127 18.299 8.966 38.349 18.659 56.314 14.958 27.724 40.561 46.818 69.562 58.03l43.869-85.933c-7.335.425-14.341.465-20.806.111z" fill="#e2e2e2"/><path d="m331.702 96.486c17.421-.956 31.871-5.924 42.088-20.646 22.588-32.6 45.745-66.31 89.471-68.317.053-.002.106-.005.158-.007 8.497-.379 15.717 6.174 16.339 14.657l.017.239c.774 10.569-5.12 20.495-14.765 24.887-9.405 4.282-17.576 10.649-22.024 20.665-8.127 18.299-8.966 38.349-18.659 56.314-14.958 27.724-40.561 46.818-69.562 58.03l-43.869-85.933c7.335.425 14.341.465 20.806.111z" fill="#e2e2e2"/><path d="m452.132 257.672c-5.282-28.916-13.17-55.92-23.451-80.004-20.379 5.019-32.337 14.291-32.337 14.291l7.264 73.248c21.342 2.612 37.018-.796 48.524-7.535z" fill="#423e4f"/><path d="m362.439 87.356c-8.646 6.022-19.018 8.486-30.737 9.13-6.465.354-13.471.314-20.806-.111l43.869 85.934c21.758-8.413 41.603-21.261 56.475-38.862-13.751-22.755-30.104-41.563-48.801-56.091z" fill="#c1bfc5"/><path d="m100.759 143.446c14.872 17.601 34.717 30.45 56.475 38.862l43.869-85.934c-7.335.426-14.341.466-20.806.111-11.719-.644-22.091-3.108-30.737-9.13-18.696 14.529-35.049 33.337-48.801 56.091z" fill="#c1bfc5"/><path d="m111.149 445.305c-19.494-26.139-29.085-59.849-29.085-98.927 0-124.392 47.302-264.589 173.936-264.589s173.936 140.196 173.936 264.589c0 39.078-9.591 72.788-29.085 98.927z" fill="#5c586f"/><path d="m111.149 445.305h30c-19.494-26.139-29.085-59.849-29.085-98.926 0-119.349 43.558-253.223 158.936-263.884-1.977-.183-3.979-.324-5.995-.438-2.998-.17-6.002-.267-9.005-.267-126.634 0-173.936 140.196-173.936 264.589 0 34.581 7.926 70.553 29.085 98.926z" fill="#423e4f"/><path d="m401.082 437.141c0 2.735-.08 5.459-.231 8.163-27.818 37.32-75.813 59.196-144.851 59.196s-117.033-21.876-144.851-59.195c-.151-2.704-.231-5.429-.231-8.163 0-80.127 64.956-145.082 145.082-145.082s145.082 64.955 145.082 145.081z" fill="#ffb2c1"/><path d="m263.918 504.39c2.384-.063 4.745-.149 7.082-.263-61.031-2.972-104.096-24.271-129.851-58.822-11.063-14.833-18.932-32.108-23.673-51.415-4.261 13.661-6.558 28.188-6.558 43.251 0 2.735.08 5.459.231 8.164 14.778 19.826 35.251 35.293 61.549 45.437 8.045 3.104 16.322 5.588 24.718 7.545 17.491 4.077 37.01 6.213 58.584 6.213 2.64 0 5.279-.043 7.918-.11z" fill="#ff889e"/><path d="m215.163 344.097c-.329-.329-.664-.649-1.004-.96-18.345-16.745-44.887 9.798-28.142 28.142.311.34.63.675.96 1.004 9.216 9.216 22.935 11.173 34.071 5.884 5.289-11.135 3.331-24.855-5.885-34.07z" fill="#4f4c5f"/><path d="m296.837 344.097c.329-.329.664-.649 1.004-.96 18.345-16.745 44.887 9.798 28.142 28.142-.311.34-.63.675-.96 1.004-9.216 9.216-22.935 11.173-34.071 5.884-5.289-11.135-3.331-24.855 5.885-34.07z" fill="#4f4c5f"/><path d="m220.463 338.79c-10.757-10.744-28.032-10.847-38.836-.043-10.799 10.799-10.713 28.088.047 38.841 11.055 11.049 28.478 14.06 42.592 7.354 1.559-.74 2.815-1.997 3.556-3.556 6.788-14.288 3.832-31.404-7.359-42.596zm-5.17 33.624c-7.995 2.662-16.953.627-23.015-5.434-5.145-5.155-5.243-12.428-.047-17.626 5.032-5.033 12.663-4.919 17.632.049 6.059 6.061 8.092 15.02 5.43 23.011z"/><path d="m292.794 337.608c-12.172 10.768-15.531 29.218-8.616 43.778.741 1.56 1.997 2.816 3.556 3.556 14.153 6.724 31.518 3.721 42.592-7.355 10.926-10.913 11.011-27.876.048-38.84-10.385-10.386-26.774-10.699-37.58-1.139zm27.649 28.617c-5.929 6.495-15.387 8.97-23.736 6.189-2.661-7.992-.627-16.953 5.433-23.014.248-.248.5-.488.757-.723 6.25-5.705 12.994-3.2 16.87.676 3.877 3.878 6.38 10.622.676 16.872z"/><path d="m155.531 296.692c4.142 0 7.5-3.357 7.5-7.5v-18.183c0-4.142-3.358-7.5-7.5-7.5s-7.5 3.358-7.5 7.5v18.183c0 4.143 3.358 7.5 7.5 7.5z"/><path d="m363.969 289.192v-18.183c0-4.142-3.358-7.5-7.5-7.5s-7.5 3.358-7.5 7.5v18.183c0 4.143 3.358 7.5 7.5 7.5s7.5-3.357 7.5-7.5z"/><path d="m280.353 395.618c-3.119-2.726-7.857-2.408-10.582.71-3.348 3.83-8.367 6.027-13.77 6.027s-10.423-2.197-13.77-6.027c-2.726-3.119-7.464-3.436-10.583-.71s-3.437 7.464-.711 10.582c6.197 7.089 15.332 11.155 25.064 11.155 9.731 0 18.867-4.065 25.063-11.154 2.726-3.119 2.408-7.856-.711-10.583z"/><path d="m41.007 168.151c-11.443 1.568-19.928 11.456-19.735 23.001.217 13.013 2.384 32.003 11.476 48.57 9.974 18.173 26.279 29.381 47.448 32.759-3.049 19.465-4.896 39.802-5.45 60.685-.11 4.141 3.158 7.587 7.298 7.696 4.159.119 7.587-3.157 7.696-7.298 1.503-56.651 11.917-115.973 40.205-165.763 26.259-46.199 71.753-78.51 126.054-78.51 64.842 0 114.416 44.667 137.957 102.537.012.029.02.058.032.086 20.557 48.552 28.446 101.985 28.446 154.464 0 27.929-4.985 52.452-14.855 73.227-.037-.32-.592-4.576-.877-6.378-4.478-28.321-17.254-55.3-36.197-76.813-28.786-32.689-70.918-51.854-114.505-51.854-28.979 0-57.812 8.474-82.212 24.098-36.387 23.299-61.755 61.932-68.499 104.623-.329 2.092-.624 4.196-.866 6.3-7.862-16.588-12.638-35.609-14.246-56.827-.313-4.13-3.913-7.222-8.045-6.912-4.13.313-7.225 3.915-6.912 8.045 2.563 33.818 12.629 62.719 29.92 85.905 14.961 20.068 35.171 35.551 60.071 46.019 25.553 10.742 56.099 16.189 90.789 16.189s65.236-5.447 90.789-16.189c24.901-10.469 45.113-25.953 60.075-46.024 20.286-27.202 30.571-61.993 30.571-103.408 0-25.522-1.914-50.345-5.595-73.903 21.151-3.385 37.443-14.591 47.412-32.753 9.093-16.567 11.26-35.557 11.477-48.57.192-11.545-8.292-21.433-19.735-23.001-29.946-4.103-53.448 3.959-66.566 10.358-1.952-4.195-3.988-8.275-6.101-12.247 13.747-10.884 24.701-23.78 32.6-38.422 5.755-10.667 8.568-21.773 11.288-32.513 2.166-8.555 4.212-16.634 7.625-24.318 3.207-7.221 9.186-12.744 18.278-16.883 12.445-5.666 20.136-18.631 19.137-32.262l-.018-.236c-.929-12.677-11.531-22.17-24.096-21.604l-.225.01c-11.845.544-23.121 3.346-33.516 8.327-3.735 1.791-5.312 6.269-3.522 10.005 1.79 3.735 6.27 5.312 10.004 3.522 8.691-4.165 17.759-6.413 27.722-6.87.001 0 .147-.006.148-.007 4.359-.191 8.199 3.265 8.524 7.716l.018.236c.542 7.397-3.635 14.435-10.393 17.513-12.404 5.647-21.075 13.872-25.771 24.446-3.931 8.851-6.232 17.937-8.457 26.723-2.61 10.308-5.076 20.043-9.948 29.073-6.584 12.205-15.631 23.065-26.947 32.371-.474-.766-.963-1.508-1.443-2.263-11.816-18.555-26.484-35.392-44.307-48.4 11.832-2.364 25.039-8.069 34.926-22.313l.249-.359c10.338-14.921 21.028-30.35 33.515-42.196 3.005-2.851 3.13-7.598.279-10.603s-7.598-3.13-10.603-.279c-13.61 12.912-24.748 28.989-35.521 44.535l-.246.354c-7.808 11.25-18.675 16.464-36.338 17.433-2.622.144-5.405.215-8.281.221-20.234-9.874-42.684-14.928-67.008-14.928-24.362 0-46.872 5.025-67.158 14.929-2.822-.008-5.556-.08-8.133-.221-17.662-.969-28.53-6.183-36.334-17.428l-.315-.455c-22.38-32.303-47.747-68.915-94.973-71.083l-.171-.007c-12.61-.573-23.224 8.925-24.153 21.598l-.018.242c-.998 13.629 6.693 26.593 19.138 32.26 9.091 4.139 15.07 9.662 18.277 16.883 3.413 7.684 5.458 15.764 7.625 24.318 2.72 10.74 5.532 21.846 11.288 32.513 7.901 14.642 18.855 27.539 32.6 38.422-2.108 3.968-4.134 8.058-6.083 12.255-13.114-6.4-36.622-14.472-66.583-10.367zm299.969 313.832c-23.703 9.964-52.293 15.017-84.976 15.017s-61.273-5.053-84.976-15.017c-21.637-9.096-39.282-22.327-52.481-39.346-.074-1.831-.125-3.663-.125-5.496 0-75.863 61.719-137.582 137.582-137.582 2.371 0 4.728.061 7.069.179 72.59 3.692 130.512 63.91 130.512 137.402 0 1.832-.051 3.665-.125 5.496-13.198 17.02-30.843 30.251-52.48 39.347zm127.981-298.971c3.927.538 6.839 3.93 6.773 7.89-.188 11.32-2.012 27.726-9.628 41.602-7.761 14.141-20.131 22.596-36.83 25.201-3.945-20.488-9.283-39.863-15.915-57.732-.033-.089-.066-.178-.099-.267-.931-2.502-1.88-4.984-2.862-7.425 11.171-5.571 31.855-12.928 58.561-9.269zm-386.197 74.7c-16.716-2.599-29.097-11.058-36.862-25.207-7.616-13.876-9.44-30.283-9.628-41.602-.066-3.96 2.846-7.352 6.773-7.89 4.975-.682 9.736-.981 14.27-.981 19.813 0 35.21 5.72 44.298 10.255-5.799 14.425-10.455 29.316-14.206 44.399-1.729 6.963-3.292 13.978-4.645 21.026zm11.514-136.994c-4.872-9.03-7.337-18.765-9.948-29.073-2.225-8.787-4.526-17.872-8.457-26.724-4.697-10.574-13.367-18.799-25.77-24.446-6.758-3.077-10.935-10.115-10.393-17.511l.018-.241c.317-4.328 3.946-7.721 8.172-7.721.117 0 .235.003.353.008.019.001.13.006.149.007 39.814 1.828 60.953 32.339 83.334 64.641l.319.46c9.884 14.241 23.09 19.944 34.922 22.308-1.015.741-2.021 1.499-3.022 2.269-11.769 9.058-22.227 19.823-31.201 31.644-.935 1.231-12.104 16.275-11.523 16.753-11.319-9.304-20.366-20.166-26.953-32.374z"/></svg>