<svg id="Capa_1" enable-background="new 0 0 512 512" height="512" viewBox="0 0 512 512" width="512" xmlns="http://www.w3.org/2000/svg"><path d="m503.564 20.076.9-7.354c.368-3.004-2.183-5.554-5.186-5.186l-7.354.9c-10.361 1.268-19.999 5.967-27.38 13.348l-382.979 382.979 25.672 25.672 382.98-382.979c7.381-7.381 12.079-17.02 13.347-27.38z" fill="#b2b0bc"/><path d="m106.894 405.106c-22.738-22.738-59.603-22.738-82.341 0s-22.738 59.603 0 82.341 59.603 22.738 82.341 0 22.738-59.603 0-82.341zm-57.962 57.962c-9.274-9.274-9.274-24.31 0-33.584s24.31-9.274 33.584 0 9.274 24.31 0 33.584-24.31 9.274-33.584 0z" fill="#938ea3"/><path d="m491.115 107.421c-4.609-10.444-13.239-18.702-24.033-22.42-7.082-2.439-15.743-7.259-24.285-15.8s-13.36-17.201-15.799-24.283c-3.607-10.473-11.215-19.087-21.349-23.56l-1.071-.473c-33.223-14.663-67.808 17.439-55.802 51.712 6.885 19.654 18.853 38.795 35.342 55.284s35.631 28.458 55.285 35.342c34.274 12.006 66.375-22.578 51.712-55.802z" fill="#fab659"/><path d="m187.26 411.276c-10.444-4.609-18.702-13.239-22.42-24.033-2.439-7.082-7.259-15.743-15.8-24.285-8.541-8.541-17.202-13.361-24.284-15.8-10.473-3.607-19.087-11.215-23.56-21.349l-.473-1.071c-14.663-33.223 17.439-67.808 51.712-55.802 19.654 6.885 38.795 18.853 55.284 35.342s28.458 35.631 35.342 55.285c12.007 34.275-22.578 66.376-55.801 51.713z" fill="#fab659"/><path d="m243.063 359.565c-4.885-13.946-12.343-27.628-22.146-40.294 2.25 4.66 4.218 9.38 5.882 14.131 12.005 34.273-22.579 66.375-55.802 51.712-3.536-1.56-6.813-3.591-9.756-6.001 1.544 2.86 2.728 5.598 3.6 8.132 3.717 10.794 11.975 19.423 22.419 24.032 33.223 14.662 67.808-17.439 55.803-51.712z" fill="#ec8d00"/><path d="m404.579 20.885c10.444 4.609 18.702 13.239 22.42 24.033 2.439 7.082 7.259 15.743 15.8 24.285s17.202 13.361 24.284 15.8c10.473 3.607 19.087 11.215 23.56 21.349l.473 1.071c14.663 33.223-17.439 67.808-51.712 55.802-19.654-6.885-38.795-18.853-55.284-35.342s-28.458-35.631-35.342-55.285c-12.007-34.274 22.578-66.376 55.801-51.713z" fill="#fab659"/><path d="m439.403 163.223c-13.946-4.885-27.628-12.343-40.294-22.146 4.66 2.251 9.38 4.218 14.131 5.882 34.273 12.005 66.375-22.579 51.712-55.802-1.56-3.536-3.591-6.813-6.001-9.756 2.86 1.544 5.598 2.728 8.132 3.6 10.794 3.717 19.423 11.975 24.033 22.419 14.662 33.224-17.44 67.809-51.713 55.803z" fill="#ec8d00"/><path d="m296.713 249.431-34.144-34.144c-13.309-13.309-34.888-13.309-48.197 0-13.309 13.309-13.309 34.888 0 48.197l34.144 34.144c13.309 13.309 34.888 13.309 48.197 0 13.309-13.31 13.309-34.888 0-48.197z" fill="#ff748f"/><path d="m296.713 249.431-21.213-21.213c13.309 13.309 13.309 34.888 0 48.197-13.309 13.309-34.887 13.309-48.197 0l21.213 21.213c13.309 13.309 34.888 13.309 48.197 0 13.309-13.31 13.309-34.888 0-48.197z" fill="#f9496e"/><path d="m377.466 168.677-34.144-34.144c-13.309-13.309-34.888-13.309-48.197 0-13.309 13.309-13.309 34.888 0 48.197l34.144 34.144c13.309 13.309 34.888 13.309 48.197 0 13.31-13.309 13.31-34.887 0-48.197z" fill="#00cd8c"/><path d="m377.466 168.677-21.213-21.213c13.309 13.309 13.309 34.888 0 48.197-13.309 13.309-34.888 13.309-48.197 0l21.213 21.213c13.309 13.309 34.888 13.309 48.197 0 13.31-13.309 13.31-34.887 0-48.197z" fill="#00a45b"/><path d="m87.819 424.9c-12.183-12.183-32.007-12.183-44.19 0-12.183 12.184-12.183 32.007 0 44.19 12.035 12.035 32.169 12.022 44.19 0 12.183-12.182 12.183-32.006 0-44.19zm-10.607 33.584c-6.26 6.26-16.725 6.252-22.978 0-6.334-6.334-6.334-16.642 0-22.977 6.255-6.255 16.729-6.249 22.978-.001 6.335 6.336 6.335 16.644 0 22.978z"/><path d="m498.367.811-7.355.9c-11.964 1.465-23.248 6.966-31.771 15.489l-25.381 25.381c-4.415-12.279-13.555-22.233-25.182-27.364-4.145-1.829-8.681-3.368-13.281-4.12-4.084-.668-7.943 2.104-8.611 6.192s2.104 7.943 6.192 8.611c12.304 2.011 22.841 10.311 26.929 22.179 6.898 20.028 24.703 37.834 44.734 44.733 8.627 2.971 15.776 9.662 19.613 18.357 5.543 12.561 3.205 26.62-6.104 36.691-9.349 10.116-23.246 13.565-36.267 9.004-19.759-6.922-37.688-18.798-52.461-33.566-14.769-14.764-26.648-32.708-33.567-52.461-6.071-17.331 2.409-32.473 13.506-39.792 3.458-2.28 4.413-6.932 2.132-10.39s-6.933-4.412-10.39-2.132c-19.176 12.646-26.975 35.662-19.405 57.272 4.715 13.459 11.64 26.492 20.401 38.544l-14.568 14.568c-16.283-15.153-41.855-14.813-57.709 1.041s-16.194 41.425-1.041 57.709l-22.004 22.004c-16.283-15.153-41.855-14.813-57.709 1.041s-16.194 41.425-1.041 57.708l-14.568 14.568c-12.053-8.761-25.085-15.687-38.545-20.402-18.753-6.569-38.77-1.596-52.242 12.979-13.43 14.531-16.807 34.813-8.811 52.93l.473 1.071c5.132 11.627 15.086 20.767 27.364 25.182l-31.331 31.331c-23.719-9.557-51.926-4.742-71.119 14.451-12.412 12.416-19.248 28.92-19.248 46.476s6.836 34.06 19.25 46.474c7.879 7.879 17.69 13.657 28.373 16.708 3.979 1.137 8.133-1.168 9.271-5.151s-1.169-8.134-5.152-9.271c-8.237-2.353-15.805-6.811-21.886-12.892-9.58-9.582-14.856-22.32-14.856-35.868 0-13.549 5.276-26.286 14.856-35.867 15.955-15.955 39.978-19.029 59.053-9.242 9.377 4.82 17.111 12.555 21.928 21.934 9.781 19.073 6.705 43.09-9.247 59.042-6.801 6.801-15.349 11.506-24.717 13.607-4.042.906-6.584 4.917-5.678 8.959.891 3.974 4.998 6.564 8.959 5.678 12.147-2.723 23.228-8.822 32.042-17.637 19.193-19.193 24.009-47.4 14.451-71.12l31.331-31.331c4.428 12.285 13.956 22.411 26.253 27.838 6.505 2.871 13.287 4.276 19.984 4.275 11.954 0 23.632-4.479 32.945-13.086 14.575-13.471 19.549-33.488 12.979-52.242-4.715-13.46-11.641-26.493-20.402-38.545l14.568-14.568c7.958 7.406 18.13 11.119 28.307 11.119 10.648 0 21.296-4.053 29.402-12.159 15.854-15.854 16.194-41.425 1.04-57.708l22.004-22.004c7.958 7.406 18.13 11.119 28.307 11.119 10.648 0 21.296-4.053 29.402-12.159 15.854-15.854 16.194-41.425 1.04-57.709l14.568-14.568c12.053 8.761 25.086 15.687 38.546 20.402 5.471 1.916 11.048 2.85 16.54 2.85 13.333 0 26.16-5.507 35.701-15.829 13.431-14.531 16.807-34.813 8.811-52.93-5.427-12.297-15.554-21.825-27.838-26.252l25.382-25.382c8.523-8.522 14.024-19.806 15.489-31.771l.9-7.354c.458-3.738-.807-7.41-3.47-10.072-2.661-2.666-6.326-3.928-10.069-3.473zm-183.94 212.547-21.95 21.95-15.066-15.066 21.95-21.949zm-202.23 187.165c-2.519-2.519-5.247-4.849-8.146-6.919l31.565-31.566c.015.011.03.021.045.032 5.699 4.229 10.819 9.225 14.984 14.982l.036.051s-31.566 31.565-31.566 31.565c-.312-.434-4.775-6.002-6.918-8.145zm78.091 4.611c-8.694-3.837-15.385-10.985-18.356-19.613-6.898-20.029-24.698-37.835-44.733-44.734-22.779-7.844-29.587-37.653-13.51-55.048 22.445-24.285 55.956-2.732 76.017 13.225 8.907 7.085 16.965 15.145 24.05 24.051 15.811 19.878 37.025 54.016 13.224 76.014-10.072 9.311-24.132 11.649-36.692 6.105m22.776-105.396c-.014-.014-.027-.029-.041-.042-.014-.014-.03-.028-.044-.042-2.498-2.497-5.081-4.914-7.734-7.246l13.362-13.362 15.066 15.066-13.362 13.362c-.972-1.106-5.814-6.252-7.247-7.736zm6.611-40.838c-10.363-10.363-10.363-27.226 0-37.59 10.232-10.232 27.366-10.225 37.591-.001l34.143 34.144c10.363 10.363 10.363 27.227 0 37.59-10.365 10.364-27.227 10.363-37.59 0zm152.488-46.609c-10.365 10.364-27.227 10.363-37.59 0l-34.144-34.144c-10.363-10.364-10.363-27.227 0-37.59 5.183-5.183 11.988-7.773 18.795-7.773 6.806 0 13.614 2.592 18.795 7.772l34.144 34.144c10.363 10.364 10.363 27.227 0 37.591zm14.429-71.099-13.362 13.362-15.066-15.065 13.362-13.362c.119.135 4.913 5.32 7.245 7.733.014.015.028.03.043.044 2.512 2.512 5.105 4.95 7.778 7.288zm109.528-121.308c-1.06 8.658-5.04 16.822-11.207 22.988l-28.691 28.691c-.016-.011-.031-.022-.047-.034-2.877-2.068-5.57-4.408-8.074-6.911-2.505-2.505-4.835-5.204-6.912-8.075-.011-.016-.022-.031-.033-.046l28.691-28.691c6.167-6.167 14.331-10.147 22.987-11.207l3.743-.458z"/></svg>