<svg id="Capa_1" enable-background="new 0 0 512 512" height="512" viewBox="0 0 512 512" width="512" xmlns="http://www.w3.org/2000/svg"><path d="m504.5 180.596c0 83.569-31.975 153.227-53.936 191.214-14.983 25.917-38.672 45.761-66.952 55.582-.194.067-.389.135-.584.202-34.623 11.924-79.736 18.491-127.028 18.491s-92.405-6.566-127.028-18.491c-.195-.067-.39-.134-.584-.202-28.28-9.821-51.969-29.664-66.952-55.582-21.961-37.987-53.936-107.645-53.936-191.214z" fill="#ff748f"/><path d="m7.5 180.596c0 83.569 31.975 153.227 53.936 191.214 14.983 25.917 38.672 45.761 66.952 55.582.194.067.389.135.584.202 13.178 4.539 27.878 8.298 43.637 11.218-1.224-.4-2.438-.805-3.637-1.218-.195-.067-.39-.134-.584-.202-28.28-9.821-51.969-29.665-66.952-55.582-21.961-37.987-53.936-107.645-53.936-191.214z" fill="#f9496e"/><path d="m256 295.277c-58.567 0-114.434-8.132-157.311-22.899-24.141-8.314-43.851-18.611-58.581-30.603-21.332-17.369-32.608-38.524-32.608-61.179 0-22.55 11.847-64.459 91.19-91.783 42.878-14.766 98.745-22.898 157.31-22.898s114.433 8.132 157.31 22.898c24.142 8.314 43.853 18.611 58.582 30.604 21.331 17.368 32.607 38.524 32.607 61.179 0 22.55-11.847 64.459-91.189 91.782-42.876 14.768-98.743 22.899-157.31 22.899z" fill="#e2e2e2"/><path d="m256 111.434c-53.652 0-104.256 7.251-142.489 20.418-37.878 13.044-60.492 31.267-60.492 48.744 0 10.738 8.608 20.001 15.83 25.881 10.568 8.604 25.595 16.297 44.663 22.863 38.231 13.167 88.835 20.418 142.489 20.418s104.257-7.251 142.489-20.418c37.878-13.044 60.492-31.267 60.492-48.744 0-10.738-8.608-20.001-15.829-25.881-10.569-8.605-25.595-16.297-44.663-22.864-38.234-13.166-88.837-20.417-142.49-20.417z" fill="#ff748f"/><path d="m143.511 229.341c-19.067-6.567-34.095-14.26-44.663-22.863-7.221-5.88-15.83-15.143-15.83-25.881 0-17.478 22.614-35.7 60.492-48.744 34.649-11.933 79.458-19.006 127.489-20.228-4.968-.126-9.971-.19-15-.19-53.652 0-104.256 7.251-142.489 20.418-37.878 13.044-60.492 31.267-60.492 48.744 0 10.738 8.608 20.001 15.83 25.881 10.568 8.604 25.595 16.296 44.663 22.863 38.231 13.167 88.835 20.417 142.489 20.417 5.029 0 10.032-.063 15-.19-48.032-1.221-92.841-8.295-127.489-20.227z" fill="#f9496e"/><ellipse cx="318.187" cy="156.319" fill="#00cd8c" rx="21.213" ry="14.613"/><ellipse cx="256" cy="206.217" fill="#e2e2e2" rx="21.213" ry="14.613"/><ellipse cx="380.375" cy="192.056" fill="#f4e64c" rx="21.213" ry="14.613"/><ellipse cx="193.812" cy="156.319" fill="#00cd8c" rx="21.213" ry="14.613"/><ellipse cx="131.625" cy="192.056" fill="#f4e64c" rx="21.213" ry="14.613"/><path d="m153.263 333.381c-4.142 0-7.5 3.357-7.5 7.5v18.593c0 4.142 3.358 7.5 7.5 7.5s7.5-3.358 7.5-7.5v-18.593c0-4.142-3.358-7.5-7.5-7.5z"/><path d="m358.737 333.381c-4.142 0-7.5 3.357-7.5 7.5v18.593c0 4.142 3.358 7.5 7.5 7.5s7.5-3.358 7.5-7.5v-18.593c0-4.142-3.358-7.5-7.5-7.5z"/><path d="m286.293 352.535c-3.118-2.726-7.856-2.409-10.583.71-4.808 5.5-11.992 8.655-19.71 8.655s-14.902-3.155-19.71-8.655c-2.726-3.119-7.465-3.437-10.583-.711-3.119 2.726-3.438 7.464-.711 10.583 7.656 8.759 18.957 13.783 31.004 13.783s23.347-5.023 31.004-13.783c2.726-3.118 2.408-7.857-.711-10.582z"/><path d="m289.475 156.319c0 12.4 12.612 22.113 28.713 22.113s28.712-9.713 28.712-22.113-12.612-22.113-28.712-22.113-28.713 9.713-28.713 22.113zm42.425 0c0 2.9-5.342 7.113-13.712 7.113-8.371 0-13.713-4.213-13.713-7.113s5.342-7.113 13.713-7.113c8.371.001 13.712 4.213 13.712 7.113z"/><path d="m227.288 206.217c0 12.4 12.612 22.113 28.712 22.113s28.713-9.713 28.713-22.113-12.612-22.113-28.713-22.113-28.712 9.713-28.712 22.113zm42.425 0c0 2.9-5.342 7.113-13.713 7.113s-13.712-4.213-13.712-7.113 5.342-7.113 13.712-7.113c8.371 0 13.713 4.213 13.713 7.113z"/><path d="m380.375 214.169c16.101 0 28.712-9.713 28.712-22.113s-12.612-22.113-28.712-22.113-28.713 9.713-28.713 22.113 12.613 22.113 28.713 22.113zm0-29.226c8.371 0 13.712 4.213 13.712 7.113s-5.342 7.113-13.712 7.113c-8.371 0-13.713-4.213-13.713-7.113.001-2.9 5.342-7.113 13.713-7.113z"/><path d="m165.1 156.319c0 12.4 12.612 22.113 28.713 22.113s28.713-9.713 28.713-22.113-12.612-22.113-28.713-22.113-28.713 9.713-28.713 22.113zm42.425 0c0 2.9-5.342 7.113-13.713 7.113s-13.713-4.213-13.713-7.113 5.342-7.113 13.713-7.113 13.713 4.213 13.713 7.113z"/><path d="m102.912 192.056c0 12.4 12.612 22.113 28.713 22.113s28.712-9.713 28.712-22.113-12.612-22.113-28.712-22.113-28.713 9.713-28.713 22.113zm42.425 0c0 2.9-5.342 7.113-13.712 7.113-8.371 0-13.713-4.213-13.713-7.113s5.342-7.113 13.713-7.113 13.712 4.213 13.712 7.113z"/><path d="m476.628 113.602c-15.415-12.551-35.896-23.277-60.875-31.88-43.645-15.03-100.379-23.307-159.753-23.307-53.117 0-105.198 6.789-146.649 19.114-3.97 1.181-6.232 5.356-5.051 9.327 1.181 3.97 5.354 6.23 9.327 5.051 40.102-11.925 90.664-18.492 142.373-18.492 57.755 0 112.755 7.987 154.869 22.489 23.307 8.026 42.245 17.894 56.289 29.329 19.522 15.897 29.842 35.041 29.842 55.365-.001 46.302-48.18 71.618-86.131 84.689-42.11 14.503-97.11 22.49-154.868 22.49-57.759 0-112.759-7.987-154.869-22.49-37.488-12.909-86.132-38.751-86.132-84.691 0-43.212 44.826-68.162 71.546-79.188 3.829-1.58 5.652-5.964 4.072-9.793s-5.963-5.652-9.794-4.072c-70.324 29.018-80.824 70.756-80.824 93.053 0 86.946 34.423 159.474 54.943 194.968 15.981 27.643 41.19 48.565 70.988 58.914l.599.207c35.387 12.188 81.367 18.899 129.47 18.899s94.083-6.712 129.458-18.896l.614-.212c29.795-10.348 55.004-31.271 70.985-58.913 20.353-35.206 54.542-107.144 54.925-193.485.009-.445.015-.885.016-1.324 0-.036.001-.123.001-.172-.004-24.981-12.235-48.142-35.371-66.98zm-32.557 254.454c-14.179 24.527-36.524 43.084-62.916 52.25l-.569.196c-33.856 11.66-78.101 18.082-124.585 18.082s-90.729-6.422-124.598-18.086l-.554-.191c-26.395-9.167-48.74-27.724-62.919-52.251-15.6-26.982-39.538-76.144-48.942-136.686 19.521 23.875 48.636 38.242 77.259 48.1 43.641 15.03 100.375 23.307 159.753 23.307 59.377 0 116.112-8.278 159.752-23.308 28.382-9.775 57.798-24.262 77.257-48.157-9.402 60.608-33.372 109.818-48.938 136.744z"/><path d="m349.35 241.908c.813 4.061 4.763 6.693 8.827 5.881 15.507-3.106 29.891-6.927 42.754-11.357 41.658-14.345 65.549-34.697 65.549-55.835 0-10.831-6.429-21.792-18.593-31.697-11.255-9.163-27.054-17.284-46.956-24.138-38.998-13.43-90.469-20.827-144.932-20.827-54.462 0-105.934 7.396-144.931 20.827-41.658 14.345-65.55 34.697-65.55 55.835 0 10.832 6.43 21.792 18.595 31.697 11.255 9.163 27.053 17.284 46.956 24.138 38.995 13.43 90.465 20.827 144.931 20.827 24.911 0 49.254-1.536 72.354-4.564 4.107-.538 7-4.304 6.461-8.411-.538-4.106-4.301-7-8.412-6.461-22.455 2.944-46.142 4.437-70.403 4.437-52.846 0-102.582-7.106-140.047-20.009-11.656-4.014-23.228-8.669-33.661-15.312-8.652-5.509-21.773-14.797-21.773-26.34 0-13.707 21.759-30.057 55.435-41.653 37.467-12.903 87.203-20.009 140.046-20.009 52.844 0 102.581 7.106 140.047 20.009 18.23 6.278 32.485 13.542 42.369 21.587 4.879 3.974 13.064 11.863 13.064 20.065 0 13.707-21.759 30.057-55.434 41.653-12.231 4.212-25.964 7.857-40.816 10.832-4.061.812-6.693 4.764-5.88 8.825z"/></svg>