<svg id="Capa_1" enable-background="new 0 0 512 512" height="512" viewBox="0 0 512 512" width="512" xmlns="http://www.w3.org/2000/svg"><path d="m481.013 54.345h-265.013l-45.16 201.655 45.16 201.655h265.013c12.971 0 23.487-10.516 23.487-23.487v-356.336c0-12.971-10.516-23.487-23.487-23.487z" fill="#f9496e"/><path d="m30.987 54.345c-12.971 0-23.487 10.516-23.487 23.487v356.336c0 12.971 10.516 23.487 23.487 23.487h185.013v-403.31z" fill="#00cd8c"/><path d="m43.5 434.168v-356.336c0-12.972 10.516-23.487 23.487-23.487h-36c-12.972 0-23.487 10.516-23.487 23.487v356.336c0 12.971 10.516 23.487 23.487 23.487h36c-12.972 0-23.487-10.516-23.487-23.487z" fill="#00a45b"/><circle cx="216" cy="256" fill="#fab659" r="150.081"/><path d="m293.531 166.375h-155.062c-6.68 0-12.094 5.415-12.094 12.094v77.531c0 49.499 40.127 89.625 89.625 89.625 49.499 0 89.625-40.127 89.625-89.625v-77.531c0-6.679-5.415-12.094-12.094-12.094z" fill="#e2e2e2"/><g fill="#00acdc"><path d="m200.492 191.992v15.508c0 8.565 6.943 15.508 15.508 15.508s15.508-6.943 15.508-15.508v-15.508z"/><path d="m200.492 240.492v15.508c0 8.565 6.943 15.508 15.508 15.508s15.508-6.943 15.508-15.508v-15.508z"/><path d="m147.848 240.492v15.508c0 8.565 6.943 15.508 15.508 15.508s15.508-6.943 15.508-15.508v-15.508z"/><path d="m284.152 240.492v15.508c0 8.565-6.943 15.508-15.508 15.508s-15.508-6.943-15.508-15.508v-15.508z"/><path d="m200.492 288.992v15.508c0 8.565 6.943 15.508 15.508 15.508s15.508-6.943 15.508-15.508v-15.508z"/></g><path d="m293.531 158.875h-155.062c-10.804 0-19.594 8.79-19.594 19.594v77.531c0 53.555 43.57 97.125 97.125 97.125s97.125-43.57 97.125-97.125v-77.531c0-10.804-8.79-19.594-19.594-19.594zm4.594 97.125c0 45.284-36.841 82.125-82.125 82.125s-82.125-36.841-82.125-82.125v-77.531c0-2.534 2.061-4.594 4.594-4.594h155.062c2.534 0 4.595 2.061 4.595 4.594v77.531z"/><path d="m231.508 184.492h-31.016c-4.142 0-7.5 3.358-7.5 7.5v15.508c0 12.687 10.321 23.008 23.008 23.008s23.008-10.321 23.008-23.008v-15.508c0-4.142-3.358-7.5-7.5-7.5zm-7.5 23.008c0 4.416-3.592 8.008-8.008 8.008s-8.008-3.592-8.008-8.008v-8.008h16.016z"/><path d="m231.508 232.992h-31.016c-4.142 0-7.5 3.358-7.5 7.5v15.508c0 12.687 10.321 23.008 23.008 23.008s23.008-10.321 23.008-23.008v-15.508c0-4.142-3.358-7.5-7.5-7.5zm-7.5 23.008c0 4.416-3.592 8.008-8.008 8.008s-8.008-3.592-8.008-8.008v-8.008h16.016z"/><path d="m178.864 232.992h-31.016c-4.142 0-7.5 3.358-7.5 7.5v15.508c0 12.687 10.321 23.008 23.008 23.008s23.008-10.321 23.008-23.008v-15.508c0-4.142-3.358-7.5-7.5-7.5zm-7.5 23.008c0 4.416-3.592 8.008-8.008 8.008s-8.008-3.592-8.008-8.008v-8.008h16.016z"/><path d="m284.152 232.992h-31.016c-4.142 0-7.5 3.358-7.5 7.5v15.508c0 12.687 10.321 23.008 23.008 23.008s23.008-10.321 23.008-23.008v-15.508c0-4.142-3.358-7.5-7.5-7.5zm-7.5 23.008c0 4.416-3.592 8.008-8.008 8.008s-8.008-3.592-8.008-8.008v-8.008h16.016z"/><path d="m231.508 281.492h-31.016c-4.142 0-7.5 3.357-7.5 7.5v15.508c0 12.687 10.321 23.008 23.008 23.008s23.008-10.321 23.008-23.008v-15.508c0-4.143-3.358-7.5-7.5-7.5zm-7.5 23.008c0 4.415-3.592 8.008-8.008 8.008s-8.008-3.593-8.008-8.008v-8.008h16.016z"/><path d="m481.013 46.845h-450.026c-17.086 0-30.987 13.901-30.987 30.987v49.579c0 4.142 3.358 7.5 7.5 7.5s7.5-3.358 7.5-7.5v-49.579c0-8.815 7.172-15.987 15.987-15.987h177.513v36.75c-.097.004-.193.012-.29.017-82.292 4.141-149.791 75.055-149.791 157.388 0 82.365 67.632 153.109 149.684 157.382.106.006.138.007.096.005.101.005.2.013.301.018v36.75h-177.513c-8.815 0-15.987-7.172-15.987-15.987v-276.757c0-4.142-3.358-7.5-7.5-7.5s-7.5 3.358-7.5 7.5v276.757c0 17.086 13.901 30.987 30.987 30.987h450.026c17.086 0 30.987-13.901 30.987-30.987v-56.802c0-4.142-3.358-7.5-7.5-7.5s-7.5 3.358-7.5 7.5v56.802c0 8.815-7.172 15.987-15.987 15.987h-257.513v-36.75c.101-.005.2-.013.301-.018 82.078-4.393 149.781-75.113 149.781-157.387 0-82.128-67.834-153.373-149.792-157.388-.097-.005-.193-.013-.29-.017v-36.75h257.513c8.815 0 15.987 7.171 15.987 15.987v269.534c0 4.142 3.358 7.5 7.5 7.5s7.5-3.358 7.5-7.5v-269.534c0-17.086-13.901-30.987-30.987-30.987zm-122.478 205.48c.031 1.221.047 2.446.047 3.674 0 78.62-63.962 142.582-142.582 142.582s-142.581-63.962-142.581-142.581c0-1.229.016-2.453.047-3.674 1.955-76.929 65.143-138.907 142.534-138.907s140.579 61.978 142.535 138.906z"/></svg>