<svg id="Capa_1" enable-background="new 0 0 512 512" height="512" viewBox="0 0 512 512" width="512" xmlns="http://www.w3.org/2000/svg"><path d="m330.079 390.63-.09.39c-1.01 4.03-4.26 7.11-8.34 7.9l-7.21 1.39c-4.23.82-7.55 4.1-8.43 8.32l-1.55 7.44c-.24 1.16-.67 2.27-1.28 3.29-3.69 6.17-17.27 29.05-17.27 30.79 0 1.07 2.43 10.74 4.73 19.65 2.22 8.58-2.76 17.37-11.26 19.87l-22.91 6.76c-6.32 1.86-12.99 2.14-19.44.82l-19.54-4c-10.52-2.16-21.46-.02-30.39 5.94l-5.31 3.54c-4.09 2.73-9.53 2.26-13.1-1.12l-1.09-1.03c-3.33-3.16-4.24-8.12-2.23-12.25l6.07-12.54c6.15-12.69 9.32-26.57 9.32-40.56 0-3.97-.26-7.95-.77-11.92-.99-7.67-1.02-15.42-.09-23.09l1.49-12.36c.63-5.15-3.51-9.05-8.03-9.05-1.54 0-3.13.45-4.58 1.46-2.33 1.62-5.01 2.41-7.68 2.41-3.58 0-7.14-1.42-9.76-4.18-3.74-3.92-4.78-9.7-2.62-14.67l.53-1.23c.85-1.95 1.25-4 1.25-6.03 0-4.57-2.06-9.02-5.83-11.96-7.64-5.97-11.61-15.49-10.48-25.12l4.21-35.8c.46-3.91 1.75-7.68 3.78-11.05l21.73-36.17c4.09-6.8 7.38-14.02 9.84-21.53l82.25-30.034 75.69 30.034c-.16 1.8-.6 3.59-1.34 5.29l-5.23 12.12c-2.57 5.96-8.28 9.95-14.75 10.33l-23.15 1.34c-4.45.26-6.22 5.89-2.72 8.65l11.14 8.78c.68.53 1.21 1.24 1.52 2.05l10.19 26.2c2.1 5.39 7.28 8.93 13.05 8.93h.03c4.11 0 7.22 3.73 6.47 7.77l-2.98 16.18c-.2 1.08-.66 2.09-1.35 2.94l-16.61 20.51c-3.23 4-4.07 9.44-2.18 14.22l4.11 10.42c1.62 4.1 5.58 6.76 9.93 6.76.32 0 .63-.01.95-.04 7.32-.64 13.09 6.12 11.31 13.24z" fill="#00cd8c"/><path d="m195.369 488.33 6.07-12.54c6.15-12.69 9.32-26.57 9.32-40.56 0-3.97-.26-7.95-.77-11.92-.99-7.67-1.02-15.42-.09-23.09l1.49-12.36c.63-5.15-3.51-9.05-8.03-9.05-1.54 0-3.13.45-4.58 1.46-2.33 1.62-5.01 2.41-7.68 2.41-3.58 0-7.14-1.42-9.76-4.18-3.74-3.92-4.78-9.7-2.62-14.67l.53-1.23c.85-1.95 1.25-4 1.25-6.03 0-4.57-2.06-9.02-5.83-11.96-7.64-5.97-11.61-15.49-10.48-25.12l4.21-35.8c.46-3.91 1.75-7.68 3.78-11.05l21.73-36.17c4.09-6.8 7.38-14.02 9.84-21.53l66.627-24.329-14.377-5.705-82.25 30.034c-2.46 7.51-5.75 14.729-9.84 21.53l-21.73 36.17c-2.03 3.37-3.32 7.14-3.78 11.05l-4.21 35.8c-1.13 9.63 2.84 19.15 10.48 25.12 3.77 2.94 5.83 7.39 5.83 11.96 0 2.03-.4 4.08-1.25 6.03l-.53 1.23c-2.16 4.97-1.12 10.75 2.62 14.67 2.62 2.76 6.18 4.18 9.76 4.18 2.67 0 5.35-.79 7.68-2.41 1.45-1.01 3.04-1.46 4.58-1.46 4.52 0 8.66 3.9 8.03 9.05l-1.49 12.36c-.93 7.67-.9 15.42.09 23.09.51 3.97.77 7.95.77 11.92 0 13.99-3.17 27.87-9.32 40.56l-6.07 12.54c-2.01 4.13-1.1 9.09 2.23 12.25l1.09 1.03c3.57 3.38 9.01 3.85 13.1 1.12l5.31-3.54c2.367-1.58 4.879-2.883 7.484-3.917-.521-2.284-.29-4.732.786-6.943z" fill="#00a45b"/><path d="m376.689 65.311-14.42 20.88c-1.07 1.55-2.33 2.96-3.75 4.21l-13.81 12.16c-.59.52-1.23.97-1.92 1.34l-5.89 3.17c-5.56 2.99-7.14 10.24-3.32 15.28l4.9 6.46c1.69 2.23 2.4 5.05 1.97 7.81l-6.23 39.66c-.32 2.05-1.32 3.93-2.82 5.35l-4.49 4.23c-3.12 2.95-3.83 7.65-1.73 11.4l4.38 7.77c1.71 3.05 2.43 6.51 2.13 9.91h-157.94c1.05-3.19 1.94-6.42 2.68-9.7l9.21-40.99c.85-3.79 1.49-7.63 1.92-11.49l3.44-30.92c1.31-11.8.62-23.74-2.04-35.31l-6.55-28.48c-1.89-8.24-1.33-16.85 1.61-24.77l1.51-4.07c1.74-4.69 5.35-8.45 9.97-10.39l25.64-10.74c2.19-.92 4.69-.74 6.72.48l3.98 2.39c4.74 2.85 4.83 9.69.18 12.67l-1.03.65c-3.1 1.99-3.92 6.16-1.79 9.17l2.11 2.99c1.29 1.83 3.43 2.85 5.66 2.72l38.15-2.24c2.67-.16 5.27-.91 7.61-2.2l17.74-9.75c3.7-2.03 7.86-3.04 12.07-2.93l31.7.88c5.58.16 9.83 5.05 9.21 10.59l-1.36 12.31c-.37 3.32 3.08 5.73 6.07 4.23l3.13-1.56c2.84-1.42 6.27-.87 8.52 1.38l6.03 6.03c2.52 2.52 2.88 6.48.85 9.42z" fill="#ff748f"/><path d="m215.639 164.251c.85-3.79 1.49-7.63 1.92-11.49l3.44-30.92c1.31-11.8.62-23.74-2.04-35.31l-6.55-28.48c-1.89-8.24-1.33-16.85 1.61-24.77l1.51-4.07c1.74-4.69 5.35-8.45 9.97-10.39l9.512-3.984c-.544-1.543-1.595-2.937-3.172-3.886l-3.98-2.39c-2.03-1.22-4.53-1.4-6.72-.48l-25.64 10.74c-4.62 1.94-8.23 5.7-9.97 10.39l-1.51 4.07c-2.94 7.92-3.5 16.53-1.61 24.77l6.55 28.48c2.66 11.57 3.35 23.51 2.04 35.31l-3.44 30.92c-.43 3.86-1.07 7.7-1.92 11.49l-9.21 40.99c-.74 3.28-1.63 6.51-2.68 9.7h30c1.05-3.19 1.94-6.42 2.68-9.7z" fill="#f9496e"/><path d="m180.093 151.947c-1.933 17.337-7.165 34.665-10.995 51.668-2.301 10.209-6.24 20.053-11.633 29.022l-21.729 36.167c-2.563 4.255-4.225 9.112-4.805 14.046l-4.211 35.807c-1.426 12.151 3.675 24.377 13.318 31.912 3.408 2.663 3.354 6.678 1.784 10.318-3.368 7.751-1.769 16.716 4.06 22.826 7.052 7.393 18.782 8.593 27.17 2.76.419-.291.935.068.877.539-1.502 12.46-3.134 24.769-1.392 37.312.52 4.032 4.374 6.999 8.399 6.48 4.108-.53 7.009-4.291 6.479-8.4-1.453-11.257.059-22.405 1.406-33.583 1.566-12.988-13.594-22.145-24.34-14.661-2.393 1.667-5.728 1.322-7.732-.789-2.18-2.296-1.783-5.078-.642-7.727 4.049-9.4 1.239-20.601-6.838-26.9-5.538-4.328-8.47-11.355-7.65-18.337l4.211-35.805c.333-2.83 1.286-5.617 2.761-8.065l21.731-36.171c3.416-5.678 6.334-11.678 8.71-17.898h30.826c4.143 0 7.501-3.358 7.501-7.501s-3.358-7.501-7.501-7.501h-26.251c.043-.186.085-.371.127-.556 3.948-17.572 9.271-35.38 11.269-53.302 2.56-23.016 6.532-45.801 1.255-68.75 0 0-6.549-28.475-6.55-28.48-1.935-8.413-1.12-26.72 8.679-30.639 0 0 25.605-10.75 25.605-10.75s3.922 2.349 3.922 2.349c-3.604 2.276-6.316 5.42-7.151 9.71-1.817 9.339 7.098 20.151 16.641 19.592 0 0 38.164-2.241 38.164-2.241 3.763-.226 7.492-1.304 10.775-3.114l17.738-9.749c2.532-1.389 5.391-2.083 8.256-2.008 0 0 31.697.88 31.698.88 1.193.035 2.102 1.091 1.97 2.27 0 0-1.358 12.299-1.359 12.304-.989 8.951 8.661 15.895 16.871 11.775l3.064-1.527 5.898 5.899-14.37 20.807c-.714 1.035-1.568 1.991-2.535 2.844 0 0-13.518 11.902-13.809 12.158-1.725 1.519-4.385 2.448-6.41 3.537-9.47 5.092-12.239 17.852-5.744 26.421l4.899 6.458c.458.604.653 1.379.538 2.117l-6.232 39.673c-.062.397-.263.773-.552 1.047l-4.502 4.24c-5.624 5.319-6.907 13.756-3.11 20.536l3.663 6.497h-83.009c-4.143 0-7.501 3.358-7.501 7.501s3.358 7.501 7.501 7.501h81.927l-2.996 6.941c-1.453 3.37-4.635 5.597-8.298 5.812 0 0-23.124 1.339-23.156 1.341-11.095.643-15.655 15.148-6.926 22.03l10.577 8.336 9.93 25.531c3.111 7.985 10.471 13.261 18.969 13.683l-2.743 14.89-16.464 20.33c-4.925 6.1-6.198 14.412-3.322 21.687l4.112 10.425c2.762 6.99 9.398 11.506 16.908 11.506 1.593 0 3.144-.331 4.313 1.04 1.578 1.85.507 5.12-1.904 5.586l-7.218 1.392c-7.214 1.398-12.846 6.954-14.347 14.154 0 0-1.749 8.117-1.925 8.411-18.336 30.656-18.336 32.243-18.336 34.645 0 1.222 0 2.277 4.97 21.531 1.213 4.689-1.474 9.432-6.123 10.799 0 0-22.904 6.759-22.907 6.76-11.421 3.37-24.054-1.018-35.359-3.332-12.396-2.545-25.542.024-36.064 7.047 0 0-5.295 3.53-5.314 3.542-2.717 1.811-6.897-2.037-5.506-4.895l6.069-12.538c3.713-7.664 6.444-15.781 8.116-24.129.813-4.062-1.82-8.015-5.882-8.828-4.062-.814-8.015 1.82-8.828 5.882-1.423 7.103-3.746 14.011-6.908 20.536l-6.064 12.527c-3.457 7.102-1.926 15.532 3.823 20.987 6.473 6.143 15.775 8.098 23.505 2.939l5.313-3.542c7.215-4.815 16.226-6.578 24.726-4.831 14.153 2.897 28.255 7.252 42.613 3.026l22.906-6.759c12.452-3.662 19.659-16.378 16.408-28.943-2.655-10.285-3.761-14.907-4.222-16.975 2.059-4.086 8.445-15.219 15.94-27.747 2.322-3.882 2.826-8.687 3.735-13.05.265-1.266 1.252-2.243 2.508-2.487l7.217-1.391c6.91-1.338 12.48-6.614 14.191-13.442.011-.043.021-.087.031-.131 2.681-12.059-6.563-23.903-19.223-22.793-.083.007-.163.008-.246.008-1.317.007-2.487-.807-2.964-2.012l-4.113-10.427c-.894-2.262-.495-4.849 1.034-6.744l16.607-20.507c1.47-1.811 2.473-3.99 2.903-6.308l2.978-16.171c.765-4.122-.334-8.336-3.016-11.561-2.684-3.228-6.632-5.08-10.86-5.08-2.7 0-5.079-1.631-6.06-4.149l-10.177-26.166c-.797-2.081-2.149-3.908-3.882-5.26l-5.654-4.456 16.183-.937c9.364-.549 17.487-6.239 21.199-14.847 0 0 5.221-12.099 5.221-12.101 3.032-7.026 2.609-15.203-1.134-21.879l-4.37-7.752c-.424-.757-.285-1.697.328-2.277l4.505-4.244c2.701-2.557 4.503-5.982 5.073-9.634l6.232-39.674c.74-4.747-.501-9.666-3.405-13.499 0 0-4.899-6.459-4.899-6.459-1.023-1.351-.588-3.347.897-4.146 3.116-1.558 6.582-3.168 9.214-5.486l13.811-12.161c1.885-1.659 3.556-3.537 4.966-5.578l14.422-20.884c4.086-5.919 3.364-13.904-1.719-18.987l-6.031-6.031c-3.958-3.959-9.722-5.314-14.934-3.691 0 0 .721-6.531.721-6.533 1.079-9.77-6.638-18.641-16.457-18.924l-31.715-.88c-5.531-.148-11.019 1.187-15.881 3.855l-17.751 9.756c-1.352.746-2.887 1.189-4.429 1.281l-37.584 2.206-1.146-1.624.111-.07c4.386-2.81 6.959-7.598 6.885-12.809-.107-7.531-5.383-11.487-11.228-14.997-4.068-2.445-9.111-2.806-13.483-.969 0 0-25.635 10.738-25.649 10.744-16.953 7.102-21.165 31.845-17.499 47.832 0 0 6.55 28.482 6.551 28.483 4.841 21.029.813 42.625-1.54 63.727z"/></svg>