<svg id="Capa_1" enable-background="new 0 0 512 512" height="512" viewBox="0 0 512 512" width="512" xmlns="http://www.w3.org/2000/svg"><path d="m373.93 473.779c-2.563-10.192-6.301-19.314-10.686-27.416-19.242-35.58-50.95-51.352-50.95-51.352h-9.399-92.893-10.295s-31.709 15.772-50.95 51.352c-4.386 8.102-8.123 17.224-10.686 27.416-2.358 9.327-3.727 19.561-3.727 30.721h75.659 92.893 74.763c-.002-11.16-1.371-21.393-3.729-30.721z" fill="#4f4c5f"/><path d="m168.756 446.364c19.242-35.58 50.95-51.352 50.95-51.352h-9.705-10.295s-31.709 15.772-50.95 51.352c-4.386 8.102-8.123 17.224-10.686 27.416-2.358 9.328-3.727 19.561-3.727 30.721h20c0-11.16 1.369-21.393 3.727-30.721 2.563-10.193 6.3-19.314 10.686-27.416z" fill="#423e4f"/><path d="m254.129 430.033c-12.339-6.366-27.872-4.382-38.216 5.961-9.505 9.505-11.951 23.393-7.344 35.157.798 2.037 2.404 3.644 4.441 4.441 11.764 4.607 25.652 2.161 35.157-7.344 10.345-10.343 12.328-25.876 5.962-38.215z" fill="#ff748f"/><path d="m296.086 435.994c-10.343-10.343-25.876-12.327-38.216-5.961-6.366 12.339-4.382 27.872 5.961 38.216 9.505 9.505 23.393 11.951 35.157 7.344 2.037-.798 3.644-2.404 4.441-4.441 4.608-11.765 2.163-25.653-7.343-35.158z" fill="#ff748f"/><path d="m343.475 381.712s-3.063 58.217-87.475 58.217-87.475-58.217-87.475-58.217z" fill="#e3254c"/><circle cx="256.447" cy="425.731" fill="#f9496e" r="26.39"/><path d="m61.529 134.911c-11.995 26.817-18.367 56.135-18.488 86.471v.239h425.918v-.238c-.121-30.3-6.54-59.622-18.617-86.471h-388.813z" fill="#e27858"/><circle cx="441.051" cy="220.758" fill="#ffbd86" r="36.768"/><path d="m439.01 221.501c-.4-100.584-81.942-182.028-182.563-182.268-101.335-.243-183.053 80.933-183.457 182.268.404 101.334 82.122 182.51 183.457 182.268 100.621-.241 182.164-81.684 182.563-182.268z" fill="#fed2a4"/><path d="m102.99 221.501c.384-96.128 73.943-174.104 168.005-181.658-4.8-.389-9.651-.599-14.548-.611-88.644-.212-162.277 61.879-179.6 145.266-1.865-.329-3.828-.508-5.898-.508-20.306 0-36.768 16.461-36.768 36.768s16.462 36.768 36.768 36.768c1.966 0 3.837-.158 5.618-.456 16.775 84.105 90.73 146.912 179.88 146.699 4.897-.012 9.748-.222 14.548-.611-94.062-7.553-167.622-85.529-168.005-181.657z" fill="#ffbd86"/><g fill="#ff748f"><path d="m358.368 263.471h-23.94c-4.142 0-7.5-3.358-7.5-7.5s3.358-7.5 7.5-7.5h23.94c4.142 0 7.5 3.358 7.5 7.5s-3.358 7.5-7.5 7.5z"/><path d="m177.571 263.471h-23.94c-4.142 0-7.5-3.358-7.5-7.5s3.358-7.5 7.5-7.5h23.94c4.142 0 7.5 3.358 7.5 7.5s-3.358 7.5-7.5 7.5z"/><path d="m426.069 73.797-170.069-18.608-170.069 18.608-20.236 41.778 190.305 19.336 190.305-19.336z"/></g><path d="m95.696 115.575 20.235-41.778 155.069-16.966-15-1.642-170.069 18.608-20.235 41.778 190.304 19.336 15-1.524z" fill="#f9496e"/><path d="m474.118 115.578h-436.236c-6.063 0-10.978 4.915-10.978 10.978v16.709c0 6.063 4.915 10.978 10.978 10.978h436.236c6.063 0 10.978-4.915 10.978-10.978v-16.709c0-6.063-4.915-10.978-10.978-10.978z" fill="#5c586f"/><path d="m56.904 143.265v-16.709c0-6.063 4.915-10.978 10.978-10.978h-30c-6.063 0-10.978 4.915-10.978 10.978v16.709c0 6.063 4.915 10.978 10.978 10.978h30c-6.063 0-10.978-4.915-10.978-10.978z" fill="#423e4f"/><path d="m426.069 73.797h-340.138l9.943-20.525c13.547-27.992 41.918-45.772 73.015-45.772h23.22c5.491 0 10.951.559 16.302 1.657 5.361 1.098 10.592 2.745 15.643 4.902 10.203 4.373 21.074 6.549 31.945 6.549s21.743-2.176 31.945-6.549c10.094-4.323 20.966-6.559 31.947-6.559h23.22c31.097 0 59.468 17.78 73.015 45.772z" fill="#5c586f"/><path d="m195.392 7.583c-1.093-.044-2.187-.083-3.283-.083h-23.22c-31.097 0-59.468 17.78-73.015 45.772l-9.943 20.525h30l9.943-20.525c13.037-26.939 39.806-44.411 69.518-45.689z" fill="#423e4f"/><path d="m353.893 230.151v-17.576c0-4.142-3.358-7.5-7.5-7.5s-7.5 3.357-7.5 7.5v17.576c0 4.142 3.358 7.5 7.5 7.5s7.5-3.358 7.5-7.5z"/><path d="m173.106 230.151v-17.576c0-4.142-3.358-7.5-7.5-7.5s-7.5 3.357-7.5 7.5v17.576c0 4.142 3.358 7.5 7.5 7.5s7.5-3.358 7.5-7.5z"/><path d="m266.521 242.903c-2.549 2.917-6.384 4.59-10.521 4.59s-7.972-1.673-10.521-4.59c-2.726-3.118-7.464-3.436-10.582-.71s-3.436 7.463-.71 10.582c5.398 6.174 13.349 9.716 21.814 9.716s16.417-3.542 21.815-9.717c2.726-3.118 2.408-7.856-.711-10.582s-7.857-2.408-10.584.711z"/><path d="m474.106 108.1h-23.11s-18.187-37.549-18.188-37.552l-9.94-20.519c-14.7-30.375-46.008-50.002-79.762-50.002-19.958 0-39.357-.87-58.117 7.165-18.375 7.87-39.622 7.867-57.989-.004-18.765-8.01-38.141-7.16-58.107-7.16-33.754 0-65.062 19.627-79.761 49.999 0 0-9.942 20.524-9.943 20.524l-18.185 37.549h-23.11c-10.188 0-18.477 8.289-18.477 18.477v16.708c0 10.188 8.289 18.477 18.477 18.477h5.988c-2.755 9.777-4.832 19.788-6.222 29.895-6.819 7.789-10.966 17.975-10.966 29.116 0 24.29 19.668 44.066 43.914 44.257 8.06 34.3 25.482 65.69 50.983 91.024 12.102 12.023 25.558 22.213 40.025 30.448.848 4.701 2.918 12.644 7.918 21.264-11.195 10.36-20.385 22.119-27.367 35.03-10.158 18.784-15.317 40.228-15.317 61.703 0 4.142 3.358 7.5 7.5 7.5h243.301c4.142 0 7.5-3.358 7.5-7.5 0-21.471-5.08-42.793-15.315-61.701-6.983-12.911-16.173-24.671-27.369-35.032 5.104-8.798 7.155-16.893 7.969-21.554 18.897-10.794 36.023-24.863 50.503-41.825 2.689-3.15 2.316-7.884-.834-10.573s-7.884-2.316-10.573.834c-28.977 33.943-69.434 55.345-113.191 60.439-11.102 1.292-22.313 1.527-33.46.701-25.046-1.831-48.857-8.783-70.769-20.663-.157-.085-.322-.151-.483-.224-14.317-7.827-27.6-17.7-39.465-29.487-47.764-47.45-64.071-120.376-41.048-183.652h329.665c.199.541.397 1.083.59 1.627 17.275 48.598 11.735 103.396-14.812 147.599-2.132 3.551-.982 8.158 2.568 10.29 3.551 2.133 8.158.982 10.29-2.568 10.032-16.705 17.377-34.82 21.87-53.677 24.294-.134 44.018-19.934 44.018-44.26 0-11.153-4.155-21.348-10.987-29.14-1.401-10.095-3.492-20.099-6.265-29.871h6.051c10.188 0 18.477-8.289 18.477-18.477v-16.708c.002-10.188-8.286-18.477-18.475-18.477zm-217.641 303.174c3.882-.009 7.782-.141 11.657-.382 4.521 3.492 7.214 9.146 7.214 14.843 0 10.153-8.468 18.731-18.614 18.874-.093.003-.193.007-.311.012-10.218-.018-18.853-8.662-18.853-18.887 0-5.69 2.705-11.248 7.149-14.79.159.012 9.856.33 11.758.33zm33.86 14.462c-.002-5.812-1.491-11.621-4.353-16.688-.021-.037-.038-.075-.059-.112 15.9-2.495 31.286-6.972 45.999-13.383-.971 2.134-2.17 4.397-3.65 6.704-8.227 12.821-21.609 21.065-35.97 25.394-.674.203-1.363.393-2.051.584.062-.83.085-1.667.084-2.499zm-43.71 32.433c-1.046 1.727-2.302 3.332-3.749 4.779-7.108 7.108-17.752 9.331-27.117 5.664-.091-.036-.157-.102-.193-.193-3.356-8.571-1.779-18.214 3.961-25.236.415.107.847.198 1.266.301 2.62.647 5.262 1.182 7.91 1.701 3.066 4.374 7.2 8.015 11.924 10.505 1.917 1.012 3.924 1.844 5.998 2.479zm19.608.011c7.254-2.183 13.77-6.906 18.113-13.192.111-.021 5.17-1.089 7.576-1.674.187-.047.381-.088.567-.137 5.743 7.023 7.322 16.668 3.965 25.241-.036.091-.103.157-.192.192-9.367 3.667-20.011 1.444-27.118-5.663-1.384-1.384-2.594-2.914-3.612-4.557.236-.064.468-.14.701-.21zm-39.325-49.089c-.012.022-.022.045-.035.067-3.256 5.86-4.735 12.658-4.191 19.34-10.486-2.79-20.619-7.449-28.857-14.603-5.668-4.922-10.575-11.322-13.726-18.182 14.875 6.422 30.58 10.925 46.809 13.378zm129.745 40.845c7.838 14.491 12.295 30.635 13.284 47.064h-27.109v-29.344c0-4.141-3.358-7.5-7.5-7.5s-7.5 3.358-7.5 7.5v29.344h-142.743v-29.344c0-4.141-3.358-7.5-7.5-7.5s-7.5 3.358-7.5 7.5v29.344h-28.003c.99-16.439 5.44-32.572 13.285-47.066 5.943-10.991 13.712-21.061 23.147-30.02.085.091.175.174.26.265 4.855 5.187 10.501 9.589 16.624 13.183.874.513 9.11 5.202 9.391 4.748-6.517 10.615-7.865 23.845-3.192 35.778 1.554 3.969 4.721 7.135 8.69 8.69 4.773 1.869 9.754 2.777 14.693 2.777 10.496 0 20.8-4.102 28.5-11.802.895-.895 1.726-1.841 2.528-2.808.802.968 1.633 1.914 2.528 2.809 7.7 7.699 18.003 11.801 28.499 11.801 4.939 0 9.921-.909 14.694-2.777 3.968-1.554 7.135-4.721 8.689-8.69 4.671-11.929 3.326-25.152-3.185-35.765 7.187-3.123 13.155-6.811 18.096-10.713 2.903-2.293 5.641-4.796 8.162-7.504 9.444 8.962 17.215 19.036 23.162 30.03zm-266.002-368.616h56.111c4.142 0 7.5-3.358 7.5-7.5s-3.358-7.5-7.5-7.5h-48.846l4.727-9.757c12.211-25.232 38.22-41.536 66.261-41.536 17.843 0 35.401-1.223 52.208 5.952 22.145 9.454 47.657 9.488 69.795.001 16.699-7.156 34.49-5.952 52.21-5.952 28.04 0 54.049 16.304 66.262 41.539l4.725 9.754h-237.512c-4.142 0-7.5 3.358-7.5 7.5s3.358 7.5 7.5 7.5h244.778l12.971 26.78h-356.661zm-15.603 81.038c-1.533 4.662-2.892 9.382-4.079 14.15-4.705 0-9.411.749-13.884 2.212-.355.116-2.085.644-2.108.752 1.252-5.979 2.767-11.895 4.538-17.71h15.724c-.066.198-.126.398-.191.596zm-33.345 58.415c0-15.076 11.459-27.524 26.125-29.096.036-.004.073-.01.109-.014-.75 4.695-1.325 9.427-1.726 14.194-.777 9.212-.698 18.369-.278 27.592.357 5.519.933 10.994 1.75 16.407-14.596-1.639-25.98-14.056-25.98-29.083zm402.59 29.088c.456-2.975.835-5.966 1.151-8.966 1.725-16.373 1.239-32.983-1.384-49.235 14.73 1.511 26.258 13.99 26.258 29.113 0 15.043-11.406 27.471-26.025 29.088zm12.708-70.406c-2.259-.871-7.048-2.047-7.08-2.054-2.908-.617-5.899-.894-8.87-.894-.025 0-.049 0-.073 0-.92-3.725-1.959-7.421-3.109-11.102-.381-1.218-.772-2.434-1.176-3.644h15.741c1.781 5.813 3.306 11.722 4.567 17.694zm20.593-36.17c0 1.917-1.56 3.477-3.478 3.477h-436.212c-1.918 0-3.478-1.56-3.478-3.477v-16.708c0-1.918 1.56-3.478 3.478-3.478h436.213c1.918 0 3.478 1.56 3.478 3.478v16.708z"/></svg>