<svg id="Capa_1" enable-background="new 0 0 512 512" height="512" viewBox="0 0 512 512" width="512" xmlns="http://www.w3.org/2000/svg"><path d="m42.245 220.631v-.24c.228-57.122 22.524-110.657 62.781-150.743 40.248-40.077 93.863-62.148 150.969-62.148h.526c56.837.136 110.292 22.33 150.515 62.494 40.219 40.159 62.494 93.571 62.721 150.397v.239z" fill="#f9496e"/><path d="m72.245 220.391c.228-57.122 22.524-110.657 62.781-150.743 36.689-36.533 84.487-58.095 135.91-61.624-4.778-.328-9.583-.512-14.416-.523h-.526c-57.105 0-110.72 22.071-150.968 62.148-40.257 40.086-62.553 93.621-62.781 150.743v.24h30z" fill="#e3254c"/><path d="m469.755 220.391c24.538 98.08 12.088 224.438-99.534 240.175h-228.441c-111.622-15.737-124.073-142.095-99.535-240.175z" fill="#f9496e"/><path d="m82.245 220.391h-40c-24.538 98.081-12.088 224.438 99.534 240.175h40c-111.621-15.737-124.072-142.095-99.534-240.175z" fill="#e3254c"/><circle cx="441.698" cy="219.765" fill="#ffbd86" r="36.897"/><path d="m177.296 410.282 19.988 50.284-19.988 43.934h-43.381c0-11.199 1.375-21.465 3.743-30.827 2.569-10.226 6.322-19.378 10.727-27.516 8.48-15.675 19.367-27.526 28.911-35.875z" fill="#e2e2e2"/><path d="m378.085 504.5h-42.488l-17.66-43.935 17.66-49.491c9.322 8.299 19.809 19.889 28.018 35.082 4.405 8.138 8.158 17.29 10.727 27.516 2.369 9.363 3.743 19.629 3.743 30.828z" fill="#e2e2e2"/><path d="m335.597 411.074v93.426h-158.301v-94.218c12.202-10.677 22.217-15.655 22.217-15.655h112.974s10.506 5.228 23.11 16.447z" fill="#ff748f"/><path d="m214.601 376.341v59.136c0 8.331 6.754 15.085 15.084 15.085h53.526c8.331 0 15.085-6.754 15.085-15.085v-59.136z" fill="#e2e2e2"/><path d="m110.314 151.869c-24.116 16.244-34.064 31.445-34.086 31.478-2.493 11.99-3.827 24.418-3.878 37.165.406 101.688 82.41 183.148 184.099 182.905 100.973-.241 182.801-81.97 183.202-182.905-.051-12.77-1.409-25.229-3.94-37.257-.957-1.422-14.172-20.514-45.313-38.41z" fill="#fed2a4"/><path d="m102.35 220.511c.049-12.246 1.283-51.875 3.59-65.6-20.952 15.049-29.692 28.404-29.712 28.436-.002.011-.004.021-.006.033-1.872-.33-3.842-.511-5.919-.511-20.377 0-36.897 16.52-36.897 36.896 0 20.378 16.519 36.897 36.897 36.897 1.973 0 3.85-.159 5.637-.457 16.833 84.399 91.047 147.425 180.509 147.211 4.897-.012 9.748-.22 14.548-.608-94.417-7.554-168.262-85.814-168.647-182.297z" fill="#ffbd86"/><path d="m358.727 262.602h-24.024c-4.142 0-7.5-3.358-7.5-7.5s3.358-7.5 7.5-7.5h24.024c4.142 0 7.5 3.358 7.5 7.5s-3.358 7.5-7.5 7.5z" fill="#ff748f"/><path d="m177.297 262.602h-24.024c-4.142 0-7.5-3.358-7.5-7.5s3.358-7.5 7.5-7.5h24.024c4.142 0 7.5 3.358 7.5 7.5s-3.357 7.5-7.5 7.5z" fill="#ff748f"/><circle cx="75.945" cy="266.268" fill="#f4e64c" r="19.665"/><circle cx="436.055" cy="266.268" fill="#f4e64c" r="19.665"/><path d="m390.397 144.844c-28.42-16.333-71.77-31.67-134.397-31.67-71.578 0-117.982 20.036-145.686 38.695 2.208 14.493 1.254 26.86-.159 35.36-1.018 6.125 4.34 11.446 10.456 10.379 45.177-7.877 94.677-30.25 118.193-41.8 6.441-3.164 13.809 2.079 12.984 9.207-.834 7.211-2.131 13.093-3.413 17.606-1.631 5.742 2.614 11.433 8.582 11.55 93.357 1.836 133.44-49.327 133.44-49.327z" fill="#423e4f"/><path d="m346.733 236.677c4.142 0 7.5-3.358 7.5-7.5v-17.639c0-4.142-3.358-7.5-7.5-7.5s-7.5 3.358-7.5 7.5v17.639c0 4.141 3.358 7.5 7.5 7.5z"/><path d="m165.304 236.677c4.142 0 7.5-3.358 7.5-7.5v-17.639c0-4.142-3.358-7.5-7.5-7.5s-7.5 3.358-7.5 7.5v17.639c0 4.141 3.358 7.5 7.5 7.5z"/><path d="m277.18 241.28c-3.119-2.726-7.856-2.408-10.583.711-2.563 2.933-6.419 4.614-10.579 4.614-4.159 0-8.015-1.682-10.579-4.614-2.726-3.119-7.464-3.437-10.583-.71-3.118 2.726-3.436 7.464-.71 10.583 5.413 6.191 13.384 9.742 21.872 9.742s16.46-3.551 21.873-9.742c2.726-3.119 2.408-7.857-.711-10.584z"/><path d="m481.566 239.167c2.911-5.934 4.548-12.538 4.548-19.401 0-11.145-4.137-21.335-10.943-29.139-6.599-47.949-28.28-91.453-62.817-125.939-41.635-41.573-96.964-64.546-155.815-64.688h-.526c-51.951 0-102.317 18.175-141.821 51.178-3.179 2.655-3.603 7.385-.947 10.564 2.655 3.179 7.385 3.603 10.564.948 37.345-31.199 83.06-47.69 132.204-47.69h.508c54.844.132 106.422 21.548 145.233 60.302 28.728 28.685 47.92 64.049 56.091 103.074-5.166-2.013-10.721-3.051-16.449-3-.625.004-2.055.058-2.143.063-.174-.219-1.154-1.42-1.42-1.739-34.423-41.308-90.948-60.165-142.706-65.961-.092-.01-.184-.02-.275-.029-26.898-2.877-54.949-2.799-82.079.57-43.234 5.379-87.004 19.846-120.885 48.021-6.934 5.767-13.463 12.087-19.103 19.138-.091-.005-.18-.003-.271-.008-6.24-.313-12.531.684-18.353 2.957 7.432-35.633 24.103-68.422 48.756-95.632 2.781-3.07 2.547-7.813-.522-10.594-3.071-2.782-7.813-2.547-10.594.522-29.958 33.065-48.923 73.811-54.955 117.967-6.794 7.801-10.922 17.981-10.922 29.114 0 6.874 1.628 13.496 4.546 19.437-13.755 72.19-4.882 137.115 24.484 178.434 18.417 25.914 44.274 42.31 76.94 48.842-.532 1.776-1.038 3.56-1.49 5.355-2.636 10.42-3.972 21.412-3.972 32.667 0 4.143 3.358 7.5 7.5 7.5h244.171c4.142 0 7.5-3.357 7.5-7.5 0-11.257-1.336-22.247-3.969-32.655-.452-1.8-.96-3.587-1.493-5.367 33.241-6.645 59.416-23.494 77.885-50.188 2.356-3.406 1.505-8.078-1.901-10.435-3.407-2.357-8.079-1.505-10.435 1.9-16.574 23.956-40.362 38.893-70.773 44.457-.04-.092-.085-.181-.126-.272-7.847-17.774-19.704-33.557-34.189-46.468-3.604-3.208-7.367-6.239-11.274-9.07-.012-.008-.024-.018-.036-.027 12.946-5.381 25.34-12.212 36.982-20.447 29.638-20.965 52.439-49.467 66.27-82.732 1.156.151 2.333.237 3.53.237 14.979 0 27.165-12.186 27.165-27.165 0-2.473-.338-4.867-.96-7.145 2.393-1.248 4.643-2.729 6.759-4.383 7.379 48.021 4.109 92.579-9.48 126.786-1.529 3.85.352 8.21 4.201 9.739 3.8 1.507 8.229-.401 9.739-4.201 15.825-39.835 18.666-92.272 8.068-147.897zm-138.45 190.301c11.305 13.32 19.685 29.081 23.974 46.043 1.745 6.9 2.847 14.102 3.29 21.488h-27.264zm-225.544-241.01c1.264-7.603 2.338-19.184.811-32.894 4.391-2.788 8.914-5.338 13.502-7.783.015-.008.03-.016.045-.023 37.899-19.881 81.643-27.084 124.089-27.084 41.835 0 84.621 6.883 122.172 26.07-4.96 4.6-12.883 11.038-23.94 17.361-18.875 10.796-51.063 23.472-97.127 22.567-1.037-.021-1.802-.992-1.515-2.003 1.65-5.811 2.877-12.133 3.648-18.793 1.476-12.756-12.187-22.475-23.741-16.801-24.624 12.094-72.458 33.521-116.175 41.143-1.026.179-1.938-.74-1.769-1.76zm-42.629 65.693c6.988-.658 13.185 5.149 13.185 12.117 0 6.557-5.615 12.165-12.165 12.165-6.708 0-12.165-5.457-12.165-12.165 0-6.084 5.144-11.552 11.145-12.117zm-7.639-63.629c-.026.166-.049.333-.075.499-1.303 8.296-2.07 16.686-2.288 25.081-.207 8.287.185 16.597 1.087 24.836.002.018.003.035.005.052-3.096 1.221-5.978 3.024-8.429 5.276-10.01-4.832-16.681-15.155-16.681-26.5.001-15.192 11.583-27.729 26.381-29.244zm102.51 306.478h-28.158c1.523-25.347 11.523-49.421 28.158-68.585zm12.287-100.159c-19.193 14.081-35.179 33.097-44.838 55.062-.046.104-.097.205-.143.31-29.899-5.472-53.409-20.009-69.938-43.267-14.309-20.133-23.248-46.333-26.567-77.872-2.487-23.631-1.653-49.74 2.391-76.296 2.109 1.647 4.37 3.098 6.755 4.341-.623 2.279-.961 4.675-.961 7.148 0 14.979 12.186 27.165 27.165 27.165 1.157 0 2.295-.081 3.414-.222 13.834 33.48 36.732 62.094 66.55 83.055 11.553 8.122 23.853 14.862 36.706 20.18-.175.126-.359.268-.534.396zm146.015 100.159h-143.302s0-83.25 0-83.251c4.875-4.051 10.04-7.79 15.514-10.992 2.251.679 4.515 1.316 6.792 1.911v30.809c0 12.453 10.131 22.585 22.584 22.585h53.525c12.453 0 22.584-10.132 22.584-22.585v-31.105c1.949-.524 3.89-1.078 5.82-1.663.215-.065 5.275 3.283 7.145 4.588 3.224 2.251 6.334 4.666 9.337 7.204v82.499zm-105.996-61.522v-27.525c3.029.536 9.203 1.398 9.234 1.402 16.341 2.028 33.113 2.085 49.519-.042.039-.005 6.687-.957 9.941-1.555v27.72c0 4.183-3.402 7.585-7.584 7.585h-53.525c-4.183 0-7.585-3.403-7.585-7.585zm200.093-192.52c-8.12 4.886-13.303 13.808-13.303 23.31 0 7.961 3.697 15.827 9.879 20.94-.161.387-2.757 6.306-3.974 8.841-20.211 42.108-59.248 78.421-104.796 91.435-.01.003-.021.006-.034.011-34.371 11.457-73.585 11.091-108.184 0-.012-.004-.025-.008-.038-.012-45.397-13.968-84.077-48.533-104.632-91.32-1.416-2.912-2.732-5.885-3.971-8.877.324-.265.64-.543.951-.823 5.65-5.086 9.018-12.587 9.018-20.194 0-12.733-9.521-24.258-22.016-26.669-.048-.009-.094-.024-.142-.033-.028-.244-.049-.489-.075-.733-1.88-17.494-1.027-35.2 2.401-52.454.018-.024.033-.045.052-.07 5.291-7.032 11.724-13.139 18.482-18.743.743-.617 1.494-1.224 2.249-1.826.26 8.273-.473 15.256-1.304 20.258-1.831 11.018 8.127 20.923 19.143 18.997 45.554-7.942 94.868-30.009 120.21-42.456 1.127-.553 2.368.405 2.229 1.612-.678 5.86-1.747 11.384-3.177 16.419-2.931 10.316 4.965 20.888 15.649 21.099 79.687 1.564 122.046-33.974 135.091-47.308 10.635 6.591 20.643 14.274 29.343 23.288 2.639 2.723 5.166 5.577 7.418 8.63 2.583 12.828 3.824 25.974 3.392 39.06-.154 4.754-.493 9.5-1.018 14.228-.047.009-.091.023-.138.032-3.094.596-6.037 1.752-8.705 3.358zm13.861 35.475c-6.449 0-12.165-5.701-12.165-12.165 0-6.708 5.457-12.165 12.165-12.165 6.584 0 12.165 5.59 12.165 12.165 0 6.708-5.457 12.165-12.165 12.165zm18.358-32.167c-2.469-2.267-5.321-4.053-8.439-5.28.168-1.513.311-3.028.443-4.545 1.319-15.177.727-30.512-1.676-45.554-.02-.123-.036-.245-.036-.365 5.545.566 10.639 2.679 14.848 5.904 7.196 5.397 11.542 14.315 11.542 23.339-.001 11.346-6.672 21.67-16.682 26.501z"/></svg>