<svg id="Capa_1" enable-background="new 0 0 512 512" height="512" viewBox="0 0 512 512" width="512" xmlns="http://www.w3.org/2000/svg"><path d="m334.42 20.14c42.72 14.18 80.28 39.66 109.16 72.87l60.26 144.79c.44 6.01.66 12.08.66 18.2 0 39.73-9.33 77.29-25.91 110.6l-110.55 111.26c-33.67 17.04-71.73 26.64-112.04 26.64s-78.37-9.6-112.04-26.64l-110.55-111.26c-16.58-33.31-25.91-70.87-25.91-110.6 0-6.12.22-12.19.66-18.2l60.26-144.79c28.88-33.21 66.44-58.69 109.16-72.87z" fill="#e2e2e2"/><circle cx="256" cy="256" fill="#00cd8c" r="92.173"/><path d="m270.998 504.055c-34.752-2.07-67.576-11.284-97.038-26.195-47.77-24.16-86.68-63.31-110.55-111.26-16.58-33.31-25.91-70.87-25.91-110.6 0-6.12.22-12.19.66-18.2 3.99-55.22 26.04-105.43 60.26-144.79 28.88-33.21 66.44-58.69 109.16-72.87h-30c-31.593 10.486-60.973 27.443-85.928 49.468-8.25 7.28-16.012 15.1-23.233 23.402l-60.259 144.79c-3.235 44.186 5.503 89.127 25.25 128.8 0 0 110.55 111.26 110.55 111.26 27.357 13.845 57.612 22.778 89.617 25.642 7.386.661 14.865.999 22.423.999 2.826-.001 12.829-.317 14.998-.446z" fill="#c1bfc5"/><g fill="#f9496e"><path d="m334.42 20.14c-6.04 37.86-38.85 66.79-78.42 66.79s-72.38-28.93-78.42-66.79c24.65-8.2 51.02-12.64 78.42-12.64s53.77 4.44 78.42 12.64z"/><path d="m503.84 237.8c-37.27 8.93-76.55-10.25-91.75-46.76-15.19-36.51-1.11-77.89 31.49-98.03 34.22 39.36 56.27 89.57 60.26 144.79z"/><path d="m478.59 366.6c-23.87 47.95-62.78 87.1-110.55 111.26-22.58-30.97-19.98-74.63 7.9-102.7 27.89-28.07 71.53-30.96 102.65-8.56z"/><path d="m99.91 191.04c-15.2 36.51-54.48 55.69-91.75 46.76 3.99-55.22 26.04-105.43 60.26-144.79 32.6 20.14 46.68 61.52 31.49 98.03z"/><path d="m143.96 477.86c-47.77-24.16-86.68-63.31-110.55-111.26 31.12-22.4 74.76-19.51 102.65 8.56 27.88 28.07 30.48 71.73 7.9 102.7z"/></g><path d="m143.96 477.86c2.975-4.081 5.501-8.386 7.602-12.843-37.531-24.183-68.132-58.203-88.152-98.417-1.935-3.888-3.761-7.839-5.496-11.839-8.636 2.458-16.941 6.395-24.504 11.839 10.377 20.845 23.706 40.207 39.448 57.363 20.22 22.036 44.412 40.399 71.102 53.897z" fill="#e3254c"/><path d="m38.076 239.109c.03-.436.052-.874.084-1.309 3.496-48.376 20.853-92.906 48.11-129.666-5.086-5.802-11.06-10.929-17.85-15.124-23.526 27.06-41.3 59.248-51.408 94.667-4.664 16.345-7.627 33.171-8.852 50.123 9.997 2.395 20.134 2.75 29.916 1.309z" fill="#e3254c"/><path d="m180.156 31.11c8.867-4.178 18.02-7.849 27.424-10.97 20.119-6.693 41.385-10.878 63.42-12.191-.018-.001-.035-.002-.053-.003-18.446-1.018-36.946-.173-55.188 2.799-12.949 2.111-25.729 5.254-38.179 9.395.599 3.753 1.471 7.413 2.576 10.97z" fill="#e3254c"/><path d="m197.075 265.986c4.142 0 7.5-3.358 7.5-7.5v-10.665c0-4.142-3.358-7.5-7.5-7.5s-7.5 3.358-7.5 7.5v10.665c0 4.142 3.358 7.5 7.5 7.5z"/><path d="m314.925 265.986c4.142 0 7.5-3.358 7.5-7.5v-10.665c0-4.142-3.358-7.5-7.5-7.5s-7.5 3.358-7.5 7.5v10.665c0 4.142 3.358 7.5 7.5 7.5z"/><path d="m256 271.678c7.832 0 15.191-3.28 20.19-8.998 2.726-3.119 2.408-7.857-.71-10.583s-7.857-2.408-10.583.71c-2.15 2.46-5.393 3.871-8.897 3.871s-6.747-1.411-8.897-3.871c-2.727-3.119-7.465-3.437-10.583-.71-3.119 2.726-3.437 7.464-.71 10.583 4.999 5.718 12.358 8.998 20.19 8.998z"/><path d="m511.32 237.25c-4.011-55.482-25.478-107.061-62.084-149.166-30.182-34.705-69.067-60.661-112.459-75.064-25.975-8.64-53.152-13.02-80.777-13.02s-54.802 4.38-80.783 13.021c-20.458 6.791-40.042 16.199-58.206 27.964-3.477 2.252-4.47 6.896-2.218 10.372s6.896 4.47 10.372 2.218c14.74-9.547 30.473-17.445 46.867-23.536 4.491 16.752 14.15 32.069 27.291 43.378 13.844 11.914 31.077 19.116 49.176 20.684v62.508c-38.266 2.86-70.574 27.423-84.636 61.384l-54.702-30.388c5.739-17.507 5.804-36.453.053-54.049-5.221-15.972-15.158-30.332-28.266-40.846-.419-.336-.832-.68-1.257-1.008 6.822-7.312 14.134-14.238 21.814-20.662 3.177-2.657 3.599-7.387.942-10.565-2.657-3.177-7.387-3.599-10.565-.942-10.435 8.728-20.232 18.334-29.122 28.556-36.602 42.1-58.069 93.679-62.081 149.171-.451 6.158-.679 12.464-.679 18.74 0 40.018 8.981 78.354 26.698 113.946 24.46 49.135 64.9 89.834 113.875 114.606 35.989 18.213 74.824 27.448 115.427 27.448s79.438-9.235 115.432-27.451c14.395-7.281 28.215-16.018 41.076-25.967 3.276-2.534 3.878-7.245 1.343-10.521s-7.245-3.878-10.521-1.343c-10.344 8.002-21.345 15.17-32.777 21.361-.497-.83-.975-1.668-1.437-2.516-15.04-27.599-9.99-62.833 12.143-85.117 21.702-21.848 56.92-27.351 84.268-13.092 1.115.581 2.216 1.181 3.299 1.82-11.455 21.504-26.082 41.105-43.546 58.343-2.948 2.909-2.979 7.658-.069 10.606s7.659 2.979 10.606.069c20.231-19.968 36.879-42.929 49.485-68.251 17.716-35.587 26.698-73.922 26.698-113.941 0-6.272-.229-12.577-.68-18.75zm-18.418-5.174c-13.486 1.407-27.689-1.053-39.77-7.281-.024-.012-.048-.022-.071-.034-30.864-15.87-46.841-53.432-36.018-86.544 4.553-13.929 13.453-26.406 25.176-35.206 30.43 36.957 48.845 81.201 53.572 128.705-.961.139-1.925.26-2.889.36zm-60.592-140.376c-.427.329-.84.673-1.26 1.01-24.965 20.001-37.175 53.426-30.824 84.973.674 3.346 1.542 6.658 2.612 9.921l-54.702 30.389c-14.061-33.962-46.37-58.524-84.635-61.385v-62.507c18.099-1.567 35.331-8.77 49.176-20.684 10.624-9.143 18.665-20.711 24.034-33.619 1.313-3.157 2.371-6.458 3.258-9.759 35.048 13.02 66.699 34.154 92.341 61.661zm-106.596-66.454c-.309 1.219-.658 2.424-1.033 3.624-9.252 29.722-37.554 50.56-68.681 50.56-32.297 0-61.444-22.492-69.6-53.74-.038-.148-.076-.296-.115-.445 22.519-6.801 45.938-10.245 69.715-10.245s47.196 3.444 69.714 10.246zm-69.714 146.081c46.688 0 84.672 37.984 84.672 84.673 0 46.688-37.984 84.672-84.672 84.672-46.689 0-84.673-37.984-84.673-84.672 0-46.689 37.984-84.673 84.673-84.673zm-199.765 54.707c-12.491 5.58-26.453 7.659-40.026 5.682 4.727-47.504 23.142-91.748 53.573-128.705 9.467 7.106 17.132 16.588 22.076 27.346 8.349 18.165 8.813 39.33 1.129 57.801-6.914 16.617-20.297 30.525-36.752 37.876zm-41.059 20.684c.163.022.327.035.49.056 35.205 4.427 70.75-13.809 87.576-45.299l55.886 31.046c-1.826 7.532-2.801 15.394-2.801 23.479 0 24.585 8.953 47.116 23.763 64.516l-44.251 44.251c-7.952-6.724-17.013-11.943-26.732-15.438-23.596-8.484-50.825-6.1-72.589 6.361-14.283-31.338-21.518-64.834-21.518-99.69 0-3.095.059-6.197.176-9.282zm27.998 122.456c27.765-16.395 64.843-11.606 87.564 11.271 22.553 22.707 27.149 60.167 10.708 87.634-41.507-22.485-76.05-57.249-98.272-98.905zm302.412 55.712c-.897 12.489 1 25.102 5.337 36.838.414 1.121 5.598 13.375 6.191 13.1-31.732 14.719-65.707 22.176-101.114 22.176s-69.383-7.457-101.115-22.177c6.998-12.031 11.024-25.82 11.647-39.719.968-21.575-6.271-43.123-20.12-59.699l44.221-44.222c17.512 15.245 40.379 24.489 65.366 24.489s47.854-9.244 65.365-24.489l44.221 44.222c-11.649 13.947-18.691 31.255-19.999 49.481zm129.896-69.196c-.477-.273-.963-.527-1.444-.792-30.989-17.003-70.689-13.123-97.877 9.868l-44.251-44.251c14.81-17.399 23.762-39.93 23.762-64.515 0-8.086-.975-15.947-2.801-23.479l55.886-31.046c8.416 15.751 21.511 28.608 37.56 36.685.016.008.032.015.048.023 10.757 5.404 22.62 8.52 34.639 9.153 5.221.275 10.588.075 15.82-.618.117 3.086.176 6.188.176 9.282 0 34.856-7.235 68.352-21.518 99.69z"/></svg>