<svg id="Capa_1" enable-background="new 0 0 512 512" height="512" viewBox="0 0 512 512" width="512" xmlns="http://www.w3.org/2000/svg"><path d="m174.997 394.266s12.566 67.374-43.292 107.367c-24.458 17.186-32.428-47.633-53.067-68.272s-85.458-28.608-68.271-53.067c39.993-55.858 107.366-43.292 107.366-43.292z" fill="#f4e64c"/><path d="m174.997 394.266-20-20s12.566 67.374-43.292 107.367c-2.373 1.667-4.59 2.555-6.679 2.793 7.264 15.158 15.134 25.319 26.679 17.207 55.858-39.993 43.292-107.367 43.292-107.367z" fill="#fab659"/><path d="m166.553 129.574c-6.25 24.461-2.576 38.947-18.896 55.662-15.036 15.4-17.855 39.211-5.777 57.027 2.986 4.405 6.355 7.805 10.069 9.205l106.651-139.562s-77.277-31.46-92.047 17.668z" fill="#f4e64c"/><path d="m217.283 379.331c11.819 19.367 35.351 20.365 55.683 16.64 35.389-6.483 59.578-39.617 55.021-75.306-.097-.762-.163-1.175-.163-1.175z" fill="#f4e64c"/><path d="m462.672 173.7c-19.454 30.476-47.384 65.498-87.045 105.159-89.577 89.577-213.098 121.223-258.291 130.216-8.575 1.709-16.121-5.837-14.412-14.412 8.993-45.193 40.639-168.714 130.217-258.291 39.661-39.661 74.683-67.591 105.159-87.045z" fill="#fab659"/><path d="m442.672 153.7c-19.454 30.476-47.384 65.498-87.045 105.159-85.274 85.274-201.306 118.048-251.247 128.768-.067.313-1.859 7.095-1.679 10.188.424 7.297 7.491 12.684 14.635 11.261 26.127-5.199 78.434-17.97 135.226-45.128 45.158-21.595 87.587-49.61 123.065-85.089 32.17-32.171 62.515-66.732 87.045-105.159 0 0-20-20-20-20z" fill="#ec8d00"/><path d="m494.616 36.405c4.78 0 8.773 3.61 9.277 8.355 2.709 25.419-2.411 68.144-41.221 128.94-32.689-.688-64.094-12.745-87.861-36.512s-35.824-55.172-36.511-87.86c60.796-38.81 103.521-43.93 128.94-41.221 4.745.504 8.355 4.497 8.355 9.277v9.702c0 5.149 4.17 9.319 9.319 9.319z" fill="#f4e64c"/><path d="m503.893 44.76c-.495-4.672-4.573-8.355-9.277-8.355 0 0-9.987-.015-10.125-.021.027 26.041-8.407 64.975-41.819 117.316-3.293 5.158-6.834 10.449-10.629 15.868 9.943 2.536 20.22 3.913 30.629 4.132 20.44-32.022 38.206-68.241 41.381-106.619.614-7.423.63-14.91-.16-22.321z" fill="#fab659"/><path d="m311.136 116.176c-34.368 44.298-6.433 72.455 15.703 72.252 11.606-.106 18.671 3.779 22.954 8.248 6.227 6.495 15.828 8.423 23.945 4.542 8.329-3.982 12.955-13.019 11.399-22.118-2.348-13.724-2.42-26.088-1.827-35.38.74-11.594-3.464-22.958-11.679-31.173l-.24-.24c-17.14-17.141-45.395-15.283-60.255 3.869z" fill="#ec8d00"/><path d="m440.197 59.658c2.83 2.83 7.675 2.932 10.606 0 2.929-2.929 2.929-7.677 0-10.606l-10.521-10.522c-2.929-2.929-7.678-2.929-10.606 0-2.929 2.929-2.929 7.678 0 10.606-.001.001 10.519 10.52 10.521 10.522z"/><path d="m73.326 438.684c6.807 6.807 12.513 20.303 18.032 33.353 8.097 19.147 15.089 35.684 27.729 39.307 5.949 1.705 12.037-.125 16.974-3.595 35.246-25.236 45.109-60.509 47.176-85.657.569-6.92.606-14.1.109-20.764-.046-.615-.092-1.192-.138-1.74 9.963-3.21 20.491-6.891 31.405-11.088 7.3 8.806 19.716 16.716 40.782 16.716 5.657 0 11.941-.571 18.913-1.849 38.249-7.007 64.677-41.938 61.447-80.355 15.598-11.572 30.798-24.464 45.164-38.83 11.885-11.885 23.155-23.801 33.496-35.418 2.754-3.094 2.479-7.834-.615-10.588-3.093-2.754-7.833-2.479-10.589.615-10.149 11.401-21.217 23.104-32.898 34.785-14.767 14.767-30.459 27.929-46.569 39.66-.114.073-.237.131-.346.21-45.495 32.903-97.14 57.005-150.643 73.678-22.627 7.052-41.701 11.51-54.397 14.11-.018.004-.037.008-.055.012-2.629.538-5.389 1.152-7.229-1.386-1.873-2.589-.254-6.46.334-9.248 3.712-17.604 8.392-34.996 13.681-52.186 7.8-24.949 18.618-53.698 33.455-83.411 5.681-11.376 11.794-22.544 18.323-33.455 2.086-3.486.877-8.215-2.601-10.3-3.555-2.127-8.16-.97-10.287 2.584-5.211 8.706-10.056 17.417-14.57 26.071-11.448-14.765-9.245-36.259 3.605-49.419 13.117-13.435 15.007-25.815 17.196-40.152.889-5.82 1.807-11.836 3.561-18.736 2.598-8.525 7.495-14.41 14.965-17.986 9.839-4.711 24.322-5.389 41.885-1.958 5.092.995 9.778 2.208 13.689 3.354-23.662 22.489-45.372 46.434-63.947 73.343-2.353 3.409-1.496 8.08 1.913 10.433 3.364 2.325 8.116 1.452 10.437-1.911 13.99-20.27 29.373-38.838 45.721-55.187 28.798-28.798 59.523-56.027 93.226-78.987 1.123 10.068 3.351 20.119 6.655 29.699.099.288.19.58.291.867-9.581.88-18.877 4.768-26.264 10.923-19.071 15.89-32.461 45.656-20.593 69.607 6.629 13.377 20.758 22.273 35.149 22.144 6.247-.06 12.98 1.255 17.471 5.937 8.849 9.227 23.572 11.517 34.65 5.027 8.654-5.069 13.937-14.473 13.902-24.435-.026-7.394-1.944-14.829-2.279-22.254-.009-.2-.014-.401-.022-.602 17.412 11.358 37.527 18.323 58.157 20.665.174.02.346.046.521.065-8.019 11.769-17.065 23.85-26.992 36.042-2.615 3.212-2.132 7.936 1.08 10.551 3.095 2.52 7.937 2.13 10.551-1.08 13.314-16.352 25.105-32.538 35.046-48.11 22.132-34.67 47.446-86.021 42.357-133.767-.912-8.587-8.106-15.063-16.735-15.063h-9.702c-1.003 0-1.819-.816-1.819-1.82v-9.702c0-8.629-6.476-15.824-15.06-16.734-47.741-5.089-99.099 20.225-133.769 42.357-24.764 15.808-50.674 36.019-77.329 60.277-12.703-4.465-49.262-15.359-74.647-3.22-11.387 5.446-19.097 14.648-22.917 27.352-.03.101-.058.202-.084.303-1.963 7.683-2.99 14.409-3.895 20.343-2.018 13.219-3.351 21.951-13.1 31.937-18.978 19.438-21.531 55.286-.037 74.148-12.792 26.415-22.505 51.928-29.83 74.637-7.29-.656-19.893-1.068-34.675 1.531-30.552 5.372-55.961 21.145-73.518 45.667-4.935 7.023-4.658 13.077-3.557 16.919 3.623 12.641 20.159 19.633 39.306 27.73 13.051 5.52 26.547 11.227 33.354 18.034zm284.366-327.07c11.104 5.645 18.323 17.293 18.19 29.87-.139 13.137-.377 25.876 1.853 38.9.989 5.783-1.989 11.576-7.241 14.087-5.107 2.442-11.254 1.251-15.296-2.965-7.309-7.623-18.121-10.653-28.437-10.558-.053 0-.105.001-.158.001-7.049 0-16.703-4.3-21.413-13.806-1.893-3.82-2.782-8.053-2.693-12.608.188-9.565 4.694-20.547 13.299-32.09 9.602-12.879 27.272-18.265 41.896-10.831zm108.745-96.028c.938.099 1.646.881 1.646 1.818v9.702c0 9.274 7.545 16.82 16.82 16.82h9.702c.937 0 1.719.708 1.819 1.649 2.502 23.476-2.128 63.278-37.793 120.477-24.191-1.237-47.917-9.367-67.164-24.206-.198-.151-.389-.312-.586-.465.062-12.536-4.986-24.99-13.776-33.932-5.959-6.063-13.617-10.613-21.9-12.79-.061-.146-.119-.294-.18-.441-3.802-9.23-6.44-18.935-7.889-28.81-.56-3.815-1.178-11.849-1.188-12.023 57.207-35.673 97.008-40.302 120.489-37.799zm-194.832 373.028c-18.878 3.457-32.922 1.388-41.916-6.147 29.316-12.222 60.741-28.185 91.191-48.892-1.899 26.931-21.773 50.001-49.275 55.039zm-256.52.175c-.108-.379-.439-1.532 1.372-4.109 15.29-21.356 36.595-34.636 63.321-39.472 7.989-1.446 15.314-1.886 21.278-1.886 2.539 0 4.83.08 6.821.196-5.064 17.187-8.678 32.269-11.204 44.28-1.785 8.491-2.376 16.586 4.289 23.251 5.459 5.459 12.727 6.452 20.051 4.953 12.161-2.478 28.477-6.279 47.479-11.876.389 6.661.372 16.69-1.682 28.067-4.83 26.745-18.112 48.062-39.425 63.322-2.629 1.848-3.783 1.52-4.163 1.41-5.749-1.647-12.857-18.456-18.047-30.729-6.079-14.376-12.365-29.242-21.241-38.118s-23.742-15.163-38.118-21.242c-12.275-5.19-29.084-12.298-30.731-18.047z"/></svg>