<svg id="Capa_1" enable-background="new 0 0 512 512" height="512" viewBox="0 0 512 512" width="512" xmlns="http://www.w3.org/2000/svg"><path d="m258.022 482.535c-8.774-36.042-37.417-48.267-37.417-48.267l-69.398-21.819-69.398 21.819s-28.642 12.224-37.417 48.267c-2.725 11.195 5.872 21.965 17.394 21.965h178.842c11.523 0 20.12-10.769 17.394-21.965z" fill="#78cbec"/><path d="m74.393 482.535c8.774-36.042 37.417-48.267 37.417-48.267l54.398-17.103-15-4.716-69.398 21.819s-28.642 12.224-37.417 48.267c-2.725 11.195 5.872 21.965 17.394 21.965h30c-11.523 0-20.12-10.769-17.394-21.965z" fill="#00acdc"/><path d="m67.204 198.438c-67.899 31.728-31.442 90.761-3.532 77.155h41.093v-77.155z" fill="#f9496e"/><path d="m91.204 198.438h-24c-67.899 31.728-31.442 90.761-3.532 77.155h6.59c-21.114-9.646-32.918-51.987 20.942-77.155z" fill="#e3254c"/><path d="m163.67 7.561c-49.615-1.828-90.412 37.851-90.412 87.059 0 43.349 31.662 79.297 73.121 85.995 8.956-38.589 43.552-67.347 84.865-67.347h.143c8.564.014 15.704-6.592 16.042-15.15.045-1.126.068-2.258.069-3.395.055-47.122-36.737-85.427-83.828-87.162z" fill="#f9496e"/><path d="m103.258 94.62c0-42.998 31.15-78.719 72.114-85.831-3.819-.653-7.72-1.082-11.702-1.229-49.615-1.828-90.412 37.852-90.412 87.06 0 43.349 31.662 79.297 73.121 85.995.735-3.166 1.659-6.258 2.728-9.281-27.291-14.711-45.849-43.536-45.849-76.714z" fill="#e3254c"/><path d="m60.818 175.507c-8.512 3.939-8.512 16.038 0 19.977l30.912 14.303v-48.582z" fill="#f4e64c"/><path d="m481.628 213.842c-12.104-82.245-195.767-185.686-297.54 38.371v-73.749c0-28.48-22.655-52.22-51.133-52.589-28.935-.375-52.509 22.968-52.509 51.817v45.258c0 25.449-14.672 47.243-25.261 69.394-10.918 22.842-19.685 49.182-17.136 75.18 2.79 28.457 20.331 51.368 43.76 66.745h138.796s8.193-1.822 19.189-7.623c17.315-9.135 31.146-31.661 40.389-51.031 6.894-14.448 11.373-29.876 14.131-45.645 6.189-35.381 37.062-62.273 74.215-62.273 34.775 0 64.048 23.559 72.728 55.588 2.026 7.476 11.968 9.033 16.254 2.581 13.739-20.678 31.874-59.314 24.117-112.024z" fill="#5c586f"/><path d="m58.049 367.524c-2.549-25.998 6.218-52.338 17.136-75.18 10.588-22.151 25.261-43.945 25.261-69.394 0-.029 0-45.258 0-45.258 0-25.174 17.953-46.152 41.753-50.839-2.996-.592-6.081-.937-9.244-.978-28.935-.375-52.509 22.968-52.509 51.817v45.258c0 25.449-14.672 47.243-25.261 69.394-10.918 22.842-19.685 49.182-17.136 75.18 2.79 28.457 20.331 51.368 43.76 66.745h20c-23.429-15.377-40.97-38.288-43.76-66.745z" fill="#4f4c5f"/><path d="m168.586 301.268c-43.323-42.34-115.087 31.825-2.128 92.342 1.328.711 2.928.711 4.256 0 112.958-60.517 41.195-134.681-2.128-92.342z" fill="#f9496e"/><path d="m155.335 292.106c-42.284-18.877-90.85 46.872 11.123 101.504 1.328.711 2.928.711 4.256 0 4.593-2.461 8.875-4.944 12.872-7.441-62.915-39.31-53.7-82.041-28.251-94.063z" fill="#e3254c"/><path d="m352.524 168.895c-33.939-33.169-90.158 24.931-1.667 72.34 1.04.557 2.294.557 3.334 0 88.491-47.409 32.272-105.509-1.667-72.34z" fill="#f9496e"/><path d="m345.51 163.473c-33.76-20.061-77.264 33.504 5.347 77.762 1.04.557 2.294.557 3.334 0 4.884-2.617 9.302-5.267 13.333-7.931-43.138-28.519-39.015-58.795-22.014-69.831z" fill="#e3254c"/><path d="m115.669 194.985c4.142 0 7.5-3.358 7.5-7.5v-15.712c0-4.142-3.358-7.5-7.5-7.5-4.143 0-7.5 3.358-7.5 7.5v15.712c0 4.142 3.357 7.5 7.5 7.5z"/><path d="m112.324 360.125c10.971 14.495 27.996 27.985 50.603 40.096 1.775.951 3.723 1.427 5.67 1.427s3.895-.476 5.67-1.427c22.607-12.111 39.632-25.602 50.603-40.096 9.833-12.992 14.604-26.702 13.797-39.649-1.032-16.551-11.171-30.487-26.46-36.37-14.539-5.594-30.423-2.852-43.61 7.25-13.187-10.102-29.071-12.844-43.61-7.25-15.289 5.883-25.428 19.819-26.46 36.37-.807 12.947 3.963 26.657 13.797 39.649zm1.173-38.715c.663-10.624 7.128-19.554 16.875-23.304 3.161-1.216 6.441-1.811 9.744-1.811 8.089 0 16.313 3.57 23.238 10.338 2.914 2.848 7.57 2.848 10.484 0 9.754-9.532 22.083-12.72 32.982-8.527 9.747 3.75 16.212 12.68 16.875 23.304.635 10.182-3.507 36.75-55.099 64.826-51.591-28.076-55.734-54.644-55.099-64.826z"/><path d="m352.534 249.149c1.794 0 3.588-.434 5.209-1.303 46.557-24.943 52.128-50.808 51.305-64.005-.849-13.608-9.188-25.068-21.766-29.907-11.575-4.454-24.164-2.489-34.747 5.169-10.583-7.657-23.174-9.622-34.748-5.169-12.577 4.839-20.918 16.299-21.766 29.907-.823 13.197 4.749 39.062 51.306 64.005 1.62.869 3.414 1.303 5.207 1.303zm-41.542-64.374c.63-10.101 9.086-18.148 19.221-18.148 5.922 0 11.969 2.636 17.08 7.632 2.914 2.848 7.569 2.848 10.484 0 7.175-7.011 16.191-9.376 24.119-6.325 7.036 2.707 11.703 9.16 12.182 16.841.475 7.615-2.685 27.448-41.543 48.832-38.857-21.383-42.018-41.215-41.543-48.832z"/><path d="m21.166 242.064c-1.21 14.916 5.499 29.669 17.092 37.586 3.916 2.674 8.095 4.367 12.32 5.075-.729 1.46-1.45 2.923-2.149 4.385-14.29 29.897-20.123 55.786-17.833 79.146 2.459 25.086 15.714 47.972 37.655 65.442-10.245 7.426-25.035 22.011-31.134 47.064-3.828 15.721 8.587 31.238 24.68 31.238h178.842c16.114 0 28.503-15.538 24.681-31.239-5.484-22.526-17.995-36.587-27.911-44.595 1.86-.844 3.831-1.798 5.896-2.887 15.683-8.273 30.372-26.588 43.659-54.434 6.732-14.108 11.694-30.117 14.75-47.582 2.153-12.312 7.713-23.801 16.078-33.226 2.75-3.098 2.467-7.838-.631-10.588-3.098-2.749-7.838-2.467-10.588.631-10.212 11.506-17.001 25.545-19.634 40.598-2.821 16.123-7.367 30.828-13.513 43.707-11.699 24.519-24.535 40.988-37.12 47.628-8.095 4.271-14.552 6.199-16.619 6.756h-135.587c-22.62-15.471-36.293-36.696-38.575-59.977-2.016-20.561 3.361-43.855 16.438-71.213 10.04-21 23.329-41.355 25.611-65.086.005-.051.009-.102.014-.153.819-8.517.369-17.226.369-25.775 0-12.271-1.562-24.976 1.193-37.065.013-.058.016-.116.028-.174 5.551-26.329 36.55-40.964 60.709-30.22 15.684 6.975 26.712 22.952 26.712 41.359v73.748c0 7.882 11.072 10.273 14.329 3.103 23.105-50.867 51.828-87.59 85.369-109.148 27.673-17.785 58.775-24.862 89.944-20.466 57.936 8.172 102.606 52.737 107.977 89.233 7.194 48.884-8.504 85.049-22.942 106.781-.708 1.065-2.429.861-2.769-.392-9.753-35.99-42.637-61.126-79.967-61.126-12.743 0-24.983 2.83-36.383 8.411-3.72 1.822-5.259 6.314-3.438 10.034s6.314 5.26 10.034 3.438c9.328-4.567 19.35-6.883 29.787-6.883 30.572 0 57.501 20.58 65.489 50.048 3.651 13.471 22.053 16.345 29.741 4.771 13.008-19.581 33.59-60.852 25.288-117.266-3.234-21.978-17.636-45.502-39.511-64.54-22.909-19.938-51.751-33.207-81.212-37.362-34.778-4.906-69.41 2.944-100.149 22.701-29.26 18.806-54.941 48.004-76.587 87.012v-42.096c0-14.186-4.943-27.284-13.168-37.61 14.569-12.989 33.073-20.086 52.824-20.086h.13.04c12.689-.001 23.013-9.812 23.509-22.354.048-1.215.073-2.454.075-3.681.06-51.201-39.934-92.784-91.052-94.667-20.757-.765-40.68 5.079-57.629 16.897-3.397 2.369-4.231 7.044-1.862 10.441 2.369 3.398 7.043 4.232 10.442 1.862 14.256-9.94 31.023-14.854 48.496-14.211 43.006 1.584 76.655 36.575 76.604 79.659-.001 1.041-.022 2.078-.063 3.108-.176 4.458-3.917 7.946-8.548 7.946h-.143c-23.821 0-46.132 8.663-63.558 24.535-7.581-5.75-16.36-9.545-25.656-11.113-18.139-3.078-37.124 2.701-50.463 15.369-.015.014-.03.027-.045.04-7.066-12.099-10.764-25.755-10.764-39.98 0-16.615 5.069-32.535 14.66-46.039 2.398-3.377 1.605-8.06-1.772-10.458s-8.059-1.605-10.457 1.772c-11.403 16.057-17.43 34.98-17.43 54.724 0 18.801 5.451 36.756 15.783 52.273-2.595 4.255-4.629 8.808-6.065 13.568l-17.807 8.239c-6.622 3.063-10.735 9.499-10.735 16.795 0 4.856 1.831 9.324 5.002 12.677-24.626 15.368-29.946 33.602-30.781 43.892zm197.739 199.705c5.16 2.679 25.045 14.628 31.84 42.54 1.559 6.405-3.589 12.691-10.106 12.691 0 0-178.623 0-178.842 0-6.516 0-11.661-6.305-10.107-12.691 6.817-28.002 26.611-39.852 31.831-42.54zm-154.926-259.455 8.978-4.154v14.671l-8.978-4.154c-1.835-.849-2.034-2.508-2.034-3.182s.199-2.332 2.034-3.181zm3.315 24.425 5.662 2.62v13.591c0 16.729-7.305 32.002-14.622 46.635-.011.022-.023.045-.034.068-4.923 1.381-9.272-.813-11.584-2.391-7.222-4.931-11.382-14.345-10.6-23.985 1.139-14.021 12.171-26.91 31.178-36.538z"/></svg>