<svg id="Capa_1" enable-background="new 0 0 512 512" height="512" viewBox="0 0 512 512" width="512" xmlns="http://www.w3.org/2000/svg"><path d="m224.615 476.472-15.283 15.283c-16.988 16.988-44.537 16.996-61.525.008l-127.57-127.57c-16.988-16.988-16.98-44.537.008-61.525l15.283-15.283 111.679 77.408z" fill="#918bd7"/><path d="m41.458 323.881 15.283-15.283 99.15 68.724-8.684-12.529-111.679-77.408-15.283 15.283c-16.988 16.988-16.996 44.537-.008 61.525l21.213 21.213c-16.988-16.988-16.98-44.537.008-61.525z" fill="#736acb"/><path d="m334.047 354.589-107.428-69.208-69.208-107.428c84.948-49.846 152.24-19.795 229.578-97.134l38.4 5.791 5.791 38.4c-77.338 77.339-47.288 144.631-97.133 229.579z" fill="#918bd7"/><path d="m178.624 199.167c84.948-49.846 152.24-19.795 229.578-97.134l19.966 3.011-2.78-18.433-38.4-5.791c-77.338 77.338-144.631 47.288-229.578 97.134l69.208 107.427 12.902 8.312z" fill="#736acb"/><path d="m287.539 413.548-62.924 62.924-189.087-189.087 62.924-62.924c20.704-20.704 40.258-35.544 58.959-46.508l176.636 176.636c-10.964 18.701-25.804 38.255-46.508 58.959z" fill="#ffb2c1"/><path d="m178.624 199.167-21.213-21.213c-18.701 10.963-38.255 25.804-58.959 46.508l-62.924 62.924 21.213 21.213 62.924-62.924c20.704-20.705 40.258-35.545 58.959-46.508z" fill="#ff889e"/><path d="m498.886 30.206-17.093-17.093c-7.485-7.485-19.62-7.485-27.104 0l-51.399 51.4 44.197 44.197 51.399-51.399c7.485-7.485 7.485-19.62 0-27.105z" fill="#fab659"/><path d="m500.774 32.439c-.571-.776-1.185-1.531-1.887-2.233l-17.093-17.093c-7.485-7.485-19.62-7.485-27.105 0l-51.399 51.4 21.213 21.213 51.399-51.399c6.783-6.783 17.373-7.397 24.872-1.888z" fill="#ec8d00"/><path d="m463.792 92.405-44.197-44.197c-9.005-9.005-23.606-9.005-32.611 0-9.005 9.005-9.005 23.606 0 32.611l44.197 44.197c9.005 9.005 23.606 9.005 32.611 0 9.006-9.005 9.006-23.606 0-32.611z" fill="#736acb"/><path d="m408.197 69.421c9.006-9.006 23.606-9.006 32.612 0l-21.213-21.213c-9.005-9.005-23.606-9.005-32.612 0-9.005 9.005-9.005 23.606 0 32.611l21.213 21.213c-9.005-9.005-9.005-23.606 0-32.611z" fill="#635ac5"/><path d="m131.313 254.261-10.48 10.48c-2.93 2.93-2.93 7.679 0 10.609 2.817 2.817 7.668 2.941 10.609 0l10.48-10.48c2.93-2.93 2.93-7.679 0-10.609-2.929-2.93-7.679-2.93-10.609 0z"/><path d="m247.127 370.075-10.48 10.48c-2.93 2.929-2.93 7.68 0 10.609 2.822 2.822 7.685 2.925 10.609 0l10.48-10.48c2.93-2.929 2.93-7.68 0-10.609-2.929-2.929-7.679-2.929-10.609 0z"/><path d="m170.984 305.446c-4.13-.278-7.71 2.848-7.988 6.982-.651 9.692 3.048 19.322 10.149 26.423 6.873 6.873 16.68 10.802 26.423 10.15 4.134-.278 7.26-3.854 6.982-7.988-.277-4.134-3.854-7.266-7.988-6.982-5.373.358-10.769-1.749-14.808-5.79-4.039-4.039-6.149-9.436-5.788-14.808.278-4.133-2.848-7.709-6.982-7.987z"/><path d="m270.837 419.686c-2.93 2.929-2.93 7.68 0 10.609 2.929 2.929 7.68 2.929 10.609 0l11.448-11.448c19.885-19.885 35.481-39.667 47.685-60.482 21.551-36.729 28.527-69.903 35.272-101.985 8.632-41.057 16.817-79.92 56.158-121.445 4.782 2.829 10.175 4.244 15.569 4.244 7.827 0 15.656-2.98 21.614-8.939 10.089-10.088 11.635-25.531 4.644-37.264 0 0 30.442-30.442 30.459-30.459 10.279-10.279 10.268-27.454 0-37.721 0 0-17.087-17.088-17.097-17.097-10.272-10.272-27.461-10.26-37.721 0l-30.459 30.459c-11.733-6.991-27.175-5.444-37.264 4.644-10.066 10.066-11.63 25.462-4.693 37.185-17.83 16.925-36.044 29.076-56.879 37.971-3.811 1.627-5.581 6.034-3.955 9.845 1.626 3.81 6.035 5.58 9.845 3.954 22.046-9.411 42.036-22.692 60.913-40.495l33.745 33.745c-41.92 44.364-50.498 85.173-59.562 128.285-5.961 28.352-12.109 57.591-28.769 88.956l-162.653-162.65c31.368-16.66 60.609-22.81 88.963-28.773 11.932-2.509 24.27-5.104 36.395-8.429 3.996-1.096 6.346-5.223 5.25-9.219-1.095-3.995-5.222-6.345-9.219-5.25-11.687 3.205-23.26 5.639-35.513 8.216-32.084 6.747-65.259 13.723-101.993 35.278-20.811 12.201-40.594 27.798-60.48 47.684l-78.227 78.227c-19.894 19.893-19.897 52.26-.008 72.15l127.603 127.603c9.944 9.943 23.004 14.914 36.067 14.914 13.066 0 26.134-4.974 36.082-14.923l45.861-45.861c2.93-2.929 2.93-7.68 0-10.609-2.929-2.93-7.68-2.929-10.609 0l-25.27 25.27-178.525-178.527 57.635-57.636c17.377-17.376 34.605-31.282 52.514-42.37l168.382 168.381c-11.088 17.909-24.993 35.137-42.37 52.514zm189.25-401.374c4.501-4.501 12.004-4.496 16.501 0 0 0 17.075 17.075 17.097 17.097 4.501 4.501 4.496 12.006 0 16.502l-29.798 29.798-33.599-33.599s29.776-29.775 29.799-29.798zm-67.723 35.103c5.923-5.923 15.983-6.027 22.01 0 0 0 44.165 44.165 44.208 44.208 6.003 6.003 5.995 16.015 0 22.011-6.068 6.068-15.942 6.068-22.013-.003l-44.206-44.205c-6.067-6.069-6.067-15.943.001-22.011zm-188.306 433.051c-14.044 14.044-36.891 14.048-50.931.008l-127.603-127.603c-14.039-14.04-14.036-36.888.008-50.931l9.982-9.982 178.526 178.526z"/></svg>