<svg id="Capa_1" enable-background="new 0 0 512 512" height="512" viewBox="0 0 512 512" width="512" xmlns="http://www.w3.org/2000/svg"><path d="m7.5 361.74v-211.48l45.29-100.965 97.47-41.795h211.48l102.777 38.3 39.983 104.46v211.48l-46.274 102.777-96.486 39.983h-211.48l-98.169-42.779z" fill="#e2e2e2"/><path d="m37.5 391.054v-270.108l26.915-76.636-11.625 4.985-45.29 100.965v211.48l44.591 99.981 11.895 5.184z" fill="#c1bfc5"/><path d="m46.35 7.5c-21.456 0-38.85 17.394-38.85 38.85v103.91c30.46-9.46 53.67-35.37 59.24-67.35 1.43-8.22 7.95-14.74 16.17-16.17 31.98-5.57 57.89-28.78 67.35-59.24h-103.91z" fill="#78cbec"/><path d="m37.5 46.35c0-21.456 17.394-38.85 38.85-38.85h-30c-21.456 0-38.85 17.394-38.85 38.85v103.91c11.142-3.46 21.307-9.129 30-16.484z" fill="#00acdc"/><circle cx="129.868" cy="129.868" fill="#78cbec" r="24.099"/><path d="m465.65 7.5h-103.91c9.46 30.46 35.37 53.67 67.35 59.24 8.22 1.43 14.74 7.95 16.17 16.17 5.57 31.98 28.78 57.89 59.24 67.35v-103.91c0-21.456-17.394-38.85-38.85-38.85z" fill="#78cbec"/><circle cx="382.132" cy="129.868" fill="#78cbec" r="24.099"/><path d="m82.91 445.27c-8.22-1.44-14.74-7.96-16.17-16.18-5.57-31.98-28.78-57.89-59.24-67.35v103.91c0 21.456 17.394 38.85 38.85 38.85h103.91c-9.46-30.45-35.37-53.66-67.35-59.23z" fill="#78cbec"/><path d="m37.5 465.65v-87.427c-8.693-7.354-18.858-13.023-30-16.484v103.91c0 21.456 17.394 38.85 38.85 38.85h30c-21.456.001-38.85-17.392-38.85-38.849z" fill="#00acdc"/><circle cx="129.868" cy="382.133" fill="#78cbec" r="24.099"/><path d="m445.26 429.09c-1.43 8.22-7.95 14.74-16.17 16.18-31.98 5.57-57.89 28.78-67.35 59.23h103.91c21.456 0 38.85-17.394 38.85-38.85v-103.91c-30.46 9.46-53.67 35.37-59.24 67.35z" fill="#78cbec"/><circle cx="382.132" cy="382.133" fill="#78cbec" r="24.099"/><path d="m366.022 195.301c-22.641.735-43.193 8.751-60.242 18.73-5.078 2.972-10.783-2.732-7.81-7.81 9.979-17.049 17.994-37.6 18.73-60.242 1.144-35.226-26.38-64.656-61.621-64.132-33.128.493-59.832 27.502-59.832 60.747 0 23.952 8.292 45.684 18.75 63.567 2.984 5.103-2.688 10.847-7.79 7.861-17.046-9.975-37.593-17.986-60.228-18.722-35.226-1.144-64.656 26.38-64.132 61.621.493 33.128 27.502 59.832 60.747 59.832 23.952 0 45.684-8.293 63.567-18.75 5.103-2.984 10.847 2.688 7.861 7.79-9.975 17.046-17.986 37.593-18.722 60.228-1.144 35.226 26.38 64.656 61.621 64.132 33.128-.493 59.832-27.502 59.832-60.747 0-23.947-8.289-45.674-18.743-63.555-2.997-5.126 2.714-10.837 7.84-7.84 17.881 10.454 39.608 18.743 63.555 18.743 33.246 0 60.254-26.704 60.747-59.832.526-35.241-28.904-62.765-64.13-61.621z" fill="#00acdc"/><g fill="#e2e2e2"><path d="m255.981 205.271c-12.427-15.773-25.455-38.157-25.455-62.677 0-14.046 11.428-25.474 25.474-25.474s25.474 11.428 25.474 25.474c0 23.229-12.151 44.651-22.344 58.531-1.049 1.428-2.102 2.811-3.149 4.146z"/><path d="m142.594 281.475c-14.046 0-25.474-11.428-25.474-25.474s11.428-25.474 25.474-25.474c23.229 0 44.651 12.151 58.531 22.345 1.428 1.049 2.811 2.101 4.146 3.149-15.773 12.426-38.157 25.454-62.677 25.454z"/><path d="m256 394.88c-14.046 0-25.474-11.428-25.474-25.474 0-23.229 12.151-44.65 22.344-58.53 1.049-1.428 2.102-2.812 3.149-4.146 12.427 15.772 25.455 38.156 25.455 62.676 0 14.046-11.428 25.474-25.474 25.474z"/><path d="m369.407 281.475c-24.531 0-46.936-13.052-62.702-25.473 15.774-12.434 38.168-25.475 62.702-25.475 14.046 0 25.473 11.428 25.473 25.474s-11.427 25.474-25.473 25.474z"/><circle cx="256" cy="256" r="22.142"/></g><path d="m161.467 129.868c0-17.424-14.175-31.599-31.599-31.599-17.423 0-31.599 14.175-31.599 31.599s14.175 31.599 31.599 31.599 31.599-14.176 31.599-31.599zm-48.198 0c0-9.153 7.446-16.599 16.599-16.599s16.599 7.446 16.599 16.599-7.446 16.599-16.599 16.599-16.599-7.447-16.599-16.599z"/><path d="m413.731 129.868c0-17.424-14.175-31.599-31.599-31.599-17.423 0-31.599 14.175-31.599 31.599s14.175 31.599 31.599 31.599 31.599-14.176 31.599-31.599zm-48.197 0c0-9.153 7.446-16.599 16.599-16.599s16.599 7.446 16.599 16.599-7.446 16.599-16.599 16.599-16.599-7.447-16.599-16.599z"/><path d="m98.269 382.133c0 17.423 14.175 31.599 31.599 31.599s31.599-14.175 31.599-31.599-14.175-31.599-31.599-31.599-31.599 14.175-31.599 31.599zm48.198 0c0 9.152-7.446 16.599-16.599 16.599-9.152 0-16.599-7.446-16.599-16.599s7.446-16.599 16.599-16.599 16.599 7.446 16.599 16.599z"/><path d="m350.534 382.133c0 17.423 14.175 31.599 31.599 31.599s31.599-14.175 31.599-31.599-14.175-31.599-31.599-31.599-31.599 14.175-31.599 31.599zm48.197 0c0 9.152-7.446 16.599-16.599 16.599-9.152 0-16.599-7.446-16.599-16.599s7.446-16.599 16.599-16.599 16.599 7.446 16.599 16.599z"/><path d="m255.988 212.771c2.301-.002 4.473-1.06 5.893-2.87 14.984-19.099 27.093-42.511 27.093-67.307 0-18.182-14.792-32.974-32.975-32.974s-32.974 14.792-32.974 32.974c0 27.249 14.717 51.648 27.064 67.318 1.423 1.806 3.594 2.859 5.899 2.859zm.012-88.151c9.911 0 17.975 8.063 17.975 17.974 0 19.086-9.212 37.138-18.003 50.017-9.169-13.388-17.945-31.136-17.945-50.017-.001-9.911 8.062-17.974 17.973-17.974z"/><path d="m142.594 288.975c27.249 0 51.648-14.718 67.318-27.064 1.807-1.424 2.86-3.597 2.858-5.898s-1.06-4.472-2.869-5.893c-19.097-14.987-42.514-27.094-67.308-27.094-18.182 0-32.974 14.792-32.974 32.974s14.793 32.975 32.975 32.975zm0-50.949c19.088 0 37.138 9.211 50.017 18.003-13.388 9.169-31.136 17.945-50.017 17.945-9.911 0-17.974-8.063-17.974-17.974s8.063-17.974 17.974-17.974z"/><path d="m256 402.38c18.182 0 32.975-14.792 32.975-32.975 0-27.247-14.717-51.647-27.064-67.318-1.422-1.805-3.593-2.859-5.897-2.859-2.3.002-4.472 1.059-5.893 2.868-14.991 19.09-27.095 42.52-27.095 67.308 0 18.184 14.792 32.976 32.974 32.976zm.029-82.991c9.17 13.389 17.946 31.136 17.946 50.017 0 9.911-8.063 17.975-17.975 17.975s-17.974-8.063-17.974-17.975c0-19.088 9.212-37.139 18.003-50.017z"/><path d="m74.348 257.033c.268 18.015 7.486 34.908 20.324 47.568 12.852 12.673 29.871 19.653 47.922 19.653 20.428 0 41.202-5.608 61.833-16.68-10.409 19.397-15.996 38.95-16.621 58.204-.626 19.272 6.652 38.098 19.969 51.65 12.844 13.072 29.929 20.233 48.215 20.232.347 0 .696-.002 1.044-.008 18.015-.268 34.908-7.486 47.568-20.324 12.673-12.852 19.653-29.871 19.653-47.922 0-20.429-5.608-41.203-16.681-61.833 20.63 11.072 41.404 16.68 61.833 16.68 18.051 0 35.07-6.979 47.922-19.653 12.838-12.66 20.057-29.553 20.324-47.568.278-18.678-6.904-36.173-20.224-49.26-13.552-13.316-32.377-20.596-51.65-19.968-19.255.625-38.808 6.212-58.205 16.622 10.409-19.397 15.996-38.949 16.622-58.205.626-19.272-6.652-38.097-19.968-51.65-13.087-13.319-30.571-20.501-49.26-20.225-18.015.269-34.908 7.486-47.568 20.325-12.673 12.852-19.652 29.871-19.652 47.922 0 20.428 5.608 41.202 16.68 61.832-19.397-10.409-38.95-15.996-58.204-16.621-19.274-.624-38.098 6.653-51.65 19.969-13.322 13.088-20.505 30.582-20.226 49.26zm71.387-54.236c18.574.603 37.646 6.558 56.684 17.698 5.264 3.08 11.692 2.259 15.994-2.043 4.326-4.324 5.152-10.785 2.058-16.077-11.761-20.113-17.724-40.226-17.724-59.781 0-28.931 23.526-52.818 52.443-53.248 14.558-.213 28.153 5.373 38.338 15.739 10.456 10.641 16.169 25.457 15.676 40.65-.604 18.579-6.561 37.655-17.706 56.697-3.083 5.267-2.257 11.703 2.056 16.016s10.75 5.139 16.016 2.056c19.042-11.146 38.118-17.103 56.696-17.706 15.19-.494 30.008 5.22 40.65 15.676 10.365 10.185 15.955 23.8 15.739 38.338-.43 28.918-24.317 52.444-53.248 52.444-19.552 0-39.661-5.961-59.77-17.718-5.29-3.092-11.74-2.269-16.055 2.046s-5.137 10.767-2.045 16.055c11.757 20.108 17.718 40.217 17.718 59.769 0 28.931-23.526 52.818-52.444 53.248-14.528.206-28.152-5.374-38.337-15.739-10.456-10.641-16.169-25.458-15.676-40.65.603-18.574 6.558-37.645 17.698-56.683 3.08-5.263 2.259-11.691-2.043-15.995-2.58-2.581-5.92-3.916-9.32-3.916-2.297 0-4.623.61-6.757 1.858-20.112 11.761-40.226 17.725-59.782 17.725-28.931 0-52.818-23.526-53.248-52.444-.216-14.537 5.374-28.152 15.739-38.337 10.641-10.458 25.458-16.169 40.65-15.678z"/><path d="m302.063 261.892c15.681 12.355 40.094 27.082 67.344 27.082 18.182 0 32.973-14.792 32.973-32.974s-14.792-32.974-32.973-32.974c-27.262 0-51.669 14.729-67.345 27.085-1.804 1.422-2.857 3.593-2.857 5.891s1.053 4.468 2.858 5.89zm67.344-23.866c9.911 0 17.973 8.063 17.973 17.974s-8.063 17.974-17.973 17.974c-18.893 0-36.659-8.793-50.059-17.975 13.395-9.181 31.159-17.973 50.059-17.973z"/><path d="m226.357 256c0 16.345 13.297 29.643 29.643 29.643s29.643-13.298 29.643-29.643-13.298-29.642-29.643-29.642-29.643 13.297-29.643 29.642zm44.286 0c0 8.074-6.569 14.643-14.643 14.643s-14.643-6.569-14.643-14.643 6.569-14.643 14.643-14.643 14.643 6.569 14.643 14.643z"/><path d="m465.65 0h-419.3c-25.558 0-46.35 20.792-46.35 46.35v148.764c0 4.142 3.358 7.5 7.5 7.5s7.5-3.358 7.5-7.5v-39.5c.161-.06.318-.127.478-.189 23.574-9.02 43.179-27.82 52.88-51.356 2.809-6.815 4.159-13.738 5.974-20.821 1.182-4.613 5.18-8.303 9.864-9.119 31.846-5.546 58.083-26.788 70.275-56.271.392-.947.774-1.899 1.137-2.857h200.777c.061.162.128.319.189.48 4.464 11.669 11.282 22.512 19.969 31.496 13.656 14.124 31.67 23.667 51.004 27.103.085.015.17.034.255.049 5.008.887 9.194 5.047 10.067 10.068 2.164 12.426 6.866 24.404 13.724 34.989 10.768 16.62 26.872 29.461 45.404 36.428v127.578c0 4.142 3.358 7.5 7.5 7.5s7.5-3.358 7.5-7.5v-236.842c.003-25.558-20.789-46.35-46.347-46.35zm31.35 46.35v92.976c-.069-.032-.14-.062-.209-.095-22.807-10.798-39.806-32.693-44.141-57.607-1.953-11.22-11.06-20.323-22.272-22.273-18.184-3.162-34.939-13.074-46.77-27.2-4.255-5.08-7.984-10.87-10.839-16.944-.032-.068-.062-.139-.094-.208h92.977c17.285.001 31.348 14.064 31.348 31.351zm-450.65-31.35h92.977c-.032.069-.062.14-.095.209-10.783 22.855-32.677 39.791-57.607 44.142-10.473 1.828-19.182 9.876-21.822 20.173-6.55 25.548-20.007 48.122-44.591 59.707-.07.033-.141.063-.211.095v-92.976c-.001-17.287 14.062-31.35 31.349-31.35z"/><path d="m504.5 305.691c-4.142 0-7.5 3.358-7.5 7.5v43.198c-.002.045-2.627 1.043-2.873 1.145-29.172 12.144-50.826 39.128-56.256 70.27-.892 5.129-4.941 9.179-10.067 10.077-32.161 5.636-59.883 28.556-71.412 59.119h-200.784c-.052-.137-.109-.271-.161-.408-11.613-30.39-39.192-53.128-71.243-58.71-5.134-.899-9.183-4.949-10.075-10.08-5.622-32.313-28.433-59.876-59.129-71.416v-131.272c0-4.142-3.358-7.5-7.5-7.5s-7.5 3.358-7.5 7.5v240.536c0 25.558 20.792 46.35 46.35 46.35h419.3c25.557 0 46.35-20.792 46.35-46.35v-152.459c0-4.142-3.358-7.5-7.5-7.5zm-489.5 159.959v-92.977c.065.03.131.058.196.089 20.5 9.633 36.655 28.381 42.335 50.38.99 3.836 1.686 8.081 3.088 11.911 3.315 9.063 11.267 15.9 21.003 17.605 24.575 4.304 46.309 20.892 57.201 43.297.136.281.47.977.501 1.044h-92.974c-17.287.001-31.35-14.062-31.35-31.349zm450.65 31.35h-92.975c.031-.066.059-.133.09-.198 4.166-8.83 10.023-16.833 17.073-23.577 11.108-10.625 25.391-17.93 40.546-20.568 9.743-1.707 18.011-8.793 21.207-18.15 1.088-3.185 1.438-6.558 2.279-9.808 5.825-22.503 21.858-42.065 42.933-51.938.065-.031.131-.059.196-.089v92.977c.001 17.288-14.062 31.351-31.349 31.351z"/></svg>