<svg id="Capa_1" enable-background="new 0 0 512 512" height="512" viewBox="0 0 512 512" width="512" xmlns="http://www.w3.org/2000/svg"><path d="m492.69 93.214h-26.08c-6.522 0-11.81 5.287-11.81 11.81v23.459c0 6.522-5.287 11.81-11.81 11.81h-26.08c-6.522 0-11.81-5.287-11.81-11.81v-23.459c0-6.522-5.288-11.81-11.81-11.81h-26.08c-6.522 0-11.81 5.287-11.81 11.81v23.459c0 6.522-5.287 11.81-11.81 11.81h-26.08c-6.522 0-11.81-5.287-11.81-11.81v-23.459c0-6.522-5.288-11.81-11.81-11.81h-26.08c-6.522 0-11.81 5.287-11.81 11.81l-46.482 96.426 46.482 139.037 248.5-26.463v-209c0-6.522-5.288-11.81-11.81-11.81z" fill="#b2b0bc"/><path d="m286 93.214h-18.19c-6.522 0-11.81 5.287-11.81 11.81l-46.482 96.426 46.482 139.037 30-3.195z" fill="#938ea3"/><path d="m244.19 49.396h-26.08c-6.522 0-11.81 5.287-11.81 11.81v20.198c0 6.522-5.287 11.81-11.81 11.81h-26.08c-6.522 0-11.81-5.287-11.81-11.81v-20.198c0-6.522-5.288-11.81-11.81-11.81h-26.08c-6.522 0-11.81 5.287-11.81 11.81v20.198c0 6.522-5.287 11.81-11.81 11.81h-26.08c-6.522 0-11.81-5.287-11.81-11.81v-20.198c0-6.522-5.287-11.81-11.81-11.81h-26.08c-6.522 0-11.81 5.287-11.81 11.81v252.818l248.5 26.463v-279.281c0-6.523-5.288-11.81-11.81-11.81z" fill="#b2b0bc"/><path d="m37.5 314.023v-252.817c0-5.853 4.263-10.698 9.85-11.634-.639-.107-1.291-.176-1.96-.176h-26.08c-6.522 0-11.81 5.287-11.81 11.81v252.818h30z" fill="#938ea3"/><path d="m131.75 116.649c-14.333 0-25.951 11.619-25.951 25.951v22.481c0 5.681 4.606 10.287 10.287 10.287h31.329c5.681 0 10.287-4.606 10.287-10.287v-22.481c-.001-14.332-11.619-25.951-25.952-25.951z" fill="#5c586f"/><path d="m170.287 230.372c-1.387-8.678-8.873-15.063-17.661-15.063h-41.752c-8.788 0-16.275 6.385-17.661 15.063l-11.206 110.115h99.487z" fill="#5c586f"/><path d="m479.65 298.611c-15.222-9.441-34.478-9.441-49.7 0-15.222 9.441-34.478 9.441-49.7 0s-34.478-9.441-49.7 0c-15.222 9.441-34.478 9.441-49.7 0-15.222-9.441-34.478-9.441-49.7 0-15.222 9.441-34.478 9.441-49.7 0-15.222-9.441-34.478-9.441-49.7 0s-34.478 9.441-49.7 0c-15.222-9.441-34.478-9.441-49.7 0l-24.85 15.412v148.581h497v-148.581z" fill="#00cd8c"/><path d="m37.5 295.866c-1.756.808-3.481 1.71-5.15 2.745l-24.85 15.412v148.581h30z" fill="#00a45b"/><path d="m325.239 187.316v-11.313c0-4.142-3.358-7.5-7.5-7.5s-7.5 3.358-7.5 7.5v11.313c0 4.142 3.358 7.5 7.5 7.5s7.5-3.358 7.5-7.5z"/><path d="m450.26 187.316v-11.313c0-4.142-3.358-7.5-7.5-7.5s-7.5 3.358-7.5 7.5v11.313c0 4.142 3.358 7.5 7.5 7.5s7.5-3.358 7.5-7.5z"/><path d="m380.25 200.855c8.177 0 15.859-3.423 21.075-9.39 2.726-3.119 2.408-7.857-.711-10.583s-7.856-2.407-10.583.711c-2.368 2.708-5.933 4.262-9.781 4.262s-7.414-1.553-9.782-4.262c-2.726-3.118-7.464-3.436-10.583-.711-3.119 2.726-3.437 7.464-.711 10.583 5.217 5.967 12.899 9.39 21.076 9.39z"/><path d="m147.414 182.868c9.808 0 17.787-7.979 17.787-17.787v-22.481c0-18.445-15.006-33.451-33.451-33.451s-33.452 15.006-33.452 33.451v22.481c0 9.808 7.979 17.787 17.787 17.787zm-34.116-17.787v-22.481c0-10.174 8.277-18.451 18.452-18.451 10.174 0 18.451 8.277 18.451 18.451v22.481c0 1.537-1.25 2.787-2.787 2.787h-31.329c-1.536 0-2.787-1.25-2.787-2.787z"/><path d="m492.69 85.714h-26.08c-10.647 0-19.31 8.662-19.31 19.31v23.459c0 2.377-1.934 4.31-4.31 4.31h-26.08c-2.376 0-4.31-1.933-4.31-4.31v-23.459c0-10.647-8.662-19.31-19.31-19.31h-26.081c-10.647 0-19.31 8.662-19.31 19.31v23.459c0 2.377-1.934 4.31-4.31 4.31h-26.08c-2.376 0-4.31-1.933-4.31-4.31v-23.459c0-10.647-8.663-19.31-19.31-19.31h-26.08c-1.483 0-2.922.184-4.31.502v-25.01c0-10.648-8.662-19.31-19.31-19.31h-26.081c-10.647 0-19.31 8.662-19.31 19.31v20.198c0 2.377-1.934 4.31-4.31 4.31h-26.08c-2.376 0-4.31-1.933-4.31-4.31v-20.198c0-10.648-8.662-19.31-19.31-19.31h-26.081c-10.647 0-19.31 8.662-19.31 19.31v20.198c0 2.377-1.934 4.31-4.31 4.31h-26.077c-2.376 0-4.31-1.933-4.31-4.31v-20.198c0-10.648-8.663-19.31-19.31-19.31h-26.08c-10.648 0-19.31 8.662-19.31 19.31v67.471c0 4.142 3.358 7.5 7.5 7.5s7.5-3.358 7.5-7.5v-67.471c0-2.376 1.933-4.31 4.31-4.31h26.08c2.376 0 4.31 1.934 4.31 4.31v20.198c0 10.648 8.663 19.31 19.31 19.31h26.08c10.647 0 19.31-8.662 19.31-19.31v-20.198c0-2.376 1.933-4.31 4.31-4.31h26.081c2.376 0 4.31 1.934 4.31 4.31v20.198c0 10.648 8.663 19.31 19.31 19.31h26.08c10.647 0 19.31-8.662 19.31-19.31v-20.198c0-2.376 1.933-4.31 4.31-4.31h26.081c2.376 0 4.31 1.934 4.31 4.31v146.461c0 4.142 3.358 7.5 7.5 7.5s7.5-3.358 7.5-7.5v-102.643c0-2.376 1.934-4.31 4.31-4.31h26.08c2.376 0 4.31 1.933 4.31 4.31v23.459c0 10.648 8.663 19.31 19.31 19.31h26.08c10.647 0 19.31-8.662 19.31-19.31v-23.459c0-2.376 1.933-4.31 4.31-4.31h26.081c2.376 0 4.31 1.933 4.31 4.31v23.459c0 10.648 8.663 19.31 19.31 19.31h26.08c10.647 0 19.31-8.662 19.31-19.31v-23.459c0-2.376 1.934-4.31 4.31-4.31h26.08c2.376 0 4.31 1.933 4.31 4.31v195.523l-13.397-8.309c-17.768-11.02-39.841-11.019-57.606 0-12.889 7.994-28.904 7.994-41.793 0-17.768-11.02-39.841-11.019-57.606 0-13.98 8.67-30.707 5.93-44.495-1.563-5.892-3.215-12.189-5.278-18.602-6.177v-46.83c0-4.142-3.358-7.5-7.5-7.5s-7.5 3.358-7.5 7.5v46.83c-6.416.899-12.715 2.964-18.609 6.181-.911.497-1.812 1.013-2.694 1.56-9.957 6.174-22.398 7.655-33.5 3.897-3.455-1.169-6.523-2.887-9.658-4.71l-6.29-61.812c-.015-.142-.033-.283-.055-.424-1.98-12.388-12.522-21.379-25.067-21.379h-41.752c-12.545 0-23.087 8.991-25.067 21.379-.022.141-.041.282-.055.424l-6.032 59.27c-16.5-7.512-35.597-6.398-51.323 3.355l-13.402 8.307v-141.869c0-4.142-3.358-7.5-7.5-7.5s-7.5 3.358-7.5 7.5v303.927c0 4.142 3.358 7.5 7.5 7.5h497c4.142 0 7.5-3.358 7.5-7.5v-357.58c0-10.648-8.663-19.31-19.31-19.31zm-392.041 145.658c.883-4.973 5.154-8.563 10.224-8.563h41.752c5.07 0 9.341 3.59 10.224 8.563 0 0 5.485 53.897 5.485 53.897-11.966-2.665-24.736-1.09-35.735 4.311-3.473 1.705-6.667 3.946-10.233 5.465-8.938 3.808-19.116 4.165-28.3.994zm396.351 223.732h-482v-136.906l21.303-13.213c12.89-7.995 28.904-7.994 41.794 0 16.909 10.487 38.68 10.887 55.933.997 13.326-7.638 30.016-9.339 43.466-.997 17.498 10.852 40.124 10.842 57.606 0 12.674-7.86 29.124-7.859 41.793 0 17.504 10.857 40.12 10.845 57.606 0 12.677-7.862 29.131-7.855 41.794 0 17.541 10.88 40.066 10.879 57.606 0 12.89-7.995 28.904-7.995 41.794 0l21.305 13.213z"/></svg>