<svg id="Capa_1" enable-background="new 0 0 511.994 511.994" height="512" viewBox="0 0 511.994 511.994" width="512" xmlns="http://www.w3.org/2000/svg"><path d="m497.925 302.329-4.423-13.87c-6.734-21.118-6.734-43.807 0-64.925l4.423-13.87c1.884-5.909.412-12.374-3.845-16.884l-10.089-10.69c-15.147-16.049-24.954-36.394-28.073-58.241l-2.08-14.568c-.875-6.13-5.004-11.303-10.788-13.516l-13.655-5.224c-20.67-7.908-38.374-22.038-50.668-40.44l-8.113-12.143c-3.445-5.157-9.419-8.036-15.599-7.52l-14.644 1.224c-21.993 1.839-44.016-3.177-63.044-14.359l-12.689-7.457c-5.333-3.134-11.946-3.134-17.279 0l-12.689 7.457c-19.028 11.182-41.051 16.198-63.044 14.359l-14.643-1.224c-6.18-.517-12.154 2.363-15.599 7.52l-8.113 12.143c-12.294 18.402-29.999 32.532-50.669 40.44l-13.655 5.224c-5.783 2.212-9.912 7.386-10.788 13.516l-2.08 14.568c-3.119 21.847-12.926 42.191-28.073 58.24l-10.09 10.691c-4.257 4.51-5.729 10.976-3.845 16.884l4.423 13.87c6.734 21.118 6.734 43.807 0 64.925l-4.423 13.87c-1.884 5.909-.412 12.374 3.845 16.884l10.089 10.69c15.147 16.049 24.954 36.394 28.074 58.241l2.08 14.568c.875 6.13 5.004 11.303 10.788 13.516l13.655 5.224c20.67 7.908 38.374 22.038 50.669 40.44l8.113 12.143c3.445 5.157 9.419 8.036 15.599 7.52l14.644-1.224c21.993-1.839 44.016 3.177 63.044 14.359l12.689 7.457c5.333 3.134 11.946 3.134 17.279 0l12.689-7.457c19.028-11.182 41.051-16.198 63.044-14.359l14.643 1.224c6.18.517 12.154-2.363 15.599-7.52l8.113-12.143c12.294-18.402 29.999-32.532 50.669-40.44l13.655-5.224c5.783-2.212 9.912-7.386 10.788-13.516l2.08-14.568c3.119-21.847 12.926-42.192 28.073-58.24l10.09-10.691c4.254-4.51 5.727-10.975 3.843-16.884z" fill="#f9496e"/><circle cx="255.997" cy="255.997" fill="#f4e64c" r="185.522"/><path d="m110.475 255.997c0-95.703 72.468-174.47 165.522-184.446-6.571-.705-13.242-1.076-20-1.076-102.461 0-185.522 83.061-185.522 185.522s83.061 185.522 185.522 185.522c6.758 0 13.429-.371 20-1.076-93.053-9.975-165.522-88.743-165.522-184.446z" fill="#fab659"/><path d="m356.712 284.852h-23.554c-4.143 0-7.5-3.358-7.5-7.5s3.357-7.5 7.5-7.5h23.554c4.143 0 7.5 3.358 7.5 7.5s-3.358 7.5-7.5 7.5z" fill="#ff748f"/><path d="m178.836 284.852h-23.553c-4.143 0-7.5-3.358-7.5-7.5s3.357-7.5 7.5-7.5h23.553c4.143 0 7.5 3.358 7.5 7.5s-3.358 7.5-7.5 7.5z" fill="#ff748f"/><path d="m352.435 251.934v-17.293c0-4.142-3.358-7.5-7.5-7.5s-7.5 3.358-7.5 7.5v17.293c0 4.142 3.358 7.5 7.5 7.5s7.5-3.357 7.5-7.5z"/><path d="m174.56 251.934v-17.293c0-4.142-3.358-7.5-7.5-7.5s-7.5 3.358-7.5 7.5v17.293c0 4.142 3.358 7.5 7.5 7.5s7.5-3.357 7.5-7.5z"/><path d="m255.997 283.875c8.364 0 16.221-3.5 21.554-9.602 2.726-3.119 2.408-7.857-.711-10.583-3.118-2.726-7.856-2.407-10.583.711-2.485 2.843-6.225 4.474-10.26 4.474s-7.775-1.631-10.261-4.474c-2.726-3.119-7.464-3.436-10.583-.711-3.119 2.726-3.437 7.464-.71 10.583 5.334 6.103 13.19 9.602 21.554 9.602z"/><path d="m255.997 62.975c-35.599 0-70.393 9.778-100.619 28.276-3.533 2.162-4.644 6.779-2.482 10.312 2.162 3.532 6.778 4.644 10.312 2.482 27.868-17.055 59.954-26.07 92.789-26.07 98.162 0 178.022 79.86 178.022 178.022 0 44.163-16.291 86.523-45.873 119.276-2.776 3.074-2.535 7.816.539 10.593 3.037 2.742 7.851 2.497 10.593-.539 32.076-35.515 49.741-81.445 49.741-129.33 0-106.433-86.589-193.022-193.022-193.022z"/><path d="m367.177 395.025c-31.856 25.51-70.302 38.994-111.18 38.994-98.162 0-178.022-79.86-178.022-178.022 0-51.768 22.49-100.888 61.703-134.766 3.134-2.708 3.48-7.444.772-10.578s-7.444-3.48-10.579-.772c-42.514 36.729-66.896 89.986-66.896 146.116 0 106.432 86.589 193.022 193.022 193.022 44.323 0 86.011-14.622 120.556-42.285 3.233-2.589 3.755-7.309 1.167-10.542-2.59-3.234-7.31-3.756-10.543-1.167z"/><path d="m505.07 211.944c2.712-8.504.59-17.819-5.537-24.311l-10.089-10.69c-14.161-15.003-23.187-33.729-26.103-54.153l-2.08-14.568c-1.259-8.82-7.211-16.277-15.532-19.461l-13.656-5.224c-19.326-7.393-35.617-20.396-47.112-37.601l-8.113-12.143c-4.959-7.423-13.557-11.571-22.46-10.827l-14.644 1.225c-20.564 1.717-40.832-2.898-58.619-13.352l-12.689-7.457c-7.672-4.509-17.205-4.51-24.879 0l-12.688 7.457c-17.789 10.453-38.057 15.07-58.62 13.352l-14.643-1.225c-8.894-.746-17.501 3.405-22.46 10.827l-8.113 12.143c-11.495 17.206-27.786 30.208-47.112 37.601l-13.655 5.224c-8.322 3.184-14.273 10.64-15.533 19.46l-2.08 14.569c-2.916 20.424-11.942 39.149-26.103 54.152l-10.09 10.691c-6.126 6.492-8.248 15.807-5.536 24.31l4.422 13.869c6.297 19.747 6.297 40.621 0 60.368l-4.422 13.87c-2.712 8.504-.591 17.82 5.537 24.311l10.089 10.69c14.161 15.003 23.187 33.729 26.103 54.153l2.08 14.568c1.259 8.82 7.21 16.276 15.533 19.461l13.655 5.224c19.326 7.394 35.618 20.396 47.112 37.602l8.113 12.143c4.959 7.423 13.563 11.569 22.46 10.828l14.644-1.224c20.56-1.721 40.831 2.897 58.619 13.351l12.69 7.458c3.836 2.254 8.137 3.381 12.439 3.381 4.301 0 8.603-1.127 12.44-3.382l12.689-7.458c17.788-10.454 38.056-15.074 58.619-13.351l14.643 1.225c8.896.741 17.502-3.405 22.46-10.827l8.113-12.143c11.495-17.206 27.786-30.208 47.112-37.601l13.655-5.224c8.322-3.184 14.273-10.641 15.533-19.461l2.08-14.568c2.916-20.423 11.942-39.148 26.103-54.152l10.091-10.691c6.126-6.491 8.248-15.807 5.536-24.31l-4.422-13.87c-6.297-19.746-6.297-40.621 0-60.368zm-16.444 102.121-10.091 10.69c-16.298 17.269-26.688 38.822-30.043 62.328l-2.08 14.568c-.49 3.432-2.805 6.333-6.042 7.571l-13.655 5.224c-22.244 8.509-40.995 23.475-54.225 43.278l-8.113 12.144c-1.929 2.888-5.277 4.497-8.737 4.212l-14.643-1.225c-23.67-1.977-46.996 3.335-67.469 15.368l-12.688 7.457c-2.986 1.754-6.695 1.753-9.68 0l-12.689-7.458c-17.681-10.391-37.492-15.771-57.809-15.771-3.209 0-6.431.134-9.66.404l-14.644 1.224c-3.463.292-6.809-1.325-8.737-4.212l-8.113-12.143c-13.23-19.802-31.981-34.768-54.225-43.278l-13.655-5.224c-3.238-1.239-5.553-4.14-6.043-7.571l-2.08-14.568c-3.356-23.507-13.745-45.06-30.044-62.329l-10.089-10.69c-2.384-2.525-3.209-6.149-2.154-9.458l4.422-13.869c7.247-22.728 7.247-46.754 0-69.482l-4.422-13.87c-1.055-3.308-.229-6.932 2.153-9.458l10.09-10.691c16.299-17.268 26.688-38.821 30.044-62.328l2.08-14.569c.49-3.431 2.805-6.332 6.042-7.571l13.655-5.224c22.244-8.51 40.995-23.475 54.225-43.278l8.113-12.143c1.929-2.887 5.278-4.499 8.738-4.212l14.642 1.227c23.668 1.98 46.996-3.335 67.47-15.367l12.688-7.457c2.985-1.754 6.694-1.754 9.68 0l12.688 7.457c20.474 12.033 43.804 17.347 67.469 15.367l14.644-1.224c3.452-.289 6.808 1.324 8.737 4.212l8.113 12.143c13.231 19.803 31.981 34.769 54.225 43.278l13.656 5.224c3.237 1.239 5.553 4.139 6.042 7.571l2.08 14.568c3.356 23.507 13.745 45.06 30.044 62.329l10.089 10.69c2.383 2.525 3.209 6.149 2.154 9.458l-4.422 13.869c-7.247 22.728-7.247 46.754 0 69.482l4.422 13.87c1.055 3.308.23 6.932-2.153 9.457z"/></svg>