<svg id="Capa_1" enable-background="new 0 0 512 512" height="512" viewBox="0 0 512 512" width="512" xmlns="http://www.w3.org/2000/svg"><path d="m155.54 133.142c0-39.624-32.122-71.746-71.746-71.746-39.624 0-71.746 32.122-71.746 71.746l71.747 22.416z" fill="#fab659"/><path d="m42.047 133.142c0-34.479 24.325-63.266 56.747-70.164-4.839-1.03-9.854-1.583-15-1.583-39.625 0-71.746 32.122-71.746 71.747l71.746 22.416 15-4.687z" fill="#f59e18"/><path d="m356.46 133.142c0-39.624 32.122-71.746 71.747-71.746 39.625 0 71.747 32.122 71.747 71.746l-71.747 22.416z" fill="#fab659"/><path d="m386.46 133.142c0-34.479 24.325-63.266 56.747-70.164-4.839-1.03-9.854-1.583-15-1.583-39.625 0-71.747 32.122-71.747 71.747l71.747 22.416 15-4.687z" fill="#f59e18"/><path d="m12.047 133.142h143.493v331.891l-76.968 39.467h-66.525z" fill="#f59e18"/><path d="m12.047 133.142h30v371.358h-30z" fill="#ec8d00"/><path d="m499.953 133.142h-143.493v331.891l76.968 39.467h66.525z" fill="#f59e18"/><path d="m356.46 133.142h30v331.891h-30z" fill="#ec8d00"/><path d="m423.566 175.559h-30.97c-5.447 0-9.862 4.415-9.862 9.862v18.681c0 5.446-4.415 9.862-9.862 9.862h-30.97c-5.446 0-9.862-4.415-9.862-9.862v-18.681c0-5.446-4.415-9.862-9.862-9.862h-30.97c-5.447 0-9.862 4.415-9.862 9.862v18.681c0 5.446-4.415 9.862-9.862 9.862h-30.97c-5.446 0-9.862-4.415-9.862-9.862v-18.681c0-5.446-4.415-9.862-9.862-9.862h-30.97c-5.446 0-9.862 4.415-9.862 9.862v18.681c0 5.446-4.415 9.862-9.862 9.862h-30.97c-5.446 0-9.862-4.415-9.862-9.862v-18.681c0-5.446-4.415-9.862-9.862-9.862h-30.97c-5.446 0-9.862 4.415-9.862 9.862v319.079h111.701l65.729-21.331 65.726 21.331h111.701v-319.079c.001-5.447-4.415-9.862-9.861-9.862z" fill="#fab659"/><path d="m309.955 305.32 4.382-7.5.021.027c-1.353-10.644-5.557-20.395-11.813-28.477l-8.392-2.203-2.202-8.389c-8.077-6.244-17.818-10.441-28.45-11.795l-7.5 4.382-7.5-4.382.028-.021c-10.641 1.352-20.391 5.552-28.475 11.804l-2.205 8.402-8.402 2.205c-6.251 8.084-10.452 17.834-11.804 28.475l.021-.028 4.382 7.5-4.382 7.5-.021-.027c1.353 10.644 5.557 20.395 11.813 28.477l8.392 2.203 2.202 8.389c8.078 6.244 17.818 10.441 28.45 11.795l7.5-4.382 7.5 4.382-.027.021c10.644-1.353 20.395-5.557 28.477-11.813l2.202-8.393 8.389-2.202c6.244-8.077 10.442-17.818 11.796-28.45z" fill="#423e4f"/><path d="m256 398.265c-36.3 0-65.726 29.427-65.726 65.726v40.509h131.453v-40.509c-.001-36.299-29.427-65.726-65.727-65.726z" fill="#5c586f"/><path d="m271 400.005c-4.82-1.125-9.837-1.74-15-1.74-36.3 0-65.726 29.427-65.726 65.726v40.509h30v-40.509c0-31.136 21.658-57.197 50.726-63.986z" fill="#423e4f"/><path d="m256 371.649c36.574 0 66.33-29.755 66.33-66.33s-29.755-66.329-66.33-66.329-66.329 29.755-66.329 66.329 29.755 66.33 66.329 66.33zm-41.193-96.916 23.086 23.087h-32.669c1.259-8.56 4.635-16.44 9.583-23.087zm91.969 23.087h-32.669l23.086-23.087c4.948 6.647 8.324 14.527 9.583 23.087zm-9.583 38.087-23.087-23.087h32.67c-1.259 8.56-4.635 16.44-9.583 23.087zm-48.693 20.189c-8.56-1.259-16.44-4.635-23.086-9.583l23.086-23.087zm15-32.669 23.087 23.087c-6.646 4.948-14.526 8.324-23.087 9.583zm0-36.213v-32.669c8.561 1.259 16.44 4.635 23.087 9.583zm-15 0-23.086-23.087c6.646-4.948 14.526-8.324 23.086-9.583zm-10.606 25.606-23.087 23.087c-4.948-6.646-8.324-14.527-9.583-23.087z"/><path d="m499.953 512c4.142 0 7.5-3.358 7.5-7.5v-371.358c0-41.166-31.555-75.089-71.746-78.881v-20.207h13.868c4.143 0 7.5-3.358 7.5-7.5s-3.357-7.5-7.5-7.5h-13.868v-11.554c0-4.142-3.358-7.5-7.5-7.5-4.143 0-7.5 3.358-7.5 7.5v11.554h-13.869c-4.142 0-7.5 3.358-7.5 7.5s3.358 7.5 7.5 7.5h13.869v20.206c-40.191 3.792-71.747 37.715-71.747 78.881v73.321h-7.058c-1.302 0-2.362-1.059-2.362-2.361v-18.681c0-9.574-7.789-17.362-17.362-17.362h-30.97c-9.573 0-17.362 7.789-17.362 17.362v18.681c0 1.302-1.06 2.361-2.362 2.361h-30.97c-1.302 0-2.362-1.059-2.362-2.361v-18.681c0-9.574-7.788-17.362-17.362-17.362h-30.97c-9.573 0-17.361 7.789-17.361 17.362v18.681c0 1.302-1.06 2.361-2.362 2.361h-7.058v-73.321c0-41.166-31.556-75.089-71.747-78.881v-20.206h13.869c4.142 0 7.5-3.358 7.5-7.5s-3.358-7.5-7.5-7.5h-13.867v-11.554c0-4.142-3.358-7.5-7.5-7.5-4.143 0-7.5 3.358-7.5 7.5v11.554h-13.869c-4.142 0-7.5 3.358-7.5 7.5s3.358 7.5 7.5 7.5h13.869v20.206c-40.192 3.792-71.747 37.716-71.747 78.882v86.672c0 4.142 3.358 7.5 7.5 7.5s7.5-3.358 7.5-7.5v-79.172h128.493v65.821h-8.913c-1.302 0-2.362-1.059-2.362-2.361v-18.681c0-9.574-7.789-17.362-17.362-17.362h-30.97c-9.573 0-17.362 7.789-17.362 17.362v311.579h-51.524v-247.187c0-4.142-3.358-7.5-7.5-7.5s-7.5 3.358-7.5 7.5v254.687c0 4.142 3.358 7.5 7.5 7.5zm-479.971-386.358c3.726-31.905 30.922-56.746 63.811-56.746 32.142 0 60.125 24.796 63.816 56.746zm177.792 371.358v-33.009c0-32.106 26.12-58.227 58.226-58.227s58.227 26.12 58.227 58.227v33.009zm230.432-428.104c32.889 0 60.085 24.841 63.812 56.746h-127.623c3.726-31.906 30.922-56.746 63.811-56.746zm-342.133 116.525c0-1.303 1.06-2.362 2.362-2.362h30.97c1.302 0 2.362 1.06 2.362 2.362v18.681c0 9.573 7.789 17.361 17.362 17.361h30.97c9.573 0 17.362-7.788 17.362-17.361v-18.681c0-1.303 1.06-2.362 2.361-2.362h30.97c1.302 0 2.362 1.06 2.362 2.362v18.681c0 9.573 7.789 17.361 17.362 17.361h30.97c9.573 0 17.362-7.788 17.362-17.361v-18.681c0-1.303 1.06-2.362 2.362-2.362h30.97c1.302 0 2.362 1.06 2.362 2.362v18.681c0 9.573 7.789 17.361 17.362 17.361h30.97c9.573 0 17.362-7.788 17.362-17.361v-18.681c0-1.303 1.06-2.362 2.362-2.362h30.97c1.302 0 2.362 1.06 2.362 2.362v213.818c0 4.142 3.358 7.5 7.5 7.5s7.5-3.358 7.5-7.5v-213.818c0-9.574-7.789-17.362-17.362-17.362h-30.97c-9.573 0-17.362 7.789-17.362 17.362v18.681c0 1.302-1.06 2.361-2.362 2.361h-8.913v-65.821h128.493v356.358h-51.525v-67.761c0-4.142-3.358-7.5-7.5-7.5s-7.5 3.358-7.5 7.5v67.761h-96.701v-33.009c0-40.377-32.849-73.227-73.227-73.227-40.377 0-73.226 32.849-73.226 73.227v33.009h-96.702z"/></svg>