<svg id="Capa_1" enable-background="new 0 0 512 512" height="512" viewBox="0 0 512 512" width="512" xmlns="http://www.w3.org/2000/svg"><path d="m213.76 64.16c-18.709-18.709-49.042-18.709-67.751 0s-18.709 49.042 0 67.751 72.334 42 91.043 23.291c18.708-18.709-4.583-72.333-23.292-91.042z" fill="#00a45b"/><path d="m298.24 64.16c18.709-18.709 49.042-18.709 67.751 0s18.709 49.042 0 67.751-72.334 42-91.043 23.291c-18.708-18.709 4.583-72.333 23.292-91.042z" fill="#00a45b"/><path d="m303.907 55.407c0 26.459-21.449 80.846-47.907 80.846s-47.907-54.388-47.907-80.846 21.448-47.907 47.907-47.907 47.907 21.449 47.907 47.907z" fill="#00cd8c"/><circle cx="256" cy="414.792" fill="#918bd7" r="89.708"/><path d="m196.292 414.792c0-44.433 32.306-81.314 74.708-88.453-4.878-.821-9.888-1.255-15-1.255-49.545 0-89.708 40.164-89.708 89.708s40.163 89.708 89.708 89.708c5.112 0 10.122-.434 15-1.255-42.403-7.139-74.708-44.021-74.708-88.453z" fill="#736acb"/><circle cx="322.087" cy="315.543" fill="#736acb" r="89.708"/><circle cx="189.913" cy="315.543" fill="#635ac5" r="89.708"/><path d="m130.204 315.543c0-44.433 32.306-81.314 74.708-88.453-4.878-.821-9.888-1.255-15-1.255-49.545 0-89.708 40.164-89.708 89.708 0 49.545 40.164 89.708 89.708 89.708 5.112 0 10.122-.434 15-1.255-42.402-7.139-74.708-44.02-74.708-88.453z" fill="#5149be"/><circle cx="143.29" cy="196.829" fill="#736acb" r="89.708"/><path d="m83.582 196.829c0-44.433 32.306-81.314 74.708-88.453-4.878-.821-9.888-1.255-15-1.255-49.545 0-89.708 40.164-89.708 89.708 0 49.545 40.164 89.708 89.708 89.708 5.112 0 10.122-.434 15-1.255-42.402-7.139-74.708-44.02-74.708-88.453z" fill="#635ac5"/><circle cx="368.71" cy="196.829" fill="#635ac5" r="89.708"/><circle cx="256" cy="177.364" fill="#918bd7" r="89.708"/><path d="m204.918 161.174c-4.142 0-7.5 3.358-7.5 7.5v9.245c0 4.142 3.358 7.5 7.5 7.5s7.5-3.358 7.5-7.5v-9.245c0-4.142-3.358-7.5-7.5-7.5z"/><path d="m307.083 161.174c-4.142 0-7.5 3.358-7.5 7.5v9.245c0 4.142 3.358 7.5 7.5 7.5s7.5-3.358 7.5-7.5v-9.245c0-4.142-3.358-7.5-7.5-7.5z"/><path d="m273.543 171.628c-3.119-2.726-7.856-2.408-10.583.711-1.674 1.915-4.211 3.014-6.961 3.014s-5.287-1.099-6.961-3.014c-2.726-3.118-7.464-3.437-10.583-.711s-3.437 7.464-.711 10.583c4.523 5.174 11.177 8.142 18.255 8.142 7.079 0 13.732-2.968 18.255-8.143 2.727-3.118 2.409-7.856-.711-10.582z"/><path d="m387.396 101.43c.973-15.732-4.767-31.194-16.104-42.518-9.427-9.417-21.935-15.124-35.217-16.069-8.708-.62-17.374.835-25.306 4.139-4.072-26.568-27.081-46.982-54.769-46.982-27.665 0-50.657 20.38-54.756 46.916-7.934-3.311-16.604-4.77-25.319-4.146-13.284.946-25.792 6.659-35.22 16.087-11.341 11.341-17.081 26.827-16.1 42.582-11.769 2.297-23.042 6.746-33.258 13.216-3.499 2.216-4.54 6.85-2.323 10.349 2.216 3.499 6.849 4.539 10.349 2.324 22.63-14.323 52.043-16.573 76.615-5.93.136.059.272.116.408.176-9.206 13.131-15.1 28.593-16.948 44.521-.006.054-.012.109-.019.163-4.041 34.66 11.893 70.147 40.274 90.361-.021.019-.041.04-.062.059-51.559 48.541-138.56 10.547-138.56-59.847 0-18.763 6.157-36.43 17.806-51.092 2.577-3.243 2.036-7.961-1.207-10.538s-7.961-2.037-10.538 1.207c-13.778 17.343-21.061 38.237-21.061 60.423 0 37.377 21.208 69.889 52.219 86.149-3.715 10.423-5.597 21.345-5.597 32.564 0 42.818 27.83 79.257 66.35 92.185-.171 2.359-.263 4.719-.263 7.063.002 53.6 43.609 97.208 97.21 97.208s97.208-43.608 97.208-97.209c0-2.346-.092-4.709-.263-7.071 12.331-4.127 23.806-10.715 33.697-19.506 3.096-2.752 3.375-7.493.623-10.588s-7.492-3.375-10.588-.623c-11.284 10.031-25.006 16.683-39.659 19.384-.015.003-.03.005-.044.008-25.139 4.609-51.917-3.12-70.677-20.489-.036-.033-.073-.066-.11-.099 5.422-6.852 9.839-14.354 13.209-22.292.066-.156.131-.312.197-.468 10.483-24.902 9.908-53.888-1.468-78.382-.367-.791-.743-1.579-1.133-2.361 7.625-1.672 14.982-4.257 22.006-7.733.248.256.503.504.754.756 18.254 18.378 43.563 28.784 69.456 28.698 10.412-.035 20.822-1.755 30.684-5.099 2.926 8.532 4.405 17.457 4.405 26.618 0 13.958-3.564 27.748-10.309 39.878-2.013 3.62-.709 8.187 2.911 10.199 3.622 2.012 8.187.709 10.2-2.911 7.98-14.354 12.198-30.665 12.198-47.167 0-11.219-1.883-22.141-5.597-32.564 31.011-16.26 52.219-48.772 52.219-86.149-.001-47.211-33.833-86.663-78.523-95.4zm-26.705-31.906c8.065 8.057 12.258 18.99 11.794 30.177-1.253-.048-2.51-.08-3.775-.08-14.824 0-29.653 3.441-42.955 9.99-.012.006-.024.011-.037.017-6.293-6.481-13.397-11.991-21.21-16.481-.087-.05-.799-.441-.791-.463 3.332-9.151 5.899-18.654 7.087-28.332.026-.213.062-.434.087-.645 15.691-9.668 36.567-7.402 49.8 5.817zm-22.573 111.523c-2.08 42.186-39.6 78.525-82.118 78.525-44.291 0-81.878-37.302-82.206-81.63-.002-.193-.003-.386-.003-.579.058-44.107 38.096-82.209 82.208-82.209 45.313.001 84.358 40.484 82.119 85.893zm-82.118-166.047c22.281 0 40.407 18.126 40.407 40.407 0 7.021-1.408 13.972-3.206 20.732-.887 3.334-1.938 6.746-3.14 10.152-10.851-4.074-22.477-6.136-34.062-6.136-11.587 0-23.204 2.061-34.057 6.134-3.475-9.872-6.35-20.339-6.35-30.882.001-22.281 18.127-40.407 40.408-40.407zm-116.484 84.695c-.469-11.208 3.725-22.162 11.796-30.233 13.232-13.231 34.107-15.498 49.796-5.821.008.072.021.146.029.218 1.153 9.647 3.67 19.108 6.952 28.24.067.188.128.375.197.563-8.13 4.577-15.499 10.256-22.005 16.963-.042-.021-.085-.04-.127-.06-9.944-4.887-20.749-8.04-31.756-9.299-4.909-.561-9.852-.757-14.79-.572-.031.001-.061 0-.092.001zm-31.812 215.848c0-9.162 1.479-18.086 4.404-26.615-.245 1.005 15.743 3.798 17.27 4.059 11.916 2.031 24.582 1.224 36.305-1.566 17.918-4.264 34.483-13.646 47.323-26.854 3.069 1.513 6.216 2.85 9.421 4.027 12.325 4.527 25.563 6.525 38.675 5.845 7.188 12.436 11.018 26.739 11.018 41.104 0 44.556-37.7 82.208-82.209 82.208-44.753 0-82.207-37.466-82.207-82.208zm230.435 95.884c.046 1.125.069 2.246.069 3.364 0 45.33-36.878 82.209-82.208 82.209s-82.208-36.879-82.208-82.209c0-1.118.023-2.239.07-3.364.142.024.286.039.428.062 23.087 3.722 47.082-1.033 66.933-13.42 5.253-3.278 10.233-7.042 14.778-11.249.054.05.111.096.165.146 4.289 3.941 9.064 7.613 14.05 10.755 20.088 12.697 44.497 17.602 67.923 13.706zm30.57-132.39c-20.777 0-41.187-8.197-56.351-22.36-.021-.02-.042-.041-.063-.06 26.611-18.953 42.17-50.973 40.801-83.598-.763-18.182-6.964-36.426-17.491-51.443 13.264-5.823 28.013-8.044 42.405-6.414 40.965 4.636 72.907 39.484 72.907 81.667.001 45.33-36.877 82.208-82.208 82.208z"/></svg>