<svg id="Capa_1" enable-background="new 0 0 512 512" height="512" viewBox="0 0 512 512" width="512" xmlns="http://www.w3.org/2000/svg"><g fill="#e27858"><path d="m427.563 11.711c-5.614-5.614-14.717-5.614-20.331 0-5.614 5.614-5.614 14.717 0 20.331l33.129 33.129 20.331-20.331z"/><path d="m395.057 50.91c-5.614-5.614-14.717-5.614-20.331 0-5.614 5.614-5.614 14.717 0 20.331l33.129 33.129 20.331-20.331z"/><path d="m500.289 84.437c5.614 5.614 5.614 14.717 0 20.331-5.614 5.614-14.717 5.614-20.331 0l-33.129-33.129 20.331-20.331z"/><path d="m461.09 116.943c5.614 5.614 5.614 14.717 0 20.331-5.614 5.614-14.717 5.614-20.331 0l-33.129-33.129 20.331-20.331z"/></g><path d="m479.302 32.698c-16.673-16.673-44.283-14.563-58.229 4.449l-47.173 64.312 4.768 31.873 31.873 4.768 64.312-47.174c19.012-13.946 21.122-41.556 4.449-58.228z" fill="#4f4c5f"/><path d="m479.302 32.698c-1.713-1.713-3.547-3.217-5.464-4.536 11.514 16.743 8.074 40.251-8.985 52.764l-64.312 47.174-23.174-3.467 1.301 8.699 31.873 4.768 64.312-47.174c19.012-13.946 21.122-41.556 4.449-58.228z" fill="#423e4f"/><path d="m321.84 226.801c-40.004 40.004 34.77 129.979-71.241 235.99-55.612 55.612-145.778 55.612-201.39 0s-55.612-145.778 0-201.39c106.011-106.011 195.986-31.236 235.99-71.241z" fill="#4f4c5f"/><path d="m321.84 226.801-10-10c-40.005 40.004 34.77 129.979-71.241 235.99-53.936 53.936-140.371 55.559-196.266 4.876 1.576 1.738 3.199 3.448 4.876 5.124 55.612 55.612 145.778 55.612 201.39 0 106.011-106.011 31.237-195.986 71.241-235.99z" fill="#423e4f"/><path d="m72.637 439.364c-42.606-42.606-42.607-111.93-.001-154.536 24.703-24.703 49.961-39.905 77.219-46.476 23.903-5.762 46.208-4.374 67.779-3.031 15.181.946 29.52 1.838 43.536.134 6.593-.802 12.725-2.143 18.429-4.04l.986.986c-1.896 5.704-3.238 11.836-4.04 18.429-1.704 14.016-.812 28.356.133 43.536 1.343 21.571 2.731 43.876-3.031 67.779-6.571 27.258-21.773 52.516-46.476 77.219-42.604 42.606-111.928 42.606-154.534 0z" fill="#e27858"/><path d="m278.464 83.392h51.818v248.471h-51.818z" fill="#fab659" transform="matrix(.707 .707 -.707 .707 235.963 -154.412)"/><path d="m193.458 213.877h248.471v14.142h-248.471z" fill="#ec8d00" transform="matrix(.707 -.707 .707 .707 -63.184 289.357)"/><ellipse cx="216.525" cy="295.475" fill="#4f4c5f" rx="37.246" ry="37.246" transform="matrix(.707 -.707 .707 .707 -145.514 239.649)"/><path d="m242.862 269.138c-1.71-1.71-3.549-3.212-5.48-4.52 9.817 14.49 8.315 34.358-4.52 47.193s-32.703 14.337-47.193 4.52c1.308 1.931 2.81 3.77 4.52 5.48 14.545 14.545 38.128 14.545 52.673 0s14.545-38.127 0-52.673z" fill="#423e4f"/><path d="m163.311 418.629-69.94-69.94c-4.149-4.149-10.876-4.149-15.024 0l-7.077 7.077c-4.149 4.149-4.149 10.875 0 15.024l69.94 69.94c4.149 4.149 10.876 4.149 15.024 0l7.077-7.077c4.149-4.148 4.149-10.875 0-15.024z" fill="#4f4c5f"/><path d="m109.883 324.644c1.913.006 3.84-.694 5.304-2.158l7.689-7.689c2.929-2.929 2.929-7.678 0-10.607s-7.678-2.929-10.607 0l-7.689 7.689c-2.929 2.929-2.929 7.678 0 10.606 1.413 1.413 3.35 2.153 5.303 2.159z"/><path d="m197.236 389.157-7.689 7.689c-2.929 2.929-2.929 7.678 0 10.607 2.842 2.842 7.688 2.919 10.607 0l7.689-7.689c2.929-2.929 2.929-7.678 0-10.607s-7.678-2.929-10.607 0z"/><path d="m162.15 377.156c4.677.01 9.069-2.856 8.721-8.041-.277-4.133-3.859-7.256-7.986-6.982-3.374.223-6.764-1.11-9.319-3.666-2.556-2.556-3.893-5.953-3.667-9.32.277-4.133-2.848-7.708-6.982-7.986-4.131-.276-7.708 2.849-7.986 6.982-.516 7.684 2.41 15.313 8.027 20.93 5.057 5.057 12.046 8.067 19.192 8.083z"/><path d="m98.676 343.415c-7.067-7.066-18.565-7.066-25.631 0l-7.078 7.078c-7.066 7.067-7.066 18.565.001 25.631 0 0 69.924 69.925 69.941 69.942 6.868 6.868 18.607 7.025 25.631 0l7.077-7.077c7.067-7.067 7.067-18.565 0-25.631zm59.335 84.967-7.077 7.077c-1.218 1.218-3.2 1.218-4.418 0l-69.941-69.942c-1.218-1.218-1.218-3.2 0-4.418l7.077-7.077c.609-.609 1.409-.914 2.209-.914s1.6.304 2.209.913l69.942 69.942c1.217 1.219 1.217 3.201-.001 4.419z"/><path d="m182.887 492.953c-45.658 11.454-95.071-2.131-128.374-35.434-52.6-52.6-52.6-138.187 0-190.788 25.588-25.588 51.914-42.225 80.482-50.862 3.965-1.199 6.208-5.385 5.009-9.35s-5.387-6.208-9.35-5.009c-30.994 9.37-59.369 27.235-86.748 54.614-28.313 28.315-43.906 65.96-43.906 106.002s15.593 77.687 43.907 106.001c36.815 36.815 92.167 52.045 142.633 39.376 4.018-1.009 6.457-5.083 5.448-9.101-1.009-4.017-5.084-6.456-9.101-5.449z"/><path d="m496.861 70.417c.534-2.282.905-4.615 1.086-6.987 1.023-13.39-3.836-26.517-13.332-36.013-9.497-9.496-22.623-14.352-36.013-13.332-2.372.181-4.705.553-6.986 1.086 0 0-8.737-8.737-8.741-8.741-8.435-8.435-22.51-8.43-30.939 0-8.53 8.529-8.53 22.409 0 30.938l5.595 5.595-4.16 5.671-3.004-3.004c-8.529-8.529-22.408-8.53-30.939 0-8.53 8.529-8.53 22.409 0 30.938l7.76 7.76-8.991 12.257-88.297 88.297-.034.034c-12.834 12.796-33.521 11.507-59.706 9.878-17.538-1.091-37.417-2.328-59.136.349-4.111.507-7.033 4.251-6.527 8.361.507 4.111 4.247 7.033 8.362 6.527 20.339-2.507 39.48-1.316 56.369-.265 12.557.781 24.365 1.517 35.152.636l-18.39 18.39c-5.916-.196-11.982-.562-17.889-.93-22.124-1.377-45.002-2.801-70.004 3.226-28.64 6.904-55.059 22.757-80.766 48.465-45.531 45.531-45.53 119.615.001 165.146 44.964 44.964 120.22 44.927 165.146 0 25.708-25.708 41.561-52.127 48.465-80.766 6.026-25 4.603-47.877 3.226-70.004-.368-5.905-.734-11.971-.93-17.888l18.39-18.39c-.88 10.787-.145 22.597.636 35.152 2.813 45.193 6.313 101.438-56.966 164.717-10.578 10.577-22.693 19.25-36.01 25.778-3.72 1.823-5.257 6.315-3.434 10.035 1.8 3.672 6.376 5.229 10.036 3.434 14.804-7.256 28.266-16.892 40.015-28.64 68.064-68.064 64.172-130.596 61.331-176.256-1.631-26.208-2.919-46.909 9.911-59.74l88.297-88.297 12.257-8.991s7.759 7.759 7.76 7.76c8.366 8.367 22.497 8.441 30.938 0 8.53-8.529 8.53-22.409 0-30.938l-3.004-3.004 5.671-4.16s5.595 5.595 5.596 5.596c8.422 8.422 22.523 8.414 30.939 0 8.529-8.53 8.529-22.409 0-30.939zm-47.115-41.375c9.025-.688 17.865 2.585 24.263 8.982 13.187 13.186 11.473 35.836-3.583 46.879l-59.124 43.369-27.541-27.541s39.67-54.082 39.672-54.084c6.13-9.159 14.817-16.727 26.313-17.605zm-37.202-12.005c2.65-2.65 7.078-2.646 9.724 0l4.503 4.503c-.241.159-.467.341-.706.505-3.542 2.438-6.757 5.376-9.487 8.7-.008.01-.017.018-.024.028l-4.011-4.011c-2.681-2.681-2.681-7.043.001-9.725zm-26.378 55.055s-6.129-6.129-6.13-6.13c-2.605-2.605-2.654-7.07 0-9.725 2.61-2.61 7.064-2.66 9.725 0 0 0 4.634 4.634 4.634 4.634-2.743 3.741-5.486 7.481-8.229 11.221zm-38.933 118.743-26.035-26.034 21.052-21.052 26.035 26.035zm-31.659 31.658-26.034-26.035 21.051-21.051 26.035 26.034zm-57.179 57.18c-2.19-5.809-5.653-11.155-10.004-15.577-4.5-4.574-9.995-8.171-15.997-10.444-.011-.004-.022-.009-.034-.014l14.914-14.914 26.035 26.035zm-20.832 36.865c-11.446 11.447-30.634 11.433-42.068 0-11.598-11.598-11.598-30.469 0-42.068 11.152-11.152 30.916-11.125 42.068 0 11.409 11.38 11.467 30.6 0 42.068zm31.637-21.676c1.308 21.017 2.66 42.749-2.837 65.555-6.238 25.877-20.791 49.977-44.489 73.675-39.159 39.159-104.813 39.12-143.932 0-39.682-39.682-39.683-104.25-.001-143.933 23.698-23.698 47.798-38.251 73.675-44.489 12.725-3.067 25.114-4.003 37.232-4.003 9.602 0 19.034.587 28.324 1.166 1.491.093 2.993.187 4.502.278l-7.726 7.726c-10.981.621-21.219 5.186-29.059 13.026-17.447 17.447-17.447 45.834 0 63.281 8.451 8.452 19.688 13.106 31.641 13.106s23.189-4.654 31.64-13.106c8.061-8.061 12.389-18.459 13.001-29.034l7.751-7.751c.091 1.509.185 3.011.278 4.503zm14.716-40.71-26.035-26.035 21.052-21.052 26.034 26.035zm94.975-94.975-26.035-26.035 21.052-21.052 26.035 26.035zm76.905-36.905c2.681 2.681 2.681 7.044 0 9.725-2.681 2.682-7.044 2.681-9.725 0l-6.129-6.13 11.22-8.23zm39.2-22.782c-2.682 2.681-7.043 2.681-9.725 0l-4.012-4.012c.01-.008.018-.017.028-.024 3.473-2.85 6.688-6.381 9.205-10.193l4.504 4.504c2.681 2.681 2.681 7.044 0 9.725z"/></svg>