<svg id="Capa_1" enable-background="new 0 0 512 512" height="512" viewBox="0 0 512 512" width="512" xmlns="http://www.w3.org/2000/svg"><path d="m446.506 215.689v194.781l-136.083-42.465v-122.643l-68.451-106.927z" fill="#ec8d00"/><path d="m310.423 245.362v174.592c0 11.49-9.013 20.959-20.489 21.52-11.097.543-22.425.822-33.933.822-137.242 0-248.5-39.802-248.5-88.901v-194.791c0 49.098 111.258 88.901 248.5 88.901 18.688 0 36.901-.736 54.422-2.143z" fill="#fab659"/><path d="m446.51 410.479c36.195-15.443 57.99-35.353 57.99-57.083v-194.792c0 21.741-21.795 41.642-57.994 57.085v194.781z" fill="#fab659"/><path d="m504.5 158.604c0 21.741-21.795 41.642-57.994 57.085v-.011l-190.733-57.074 54.65 86.758c-17.52 1.407-35.733 2.143-54.423 2.143-137.242 0-248.5-39.802-248.5-88.901s111.258-88.901 248.5-88.901 248.5 39.803 248.5 88.901z" fill="#f4e64c"/><path d="m482.26 112.448c-17.52-12.401-42.918-23.373-73.451-31.728-3.995-1.095-8.121 1.259-9.213 5.254-1.093 3.995 1.259 8.12 5.254 9.213 28.865 7.899 52.636 18.101 68.744 29.503 10.678 7.56 23.406 19.579 23.406 33.915-.001 19.864-19.669 32.63-35.052 41.237-5.166 2.89-10.493 5.478-15.906 7.869 0 0-187.651-56.152-188.119-56.292-6.494-1.943-12.115 5.437-8.497 11.182l47.972 76.156c-.101.006-.201.013-.302.02-13.681.826-27.39 1.228-41.096 1.228-53.207 0-103.778-5.974-146.247-17.277-3.952-1.055-8.126 1.371-9.176 5.319-1.052 3.953 1.368 8.125 5.319 9.176 43.709 11.633 95.614 17.782 150.104 17.782 15.503 0 31.331-.513 46.922-1.567v166.517c0 7.5-5.867 13.663-13.356 14.029-11.023.54-22.316.813-33.566.813-65.537 0-127.044-9.092-173.189-25.6-43.095-15.417-67.811-35.756-67.811-55.801v-161.341c.03.032.064.064.094.096 16.787 17.727 39.273 27.061 61.481 35.944 4.87 1.948 10.316-2.349 10.048-7.441-.156-2.964-2.147-5.649-4.936-6.662-42.38-15.362-66.687-35.55-66.687-55.388 0-20.045 24.716-40.383 67.811-55.8 46.146-16.509 107.652-25.601 173.189-25.601 40.049 0 79.79 3.526 114.926 10.197 4.071.773 7.995-1.9 8.767-5.969.773-4.069-1.9-7.995-5.969-8.767-36.044-6.843-76.752-10.461-117.724-10.461-67.215 0-130.516 9.403-178.242 26.477-50.143 17.939-77.758 42.772-77.758 69.924v194.792c0 27.153 27.615 51.985 77.758 69.924 47.726 17.074 111.027 26.477 178.242 26.477 11.493 0 23.033-.279 34.3-.831 15.489-.758 27.623-13.501 27.623-29.012v-41.752s126.259 39.399 126.264 39.4c1.703.531 3.583.493 5.267-.225 51.694-22.056 62.546-46.967 62.546-63.981v-194.792c0-16.423-10.284-32.384-29.74-46.156zm-164.338 132.915c0-1.397-.409-2.815-1.154-3.998l-43.996-69.845 166.234 49.743v179.01l-121.084-37.783s0-117.087 0-117.127zm179.078-53.134v161.167c0 15.787-15.163 31.703-42.994 45.404v-178.211c.022-.01.043-.02.066-.03 15.615-6.96 31.085-15.8 42.928-28.33z"/></svg>