<svg id="Capa_1" enable-background="new 0 0 512 512" height="512" viewBox="0 0 512 512" width="512" xmlns="http://www.w3.org/2000/svg"><path d="m193.14 7.5h-42.28c-13.96 0-27.14 6.46-35.67 17.51-12.269 15.871-23.263 33.785-32.734 53.372l14.839 32.854-39.031 32.854c-9.268 34.702-14.364 72.437-14.364 111.91s5.096 77.208 14.363 111.909l51.847 32.854-27.654 32.854c9.471 19.587 20.465 37.501 32.734 53.372 8.53 11.05 21.71 17.51 35.67 17.51h42.28z" fill="#e27858"/><path d="m318.86 504.5h42.28c13.96 0 27.14-6.46 35.67-17.51 12.269-15.871 23.263-33.785 32.734-53.372l-12.561-32.854 36.753-32.854c9.268-34.702 14.364-72.437 14.364-111.91s-5.096-77.208-14.363-111.909l-36.054-32.854 11.862-32.854c-9.471-19.587-20.465-37.501-32.734-53.372-8.531-11.051-21.711-17.511-35.671-17.511h-42.28z" fill="#ca5935"/><path d="m318.86 174.371h141.729c-1.938-10.316-4.221-20.424-6.853-30.28h-134.876z" fill="#a24425"/><path d="m385.1 256c0 97.85-25.44 186.12-66.24 248.5h-62.86l-31.948-248.5 31.948-248.5h62.86c40.8 62.38 66.24 150.65 66.24 248.5z" fill="#e27858"/><g fill="#ca5935"><path d="m234.546 174.371h144.474c-1.559-10.283-3.405-20.385-5.525-30.28h-135.056z"/><path d="m193.14 174.371v-30.28h-134.877c-2.632 9.856-4.915 19.964-6.853 30.28z"/><path d="m256 7.5v497h-62.86c-40.8-62.38-66.24-150.65-66.24-248.5s25.44-186.12 66.24-248.5z"/></g><path d="m58.263 144.091h395.473c-6.255-23.421-14.403-45.463-24.192-65.709h-347.088c-9.789 20.245-17.938 42.288-24.193 65.709z" fill="#b2b0bc"/><path d="m82.456 433.618h347.089c9.789-20.245 17.938-42.288 24.192-65.709h-395.474c6.255 23.421 14.404 45.464 24.193 65.709z" fill="#b2b0bc"/><circle cx="256" cy="256" fill="#423e4f" r="37.577"/><path d="m132.98 174.371h123.02v-30.28h-117.495c-2.12 9.895-3.966 19.996-5.525 30.28z" fill="#a24425"/><path d="m429.544 433.618h-110.684v30.28h93.977c5.985-9.57 11.577-19.669 16.707-30.28z" fill="#a24425"/><path d="m250.78 463.898h90.71c4.603-9.699 8.892-19.802 12.841-30.28h-107.444z" fill="#ca5935"/><path d="m99.163 463.898h93.977v-30.28h-110.684c5.13 10.611 10.722 20.71 16.707 30.28z" fill="#ca5935"/><path d="m170.51 463.898h85.49v-30.28h-98.331c3.949 10.477 8.239 20.581 12.841 30.28z" fill="#a24425"/><path d="m178.495 122.006c4.142 0 7.5-3.358 7.5-7.5v-14.027c0-4.142-3.358-7.5-7.5-7.5s-7.5 3.358-7.5 7.5v14.027c0 4.142 3.358 7.5 7.5 7.5z"/><path d="m333.505 122.006c4.142 0 7.5-3.358 7.5-7.5v-14.027c0-4.142-3.358-7.5-7.5-7.5s-7.5 3.358-7.5 7.5v14.027c0 4.142 3.358 7.5 7.5 7.5z"/><path d="m256 129.493c9.62 0 18.65-4.02 24.776-11.027 2.726-3.119 2.408-7.857-.711-10.583-3.118-2.725-7.856-2.409-10.583.711-3.277 3.749-8.191 5.899-13.482 5.899-5.292 0-10.206-2.15-13.482-5.899-2.727-3.119-7.465-3.437-10.583-.711-3.119 2.726-3.438 7.464-.711 10.583 6.125 7.008 15.156 11.027 24.776 11.027z"/><path d="m361.14 512c16.18 0 31.733-7.636 41.604-20.423 12.591-16.287 23.88-34.689 33.553-54.694 10.054-20.794 18.36-43.349 24.688-67.047 9.698-36.317 14.615-74.617 14.615-113.836 0-11.983-.477-24.117-1.417-36.063-.326-4.129-3.937-7.215-8.065-6.889-4.129.325-7.213 3.936-6.889 8.065.91 11.556 1.371 23.293 1.371 34.886 0 35.917-4.259 71.009-12.667 104.409h-65.248c7.602-38.926 10.716-78.737 9.743-118.374-.745-30.341-3.923-60.653-9.743-90.445h65.247c3.272 13.018 5.945 26.458 7.96 40.037.608 4.098 4.42 6.925 8.52 6.318 4.097-.608 6.926-4.423 6.318-8.52-2.387-16.083-5.667-31.986-9.749-47.27-6.326-23.688-14.631-46.243-24.686-67.038-9.673-20.005-20.962-38.407-33.552-54.694-9.873-12.787-25.426-20.422-41.603-20.422h-210.28c-16.179 0-31.733 7.636-41.604 20.423-12.59 16.287-23.88 34.689-33.552 54.694-10.055 20.795-18.36 43.35-24.686 67.038-9.7 36.322-14.618 74.624-14.618 113.845 0 39.223 4.918 77.525 14.618 113.844 6.326 23.688 14.631 46.243 24.686 67.038 9.673 20.005 20.962 38.407 33.549 54.69 9.873 12.792 25.427 20.428 41.607 20.428zm16.417-249.112c-.404 32.592-3.681 65.16-10.086 97.124-.027.133-.056.264-.082.397h-103.889v-59.956c21.29-3.578 37.577-22.852 37.577-44.453 0-21.524-16.359-40.887-37.577-44.454v-59.956h103.889c.026.131.055.26.081.391 7.315 36.47 10.544 73.725 10.087 110.907zm-232.949 97.521c-.012-.062-.024-.125-.037-.187-2.755-13.459-4.859-27.069-6.47-40.71-.486-4.113-4.206-7.048-8.328-6.568-4.113.486-7.054 4.214-6.568 8.328 1.513 12.815 3.496 25.573 5.944 38.242.057.297.108.598.166.895h-65.249c-8.407-33.4-12.666-68.492-12.666-104.409 0-35.915 4.259-71.008 12.667-104.41h65.248c-5.04 25.795-8.115 51.955-9.303 78.21-.948 20.974-.777 42.484.631 63.626.275 4.133 3.853 7.257 7.981 6.985 4.133-.275 7.261-3.849 6.985-7.981-.803-12.055-1.209-24.312-1.209-36.43 0-34.894 3.271-69.797 10.13-104.019.026-.131.055-.26.081-.391h103.889v59.956c-.318.053-.631.121-.947.181-20.888 3.987-36.63 23.021-36.63 44.272 0 21.581 16.303 40.877 37.577 44.453v59.956h-103.892zm111.392-74.332c-16.584 0-30.077-13.493-30.077-30.077 0-16.585 13.493-30.078 30.077-30.078s30.077 13.493 30.077 30.078c0 16.584-13.493 30.077-30.077 30.077zm105.14-271.077c11.564 0 22.68 5.455 29.736 14.597 9.67 12.509 18.543 26.357 26.462 41.285h-57.853c-.005-.012-.01-.024-.015-.036-7.501-19.184-16.397-37.865-26.934-55.573-.053-.09-.105-.183-.158-.272h28.762zm-97.64 0h51.267c.042.067.085.132.128.199 11.061 17.417 20.37 35.959 28.174 55.05.086.211.175.421.261.633h-79.83zm-15 55.882h-79.83c.086-.212.175-.421.261-.633 7.821-19.083 17.124-37.625 28.174-55.05.042-.067.086-.132.128-.199h51.267zm-127.373-41.289c7.053-9.138 18.168-14.593 29.733-14.593h28.761c-.053.09-.105.183-.158.272-10.559 17.743-19.273 36.421-26.934 55.573-.005.012-.01.024-.015.036h-57.852c7.918-14.927 16.792-28.776 26.465-41.288zm-33.93 56.289h337.605c7.437 15.956 13.82 32.958 19.041 50.708h-375.687c5.221-17.751 11.604-34.752 19.041-50.708zm63.663 411.118c-11.564 0-22.68-5.456-29.736-14.597-9.67-12.509-18.543-26.357-26.462-41.285h57.853c.005.013.01.025.015.037 7.497 19.179 16.395 37.855 26.926 55.56.056.094.11.191.166.285zm97.64 0h-51.266c-.039-.061-.079-.121-.117-.182-11.053-17.448-20.371-35.971-28.19-55.079-.085-.208-.172-.413-.257-.621h79.83zm15-55.882h79.83c-.085.208-.172.413-.257.621-7.819 19.099-17.132 37.643-28.19 55.079-.039.061-.079.121-.117.182h-51.266zm127.373 41.289c-7.053 9.137-18.168 14.593-29.733 14.593h-28.761c.056-.094.11-.191.166-.285 10.528-17.701 19.429-36.385 26.926-55.56.005-.012.01-.025.015-.037h57.853c-7.919 14.927-16.793 28.777-26.466 41.289zm-303.676-56.289c-7.437-15.956-13.82-32.958-19.041-50.708h375.688c-5.221 17.751-11.604 34.753-19.042 50.708z"/></svg>