<svg id="Capa_1" enable-background="new 0 0 512 512" height="512" viewBox="0 0 512 512" width="512" xmlns="http://www.w3.org/2000/svg"><path d="m401.373 11.004-106.143 106.143 21.213 21.213 127.356-127.356z" fill="#423e4f"/><path d="m114.666 88.971c-22.578 0-40.881 18.303-40.881 40.881l40.881 13.631 40.881-13.631c0-22.578-18.303-40.881-40.881-40.881z" fill="#4f4c5f"/><path d="m103.786 129.852c0-17.28 10.727-32.045 25.881-38.028-4.646-1.834-9.702-2.853-15-2.853-22.578 0-40.88 18.303-40.88 40.881l40.881 13.631 15-5.002z" fill="#423e4f"/><path d="m216.015 88.971c-22.578 0-40.881 18.303-40.881 40.881l40.881 13.631 40.881-13.631c-.001-22.578-18.304-40.881-40.881-40.881z" fill="#4f4c5f"/><path d="m205.134 129.852c0-17.28 10.727-32.045 25.881-38.028-4.646-1.834-9.702-2.853-15-2.853-22.578 0-40.88 18.303-40.88 40.881l40.881 13.631 15-5.002z" fill="#423e4f"/><path d="m317.363 88.971c-22.578 0-40.881 18.303-40.881 40.881l40.881 13.631 40.881-13.631c0-22.578-18.303-40.881-40.881-40.881z" fill="#4f4c5f"/><path d="m306.482 129.852c0-17.28 10.727-32.045 25.881-38.028-4.646-1.834-9.702-2.853-15-2.853-22.578 0-40.88 18.303-40.88 40.881l40.881 13.631 15-5.002z" fill="#423e4f"/><path d="m418.711 88.971c-22.578 0-40.881 18.303-40.881 40.881l40.881 13.631 40.881-13.631c0-22.578-18.303-40.881-40.881-40.881z" fill="#4f4c5f"/><path d="m407.831 129.852c0-17.28 10.727-32.045 25.881-38.028-4.646-1.834-9.702-2.853-15-2.853-22.578 0-40.88 18.303-40.88 40.881l40.881 13.631 15-5.002z" fill="#423e4f"/><path d="m504.5 279.08v122.56l-237.81 26.67-237.81-26.67v-122.56l237.81-23.08z" fill="#fab659"/><path d="m58.88 401.64v-122.56l222.81-21.624-15-1.456-237.81 23.08v122.56l237.81 26.67 15-1.682z" fill="#ec8d00"/><path d="m504.5 174.76v104.32h-475.62v-104.32c0-24.8 20.1-44.91 44.91-44.91h385.8c24.8 0 44.91 20.11 44.91 44.91z" fill="#e2e2e2"/><path d="m103.79 129.85h-30c-24.81 0-44.91 20.11-44.91 44.91v104.32h30v-104.32c0-24.8 20.1-44.91 44.91-44.91z" fill="#c1bfc5"/><circle cx="134.382" cy="452.473" fill="#423e4f" r="48.523"/><circle cx="397.703" cy="452.473" fill="#423e4f" r="48.523"/><path d="m28.878 401.64-18.568 27.726c-7.321 10.932.514 25.609 13.671 25.609h43.643l66.757-16.503 66.757 16.503h286.907c9.087 0 16.454-7.367 16.454-16.454v-36.881z" fill="#ff748f"/><path d="m40.31 429.366 18.567-27.726h-30l-18.567 27.726c-7.321 10.932.514 25.609 13.671 25.609h30c-13.156 0-20.992-14.677-13.671-25.609z" fill="#f9496e"/><path d="m180.094 208.493h-91.425c-11.623 0-21.045 9.422-21.045 21.044v225.438h35l31.757-10.74 31.757 10.74h35v-225.438c.001-11.623-9.421-21.044-21.044-21.044z" fill="#f9496e"/><path d="m102.625 243.492h63.514v211.483h-63.514z" fill="#4f4c5f"/><path d="m321.117 208.493h-74.103c-7.802 0-14.127 6.325-14.127 14.127v104.561c0 7.802 6.325 14.127 14.127 14.127h74.103c7.802 0 14.127-6.325 14.127-14.127v-104.561c0-7.803-6.325-14.127-14.127-14.127z" fill="#f9496e"/><path d="m262.887 238.492h42.357v72.815h-42.357z" fill="#4f4c5f"/><path d="m452.098 208.493h-74.103c-7.802 0-14.127 6.325-14.127 14.127v104.561c0 7.802 6.325 14.127 14.127 14.127h74.103c7.802 0 14.127-6.325 14.127-14.127v-104.561c0-7.803-6.325-14.127-14.127-14.127z" fill="#f9496e"/><path d="m393.868 238.492h42.357v72.815h-42.357z" fill="#4f4c5f"/><path d="m305.236 230.991h-42.359c-4.142 0-7.5 3.358-7.5 7.5v72.818c0 4.142 3.359 7.5 7.5 7.5h42.359c4.143 0 7.5-3.358 7.5-7.5v-72.818c0-4.142-3.358-7.5-7.5-7.5zm-7.501 72.819h-27.359v-57.818h27.359z"/><path d="m436.223 230.991h-42.359c-4.142 0-7.5 3.358-7.5 7.5v72.818c0 4.142 3.358 7.5 7.5 7.5h42.359c4.142 0 7.5-3.358 7.5-7.5v-72.818c0-4.142-3.358-7.5-7.5-7.5zm-7.5 72.819h-27.359v-57.818h27.359z"/><path d="m180.941 149.747c-4.143 0-7.5 3.358-7.5 7.5v15.517c0 4.142 3.358 7.5 7.5 7.5s7.5-3.358 7.5-7.5v-15.517c.001-4.142-3.358-7.5-7.5-7.5z"/><path d="m352.417 149.747c-4.142 0-7.5 3.358-7.5 7.5v15.517c0 4.142 3.358 7.5 7.5 7.5s7.5-3.358 7.5-7.5v-15.517c0-4.142-3.358-7.5-7.5-7.5z"/><path d="m292.776 166.038c-3.118-2.726-7.856-2.408-10.583.71-3.777 4.32-9.432 6.799-15.514 6.799-6.083 0-11.737-2.478-15.514-6.799-2.726-3.118-7.464-3.437-10.583-.711s-3.437 7.465-.711 10.583c6.625 7.579 16.397 11.927 26.808 11.927s20.182-4.347 26.808-11.927c2.726-3.118 2.408-7.856-.711-10.582z"/><path d="m466.574 122.824c-3.413-23.361-23.575-41.36-47.867-41.36-24.126 0-44.182 17.752-47.798 40.88h-5.756c-.918-5.87-2.903-11.388-5.738-16.363 0 0 89.564-89.564 89.684-89.684 4.628-4.628 1.225-12.804-5.303-12.804h-42.428c-1.989 0-3.897.79-5.303 2.197l-75.864 75.864c-.943-.055-1.89-.091-2.846-.091-24.126 0-44.182 17.752-47.798 40.88h-5.756c-3.616-23.128-23.672-40.88-47.799-40.88-24.126 0-44.182 17.752-47.798 40.88h-5.756c-3.616-23.128-23.672-40.88-47.798-40.88-24.293 0-44.454 17.999-47.867 41.36-25.606 3.429-45.423 25.403-45.423 51.933v224.606l-17.302 25.838c-4.931 7.363-5.402 16.792-1.229 24.61 4.173 7.817 12.271 12.674 21.132 12.674h55.284c4.726 26.313 27.685 46.022 55.121 46.022s50.395-19.71 55.121-46.022h153.09c4.726 26.313 27.686 46.022 55.121 46.022s50.395-19.71 55.121-46.022h35.226c13.209 0 23.955-10.746 23.955-23.955v-71.227c0-4.142-3.358-7.5-7.5-7.5s-7.5 3.358-7.5 7.5v26.843h-288.373v-107.563h16.748v40.602c0 11.926 9.702 21.628 21.628 21.628h74.107c11.925 0 21.628-9.702 21.628-21.628v-40.602h13.625v40.602c0 11.609 9.761 21.628 21.628 21.628h74.107c11.925 0 21.628-9.702 21.628-21.628v-40.602h23.275v50.769c0 4.142 3.358 7.5 7.5 7.5s7.5-3.358 7.5-7.5v-162.594c-.001-26.531-19.82-48.505-45.427-51.933zm-47.866-26.359c15.323 0 29.124 10.931 32.539 25.879h-65.072c3.414-14.806 16.705-25.879 32.533-25.879zm-14.232-77.971h21.213l-75.662 75.663c-3.802-3.495-8.11-6.334-12.779-8.434zm-87.121 77.971c15.276 0 29.103 11.005 32.532 25.879h-65.064c3.414-14.806 16.704-25.879 32.532-25.879zm-101.353 0c15.828 0 29.119 11.073 32.533 25.879h-65.064c3.413-14.806 16.704-25.879 32.531-25.879zm-101.352 0c15.828 0 29.118 11.073 32.532 25.879h-65.064c3.413-14.806 16.704-25.879 32.532-25.879zm-54.544 297.681h-23.745v-107.564h23.746v107.564zm-44.044 48.6c-1.584-2.966-1.412-6.405.459-9.199l16.341-24.401h27.244v38.337h-36.144c-3.363 0-6.316-1.771-7.9-4.737zm59.045-213.21c0-7.469 6.076-13.545 13.545-13.545h91.429c7.469 0 13.545 6.076 13.545 13.545v217.947h-20.001v-203.991c0-4.142-3.358-7.5-7.5-7.5h-63.517c-4.142 0-7.5 3.358-7.5 7.5v29.391c0 4.142 3.358 7.5 7.5 7.5s7.5-3.358 7.5-7.5v-21.891h48.516v196.491h-48.516v-144.729c0-4.142-3.358-7.5-7.5-7.5s-7.5 3.358-7.5 7.5v144.729h-20v-217.947zm59.259 263.97c-19.151 0-35.335-13.11-39.802-31.022h79.605c-4.468 17.912-20.652 31.022-39.803 31.022zm263.332 0c-19.151 0-35.335-13.11-39.803-31.022h79.605c-4.467 17.912-20.65 31.022-39.802 31.022zm99.301-84.36v29.383c0 4.937-4.017 8.954-8.954 8.954h-279.418v-38.337zm-249.996-75.335c-3.654 0-6.627-2.973-6.627-6.627 0 0 0-104.513 0-104.566 0-3.466 2.92-6.627 6.627-6.627h74.106c3.456 0 6.627 2.951 6.627 6.627v104.566c0 3.654-2.973 6.627-6.627 6.627zm211.72-6.627c0 3.654-2.973 6.627-6.627 6.627 0 0-74.084 0-74.107 0-3.464 0-6.627-2.904-6.627-6.627v-104.566c0-3.654 2.973-6.627 6.627-6.627h74.107c3.654 0 6.627 2.973 6.627 6.627zm-384.928-189.839h385.793c20.628 0 37.411 16.783 37.411 37.412v96.824h-23.275s0-48.962 0-48.963c0-11.926-9.703-21.628-21.628-21.628h-74.106c-11.925 0-21.628 9.702-21.628 21.628v48.962h-13.625s0-48.962 0-48.963c0-11.775-9.857-21.628-21.628-21.628 0 0-74.036 0-74.106 0-11.678 0-21.628 9.957-21.628 21.628v48.962h-16.748v-42.045c0-15.74-12.806-28.546-28.546-28.546h-91.429c-15.74 0-28.546 12.806-28.546 28.546v42.045h-23.745v-96.824c0-20.626 16.778-37.406 37.407-37.411h.084"/></svg>