<svg id="Capa_1" enable-background="new 0 0 512 512" height="512" viewBox="0 0 512 512" width="512" xmlns="http://www.w3.org/2000/svg"><path d="m289.038 7.5h-19.965c-5.299 0-9.595 4.296-9.595 9.595v347.312h39.155v-347.312c0-5.299-4.296-9.595-9.595-9.595z" fill="#ca5935"/><path d="m421.641 58.854c-2.992-6.08-9.226-9.889-16.003-9.889h-277.11c-12.921 0-21.549 13.268-16.368 25.105 55.877 127.644-12.306 206.534-12.306 206.534v45.371h38.851c130.289-98.419 268.033-6.216 268.033-6.216s82.989-122.573 14.903-260.905z" fill="#e2e2e2"/><path d="m142.16 74.069c-5.182-11.837 3.447-25.105 16.368-25.105h-30c-12.921 0-21.549 13.268-16.368 25.105 55.877 127.644-12.306 206.534-12.306 206.534v45.371h30l-10-25.371s78.183-98.89 22.306-226.534z" fill="#c1bfc5"/><path d="m496.517 303.454-67.773 35.793c-8.428 3.759-14.409 11.482-15.965 20.586-1.596 9.368-4.17 22.543-8.017 37.256l-153.762 21.83-190.947-21.83c-4.425-16.915-7.165-31.813-8.673-41.21-1.057-6.588-5.354-12.197-11.453-14.908l-12.657-5.658c-6.294-2.809-10.816-8.506-12.118-15.27l-7.136-36.884c-1.928-10.004 6.842-18.794 16.856-16.885l74.981 14.331c9.828 1.879 18.305 8.046 23.131 16.807l15.721 28.563c5.903 10.738 17.179 17.404 29.435 17.404h156.834c9.975 0 19.538-4.023 26.518-11.149l15.848-16.2c3.925-4.013 8.712-7.087 13.998-8.976l98.509-41.735c6.226-2.232 13.127.548 16.073 6.461l6.96 13.939c3.308 6.645.42 14.701-6.363 17.735z" fill="#e27858"/><path d="m90.053 397.089c-4.424-16.915-7.165-31.813-8.673-41.21-1.057-6.588-5.354-12.197-11.453-14.908l-12.657-5.658c-6.294-2.809-10.816-8.506-12.118-15.27l-7.136-36.884c-1.025-5.318.973-10.292 4.574-13.5l-17.718-3.386c-10.014-1.909-18.785 6.882-16.856 16.886l7.136 36.884c1.302 6.764 5.824 12.461 12.118 15.27l12.657 5.658c6.098 2.711 10.396 8.32 11.453 14.908 1.507 9.397 4.248 24.295 8.673 41.21l190.947 21.83 13.382-1.9z" fill="#ca5935"/><path d="m385.791 450.789c-9.055 19.117-20.684 36.482-35.464 47.583-5.296 3.974-11.746 6.128-18.383 6.128h-199.073c-6.627 0-13.078-2.154-18.383-6.128-14.791-11.1-26.41-28.465-35.464-47.583l171.976-31.87z" fill="#e27858"/><path d="m109.023 450.79 155.158-28.754-13.181-3.117-171.977 31.871c9.055 19.117 20.674 36.482 35.464 47.583 5.306 3.974 11.756 6.128 18.383 6.128h30c-6.627 0-13.078-2.154-18.383-6.128-14.79-11.101-26.409-28.466-35.464-47.583z" fill="#ca5935"/><path d="m404.762 397.089c-4.454 17.023-10.621 36.101-18.97 53.701h-306.769c-8.34-17.6-14.507-36.668-18.97-53.701z" fill="#ca5935"/><path d="m60.053 397.089c4.464 17.032 10.63 36.101 18.97 53.701h30c-8.34-17.6-14.507-36.668-18.97-53.701z" fill="#a24425"/><path d="m369.815 164.578c0-6.969.724-13.524 1.997-19.239.783-3.513-2.389-6.621-5.891-5.788-10.984 2.615-31.735 6.779-54.398 7.339-2.778.069-5.06-2.214-4.991-4.991.561-22.663 4.725-43.414 7.339-54.398.833-3.501-2.275-6.674-5.788-5.891-5.715 1.274-12.27 1.998-19.239 1.998s-13.524-.724-19.239-1.998c-3.513-.783-6.621 2.39-5.788 5.891 2.615 10.984 6.779 31.735 7.339 54.398.069 2.778-2.214 5.06-4.991 4.991-22.663-.561-43.414-4.725-54.398-7.339-3.502-.834-6.674 2.275-5.891 5.788 1.274 5.715 1.997 12.27 1.997 19.239s-.724 13.524-1.997 19.239c-.783 3.513 2.389 6.621 5.891 5.788 10.984-2.615 31.735-6.779 54.398-7.339 2.777-.069 5.06 2.214 4.991 4.991-.561 22.663-4.725 43.414-7.339 54.398-.834 3.501 2.275 6.674 5.788 5.891 5.715-1.274 12.27-1.998 19.239-1.998s13.524.724 19.239 1.998c3.513.783 6.621-2.39 5.788-5.891-2.615-10.984-6.779-31.735-7.339-54.398-.069-2.778 2.214-5.06 4.991-4.991 22.663.561 43.414 4.725 54.398 7.339 3.502.834 6.674-2.275 5.891-5.788-1.273-5.715-1.997-12.27-1.997-19.239z" fill="#f9496e"/><path d="m202.066 193.54c2.883 2.857 7.079 4.396 11.425 3.361 9.78-2.328 28.952-6.243 50.067-7.05-.807 21.114-4.722 40.285-7.05 50.066-2.082 8.748 5.94 16.901 14.716 14.949 11.398-2.541 23.812-2.545 35.215 0 8.784 1.96 16.794-6.218 14.715-14.948-2.328-9.781-6.243-28.954-7.05-50.067 21.114.807 40.286 4.721 50.066 7.05 8.747 2.082 16.903-5.945 14.949-14.716-2.54-11.4-2.542-23.811 0-35.215 1.957-8.783-6.208-16.799-14.948-14.716-9.781 2.328-28.954 6.243-50.067 7.05.807-21.112 4.721-40.285 7.05-50.066 2.083-8.752-5.942-16.903-14.716-14.949-11.393 2.537-23.818 2.541-35.215 0-8.772-1.955-16.792 6.227-14.716 14.948 2.328 9.78 6.243 28.952 7.05 50.067-21.113-.807-40.285-4.721-50.066-7.05-8.757-2.085-16.906 5.933-14.949 14.716 2.541 11.4 2.541 23.811 0 35.215-.949 4.265.622 8.478 3.524 11.355zm11.912-45.783c11.62 2.58 31.028 6.112 51.988 6.63 6.971.172 12.848-5.704 12.675-12.674-.519-20.961-4.05-40.369-6.63-51.989 10.634 1.816 23.008 1.816 33.642 0-2.581 11.621-6.112 31.027-6.63 51.988-.173 6.986 5.705 12.827 12.674 12.675 20.961-.518 40.368-4.05 51.989-6.63-.908 5.317-1.383 11.054-1.383 16.821s.475 11.504 1.383 16.821c-11.62-2.58-31.027-6.112-51.988-6.63-6.972-.172-12.848 5.71-12.675 12.674.518 20.961 4.05 40.368 6.63 51.989-5.317-.908-11.054-1.383-16.821-1.383s-11.504.475-16.821 1.383c2.58-11.62 6.112-31.027 6.63-51.988.173-6.974-5.701-12.842-12.674-12.675-20.962.519-40.369 4.05-51.989 6.63.908-5.317 1.383-11.055 1.383-16.821s-.475-11.504-1.383-16.821z"/><path d="m510.531 298.468c1.906-5.318 1.568-11.033-.955-16.101l-6.957-13.934c-4.641-9.312-15.523-13.685-25.317-10.175-.133.048-40.557 17.17-40.557 17.17 18.627-49.341 35.129-131.47-8.387-219.885-4.209-8.552-13.132-14.078-22.732-14.078h-99.506v-24.37c0-9.427-7.668-17.095-17.095-17.095h-19.965c-9.426 0-17.095 7.668-17.095 17.095v24.369h-123.45c-8.594 0-16.531 4.292-21.233 11.483-4.714 7.209-5.464 16.23-2.006 24.129 27.811 63.53 23.325 114.099 14.664 145.334-7.159 25.819-18.264 43.1-23.226 49.96 0 0-70.363-13.448-70.451-13.465-14.974-2.862-28.503 10.735-25.623 25.678l7.135 36.876c1.763 9.159 7.903 16.897 16.422 20.7l12.67 5.664c3.784 1.683 6.436 5.138 7.095 9.243 5.316 33.129 13.859 66.519 28.271 96.934 10.75 22.697 23.448 39.644 37.746 50.375 6.565 4.917 14.69 7.625 22.88 7.625h199.072c8.202 0 16.33-2.709 22.887-7.631 14.297-10.738 26.995-27.685 37.741-50.375 14.336-28.819 22.199-61.305 27.6-92.897 1.137-6.653 5.484-12.26 11.627-15 .152-.067 68.026-35.908 68.026-35.908 5.042-2.333 8.843-6.486 10.719-11.721zm-342.404 37.41c-7.297 0-14.141-3.052-19.007-8.23 31.594-22.408 66.067-35.38 102.845-38.718v46.948zm98.839-47.768c1.872-.233 24.154.125 24.154.841v46.927h-24.155s0-47.766.001-47.768zm39.154 2.645c23.098 3.533 43.446 10.055 59.577 16.629-1.307 1.062-2.555 2.197-3.732 3.399l-15.844 16.197c-5.539 5.654-13.25 8.897-21.16 8.897h-18.841zm-39.155-273.66c0-1.155.94-2.095 2.095-2.095h19.965c1.155 0 2.095.939 2.095 2.095v24.369h-24.155zm-132.798 210.143c9.512-33.731 14.605-88.207-15.149-156.177-1.442-3.293-1.143-6.904.819-9.905 1.949-2.982 5.113-4.692 8.678-4.692h277.111c3.929 0 7.569 2.238 9.273 5.702 45.376 92.192 21.582 177.364 2.292 221.545l-34.574 14.647c-23.776-10.879-59.95-23.495-102.233-25.123-49.879-1.921-98.475 12.951-139.23 41.658l-.405-.735s-11.209-20.367-11.209-20.367c-3.957-7.194-10.218-13.35-17.622-16.951-.009-.004-.017-.01-.026-.014 6.226-9.395 15.683-26.213 22.275-49.588zm362.244 66.169c-.613 1.711-1.881 2.608-3.409 3.416l-67.566 35.684c-10.603 4.824-18.094 14.548-20.063 26.068-1.261 7.403-3.356 18.428-6.458 31.015h-58.056c-4.142 0-7.5 3.358-7.5 7.5s3.358 7.5 7.5 7.5h54.05c-4.111 14.242-8.778 27.209-13.931 38.701h-205.555c-4.142 0-7.5 3.358-7.5 7.5s3.358 7.5 7.5 7.5h198.099c-8.348 15.085-17.641 26.522-27.71 34.084-3.975 2.983-8.905 4.626-13.881 4.626h-199.073c-4.969 0-9.9-1.645-13.881-4.626-10.066-7.555-19.359-18.992-27.71-34.084h54.156c4.142 0 7.5-3.358 7.5-7.5s-3.358-7.5-7.5-7.5h-61.61c-5.147-11.493-9.814-24.461-13.93-38.701h240.976c4.142 0 7.5-3.358 7.5-7.5s-3.358-7.5-7.5-7.5h-244.986c-3.508-14.226-5.773-26.627-7.1-34.899-1.465-9.131-7.376-16.822-15.797-20.567l-12.661-5.659c-4.053-1.809-6.973-5.487-7.812-9.846 0 0-7.127-36.836-7.135-36.878-.915-4.728 3.365-8.997 8.083-8.1 0 0 74.981 14.331 74.981 14.331 7.587 1.452 14.243 6.293 17.97 13.059 0 0 15.718 28.558 15.721 28.564 7.22 13.129 21.015 21.285 36.003 21.285h156.834c11.916 0 23.534-4.885 31.879-13.405l15.848-16.201c3.117-3.188 6.976-5.663 11.16-7.158.135-.048.27-.101.402-.157l98.273-41.635c2.599-.845 5.444.338 6.674 2.805l6.955 13.931c.682 1.367.774 2.911.26 4.347z"/></svg>