<svg id="Capa_1" enable-background="new 0 0 512 512" height="512" viewBox="0 0 512 512" width="512" xmlns="http://www.w3.org/2000/svg"><path d="m315.42 41.094-3.367 29.911-29.911 3.367-47.071 47.071-3.367 29.911-29.911 3.367-47.071 47.071-3.367 29.911-29.911 3.367-47.071 47.071-3.367 29.911-29.911 3.367c-44.792 44.792-44.792 117.415 0 162.207l12.305 12.305c19.424 19.424 50.917 19.424 70.341 0l366.191-366.191c19.424-19.424 19.424-50.917 0-70.341l-12.305-12.305c-44.792-44.792-117.415-44.792-162.207 0z" fill="#fab659"/><path d="m489.932 53.399-12.305-12.305c-1.571-1.571-3.179-3.08-4.816-4.541 16.479 19.542 15.528 48.78-2.879 67.187l-366.192 366.192c-18.407 18.407-47.645 19.358-67.187 2.879 1.461 1.637 2.97 3.245 4.541 4.816l12.305 12.305c19.424 19.424 50.917 19.424 70.341 0l366.192-366.192c19.424-19.424 19.424-50.917 0-70.341z" fill="#ec8d00"/><g fill="#f4e64c"><path d="m41.094 315.42 40.069 40.069c9.19 9.19 24.089 9.19 33.278 0 9.19-9.19 9.19-24.089 0-33.278l-40.069-40.069z"/><path d="m121.443 235.071 40.069 40.069c9.19 9.19 24.089 9.19 33.278 0 9.19-9.19 9.19-24.089 0-33.278l-40.069-40.069z"/><path d="m201.793 154.722 40.069 40.069c9.19 9.19 24.089 9.19 33.278 0 9.19-9.19 9.19-24.089 0-33.278l-40.069-40.069z"/><path d="m315.42 41.094 40.069 40.069c9.19 9.19 9.19 24.089 0 33.278-9.19 9.19-24.089 9.19-33.278 0l-40.069-40.069z"/></g><path d="m35.808 309.944c-23.091 23.091-35.808 53.792-35.808 86.447s12.717 63.356 35.808 86.446c0 0 12.3 12.3 12.311 12.31 22.051 22.051 58.957 22.03 80.985 0l46.981-46.981c2.931-2.93 2.931-7.681 0-10.611-2.93-2.931-7.681-2.93-10.611 0 0 0-46.924 46.923-46.981 46.981-16.287 16.286-43.504 16.258-59.763 0l-12.311-12.31c-40.032-40.032-41.734-104.094-5.117-146.176 0 0 34.561 34.561 34.594 34.593 11.974 11.974 31.941 11.965 43.905 0 12.105-12.105 12.105-31.8 0-43.905l-34.782-34.782 36.482-36.482s34.776 34.776 34.782 34.782c11.814 11.814 31.881 12.025 43.905 0 12.105-12.105 12.105-31.8 0-43.905l-34.782-34.782 36.482-36.482s34.775 34.775 34.782 34.782c11.96 11.961 31.955 11.95 43.905 0 11.97-11.97 11.958-31.949 0-43.906l-34.782-34.782 36.481-36.481s34.769 34.77 34.782 34.782c11.803 11.804 31.895 12.011 43.906 0 12.104-12.105 12.104-31.801 0-43.906l-34.58-34.576c16.534-14.35 37.226-23.418 59.051-25.711 4.122-.433 7.111-4.125 6.678-8.247s-4.134-7.112-8.247-6.678c-27.725 2.913-53.864 15.388-73.604 35.127zm158.404-51.639c0 4.125-1.546 8.249-4.636 11.339-6.187 6.188-16.504 6.18-22.683.001l-34.782-34.782 22.682-22.682s34.735 34.735 34.782 34.782c3.093 3.092 4.638 7.217 4.637 11.342zm-85.023 69.044c6.253 6.253 6.253 16.428.001 22.682-6.187 6.188-16.512 6.172-22.683.001l-34.782-34.782 22.682-22.682zm160.773-160.773c6.194 6.194 6.188 16.495 0 22.682-6.254 6.253-16.429 6.253-22.682 0l-34.782-34.782 22.682-22.682c.001 0 34.717 34.717 34.782 34.782zm80.387-57.704c-6.254 6.252-16.429 6.253-22.682 0l-34.782-34.782 22.682-22.682 34.782 34.782c6.254 6.253 6.253 16.429 0 22.682z"/><path d="m483.155 35.491c-18.4-18.4-41.68-30.262-67.324-34.303-4.094-.643-7.935 2.151-8.58 6.244-.645 4.094 2.151 7.935 6.244 8.58 22.488 3.543 42.907 13.948 59.048 30.09 0 0 12.3 12.3 12.311 12.311 16.277 16.277 16.252 43.51 0 59.762l-298.157 298.158c-2.93 2.93-2.931 7.681 0 10.611 2.813 2.813 7.693 2.919 10.612 0 0 0 297.944-297.944 298.157-298.158 22.065-22.065 22.027-58.959 0-80.985z"/><path d="m194.68 321.166c-2.93-2.931-7.681-2.93-10.611 0-2.931 2.931-2.931 7.681 0 10.611 0 0 12.422 12.421 12.435 12.434 2.899 2.898 7.718 2.894 10.611 0 2.931-2.931 2.931-7.681 0-10.611z"/><path d="m321.483 183.751c-2.931 2.93-2.931 7.681 0 10.611 0 0 12.43 12.43 12.435 12.435 2.827 2.827 7.684 2.928 10.611 0 2.931-2.93 2.931-7.681 0-10.611l-12.435-12.435c-2.93-2.93-7.681-2.93-10.611 0z"/><path d="m253.196 278.805c-4.142-.28-7.712 2.849-7.99 6.983-.278 4.135 2.848 7.712 6.983 7.99 11.224.76 22.351-3.718 30.27-11.636 8.14-8.141 12.381-19.173 11.635-30.269-.278-4.135-3.859-7.27-7.99-6.983-4.135.277-7.261 3.855-6.983 7.99.455 6.775-2.196 13.573-7.274 18.651-5.078 5.079-11.883 7.724-18.651 7.274z"/></svg>