<svg id="Capa_1" enable-background="new 0 0 512 512" height="512" viewBox="0 0 512 512" width="512" xmlns="http://www.w3.org/2000/svg"><path d="m443.771 7.5h-375.542c-18.886 0-34.196 15.31-34.196 34.196v240.838c0 122.588 99.378 221.966 221.967 221.966 122.589 0 221.967-99.378 221.967-221.967v-240.837c0-18.886-15.31-34.196-34.196-34.196z" fill="#f9496e"/><path d="m54.033 282.533v-240.837c0-18.886 15.31-34.196 34.196-34.196h-20c-18.886 0-34.196 15.31-34.196 34.196v240.838c0 122.588 99.378 221.966 221.967 221.966 3.352 0 6.684-.088 10-.235-117.946-5.231-211.967-102.495-211.967-221.732z" fill="#e3254c"/><path d="m355.704 113.855h-199.408c-10.298 0-18.646 8.348-18.646 18.646v145.993c0 65.307 52.352 119.275 117.658 119.651 65.575.377 119.042-52.859 119.042-118.348v-147.297c0-10.298-8.348-18.645-18.646-18.645z" fill="#e2e2e2"/><path d="m157.65 278.493v-145.993c0-10.298 8.348-18.646 18.646-18.646h-20c-10.298 0-18.646 8.348-18.646 18.646v145.993c0 65.307 52.352 119.275 117.658 119.65 3.596.021 7.154-.129 10.671-.424-60.892-5.173-108.329-57.061-108.329-119.226z" fill="#c1bfc5"/><g fill="#00acdc"><path d="m256 279.799c-12.328 0-22.357-10.029-22.357-22.357v-31.347h44.714v31.347c0 12.327-10.029 22.357-22.357 22.357z"/><path d="m185.207 279.799c-12.328 0-22.357-10.029-22.357-22.357v-31.347h44.714v31.347c0 12.327-10.029 22.357-22.357 22.357z"/><path d="m326.793 279.799c12.328 0 22.357-10.029 22.357-22.357v-31.347h-44.714v31.347c0 12.327 10.029 22.357 22.357 22.357z"/><path d="m256 196.421c-12.328 0-22.357-10.029-22.357-22.357v-31.347h44.714v31.347c0 12.328-10.029 22.357-22.357 22.357z"/><path d="m256 363.176c-12.328 0-22.357-10.029-22.357-22.357v-31.347h44.714v31.347c0 12.328-10.029 22.357-22.357 22.357z"/></g><path d="m108.302 74.265-3.159-31.019c-.47-4.615-4.356-8.125-8.995-8.125h-20.614c-4.639 0-8.525 3.51-8.995 8.125l-3.159 31.019c-.543 5.328 3.639 9.957 8.995 9.957h26.932c5.356 0 9.538-4.629 8.995-9.957z" fill="#f4e64c"/><path d="m83.381 74.265 3.159-31.019c.47-4.615 4.356-8.125 8.995-8.125h-20c-4.639 0-8.525 3.511-8.995 8.125l-3.159 31.019c-.543 5.328 3.639 9.957 8.995 9.957h20c-5.356 0-9.538-4.629-8.995-9.957z" fill="#fab659"/><path d="m278.461 74.265-3.159-31.019c-.47-4.615-4.356-8.125-8.995-8.125h-20.615c-4.639 0-8.525 3.51-8.995 8.125l-3.159 31.019c-.543 5.328 3.639 9.957 8.995 9.957h26.932c5.357 0 9.538-4.629 8.996-9.957z" fill="#f4e64c"/><path d="m108.302 247.54-3.159-31.019c-.47-4.615-4.356-8.125-8.995-8.125h-20.614c-4.639 0-8.525 3.51-8.995 8.125l-3.159 31.019c-.543 5.328 3.639 9.957 8.995 9.957h26.932c5.356 0 9.538-4.629 8.995-9.957z" fill="#f4e64c"/><path d="m154.043 390.549-24.167-19.7c-3.595-2.931-8.826-2.665-12.106.615l-14.577 14.577c-3.28 3.28-3.546 8.51-.615 12.106l19.7 24.167c3.384 4.151 9.614 4.467 13.401.681l19.044-19.044c3.787-3.788 3.471-10.018-.68-13.402z" fill="#f4e64c"/><path d="m135.279 409.314-19.7-24.167c-2.931-3.595-2.665-8.826.615-12.105l-13 13c-3.28 3.28-3.546 8.51-.615 12.105l19.7 24.167c3.384 4.151 9.614 4.468 13.401.68l13-13c-3.787 3.787-10.018 3.471-13.401-.68z" fill="#fab659"/><path d="m403.698 74.265 3.159-31.019c.47-4.615 4.356-8.125 8.995-8.125h20.615c4.639 0 8.525 3.51 8.995 8.125l3.159 31.019c.543 5.328-3.639 9.957-8.995 9.957h-26.932c-5.357 0-9.539-4.629-8.996-9.957z" fill="#f4e64c"/><path d="m403.698 247.54 3.159-31.019c.47-4.615 4.356-8.125 8.995-8.125h20.615c4.639 0 8.525 3.51 8.995 8.125l3.159 31.019c.543 5.328-3.639 9.957-8.995 9.957h-26.932c-5.357 0-9.539-4.629-8.996-9.957z" fill="#f4e64c"/><path d="m357.957 390.549 24.167-19.7c3.595-2.931 8.826-2.665 12.106.615l14.577 14.577c3.28 3.28 3.546 8.51.615 12.106l-19.7 24.167c-3.384 4.151-9.614 4.467-13.401.681l-19.044-19.044c-3.787-3.788-3.471-10.018.68-13.402z" fill="#f4e64c"/><path d="m253.539 74.265 3.159-31.019c.47-4.615 4.356-8.125 8.995-8.125h-20c-4.639 0-8.525 3.511-8.995 8.125l-3.159 31.019c-.543 5.328 3.639 9.957 8.995 9.957h20c-5.356 0-9.537-4.629-8.995-9.957z" fill="#fab659"/><path d="m423.698 74.265 3.159-31.019c.47-4.615 4.356-8.125 8.995-8.125h-20c-4.639 0-8.525 3.511-8.995 8.125l-3.159 31.019c-.543 5.328 3.639 9.957 8.995 9.957h20c-5.356 0-9.538-4.629-8.995-9.957z" fill="#fab659"/><path d="m423.698 247.54 3.159-31.019c.47-4.615 4.356-8.125 8.995-8.125h-20c-4.639 0-8.525 3.511-8.995 8.125l-3.159 31.019c-.543 5.328 3.639 9.957 8.995 9.957h20c-5.356 0-9.538-4.629-8.995-9.957z" fill="#fab659"/><path d="m83.381 247.54 3.159-31.019c.47-4.615 4.356-8.125 8.995-8.125h-20c-4.639 0-8.525 3.511-8.995 8.125l-3.159 31.019c-.543 5.328 3.639 9.957 8.995 9.957h20c-5.356 0-9.538-4.629-8.995-9.957z" fill="#fab659"/><path d="m376.722 409.314 19.7-24.167c2.931-3.595 2.665-8.826-.615-12.105l13 13c3.28 3.28 3.546 8.51.615 12.105l-19.7 24.167c-3.384 4.151-9.614 4.468-13.401.68l-13-13c3.787 3.787 10.017 3.471 13.401-.68z" fill="#fab659"/><path d="m485.467 41.696c0-22.991-18.705-41.696-41.696-41.696h-375.542c-22.991 0-41.696 18.705-41.696 41.696v240.837c0 43.441 12.199 85.729 35.278 122.293 22.452 35.57 54.175 64.296 91.742 83.071 1.077.539 2.22.793 3.347.793 2.751 0 5.401-1.52 6.715-4.148 1.852-3.705.349-8.21-3.356-10.062-35.117-17.552-64.774-44.406-85.764-77.66-21.564-34.165-32.962-73.685-32.962-114.288v-240.836c0-14.72 11.976-26.696 26.696-26.696h375.542c14.72 0 26.696 11.976 26.696 26.696v89.254c0 4.142 3.358 7.5 7.5 7.5s7.5-3.358 7.5-7.5z"/><path d="m184.649 500.671c22.997 7.517 47.003 11.329 71.351 11.329 61.292 0 118.917-23.869 162.257-67.209s67.209-100.964 67.209-162.257v-121.584c0-4.142-3.358-7.5-7.5-7.5s-7.5 3.358-7.5 7.5v121.583c0 57.286-22.309 111.144-62.816 151.651s-94.364 62.816-151.65 62.816c-22.763 0-45.201-3.562-66.69-10.586-3.937-1.286-8.172.862-9.459 4.799s.861 8.171 4.798 9.458z"/><path d="m255.265 405.644c.249.001.494.002.743.002 33.431 0 64.902-12.996 88.684-36.642 23.962-23.825 37.159-55.506 37.159-89.208v-147.296c0-14.417-11.729-26.146-26.146-26.146h-199.409c-14.417 0-26.146 11.729-26.146 26.146v145.993c0 69.714 56.126 126.753 125.115 127.151zm-110.115-273.144c0-6.146 5-11.146 11.146-11.146h199.409c6.146 0 11.146 5 11.146 11.146v147.295c0 29.679-11.625 57.583-32.735 78.571-20.951 20.832-48.667 32.279-78.11 32.279-.217 0-.437 0-.654-.002-60.765-.35-110.201-50.661-110.201-112.151v-145.992z"/><path d="m256 287.299c16.463 0 29.857-13.394 29.857-29.857v-31.348c0-4.142-3.358-7.5-7.5-7.5h-44.714c-4.142 0-7.5 3.358-7.5 7.5v31.348c0 16.463 13.394 29.857 29.857 29.857zm-14.857-53.705h29.714v23.848c0 8.192-6.665 14.857-14.857 14.857s-14.857-6.665-14.857-14.857z"/><path d="m215.064 257.442v-31.348c0-4.142-3.358-7.5-7.5-7.5h-44.714c-4.142 0-7.5 3.358-7.5 7.5v31.348c0 16.463 13.394 29.857 29.857 29.857s29.857-13.394 29.857-29.857zm-44.714 0v-23.848h29.714v23.848c0 8.192-6.665 14.857-14.857 14.857s-14.857-6.665-14.857-14.857z"/><path d="m326.793 287.299c16.463 0 29.857-13.394 29.857-29.857v-31.348c0-4.142-3.358-7.5-7.5-7.5h-44.714c-4.142 0-7.5 3.358-7.5 7.5v31.348c0 16.463 13.394 29.857 29.857 29.857zm-14.857-53.705h29.714v23.848c0 8.192-6.665 14.857-14.857 14.857s-14.857-6.665-14.857-14.857z"/><path d="m256 203.921c16.463 0 29.857-13.394 29.857-29.857v-31.347c0-4.142-3.358-7.5-7.5-7.5h-44.714c-4.142 0-7.5 3.358-7.5 7.5v31.347c0 16.463 13.394 29.857 29.857 29.857zm-14.857-53.704h29.714v23.847c0 8.192-6.665 14.857-14.857 14.857s-14.857-6.665-14.857-14.857z"/><path d="m256 370.676c16.463 0 29.857-13.394 29.857-29.857v-31.348c0-4.142-3.358-7.5-7.5-7.5h-44.714c-4.142 0-7.5 3.358-7.5 7.5v31.348c0 16.464 13.394 29.857 29.857 29.857zm-14.857-53.704h29.714v23.848c0 8.192-6.665 14.857-14.857 14.857s-14.857-6.665-14.857-14.857z"/><path d="m72.375 91.722h26.933c4.67 0 9.144-1.987 12.274-5.453 3.13-3.465 4.655-8.118 4.182-12.764l-3.159-31.02c-.864-8.474-7.938-14.865-16.456-14.865h-20.615c-8.518 0-15.592 6.391-16.456 14.865l-3.159 31.019c-.473 4.646 1.051 9.298 4.182 12.764 3.13 3.467 7.605 5.454 12.274 5.454zm1.626-47.716c.081-.79.74-1.385 1.533-1.385h20.615c.793 0 1.453.596 1.533 1.385l3.159 31.019c.057.563-.18.958-.39 1.189-.209.231-.578.508-1.144.508h-26.932c-.566 0-.934-.276-1.144-.508-.209-.232-.447-.626-.39-1.189z"/><path d="m269.466 91.722c4.67 0 9.144-1.987 12.274-5.453 3.13-3.465 4.655-8.118 4.182-12.764l-3.159-31.019c-.863-8.475-7.937-14.866-16.456-14.866h-20.615c-8.518 0-15.593 6.391-16.457 14.865l-3.158 31.019c-.473 4.646 1.05 9.298 4.181 12.764s7.605 5.454 12.275 5.454zm-28.465-16.697 3.158-31.019c.081-.79.74-1.385 1.534-1.385h20.615c.794 0 1.453.595 1.533 1.385l3.159 31.019c.057.563-.18.958-.39 1.189-.209.231-.578.508-1.144.508h-26.932c-.566 0-.935-.276-1.144-.508s-.447-.626-.389-1.189z"/><path d="m60.101 259.544c3.13 3.466 7.604 5.453 12.274 5.453h26.933c4.67 0 9.144-1.987 12.274-5.453 3.13-3.465 4.655-8.118 4.182-12.764l-3.159-31.02c-.864-8.474-7.938-14.865-16.456-14.865h-20.615c-8.518 0-15.592 6.391-16.456 14.865l-3.159 31.019c-.473 4.647 1.052 9.3 4.182 12.765zm13.9-42.263c.081-.79.74-1.385 1.533-1.385h20.615c.793 0 1.453.596 1.533 1.385l3.159 31.019c.057.563-.18.958-.39 1.189-.209.231-.578.508-1.144.508h-26.932c-.566 0-.934-.276-1.144-.508-.209-.232-.447-.626-.39-1.189z"/><path d="m116.466 427.052c2.951 3.62 7.318 5.832 11.981 6.068.279.014.558.021.835.021 4.37 0 8.595-1.74 11.7-4.845l19.044-19.044c3.303-3.302 5.061-7.872 4.824-12.536s-2.449-9.031-6.069-11.982l-24.167-19.7c-6.603-5.383-16.125-4.899-22.148 1.125l-14.576 14.578c-6.023 6.023-6.507 15.544-1.125 22.148zm-7.969-35.708 14.578-14.577c.3-.3.693-.453 1.089-.453.343 0 .688.115.974.349l24.167 19.7c.439.357.55.804.566 1.116s-.049.768-.45 1.168l-19.043 19.043c-.401.4-.862.466-1.168.45-.312-.016-.759-.127-1.116-.565l-19.7-24.167c-.503-.616-.458-1.503.103-2.064z"/><path d="m412.692 91.722h26.932c4.67 0 9.145-1.988 12.275-5.454 3.13-3.465 4.654-8.118 4.181-12.763l-3.158-31.02c-.864-8.474-7.938-14.865-16.457-14.865h-20.615c-8.519 0-15.593 6.391-16.456 14.865l-3.159 31.019c-.473 4.646 1.051 9.298 4.182 12.764 3.131 3.467 7.605 5.454 12.275 5.454zm1.626-47.717c.081-.789.739-1.384 1.533-1.384h20.615c.794 0 1.453.596 1.534 1.385l3.158 31.02c.058.563-.18.957-.389 1.188-.209.232-.578.508-1.144.508h-26.932c-.566 0-.934-.276-1.144-.508-.209-.232-.447-.626-.39-1.189z"/><path d="m400.418 259.544c3.13 3.466 7.604 5.453 12.274 5.453h26.932c4.67 0 9.145-1.988 12.275-5.454s4.654-8.118 4.181-12.763l-3.158-31.02c-.864-8.474-7.938-14.865-16.457-14.865h-20.615c-8.519 0-15.593 6.391-16.456 14.865l-3.159 31.019c-.472 4.647 1.053 9.3 4.183 12.765zm13.9-42.264c.081-.789.739-1.384 1.533-1.384h20.615c.794 0 1.453.596 1.534 1.385l3.158 31.02c.058.563-.18.957-.389 1.188-.209.232-.578.508-1.144.508h-26.932c-.566 0-.934-.276-1.144-.508-.209-.232-.447-.626-.39-1.189z"/><path d="m377.386 365.036-24.167 19.7c-3.62 2.951-5.832 7.318-6.068 11.982s1.521 9.233 4.824 12.535l19.044 19.044c3.104 3.105 7.329 4.845 11.7 4.845.277 0 .556-.007.834-.021 4.665-.237 9.032-2.449 11.983-6.068l19.7-24.167c5.381-6.603 4.898-16.124-1.125-22.147l-14.577-14.576c-6.023-6.027-15.546-6.51-22.148-1.127zm11.541 11.731 14.577 14.576c.562.562.606 1.449.105 2.064l-19.7 24.167c-.358.438-.805.549-1.117.565-.311.019-.768-.05-1.168-.449l-19.044-19.044c-.4-.4-.465-.856-.45-1.168.016-.312.127-.758.565-1.116l24.168-19.701c.615-.501 1.503-.455 2.064.106z"/></svg>