<svg id="Capa_1" enable-background="new 0 0 512 512" height="512" viewBox="0 0 512 512" width="512" xmlns="http://www.w3.org/2000/svg"><path d="m20.134 221.61c-3.775-4.111-10.648-2.07-11.526 3.442-2.835 17.793-2.228 46.997 26.662 62.794l13.985-46.65s-17.381-6.803-29.121-19.586z" fill="#ffb2c1"/><path d="m497.181 272.56c-2.721-12.883-16.517-20.057-28.548-14.704-4.728 2.104-9.735 4.913-14.406 8.651 0 0-.208-81.439-68.567-129.617l.003.001 9.758-65.672c1.559-10.489-6.881-19.74-17.473-19.213-24.43 1.217-65.255 9.97-89.516 51.668l.004.001c-9.457-.909-19.451-1.391-30.018-1.391-195.396 0-230.971 175.17-230.971 256.271l230.971 50.731 230.971-50.731c0-.001 15.78-48.18 7.792-85.995z" fill="#ffb2c1"/><path d="m57.448 358.554c0-79.017 33.776-247.324 216.227-255.922-4.949-.229-10.032-.349-15.257-.349-195.396 0-230.971 175.17-230.971 256.271z" fill="#ff889e"/><path d="m355.896 83.906c-11.108 3.899-22.227 10.521-31.371 21.47-3.999 4.788-1.933 12.101 3.991 14.054l20.593 6.789c5.194 1.713 10.679-1.668 11.483-7.078l4.143-27.883c.742-4.988-4.08-9.022-8.839-7.352z" fill="#ff889e"/><path d="m489.389 358.554h-461.941c-9.986 0-17.222 9.518-14.552 19.14l6.455 23.259c4.791 17.264 15.197 32.441 29.574 43.133 13.908 10.344 30.78 15.93 48.113 15.93h322.762c17.333 0 34.204-5.586 48.113-15.93 14.377-10.692 24.783-25.869 29.574-43.133l6.455-23.259c2.67-9.621-4.567-19.14-14.553-19.14z" fill="#78cbec"/><path d="m78.925 444.087c-14.377-10.692-24.783-25.869-29.574-43.133l-6.455-23.26c-2.67-9.622 4.566-19.14 14.552-19.14h-30c-9.986 0-17.222 9.518-14.552 19.14l6.455 23.26c4.791 17.264 15.197 32.441 29.574 43.133 13.908 10.344 30.78 15.93 48.113 15.93h30c-17.333 0-34.205-5.586-48.113-15.93z" fill="#00acdc"/><ellipse cx="470.851" cy="298.842" rx="19.525" ry="12.087" transform="matrix(.244 -.97 .97 .244 66.075 682.462)"/><path d="m398.214 285.335c8.733 0 16.781-4.613 22.082-12.655 2.279-3.458 1.324-8.11-2.135-10.389-3.458-2.279-8.11-1.324-10.389 2.135-2.475 3.756-5.96 5.91-9.558 5.91-3.599 0-7.082-2.154-9.558-5.91-2.279-3.459-6.931-4.415-10.389-2.135-3.458 2.279-4.414 6.93-2.135 10.389 5.301 8.043 13.349 12.655 22.082 12.655z"/><path d="m326.207 126.558s20.592 6.788 20.592 6.788c9.421 3.106 19.79-3.276 21.249-13.098 0 0 4.138-27.849 4.143-27.881 1.543-10.382-8.813-19.014-18.741-15.531-13.911 4.884-25.566 12.871-34.642 23.739-3.477 4.164-4.664 9.762-3.175 14.975 1.485 5.199 5.438 9.314 10.574 11.008zm4.114-16.37c7.047-8.439 16.073-14.741 26.843-18.747 0 0-3.952 26.603-3.953 26.603-.122.817-.937 1.315-1.716 1.057 0 0-20.415-6.73-20.59-6.788-.913-.301-1.193-1.395-.584-2.125z"/><path d="m44.726 449.791c14.931 11.12 33.26 17.717 52.359 17.717h260.092c4.142 0 7.5-3.358 7.5-7.5s-3.358-7.5-7.5-7.5c0 0-260.08 0-260.092 0-32.467 0-61.779-22.302-70.457-53.566 0 0-6.419-23.131-6.455-23.259-1.334-4.806 2.373-9.634 7.324-9.634h461.923c4.961 0 8.651 4.855 7.326 9.634 0 0-6.455 23.257-6.456 23.259-8.677 31.262-37.995 53.566-70.457 53.566h-32.658c-4.142 0-7.5 3.358-7.5 7.5s3.358 7.5 7.5 7.5h32.658c39.12 0 74.456-26.883 84.91-64.554 0 0 6.45-23.237 6.456-23.259 2.93-10.556-2.411-22.055-12.371-26.606 4.212-15.597 12.162-51.59 5.722-82.08-3.64-17.234-22.759-27.203-38.932-20.006-1.662.739-3.28 1.525-4.851 2.355-1.08-8.852-3.33-21.512-8.024-35.916-13.954-42.82-39.04-68.995-58.959-83.938 0 0 9.087-61.157 9.09-61.176 2.223-14.962-10.199-28.545-25.263-27.805-23.629 1.177-66.475 9.488-93.12 51.279-8.416-.672-17.15-1.012-26.032-1.012-51.368 0-95.74 11.957-131.885 35.54-3.469 2.263-4.446 6.91-2.183 10.379 2.264 3.469 6.91 4.447 10.379 2.183 33.666-21.965 75.281-33.102 123.689-33.102 10.071 0 19.929.457 29.3 1.356 3.069.293 5.912-1.312 7.31-3.892 21.698-37.111 57.256-46.454 83.288-47.75 5.753-.287 10.53 4.908 9.681 10.619l-9.723 65.437c-.512 2.824.638 5.758 3.06 7.465 26.855 18.927 46.014 45.362 56.944 78.57 8.24 25.038 8.44 44.735 8.442 44.931.034 6.148 7.364 9.694 12.185 5.837 3.687-2.95 7.983-5.525 12.769-7.654 7.589-3.376 16.462 1.362 18.16 9.401 5.996 28.39-2.434 63.846-6.062 76.942h-135.978c-2.38-15.507-12.243-37.83-38.538-44.404-4.015-1.002-8.09 1.439-9.094 5.457-1.005 4.018 1.438 8.09 5.457 9.094 18.944 4.736 24.97 20.355 26.889 29.852h-124.099c.087-7.862-.579-20.353-4.472-33.656-8.641-29.531-28.862-48.693-58.476-55.414-4.038-.916-8.056 1.614-8.973 5.654-.917 4.039 1.615 8.057 5.654 8.973 24.182 5.488 40.087 20.484 47.273 44.57 3.511 11.768 4.064 23.045 3.983 29.873h-158.34c.392-14.685 2.062-36.386 7.457-61.228l13.783-45.976c13.192-33.785 31.78-61.727 55.437-83.195 3.067-2.784 3.297-7.527.514-10.594-2.784-3.067-7.527-3.298-10.594-.514-23.646 21.456-42.522 48.802-56.345 81.492-5.572-2.941-13.546-7.861-19.643-14.499-3.716-4.046-9.293-5.575-14.555-3.99-5.246 1.58-9.04 5.919-9.901 11.325-6.139 38.53 11.567 58.261 25.631 67.619-5.019 24.86-6.506 46.366-6.816 60.803-4.143 1.432-7.811 4.06-10.561 7.678-4.311 5.67-5.691 12.859-3.786 19.722 0 0 6.454 23.255 6.455 23.259 5.254 18.934 17.079 35.315 32.551 46.838zm-28.912-221.885c7.934 8.194 17.666 13.945 24.037 17.181-1.374 3.789-7.776 24.251-9.336 30.419-15.418-13.161-16.833-32.358-14.701-47.6z"/></svg>