<svg id="Capa_1" enable-background="new 0 0 512 512" height="512" viewBox="0 0 512 512" width="512" xmlns="http://www.w3.org/2000/svg"><g fill="#f9496e"><path d="m360.061 362.396c5.17 6.148 9.844 12.759 13.97 19.816 12.813 21.917 19.866 48.438 13.593 73.58-4.289 17.19-15.292 32.677-29.69 42.902-4.324 3.071-9.775-1.875-7.22-6.522 6.69-12.167 11.286-25.806 10.787-39.833-.644-18.115-9.244-35.391-19.323-50.319-3.548-5.283-15.554-20.613-17.627-23.108z"/><path d="m397.822 320.5c6.936 4.052 13.561 8.706 19.82 13.966 19.436 16.333 34.995 38.939 37.54 64.727 1.74 17.631-3.415 35.916-13.537 50.387-3.039 4.345-9.836 1.521-8.992-3.715 2.21-13.708 1.953-28.098-3.233-41.141-6.697-16.844-20.605-30.223-35.116-40.893-5.118-3.783-21.579-14.184-24.37-15.836z"/><path d="m405.337 274.152c7.996.763 15.964 2.204 23.853 4.347 24.499 6.657 48.115 20.635 61.259 42.967 8.986 15.269 11.989 34.028 8.883 51.412-.933 5.22-8.287 5.512-9.721.407-3.753-13.368-10.032-26.319-20.217-35.976-13.154-12.472-31.395-18.77-49.046-22.357-6.234-1.282-25.541-3.806-28.768-4.133z"/><path d="m151.939 362.396c-5.17 6.148-9.844 12.759-13.97 19.816-12.813 21.917-19.866 48.438-13.593 73.58 4.289 17.19 15.292 32.677 29.69 42.902 4.324 3.071 9.775-1.875 7.22-6.522-6.69-12.167-11.286-25.806-10.787-39.833.644-18.115 9.244-35.391 19.323-50.319 3.548-5.283 15.554-20.613 17.627-23.108z"/><path d="m114.178 320.5c-6.936 4.052-13.561 8.706-19.82 13.966-19.436 16.333-34.995 38.939-37.54 64.727-1.74 17.631 3.415 35.916 13.537 50.387 3.039 4.345 9.836 1.521 8.992-3.715-2.21-13.708-1.953-28.098 3.233-41.141 6.697-16.844 20.605-30.223 35.116-40.893 5.118-3.783 21.579-14.184 24.37-15.836z"/><path d="m106.663 274.152c-7.996.763-15.964 2.204-23.853 4.347-24.499 6.657-48.115 20.635-61.259 42.967-8.986 15.269-11.989 34.028-8.883 51.412.933 5.22 8.287 5.512 9.721.407 3.753-13.368 10.032-26.319 20.217-35.976 13.154-12.472 31.395-18.77 49.046-22.357 6.234-1.282 25.541-3.806 28.768-4.133z"/><path d="m145.023 261.575c-32.751 1.009-58.886-8.707-77.68-28.878-34.875-37.43-29.264-96.917-29.008-99.431l37.267 3.741c-.043.451-4.061 45.395 19.244 70.265 11.263 12.019 27.299 17.536 49.024 16.867z"/><path d="m366.977 261.575c32.751 1.009 58.886-8.707 77.68-28.878 34.875-37.43 29.264-96.917 29.008-99.431l-37.267 3.741c.043.451 4.061 45.395-19.244 70.265-11.263 12.019-27.299 17.536-49.024 16.867z"/></g><path d="m120.421 310.818-13.758-36.667c-7.996.763-15.964 2.204-23.853 4.347-6.895 1.874-13.719 4.327-20.26 7.383-.352 3.463-.536 6.904-.536 10.313 0 9.03 1.208 17.891 3.59 26.538 8.365-3.545 17.279-5.999 26.049-7.781 6.233-1.282 25.541-3.806 28.768-4.133z" fill="#e3254c"/><path d="m114.178 320.5c-6.936 4.052-13.561 8.706-19.82 13.966-5.876 4.938-11.394 10.453-16.309 16.453.583.941 1.171 1.881 1.785 2.814 5.748 8.74 12.752 16.926 20.926 24.504 5.253-5.28 11.04-10.071 16.936-14.406 5.118-3.782 21.579-14.184 24.37-15.836z" fill="#e3254c"/><path d="m137.969 382.212c-3.221 5.51-6.078 11.312-8.451 17.309 10.048 5.966 20.891 11.157 32.357 15.526 2.443-4.501 5.132-8.858 7.946-13.026 3.548-5.283 15.555-20.613 17.627-23.108l-35.509-16.517c-5.17 6.147-9.844 12.758-13.97 19.816z" fill="#e3254c"/><path d="m374.031 382.212c-4.126-7.058-8.801-13.669-13.97-19.816l-35.51 16.517c2.073 2.495 14.079 17.825 17.627 23.108 2.814 4.168 5.503 8.524 7.946 13.026 11.466-4.369 22.309-9.559 32.357-15.526-2.372-5.997-5.228-11.799-8.45-17.309z" fill="#e3254c"/><path d="m417.642 334.466c-6.259-5.259-12.884-9.914-19.82-13.966l-27.889 27.494c2.791 1.652 19.252 12.054 24.37 15.836 5.896 4.335 11.682 9.126 16.935 14.406 8.174-7.578 15.179-15.764 20.926-24.504.614-.934 1.203-1.873 1.785-2.814-4.914-5.999-10.431-11.514-16.307-16.452z" fill="#e3254c"/><path d="m405.337 274.151-13.758 36.667c3.227.327 22.535 2.85 28.769 4.133 8.77 1.782 17.684 4.235 26.049 7.781 2.382-8.647 3.589-17.507 3.589-26.538 0-3.409-.184-6.85-.536-10.313-6.541-3.056-13.365-5.509-20.26-7.383-7.889-2.143-15.857-3.583-23.853-4.347z" fill="#e3254c"/><path d="m415.424 209.009c-11.156 10.804-26.652 15.765-47.293 15.129l-1.153 37.437c27.929.86 51.043-6.085 68.9-20.657-5.427-10.946-12.309-21.685-20.454-31.909z" fill="#e3254c"/><path d="m96.576 209.009c-8.146 10.224-15.028 20.963-20.454 31.909 17.857 14.572 40.971 21.517 68.901 20.657l-1.153-37.437c-20.642.636-36.138-4.325-47.294-15.129z" fill="#e3254c"/><path d="m92.014 296.194c0-58.252 73.419-135.438 163.986-135.438s163.986 77.186 163.986 135.438-73.419 105.475-163.986 105.475-163.986-47.223-163.986-105.475z" fill="#ff748f"/><path d="m122.014 296.194c0-54.999 65.451-126.863 148.986-134.72-4.941-.465-9.942-.718-15-.718-90.567 0-163.986 77.186-163.986 135.438s73.419 105.475 163.986 105.475c5.058 0 10.059-.156 15-.444-83.535-4.873-148.986-50.032-148.986-105.031z" fill="#f9496e"/><path d="m102.058 166.756c-2.768.597-5.604 1.05-8.489 1.346-42.9 4.412-81.243-26.791-85.653-69.68-4.41-42.889 26.78-81.242 69.68-85.653 27.837-2.863 53.775 9.283 69.739 29.889z" fill="#ff748f"/><path d="m163.249 82.449c4.114 40.004-22.752 76.062-61.191 84.307-8.633-11.139-14.357-24.751-15.905-39.803-4.114-40.004 22.742-76.05 61.181-84.295 8.643 11.128 14.367 24.739 15.915 39.791z" fill="#f9496e"/><path d="m409.942 166.756c2.768.597 5.604 1.05 8.489 1.346 42.9 4.412 81.243-26.791 85.653-69.68s-26.78-81.242-69.68-85.653c-27.837-2.863-53.775 9.283-69.739 29.889z" fill="#ff748f"/><path d="m348.751 82.449c-4.114 40.004 22.752 76.062 61.191 84.307 8.633-11.139 14.357-24.751 15.905-39.803 4.114-40.004-22.742-76.05-61.181-84.295-8.643 11.128-14.367 24.739-15.915 39.791z" fill="#f9496e"/><path d="m173.966 226.772v13.488c0 4.142 3.358 7.5 7.5 7.5 4.143 0 7.5-3.358 7.5-7.5v-13.488c0-4.142-3.357-7.5-7.5-7.5-4.141 0-7.5 3.358-7.5 7.5z"/><path d="m323.022 226.772v13.488c0 4.142 3.357 7.5 7.5 7.5 4.142 0 7.5-3.358 7.5-7.5v-13.488c0-4.142-3.358-7.5-7.5-7.5s-7.5 3.358-7.5 7.5z"/><path d="m268.742 234.385c-3.097 3.543-7.743 5.574-12.748 5.574s-9.651-2.032-12.748-5.574c-2.726-3.119-7.464-3.437-10.583-.71-3.119 2.726-3.437 7.464-.71 10.583 5.945 6.801 14.708 10.702 24.041 10.702s18.096-3.901 24.041-10.702c2.726-3.119 2.408-7.857-.711-10.583-3.118-2.727-7.856-2.408-10.582.71z"/><path d="m435.167 5.343c-29.606-3.048-58.177 9.197-76.437 32.758-9.773 12.586-15.805 27.668-17.445 43.616-4.475 43.514 24.356 83.236 67.072 92.406 1.11.239 16.617 3.12 16.945 1.914-2.967 10.861-7.528 19.634-13.625 26.141-5.595 5.971-12.548 10.015-21.159 12.302-11.585-12.696-25.47-24.308-41.081-33.933-3.526-2.174-8.147-1.078-10.32 2.448-2.174 3.526-1.078 8.147 2.448 10.321 30.755 18.961 59.255 48.82 68.457 84.631 13.121 51.07-36.937 89.819-79.653 104.395-.206.07-.403.159-.6.246-22.436 7.589-47.6 11.618-73.775 11.618-53.685 0-132.45-18.977-152.753-76.68-13.895-39.491 13.283-79.732 41.8-105.272 31.654-28.349 71.057-43.962 110.953-43.962 20.372 0 40.643 4.076 60.251 12.114 3.833 1.571 8.213-.262 9.785-4.095 1.571-3.833-.262-8.213-4.094-9.784-21.423-8.782-43.608-13.235-65.941-13.235-43.594 0-86.552 16.971-120.96 47.789-4.817 4.314-9.335 8.798-13.539 13.407-8.622-2.285-15.583-6.332-21.184-12.309-6.097-6.507-10.658-15.28-13.625-26.141 2.53-.035 5.081-.175 7.644-.438 46.473-4.781 81.152-47.411 76.373-93.882-4.778-46.465-47.499-81.154-93.882-76.374-13.747 1.414-27.08 6.193-38.557 13.821-3.45 2.293-4.388 6.948-2.095 10.398s6.948 4.389 10.398 2.095c9.594-6.377 20.29-10.21 31.789-11.393 20.601-2.115 40.593 4.737 55.381 18.599-1.019-.955-11.636 5.372-12.954 6.14-28.422 16.559-45.197 48.943-42.184 81.851 1.091 11.914 4.738 23.668 10.603 34.101-37.039 1.923-70.047-26.431-73.835-63.265-1.701-16.547 2.526-33.226 11.903-46.965 2.335-3.421 1.455-8.088-1.967-10.423s-8.087-1.454-10.423 1.967c-11.371 16.661-16.497 36.889-14.434 56.955 2.37 23.047 13.738 43.026 30.243 56.834 1.478 24.367 8.24 57.19 31.158 81.786 8.657 9.291 18.86 16.593 30.402 21.788-1.325 3.253-2.486 6.505-3.48 9.748-2.666.571-5.322 1.206-7.934 1.916-29.513 8.019-52.866 24.498-65.756 46.401-9.704 16.488-13.276 37.094-9.803 56.535 1.027 5.75 5.818 9.963 11.652 10.247 5.791.284 11.106-3.55 12.672-9.131 3.897-13.878 10.005-24.833 18.157-32.562 9.497-9.005 23.116-15.442 41.57-19.63.532 1.458 1.103 2.907 1.721 4.345-.521.423-1.028.842-1.524 1.258-23.413 19.675-37.682 44.44-40.179 69.732-1.879 19.039 3.535 39.24 14.855 55.423 3.273 4.68 9.588 6.548 14.879 4.403 5.448-2.209 8.6-7.805 7.664-13.609-2.293-14.23-1.353-26.738 2.798-37.177 5.164-12.988 15.824-25.295 32.605-37.633.39-.288.988-.716 1.852-1.314 2.961 2.337 6.08 4.605 9.35 6.799-.639 1.029-1.264 2.055-1.862 3.078-15.435 26.402-20.547 54.523-14.395 79.181 4.631 18.562 16.523 35.767 32.624 47.203 4.617 3.279 11.153 3.013 15.492-.856 4.389-3.912 5.476-10.242 2.643-15.395-6.945-12.63-10.264-24.726-9.864-35.953.496-13.967 6.398-29.141 18.054-46.404 1.05-1.563 3.087-4.34 5.861-7.994 22.833 7.168 48.028 10.961 74.093 10.961 26.064 0 51.259-3.792 74.092-10.961 2.758 3.636 4.831 6.46 5.872 8.009 11.645 17.247 17.547 32.421 18.044 46.389.399 11.226-2.919 23.322-9.864 35.953-2.833 5.152-1.746 11.483 2.642 15.394 4.169 3.716 10.708 4.255 15.493.857 16.102-11.436 27.993-28.641 32.624-47.202 6.153-24.658 1.041-52.779-14.395-79.182-.598-1.023-1.223-2.049-1.861-3.078 3.27-2.195 6.389-4.462 9.35-6.799.867.6 1.47 1.031 1.866 1.324 16.766 12.328 27.426 24.634 32.59 37.622 4.151 10.439 5.092 22.947 2.797 37.177-.936 5.805 2.217 11.401 7.666 13.61 5.344 2.165 11.59.298 14.878-4.403 11.319-16.183 16.735-36.384 14.856-55.423-2.497-25.292-16.766-50.056-40.18-69.733-.496-.417-1.003-.835-1.523-1.258.619-1.438 1.189-2.888 1.722-4.346 18.444 4.184 32.069 10.623 41.569 19.63 8.151 7.73 14.261 18.685 18.157 32.562 1.556 5.541 6.926 9.413 12.673 9.131 5.834-.283 10.626-4.497 11.652-10.246 3.474-19.442-.1-40.048-9.803-56.536-12.89-21.903-36.243-38.381-65.756-46.4-2.607-.709-5.258-1.343-7.919-1.914-.994-3.249-2.168-6.503-3.489-9.753 11.54-5.194 21.741-12.496 30.397-21.786 22.918-24.597 29.68-57.422 31.158-81.789 16.504-13.808 27.872-33.786 30.242-56.832 2.338-22.737-4.317-45.024-18.741-62.756-14.429-17.731-34.896-28.785-57.637-31.123zm-330.006 152.945c-.01-.014-.02-.028-.029-.042-10.032-14.931-13.998-33.857-10.831-51.558 3.803-21.258 17.547-40.202 36.703-50.216 1.181-.618 12.554-6.269 13.232-5.26 6.391 9.521 10.36 20.503 11.546 32.04 3.524 34.275-18.002 65.698-50.621 75.036zm-32.339 69.332c-16.91-18.149-23.517-42.402-26.017-60.868 1.436.732 2.9 1.411 4.375 2.06 6.233 2.742 12.967 4.803 19.743 5.981 3.47 15.628 9.662 28.272 18.443 37.643 6.004 6.407 13.306 11.248 21.797 14.467-4.743 6.273-8.907 12.701-12.454 19.193-9.845-4.386-18.532-10.582-25.887-18.476zm-35.383 104.282c-7.72 7.319-13.905 16.743-18.465 28.111-.104-12.28 3.017-24.483 9.033-34.706 10.893-18.508 31.051-32.548 56.763-39.534.147-.04.294-.08.442-.119-.005.043-.009.086-.015.13-1.011 7.495-.9 15.333.322 22.857-20.906 4.807-36.666 12.439-48.08 23.261zm38.165 70.089c-3.93 9.885-5.584 21.035-4.947 33.266-5.253-11.101-7.547-23.485-6.382-35.29 2.079-21.063 14.15-41.969 34.025-58.978 3.932 6.051 8.677 11.866 14.198 17.391-18.67 13.867-30.743 28.14-36.894 43.611zm87.989-4.121c-13.261 19.642-19.998 37.383-20.597 54.24-.377 10.632 1.813 21.689 6.526 32.993-8.678-8.688-15.004-19.581-17.876-31.09-5.198-20.837-.656-44.979 12.791-67.98.557-.952 1.133-1.907 1.731-2.869 6.631 3.637 13.625 6.914 20.924 9.822-1.401 1.889-2.647 3.615-3.499 4.884zm192.614-314.619c1.187-11.538 5.156-22.519 11.546-32.04 16.002 4.577 30.182 14.891 39.319 28.827 15.3 23.335 15.42 54.517.028 77.832-.082.124-.16.251-.243.374-.009.014-.02.028-.029.042-32.62-9.336-54.145-40.759-50.621-75.035zm24.136 370.763c-2.872 11.51-9.196 22.401-17.876 31.09 4.712-11.305 6.904-22.363 6.525-32.994-.599-16.859-7.338-34.604-20.592-54.234-.853-1.27-2.101-2.999-3.502-4.889 7.299-2.907 14.292-6.185 20.924-9.822.598.962 1.174 1.916 1.731 2.869 13.446 23.002 17.988 47.144 12.79 67.98zm67.371-54.047c1.165 11.806-1.129 24.189-6.382 35.29.637-12.231-1.017-23.382-4.947-33.267-6.153-15.475-18.23-29.75-36.894-43.611 5.521-5.524 10.267-11.339 14.198-17.391 19.875 17.01 31.946 37.916 34.025 58.979zm-20.937-114.313c.147.04.295.08.442.12 25.711 6.986 45.87 21.026 56.761 39.534 6.018 10.224 9.138 22.426 9.034 34.706-4.56-11.367-10.745-20.791-18.465-28.111-11.417-10.826-27.185-18.459-48.081-23.262.328-2.021.58-4.053.747-6.098.004-.043.009-.086.012-.129.073-.909.128-1.821.168-2.735.006-.133.017-.266.022-.398.04-1.014.063-2.03.063-3.049 0-1.089-.032-2.19-.079-3.296-.016-.386-.037-.772-.058-1.158-.041-.708-.092-1.418-.151-2.132-.098-1.204-.224-2.413-.374-3.625-.015-.123-.025-.245-.041-.367zm38.406-118.902c-2.5 18.466-9.108 42.72-26.017 60.868-7.349 7.887-16.027 14.078-25.861 18.464-3.556-6.515-7.725-12.943-12.449-19.193 8.479-3.219 15.771-8.056 21.767-14.455 8.781-9.371 14.972-22.016 18.443-37.643.25-.043.498-.099.747-.144 8.107-1.487 16.026-4.154 23.37-7.897zm31.436-69.062c-3.247 31.579-26.957 56.186-56.599 62.031-.128.025-.257.051-.386.075-5.449 1.043-11.095 1.456-16.849 1.159.089-.158.166-.321.254-.48 21.712-39.147 7.857-91.62-30.515-114.711-1.379-.83-13.074-8.025-14.271-6.902 14.788-13.859 34.783-20.715 55.38-18.599 18.755 1.929 35.635 11.045 47.531 25.67 11.895 14.625 17.384 33.005 15.455 51.757z"/></svg>