<svg id="Capa_1" enable-background="new 0 0 512 512" height="512" viewBox="0 0 512 512" width="512" xmlns="http://www.w3.org/2000/svg"><path d="m256 327.22-152.167 34.77 22.333 100.666c5.424 24.447 27.103 41.844 52.145 41.844h155.379c25.042 0 46.721-17.397 52.145-41.844l22.333-100.666z" fill="#f59e18"/><path d="m156.166 462.656-22.333-100.666 137.167-31.342-15-3.427-152.167 34.769 22.333 100.666c5.424 24.447 27.103 41.844 52.145 41.844h30c-25.042 0-46.722-17.397-52.145-41.844z" fill="#ec8d00"/><path d="m421.04 181.164-.009-.018.009-.018c11.713-24.769 4.979-54.336-16.305-71.59l-.005-.004-.001-.077c-.238-27.365-19.127-51.031-45.758-57.331l-.08-.019-.003-.007c-12.064-24.602-39.382-37.771-66.143-31.884h-.001l-.088-.069c-21.528-16.864-51.784-16.864-73.312 0l-.088.069c-26.761-5.887-54.08 7.281-66.144 31.884l-.003.007-.08.019c-26.631 6.299-45.52 29.966-45.758 57.331l-.001.077-.005.004c-21.284 17.254-28.018 46.821-16.305 71.59l.009.018-.009.018c-11.713 24.769-4.979 54.336 16.305 71.59l.005.004.001.077c.238 27.365 19.127 51.031 45.758 57.331l.08.019.003.007c12.064 24.602 39.382 37.771 66.143 31.884h.001l.088.069c21.528 16.864 51.784 16.864 73.312 0l.088-.069c26.761 5.887 54.08-7.281 66.144-31.884l.003-.006.08-.019c26.631-6.299 45.52-29.966 45.758-57.331l.001-.077.005-.004c21.285-17.255 28.019-46.822 16.305-71.591z" fill="#00cd8c"/><path d="m183.111 320.191-.003-.007-.08-.019c-26.631-6.3-45.52-29.966-45.758-57.331l-.001-.077-.005-.004c-21.285-17.254-28.019-46.821-16.305-71.59l.009-.018-.009-.018c-11.713-24.769-4.979-54.336 16.305-71.59l.005-.004.001-.077c.238-27.365 19.127-51.031 45.758-57.331l.08-.019.003-.007c12.064-24.603 39.383-37.771 66.144-31.884l.088-.069c11.629-9.109 25.803-13.288 39.774-12.556-21.212-14.249-49.399-13.404-69.774 2.556l-.088.069c-26.761-5.887-54.08 7.281-66.144 31.884l-.003.007-.08.019c-26.631 6.299-45.52 29.966-45.758 57.331l-.001.077-.005.004c-21.284 17.254-28.018 46.821-16.305 71.59l.009.018-.009.018c-11.713 24.769-4.979 54.336 16.305 71.59l.005.004.001.077c.238 27.364 19.127 51.031 45.758 57.331l.08.019.003.007c9.669 19.718 29.137 32.079 50.263 33.185-8.46-5.671-15.535-13.545-20.263-23.185z" fill="#00a45b"/><path d="m408.167 292.451h-304.334c-10.263 0-18.582 8.32-18.582 18.582v32.374c0 10.263 8.32 18.582 18.582 18.582h304.335c10.263 0 18.582-8.32 18.582-18.582v-32.374c0-10.263-8.32-18.582-18.583-18.582z" fill="#fab659"/><path d="m115.25 343.407v-32.374c0-10.263 8.32-18.583 18.582-18.583h-30c-10.263 0-18.582 8.32-18.582 18.583v32.374c0 10.263 8.32 18.582 18.582 18.582h30c-10.262.001-18.582-8.319-18.582-18.582z" fill="#f59e18"/><path d="m171.715 150.273c-4.142 0-7.499 3.358-7.499 7.499v15.254c0 4.142 3.358 7.499 7.499 7.499s7.499-3.358 7.499-7.499v-15.254c0-4.141-3.358-7.499-7.499-7.499z"/><path d="m340.286 150.273c-4.142 0-7.499 3.358-7.499 7.499v15.254c0 4.142 3.358 7.499 7.499 7.499 4.142 0 7.499-3.358 7.499-7.499v-15.254c.001-4.141-3.357-7.499-7.499-7.499z"/><path d="m281.739 166.319c-3.118-2.725-7.856-2.409-10.582.711-3.689 4.22-9.213 6.64-15.156 6.64s-11.468-2.42-15.157-6.64c-2.726-3.118-7.464-3.437-10.582-.71-3.118 2.726-3.437 7.463-.711 10.582 6.538 7.478 16.178 11.768 26.449 11.768 10.272 0 19.912-4.289 26.449-11.768 2.727-3.12 2.408-7.858-.71-10.583z"/><path d="m412.104 106.012c-1.665-28.275-20.864-52.35-48.107-60.279-13.761-24.762-41.484-38.127-69.427-33.471-23.153-16.349-53.981-16.351-77.138 0-27.959-4.661-55.693 8.719-69.428 33.468-27.205 7.896-46.42 31.961-48.104 60.276-21.064 18.943-27.901 48.953-17.116 75.162-10.781 26.186-3.961 56.181 17.115 75.159.603 10.117 3.499 19.887 8.395 28.64h-4.45c-14.381 0-26.08 11.699-26.08 26.08v32.372c0 12.25 8.492 22.549 19.896 25.334l21.194 95.531c2.991 13.483 10.571 25.669 21.342 34.313 10.771 8.643 24.31 13.403 38.121 13.403h98.878c4.142 0 7.499-3.358 7.499-7.499 0-4.142-3.358-7.499-7.499-7.499h-98.878c-21.691 0-40.122-14.79-44.82-35.966l-20.308-91.536h285.623l-20.307 91.535c-4.698 21.176-23.129 35.966-44.82 35.966h-26.492c-4.142 0-7.499 3.358-7.499 7.499 0 4.142 3.358 7.499 7.499 7.499h26.492c13.811 0 27.349-4.76 38.12-13.404 10.772-8.644 18.351-20.83 21.342-34.313l21.194-95.531c11.405-2.784 19.897-13.084 19.897-25.334v-32.372c0-14.381-11.7-26.08-26.081-26.08h-4.45c4.889-8.744 7.785-18.507 8.393-28.634 21.062-18.942 27.902-48.947 17.117-75.163 10.781-26.182 3.959-56.178-17.113-75.156zm-12.053 140.895c-1.758 1.398-2.801 3.516-2.83 5.774 0 .01-.001.097-.001.107-.102 11.761-4.177 23.068-11.541 32.179h-180.26c-4.142 0-7.499 3.358-7.499 7.499 0 4.142 3.358 7.499 7.499 7.499h202.738c6.11 0 11.082 4.971 11.082 11.081v32.372c0 6.11-4.971 11.082-11.082 11.082h-304.313c-6.11 0-11.081-4.971-11.081-11.082v-32.372c0-6.11 4.971-11.081 11.081-11.081h71.578c4.142 0 7.499-3.358 7.499-7.499 0-4.142-3.358-7.499-7.499-7.499h-49.099c-7.363-9.111-11.439-20.422-11.542-32.239-.014-2.244-1.038-4.368-2.782-5.782-18.654-15.122-24.513-40.844-14.247-62.553.022-.048.053-.114.074-.163.894-1.999.862-4.306-.074-6.286-10.266-21.709-4.408-47.432 14.247-62.553.11-.089.223-.186.327-.282 1.539-1.399 2.428-3.374 2.454-5.453 0-.01.001-.097.001-.107.208-23.975 16.649-44.575 40.038-50.107 2.192-.511 4.043-1.987 5.034-4.009 10.573-21.563 34.34-33.018 57.794-27.859 2.189.483 4.477-.041 6.24-1.424l.084-.066c18.858-14.772 45.2-14.772 64.07.009l.089.069c1.762 1.374 4.043 1.893 6.225 1.412 23.455-5.156 47.221 6.296 57.824 27.918.991 1.982 2.807 3.424 4.963 3.94.006.001.092.022.098.024 23.332 5.519 39.774 26.118 39.982 50.153.014 2.245 1.038 4.369 2.782 5.782 18.654 15.121 24.513 40.844 14.237 62.574-.958 2.029-.949 4.399.01 6.427 10.255 21.691 4.416 47.388-14.2 62.515z"/></svg>