<svg id="Capa_1" enable-background="new 0 0 512 512" height="512" viewBox="0 0 512 512" width="512" xmlns="http://www.w3.org/2000/svg"><path d="m20.832 246.719 15.957 87.637c3.604 19.791 13.793 37.782 28.914 51.05 16.267 14.274 37.171 22.145 58.813 22.145h262.97c21.642 0 42.545-7.871 58.813-22.145 15.12-13.268 25.31-31.259 28.914-51.05l15.957-87.637-235.17-26.165z" fill="#fab659"/><path d="m470.613 177.611c-1.741-17.417-17.505-29.967-34.869-27.759-10.693 1.36-21.328-2.915-28.106-11.296l-8.013-9.909c-9.026-11.162-24.519-14.696-37.493-8.552l-5.067 2.4c-11.211 5.309-24.505 3.448-33.827-4.735l-6.361-5.583c-10.611-9.315-26.166-10.312-37.88-2.429l-5.632 3.79c-10.498 7.065-24.23 7.064-34.727-.001l-5.63-3.789c-11.714-7.883-27.268-6.886-37.88 2.428l-6.364 5.586c-9.322 8.182-22.615 10.043-33.826 4.734l-5.07-2.401c-12.974-6.143-28.466-2.61-37.493 8.552l-8.015 9.911c-6.778 8.381-17.412 12.655-28.105 11.296-17.364-2.208-33.129 10.344-34.869 27.761l214.614 42.939z" fill="#f4e64c"/><path d="m20.832 246.719 7.518 41.289c9.022 3.607 18.677 5.485 28.493 5.485 14.457 0 28.571-4.062 40.817-11.747 2.677-1.68 5.762-2.568 8.923-2.568s6.247.888 8.923 2.568c12.246 7.685 26.359 11.747 40.816 11.747s28.571-4.062 40.816-11.746c2.677-1.68 5.763-2.568 8.924-2.568s6.246.888 8.923 2.568c12.246 7.685 26.359 11.746 40.816 11.746s28.571-4.062 40.816-11.746c2.677-1.68 5.763-2.568 8.924-2.568s6.246.888 8.923 2.568c12.246 7.685 26.359 11.746 40.816 11.746s28.571-4.062 40.816-11.746c2.677-1.68 5.763-2.568 8.924-2.568s6.246.888 8.923 2.568c12.246 7.685 26.36 11.747 40.817 11.747 9.971 0 19.778-1.934 28.921-5.653l7.487-41.121-235.168-26.166z" fill="#f59e18"/><path d="m470.278 177.614h-428.554c-18.718 0-33.962 15.038-34.219 33.753v.003c-.25 18.231 9.024 35.274 24.468 44.966 15.207 9.543 34.533 9.543 49.74 0 15.207-9.543 34.533-9.543 49.74 0 15.207 9.543 34.533 9.543 49.74 0 15.207-9.543 34.533-9.543 49.74 0 15.207 9.543 34.533 9.543 49.74 0 15.207-9.543 34.533-9.543 49.74 0 15.207 9.543 34.533 9.543 49.74 0 15.207-9.543 34.533-9.543 49.74 0 15.207 9.543 34.533 9.543 49.74 0l.397-.249c15.228-9.557 24.473-26.272 24.473-44.25-.003-18.901-15.325-34.223-34.225-34.223z" fill="#fab659"/><path d="m156.716 312.927v16.611c0 4.142 3.358 7.5 7.5 7.5s7.5-3.358 7.5-7.5v-16.611c0-4.142-3.358-7.5-7.5-7.5s-7.5 3.358-7.5 7.5z"/><path d="m355.284 329.538v-16.611c0-4.142-3.358-7.5-7.5-7.5s-7.5 3.358-7.5 7.5v16.611c0 4.142 3.358 7.5 7.5 7.5s7.5-3.358 7.5-7.5z"/><path d="m283.59 322.736c-3.118-2.727-7.857-2.409-10.583.71-4.144 4.74-10.343 7.458-17.007 7.458-6.665 0-12.864-2.719-17.007-7.458-2.727-3.119-7.464-3.437-10.583-.71-3.119 2.726-3.437 7.464-.71 10.583 6.992 7.999 17.307 12.586 28.3 12.586s21.308-4.587 28.3-12.586c2.727-3.119 2.408-7.857-.71-10.583z"/><path d="m476.937 170.648c-2.115-7.923-6.677-14.932-13.229-20.148-8.22-6.544-18.488-9.419-28.911-8.093-14.063 1.789-21.564-8.863-29.342-18.481-11.241-13.901-30.377-18.266-46.535-10.614-14.754 6.986-24.981 3.858-37.097-6.778-13.157-11.548-32.49-12.788-47.015-3.014-13.407 9.021-23.896 9.232-37.613 0-14.524-9.774-33.858-8.535-47.016 3.014-11.991 10.524-21.801 14.023-37.102 6.777-16.157-7.652-35.292-3.286-46.534 10.614-7.838 9.692-15.22 20.277-29.342 18.483-10.423-1.328-20.69 1.549-28.911 8.094-6.553 5.217-11.116 12.229-13.23 20.153-19.582 3.191-34.776 20.18-35.056 40.605v.032c-.188 14.327 4.892 28.168 13.852 38.983 0 0 15.553 85.42 15.553 85.421 8.263 45.385 48.982 79.351 95.105 79.351h198.983c4.142 0 7.5-3.358 7.5-7.5s-3.358-7.5-7.5-7.5c0 0-198.92 0-198.983 0-38.977 0-73.368-28.704-80.348-67.039l-12.411-68.168c.08.042.164.075.244.117 16.771 8.589 37.73 7.745 53.699-2.274 12.687-7.961 29.082-7.96 41.766 0 17.53 11 40.183 11.001 57.713 0 12.686-7.961 29.081-7.961 41.766 0 17.294 10.853 40.423 10.849 57.713 0 12.686-7.961 29.081-7.961 41.766 0 17.529 11.001 40.183 11.001 57.713 0 14.89-9.344 30.297-6.089 44.737 1.726 15.607 8.447 35.616 8.591 51.412.199 0 0-12.451 68.384-12.454 68.399-6.98 38.338-41.395 67.039-80.348 67.039h-33.987c-4.142 0-7.5 3.358-7.5 7.5s3.358 7.5 7.5 7.5h33.987c46.138 0 86.846-33.987 95.105-79.352l15.585-85.594c8.843-10.568 13.825-23.997 13.825-38.27.003-20.737-15.209-37.984-35.06-41.182zm-57.029 73.218c-14.54-4.007-30.785-2.019-43.744 6.113-12.447 7.811-29.144 7.921-41.767 0-17.529-11.001-40.184-11.001-57.713 0-12.449 7.813-29.134 7.927-41.766 0-17.346-10.886-40.358-10.889-57.713 0-12.685 7.961-29.08 7.961-41.766 0-17.531-11.001-40.184-11-57.713 0-9.514 5.971-21.115 7.463-31.672 4.478-18.59-5.257-31.309-23.981-31.049-43.008.206-14.43 12.035-26.178 26.434-26.332h.06l105.845-.007c4.142 0 7.5-3.358 7.5-7.5s-3.358-7.5-7.5-7.5h-96.119c1.513-3.02 3.68-5.7 6.408-7.873 5.026-4.001 11.306-5.755 17.676-4.949 13.366 1.701 26.409-3.541 34.882-14.02 9.312-11.515 20.003-24.248 36.465-16.401 20.318 9.685 37.273 5.11 53.418-9.06 8.045-7.061 19.865-7.818 28.744-1.843 18.43 12.401 36.266 12.179 54.365.001 8.879-5.976 20.699-5.217 28.743 1.842 16.486 14.468 33.511 18.485 53.414 9.062 9.88-4.679 21.579-2.009 28.451 6.489 11.388 14.083 23.043 26.445 42.897 23.929 9.79-1.241 19.668 4.002 24.087 12.823h-283.433c-4.142 0-7.5 3.358-7.5 7.5s3.358 7.5 7.5 7.5h292.865s.274.007.297.006c14.63.123 26.496 12.057 26.496 26.716 0 22.888-18.785 44.118-42.24 44.118-13.396 0-22.548-8.694-34.852-12.084z"/></svg>