<svg id="Capa_1" enable-background="new 0 0 512 512" height="512" viewBox="0 0 512 512" width="512" xmlns="http://www.w3.org/2000/svg"><g fill="#f9496e"><path d="m238.5 120.658h35v135.242h-35z"/><path d="m147.162 100.658h35v155.242h-35z"/><path d="m329.838 100.658h35v155.242h-35z"/></g><path d="m329.838 159.92c12.137-2.088 23.852-4.692 35-7.789v-51.473h-35z" fill="#e3254c"/><path d="m238.5 165.711c5.796.22 11.632.338 17.5.338s11.704-.118 17.5-.338v-45.053h-35z" fill="#e3254c"/><path d="m147.162 152.13c11.148 3.097 22.863 5.701 35 7.789v-59.262h-35z" fill="#e3254c"/><path d="m416.98 42.62c0 12.937-15.668 27.412-41.911 38.719-31.527 13.584-73.814 21.064-119.069 21.064s-87.542-7.481-119.069-21.064c-26.244-11.307-41.911-25.781-41.911-38.719h-33.646c0 27.601 22.105 52.325 62.244 69.619 35.638 15.354 82.652 23.81 132.383 23.81s96.745-8.456 132.383-23.81c40.139-17.294 62.244-42.018 62.244-69.619z" fill="#ff748f"/><path d="m58.948 42.62c0 12.937-15.668 27.412-41.911 38.719-3.078 1.326-6.261 2.592-9.537 3.8v35.518c8.029-2.52 15.673-5.327 22.85-8.419 40.139-17.293 62.244-42.017 62.244-69.618z" fill="#ff748f"/><path d="m453.052 42.62c0 12.937 15.668 27.412 41.911 38.719 3.078 1.326 6.261 2.592 9.537 3.8v35.518c-8.029-2.52-15.673-5.327-22.85-8.419-40.139-17.294-62.244-42.018-62.244-69.619h33.646z" fill="#ff748f"/><path d="m86.637 23.608h-19.307c-5.287 0-9.573 4.286-9.573 9.572v324.806h38.453v-324.805c0-5.287-4.286-9.573-9.573-9.573z" fill="#f9496e"/><path d="m425.363 23.608h19.308c5.287 0 9.573 4.286 9.573 9.572v324.806h-38.454v-324.805c0-5.287 4.286-9.573 9.573-9.573z" fill="#f9496e"/><path d="m7.5 340.073c22.765-9.239 48.235-9.239 71 0 22.765 9.239 48.235 9.239 71 0 22.765-9.239 48.235-9.239 71 0 22.765 9.239 48.235 9.239 71 0 22.765-9.239 48.235-9.239 71 0 22.765 9.239 48.235 9.239 71 0 22.765-9.239 48.235-9.239 71 0v74.159l-248.5 33.615-248.5-33.615z" fill="#78cbec"/><path d="m7.5 488.392h497v-74.159c-22.765-9.239-48.235-9.239-71 0-22.765 9.239-48.235 9.239-71 0-22.765-9.239-48.235-9.239-71 0-22.765 9.239-48.235 9.239-71 0-22.765-9.239-48.235-9.239-71 0-22.765 9.239-48.235 9.239-71 0-22.765-9.239-48.235-9.239-71 0z" fill="#00acdc"/><path d="m415.79 271.2h38.453v52.913h-38.453z" fill="#e3254c"/><path d="m57.757 271.2h38.453v52.913h-38.453z" fill="#e3254c"/><path d="m9.974 231.2h492.052v62.912h-492.052z" fill="#ff748f"/><path d="m182.162 244.909c-4.142 0-7.5 3.358-7.5 7.5v13.363c0 4.142 3.358 7.5 7.5 7.5s7.5-3.358 7.5-7.5v-13.363c0-4.142-3.358-7.5-7.5-7.5z"/><path d="m329.838 244.909c-4.142 0-7.5 3.358-7.5 7.5v13.363c0 4.142 3.358 7.5 7.5 7.5s7.5-3.358 7.5-7.5v-13.363c0-4.142-3.358-7.5-7.5-7.5z"/><path d="m279.16 259.195c-3.118-2.725-7.856-2.409-10.583.711-3.055 3.495-7.639 5.499-12.577 5.499s-9.522-2.004-12.577-5.499c-2.726-3.12-7.465-3.438-10.583-.711-3.119 2.726-3.438 7.464-.711 10.583 5.903 6.754 14.604 10.628 23.871 10.628s17.967-3.874 23.871-10.627c2.726-3.119 2.408-7.858-.711-10.584z"/><path d="m507.096 78.103c-15.334-5.658-38.059-14.506-45.353-30.644v-14.278c0-9.414-7.659-17.073-17.073-17.073h-19.308c-9.414 0-17.072 7.659-17.072 17.073v14.278c-4.018 8.889-17.39 18.892-36.188 26.992-5.273 2.272-11.005 4.417-17.037 6.374-3.94 1.278-6.098 5.508-4.819 9.448 1.278 3.94 5.509 6.099 9.448 4.819 17.178-5.572 34.638-12.964 48.596-24.671v22.97c-6.778 4.318-14.455 8.333-22.875 11.961-40.466 17.434-85.661 23.198-129.415 23.198-43.737 0-88.968-5.772-129.415-23.198-8.422-3.629-16.098-7.643-22.875-11.961v-22.97c7.67 6.434 17.888 12.479 30.253 17.806 32.443 13.979 75.783 21.677 122.037 21.677 26.065 0 51-2.389 74.112-7.101 4.059-.827 6.678-4.788 5.851-8.847s-4.789-6.676-8.847-5.851c-22.129 4.511-46.056 6.798-71.116 6.798-44.259 0-85.491-7.263-116.102-20.452-18.799-8.099-32.171-18.103-36.188-26.992v-14.278c0-9.414-7.659-17.073-17.073-17.073h-19.307c-9.414 0-17.073 7.659-17.073 17.073v14.278c-4.018 8.889-17.389 18.893-36.188 26.992-2.9 1.25-5.984 2.479-9.165 3.652-2.947 1.087-4.904 3.896-4.904 7.037v35.518c0 4.977 4.996 8.647 9.746 7.156 13.986-4.39 27.685-9.862 40.511-16.993v112.88h-40.283c-4.142 0-7.5 3.358-7.5 7.5v62.913c0 4.142 3.358 7.5 7.5 7.5h40.283v24.251c-15.377-1.109-30.918 1.31-45.578 7.26-2.828 1.147-4.679 3.895-4.679 6.948v74.159 74.159c0 4.142 3.358 7.5 7.5 7.5h497c4.142 0 7.5-3.358 7.5-7.5v-74.159-74.159c0-3.053-1.851-5.801-4.68-6.95-14.659-5.949-30.201-8.369-45.578-7.259v-24.251h40.283c4.142 0 7.5-3.358 7.5-7.5v-62.913c0-4.142-3.358-7.5-7.5-7.5h-40.283v-112.88c5.292 2.942 10.945 5.724 16.94 8.307 7.31 3.149 15.241 6.072 23.57 8.686 4.768 1.497 9.747-2.181 9.747-7.155v-35.518c.001-3.141-1.956-5.95-4.903-7.037zm-115.745 41.024c5.995-2.583 11.647-5.364 16.939-8.306v112.88h-35.952v-97.363c6.623-2.208 12.977-4.611 19.013-7.211zm-110.351 104.574v-80.866c14.187-.811 28.034-2.31 41.338-4.46v85.326zm-91.338 0v-85.326c13.304 2.149 27.151 3.649 41.338 4.46v80.866zm-35-92.829c.071.019.143.037.213.056 6.539 1.788 13.147 3.341 19.787 4.706v88.066h-20zm91.338 12.563c6.557 0 13.348.15 20 0v80.266h-20zm91.351-7.803c6.637-1.363 13.238-2.921 19.775-4.704.07-.019.142-.037.212-.056v92.829h-20s0-88.067.013-88.069zm-216.702-16.505c6.035 2.6 12.39 5.003 19.013 7.21v97.363h-35.952v-112.88c5.291 2.943 10.944 5.724 16.939 8.307zm-93.266-13.776c-3.94 1.698-8.081 3.327-12.383 4.875v-19.928c12.513-4.974 24.888-11.179 35.257-19.876v22.97c-6.778 4.317-14.454 8.332-22.874 11.959zm37.874-72.17c0-1.143.93-2.073 2.073-2.073h19.307c1.143 0 2.073.93 2.073 2.073v190.52h-23.453zm0 268.432h23.453v34.121c-3.868-1.181-7.591-2.77-11.395-4.134-3.97-1.423-7.995-2.594-12.058-3.51zm-50.257 179.279v-61.442c19.567-6.681 41.524-6.044 60.68 1.732 24.711 10.031 51.93 10.029 76.641 0 21.074-8.553 44.286-8.552 65.359 0 24.711 10.031 51.93 10.029 76.641 0 21.074-8.553 44.286-8.552 65.359 0 24.457 9.93 52.181 9.928 76.641 0 19.167-7.779 41.102-8.416 60.68-1.732v61.441h-482.001zm482-135.617v58.44c-.126-.036-.253-.065-.38-.101-21.61-6.122-45.087-4.785-65.892 3.649-.016.006-.033.012-.049.019-25.043 10.164-49.006 4.632-73.828-3.009-22.247-6.849-46.607-5.743-68.172 3.009-20.862 8.467-44.495 8.468-65.359 0-20.531-8.334-43.502-9.779-64.893-3.966-8.084 2.197-15.654 5.871-23.799 7.875-17.652 4.343-36.185 3.04-53.308-3.909-20.981-8.515-44.551-9.847-66.32-3.567v-58.44c13.29-4.539 27.285-5.751 40.958-3.67 7.155 1.089 14 3.148 20.717 5.807 24.446 9.63 51.265 9.505 75.645-.39 21.074-8.553 44.285-8.553 65.359 0 24.711 10.029 51.93 10.029 76.641 0 21.074-8.553 44.285-8.553 65.359 0 24.711 10.03 51.93 10.03 76.641 0 19.256-7.815 41.006-8.465 60.68-1.747zm-50.257-17.185c-8.102 1.827-15.55 5.231-23.453 7.645v-34.121h23.453c0-.001 0 26.476 0 26.476zm47.783-89.389v47.913h-327.487c-4.142 0-7.5 3.358-7.5 7.5s3.358 7.5 7.5 7.5h241.251v37.283c-14.44 1.739-29.162-.168-42.97-5.772-24.711-10.028-51.93-10.028-76.641 0-21.074 8.554-44.285 8.554-65.359 0-24.711-10.028-51.93-10.028-76.641 0-13.807 5.604-28.53 7.512-42.97 5.772v-37.283h33.417c4.142 0 7.5-3.358 7.5-7.5s-3.358-7.5-7.5-7.5h-119.652v-47.913zm-71.236-15v-190.52c0-1.143.93-2.073 2.072-2.073h19.308c1.143 0 2.073.93 2.073 2.073v190.52zm73.71-113.475c-12.265-4.411-24.248-9.821-35.257-16.835v-22.97c7.67 6.434 17.888 12.479 30.253 17.806 1.622.699 3.294 1.391 5.004 2.071 0-.001 0 19.928 0 19.928z"/></svg>