<svg id="Capa_1" enable-background="new 0 0 512 512" height="512" viewBox="0 0 512 512" width="512" xmlns="http://www.w3.org/2000/svg"><path d="m207.271 61.97 30.762 194.03-30.762 183.899c-353.449-213.289-162.7-455.729 0-377.929z" fill="#00cd8c"/><path d="m158.302 47.909c-1.049-.112-2.096-.209-3.142-.297-.137-.012-.274-.025-.412-.036-15.492-1.264-31.166.097-46.224 3.942-.054.014-.109.029-.163.043-35.283 9.167-66.363 33.001-83.958 64.976-8.605 15.638-13.974 33.064-15.967 50.789-5.091 45.284 11.489 90.162 36.015 127.579 28.372 43.282 67.421 78.958 108.978 109.321 17.382 12.7 35.413 24.551 53.842 35.673l2.865-17.128c-263.445-174.049-178.955-361.134-51.834-374.862z" fill="#00a45b"/><path d="m264.441 462.789c-5.27 2.82-11.61 2.82-16.88 0-14.15-7.58-27.57-15.22-40.29-22.89v-377.929c16.75 8.01 33.2 19.41 48.73 34.59 171.819-167.919 456.428 126.22 8.44 366.229z" fill="#f9496e"/><path d="m264.478 462.769c2.191-1.174 4.358-2.349 6.522-3.531-11.752-6.413-54.192-32.013-63.73-38.378v19.039c11.13 6.711 38.521 21.943 40.29 22.89 5.146 2.757 11.64 2.804 16.88 0 .013-.007.026-.014.038-.02z" fill="#e3254c"/><circle cx="207.276" cy="256" fill="#fab659" r="108.349"/><path d="m251.276 202.178h-88c-8.186 0-14.822 6.636-14.822 14.822v51c0 32.486 26.335 58.821 58.821 58.821 32.486 0 58.821-26.335 58.821-58.821v-51c.001-8.186-6.635-14.822-14.82-14.822z" fill="#e2e2e2"/><path d="m140.933 216.994v51.002c0 36.571 29.753 66.324 66.324 66.324s66.324-29.753 66.324-66.324v-51.002c0-12.309-10.014-22.323-22.323-22.323h-88.003c-12.308.001-22.322 10.015-22.322 22.323zm117.647 0v51.002c0 28.3-23.024 51.323-51.324 51.323s-51.323-23.023-51.323-51.323v-51.002c0-4.037 3.285-7.322 7.322-7.322h88.003c4.038 0 7.322 3.285 7.322 7.322z"/><path d="m189.674 253.496h10.082v31.601c0 4.142 3.358 7.5 7.5 7.5s7.5-3.358 7.5-7.5v-31.601h10.082c4.142 0 7.5-3.358 7.5-7.5s-3.358-7.5-7.5-7.5h-10.082v-11.601c0-4.142-3.358-7.5-7.5-7.5s-7.5 3.358-7.5 7.5v11.601h-10.082c-4.142 0-7.5 3.358-7.5 7.5s3.358 7.5 7.5 7.5z"/><path d="m471.329 82.231c-26.646-27.107-64.039-42.647-102.61-42.647-.033 0-.069 0-.103 0-40.466.029-79.27 16.128-112.634 46.645-14.147-12.927-29.423-23.352-45.498-31.039-53.927-25.784-114.817-19.255-158.909 17.039-3.198 2.632-3.656 7.359-1.024 10.558 2.632 3.198 7.359 3.656 10.558 1.024 38.39-31.6 91.121-37.972 138.643-17.044v73.615c-23.37 1.504-46.177 10.333-64.495 24.918-27.399 21.815-43.852 55.67-43.853 90.707 0 59.688 48.851 111.772 108.348 115.601v54.879c-53.974-33.804-97.043-69.92-128.131-107.466-29.128-35.178-47.257-70.88-53.883-106.113-7.603-40.43.802-79.055 23.669-108.761 2.527-3.282 1.914-7.992-1.368-10.518-3.283-2.528-7.992-1.915-10.518 1.368-25.51 33.138-34.93 75.998-26.526 120.684 7.102 37.761 26.303 75.748 57.071 112.907 34.321 41.449 82.537 81.061 143.313 117.736 12.999 7.838 26.666 15.603 40.626 23.081 3.751 2.007 7.863 3.01 11.978 3.01 4.114 0 8.231-1.004 11.983-3.012 52.676-28.221 97.845-58.62 134.251-90.353 3.123-2.722 3.448-7.46.726-10.582-2.722-3.123-7.459-3.448-10.582-.726-35.558 30.993-79.794 60.748-131.475 88.437-3.071 1.642-6.735 1.642-9.801.001-12.441-6.664-24.643-13.559-36.333-20.528v-64.044c.244-.016.485-.039.729-.056 59.323-4.167 107.615-56.195 107.629-115.558 0-60.456-48.405-111.277-108.395-115.619.894-21.078.037-65.196.037-65.996 12.656 7.294 24.722 16.522 35.989 27.534 2.915 2.849 7.571 2.849 10.485 0 31.654-30.935 68.793-47.302 107.401-47.329h.092c34.571 0 68.069 13.907 91.913 38.162 27.192 27.661 39.813 65.607 35.537 106.849-5.05 48.722-33.452 99.918-82.133 148.054-2.945 2.912-2.972 7.661-.06 10.607 2.912 2.944 7.66 2.973 10.607.06 111.445-110.197 103.781-218.066 46.746-276.085zm-234.263 77.906c40.119 13.425 71.043 52.277 71.043 95.858 0 55.61-45.241 100.851-100.855 100.853-54.918 0-100.85-45.962-100.85-100.852 0-65.64 67.737-116.914 130.662-95.859z"/></svg>